<svg width="32" height="32" viewBox="0 0 32 32" fill="none" xmlns="http://www.w3.org/2000/svg">
<path d="M8.5 11C8.5 10.1716 9.17157 9.5 10 9.5H22C22.8284 9.5 23.5 10.1716 23.5 11C23.5 11.8284 22.8284 12.5 22 12.5H10C9.17157 12.5 8.5 11.8284 8.5 11Z" fill="#808080"/>
<path d="M10 15.5C9.17157 15.5 8.5 16.1716 8.5 17C8.5 17.8284 9.17157 18.5 10 18.5H22C22.8284 18.5 23.5 17.8284 23.5 17C23.5 16.1716 22.8284 15.5 22 15.5H10Z" fill="#808080"/>
<path fill-rule="evenodd" clip-rule="evenodd" d="M1.5 7C1.5 3.96243 3.96243 1.5 7 1.5H25C28.0376 1.5 30.5 3.96243 30.5 7V21C30.5 24.0376 28.0376 26.5 25 26.5H20.8284C20.6958 26.5 20.5686 26.5527 20.4749 26.6464L17.0607 30.0607C16.7794 30.342 16.3978 30.5 16 30.5C15.6022 30.5 15.2206 30.342 14.9393 30.0607L11.5251 26.6464C11.4314 26.5527 11.3042 26.5 11.1716 26.5H7C3.96243 26.5 1.5 24.0376 1.5 21V7ZM7 4.5C5.61929 4.5 4.5 5.61929 4.5 7V21C4.5 22.3807 5.61929 23.5 7 23.5H11.1716C12.0998 23.5 12.9901 23.8687 13.6464 24.5251L16 26.8787L18.3536 24.5251C19.0099 23.8687 19.9002 23.5 20.8284 23.5H25C26.3807 23.5 27.5 22.3807 27.5 21V7C27.5 5.61929 26.3807 4.5 25 4.5H7Z" fill="#808080"/>
</svg>
