<svg width="32" height="32" viewBox="0 0 32 32" fill="none" xmlns="http://www.w3.org/2000/svg">
<path d="M8.5 10C8.5 9.17157 9.17157 8.5 10 8.5H22C22.8284 8.5 23.5 9.17157 23.5 10C23.5 10.8284 22.8284 11.5 22 11.5H10C9.17157 11.5 8.5 10.8284 8.5 10Z" fill="#808080"/>
<path d="M10 14.5C9.17157 14.5 8.5 15.1716 8.5 16C8.5 16.8284 9.17157 17.5 10 17.5H22C22.8284 17.5 23.5 16.8284 23.5 16C23.5 15.1716 22.8284 14.5 22 14.5H10Z" fill="#808080"/>
<path fill-rule="evenodd" clip-rule="evenodd" d="M1.5 7C1.5 3.96243 3.96243 1.5 7 1.5H25C28.0376 1.5 30.5 3.96243 30.5 7V19C30.5 22.0376 28.0376 24.5 25 24.5H9.82843C9.69582 24.5 9.56864 24.5527 9.47487 24.6464L4.06066 30.0607C3.63166 30.4897 2.98649 30.618 2.42597 30.3858C1.86546 30.1536 1.5 29.6067 1.5 29V7ZM7 4.5C5.61929 4.5 4.5 5.61929 4.5 7V25.3787L7.35355 22.5251C8.00993 21.8687 8.90017 21.5 9.82843 21.5H25C26.3807 21.5 27.5 20.3807 27.5 19V7C27.5 5.61929 26.3807 4.5 25 4.5H7Z" fill="#808080"/>
</svg>
