<svg width="32" height="32" viewBox="0 0 32 32" fill="none" xmlns="http://www.w3.org/2000/svg">
<path d="M7 4.5C5.61929 4.5 4.5 5.61929 4.5 7V21C4.5 22.3807 5.61929 23.5 7 23.5H11.1716C12.0998 23.5 12.9901 23.8687 13.6464 24.5251L16 26.8787L18.3536 24.5251C19.0099 23.8687 19.9002 23.5 20.8284 23.5H25C26.3807 23.5 27.5 22.3807 27.5 21V16C27.5 15.1716 28.1716 14.5 29 14.5C29.8284 14.5 30.5 15.1716 30.5 16V21C30.5 24.0376 28.0376 26.5 25 26.5H20.8284C20.6958 26.5 20.5686 26.5527 20.4749 26.6464L17.0607 30.0607C16.7794 30.342 16.3978 30.5 16 30.5C15.6022 30.5 15.2206 30.342 14.9393 30.0607L11.5251 26.6464C11.4314 26.5527 11.3042 26.5 11.1716 26.5H7C3.96243 26.5 1.5 24.0376 1.5 21V7C1.5 3.96243 3.96243 1.5 7 1.5H13C13.8284 1.5 14.5 2.17157 14.5 3C14.5 3.82843 13.8284 4.5 13 4.5H7Z" fill="#808080"/>
<path d="M19 2C18.4477 2 18 2.44772 18 3V6C18 6.55228 18.4477 7 19 7H21V8C21 8.55228 20.5523 9 20 9H19C18.4477 9 18 9.44772 18 10C18 10.5523 18.4477 11 19 11H20C21.6569 11 23 9.65685 23 8V3C23 2.44772 22.5523 2 22 2H19Z" fill="#808080"/>
<path d="M26 2C25.4477 2 25 2.44772 25 3V6C25 6.55228 25.4477 7 26 7H28V8C28 8.55228 27.5523 9 27 9H26C25.4477 9 25 9.44772 25 10C25 10.5523 25.4477 11 26 11H27C28.6569 11 30 9.65685 30 8V3C30 2.44772 29.5523 2 29 2H26Z" fill="#808080"/>
</svg>
