<svg width="32" height="32" viewBox="0 0 32 32" fill="none" xmlns="http://www.w3.org/2000/svg">
<path fill-rule="evenodd" clip-rule="evenodd" d="M16 2.5C11.8579 2.5 8.5 5.85786 8.5 10C8.5 12.1716 9.42297 14.1277 10.898 15.4973C7.32002 16.959 4.51056 19.9119 3.24001 23.5817C2.68103 25.1962 3.13959 26.7411 4.11506 27.8233C5.06344 28.8755 6.49209 29.5 7.99997 29.5H15C15.8284 29.5 16.5 28.8284 16.5 28C16.5 27.1716 15.8284 26.5 15 26.5H7.99997C7.29871 26.5 6.69474 26.2045 6.34345 25.8148C6.01926 25.4551 5.91114 25.0362 6.07491 24.5632C7.49895 20.45 11.4069 17.5 16 17.5C20.1421 17.5 23.5 14.1421 23.5 10C23.5 5.85786 20.1421 2.5 16 2.5ZM11.5 10C11.5 7.51472 13.5147 5.5 16 5.5C18.4853 5.5 20.5 7.51472 20.5 10C20.5 12.4853 18.4853 14.5 16 14.5C13.5147 14.5 11.5 12.4853 11.5 10Z" fill="#808080"/>
<path d="M28.0607 18.9393C28.6464 19.5251 28.6464 20.4749 28.0607 21.0607L25.6213 23.5L28.0607 25.9393C28.6464 26.5251 28.6464 27.4749 28.0607 28.0607C27.4749 28.6464 26.5251 28.6464 25.9393 28.0607L23.5 25.6213L21.0607 28.0607C20.4749 28.6464 19.5251 28.6464 18.9393 28.0607C18.3536 27.4749 18.3536 26.5251 18.9393 25.9393L21.3787 23.5L18.9393 21.0607C18.3536 20.4749 18.3536 19.5251 18.9393 18.9393C19.5251 18.3536 20.4749 18.3536 21.0607 18.9393L23.5 21.3787L25.9393 18.9393C26.5251 18.3536 27.4749 18.3536 28.0607 18.9393Z" fill="#808080"/>
</svg>
