<svg width="32" height="32" viewBox="0 0 32 32" fill="none" xmlns="http://www.w3.org/2000/svg">
<path d="M26 4C26 3.44772 25.5523 3 25 3C24.4477 3 24 3.44772 24 4V6H22C21.4477 6 21 6.44772 21 7C21 7.55228 21.4477 8 22 8H24V10C24 10.5523 24.4477 11 25 11C25.5523 11 26 10.5523 26 10V8H28C28.5523 8 29 7.55228 29 7C29 6.44772 28.5523 6 28 6H26V4Z" fill="#808080"/>
<path fill-rule="evenodd" clip-rule="evenodd" d="M10 10C8.34315 10 7 11.3431 7 13C7 14.6569 8.34315 16 10 16C11.6569 16 13 14.6569 13 13C13 11.3431 11.6569 10 10 10ZM9 13C9 12.4477 9.44771 12 10 12C10.5523 12 11 12.4477 11 13C11 13.5523 10.5523 14 10 14C9.44771 14 9 13.5523 9 13Z" fill="#808080"/>
<path fill-rule="evenodd" clip-rule="evenodd" d="M2 8C2 6.34315 3.34315 5 5 5H13.1716C13.9672 5 14.7303 5.31607 15.2929 5.87868L26.2929 16.8787C27.4645 18.0503 27.4645 19.9497 26.2929 21.1213L18.1213 29.2929C16.9497 30.4645 15.0502 30.4645 13.8787 29.2929L2.87868 18.2929C2.31607 17.7303 2 16.9672 2 16.1716V8ZM5 7C4.44772 7 4 7.44772 4 8V16.1716C4 16.4368 4.10536 16.6911 4.29289 16.8787L15.2929 27.8787C15.6834 28.2692 16.3166 28.2692 16.7071 27.8787L24.8787 19.7071C25.2692 19.3166 25.2692 18.6834 24.8787 18.2929L13.8787 7.29289C13.6911 7.10536 13.4368 7 13.1716 7H5Z" fill="#808080"/>
</svg>
