<svg width="32" height="32" viewBox="0 0 32 32" fill="none" xmlns="http://www.w3.org/2000/svg">
<path d="M16.28 18.76H9.78L8.76 21.22C8.6 21.62 8.4 21.88 8.16 22C7.93333 22.12 7.71333 22.18 7.5 22.18C7.15333 22.18 6.85333 22.0733 6.6 21.86C6.36 21.6333 6.24 21.3267 6.24 20.94C6.24 20.8333 6.25333 20.7267 6.28 20.62C6.30667 20.5 6.35333 20.36 6.42 20.2L11.52 8.86C11.64 8.59333 11.7667 8.38 11.9 8.22C12.0333 8.06 12.1667 7.94 12.3 7.86C12.4333 7.78 12.5667 7.72667 12.7 7.7C12.8333 7.67333 12.96 7.66 13.08 7.66C13.2 7.66 13.3267 7.67333 13.46 7.7C13.5933 7.72667 13.7267 7.78 13.86 7.86C14.0067 7.94 14.1467 8.06 14.28 8.22C14.4133 8.38 14.54 8.59333 14.66 8.86L19.72 20.16C19.7867 20.32 19.8267 20.46 19.84 20.58C19.8667 20.7 19.88 20.8 19.88 20.88C19.88 21.2933 19.7467 21.6133 19.48 21.84C19.2267 22.0667 18.9267 22.18 18.58 22.18C18.3667 22.18 18.14 22.12 17.9 22C17.6733 21.88 17.4733 21.6133 17.3 21.2L16.28 18.76ZM10.68 16.6H15.4L13.06 10.92L10.68 16.6Z" fill="#808080"/>
<path d="M25.08 20.76C25.08 21.0667 25.0333 21.3133 24.94 21.5C24.8467 21.6733 24.7333 21.8133 24.6 21.92C24.48 22.0267 24.3467 22.0933 24.2 22.12C24.0533 22.16 23.9267 22.18 23.82 22.18C23.7133 22.18 23.5867 22.16 23.44 22.12C23.2933 22.0933 23.1533 22.0267 23.02 21.92C22.9 21.8133 22.7933 21.6733 22.7 21.5C22.6067 21.3133 22.56 21.0667 22.56 20.76V9.08C22.56 8.78667 22.6067 8.54667 22.7 8.36C22.7933 8.17333 22.9 8.02667 23.02 7.92C23.1533 7.81333 23.2933 7.74667 23.44 7.72C23.5867 7.68 23.7133 7.66 23.82 7.66C23.9267 7.66 24.0533 7.68 24.2 7.72C24.3467 7.74667 24.48 7.81333 24.6 7.92C24.7333 8.02667 24.8467 8.17333 24.94 8.36C25.0333 8.54667 25.08 8.78667 25.08 9.08V20.76Z" fill="#808080"/>
</svg>
