<svg width="32" height="32" viewBox="0 0 32 32" fill="none" xmlns="http://www.w3.org/2000/svg">
<path d="M14.9522 4.04506C15.2972 4.01524 15.6467 4 16 4C22.6274 4 28 9.37258 28 16C28 22.6274 22.6274 28 16 28C15.6467 28 15.2972 27.9848 14.9522 27.9549C14.4019 27.9074 13.9173 28.3149 13.8698 28.8651C13.8222 29.4154 14.2298 29.9 14.78 29.9475C15.1823 29.9823 15.5892 30 16 30C23.732 30 30 23.732 30 16C30 8.26801 23.732 2 16 2C15.5892 2 15.1823 2.01772 14.78 2.05248C14.2298 2.10003 13.8222 2.58462 13.8698 3.13486C13.9173 3.68509 14.4019 4.0926 14.9522 4.04506Z" fill="#808080"/>
<path d="M11.4106 3.79199C11.1769 3.29161 10.5818 3.07544 10.0814 3.30918C9.33925 3.65584 8.63272 4.06557 7.96869 4.53138C7.51656 4.84855 7.40715 5.47219 7.72431 5.92432C8.04148 6.37646 8.66512 6.48587 9.11725 6.1687C9.68667 5.76926 10.2922 5.41815 10.9278 5.12124C11.4282 4.8875 11.6444 4.29238 11.4106 3.79199Z" fill="#808080"/>
<path d="M5.92432 7.72431C5.47219 7.40715 4.84855 7.51656 4.53138 7.96869C4.06557 8.63272 3.65584 9.33925 3.30918 10.0814C3.07544 10.5818 3.29161 11.1769 3.79199 11.4106C4.29238 11.6444 4.8875 11.4282 5.12124 10.9278C5.41815 10.2922 5.76926 9.68667 6.1687 9.11725C6.48587 8.66512 6.37646 8.04148 5.92432 7.72431Z" fill="#808080"/>
<path d="M3.13486 13.8698C2.58462 13.8222 2.10003 14.2298 2.05248 14.78C2.01772 15.1823 2 15.5892 2 16C2 16.4108 2.01772 16.8177 2.05248 17.22C2.10003 17.7702 2.58462 18.1778 3.13486 18.1302C3.68509 18.0827 4.0926 17.5981 4.04506 17.0478C4.01524 16.7028 4 16.3533 4 16C4 15.6467 4.01524 15.2972 4.04506 14.9522C4.0926 14.4019 3.68509 13.9173 3.13486 13.8698Z" fill="#808080"/>
<path d="M3.79199 20.5894C3.29161 20.8231 3.07544 21.4182 3.30918 21.9186C3.65584 22.6608 4.06557 23.3673 4.53138 24.0313C4.84855 24.4834 5.47219 24.5929 5.92432 24.2757C6.37646 23.9585 6.48587 23.3349 6.1687 22.8827C5.76926 22.3133 5.41815 21.7078 5.12124 21.0722C4.8875 20.5718 4.29238 20.3556 3.79199 20.5894Z" fill="#808080"/>
<path d="M7.72431 26.0757C7.40715 26.5278 7.51656 27.1514 7.96869 27.4686C8.63272 27.9344 9.33925 28.3442 10.0814 28.6908C10.5818 28.9246 11.1769 28.7084 11.4106 28.208C11.6444 27.7076 11.4282 27.1125 10.9278 26.8788C10.2922 26.5818 9.68667 26.2307 9.11725 25.8313C8.66512 25.5141 8.04148 25.6235 7.72431 26.0757Z" fill="#808080"/>
<path d="M21.7071 13.7071C22.0976 13.3166 22.0976 12.6834 21.7071 12.2929C21.3166 11.9024 20.6834 11.9024 20.2929 12.2929L14 18.5858L11.7071 16.2929C11.3166 15.9024 10.6834 15.9024 10.2929 16.2929C9.90237 16.6834 9.90237 17.3166 10.2929 17.7071L13.2929 20.7071C13.6834 21.0976 14.3166 21.0976 14.7071 20.7071L21.7071 13.7071Z" fill="#808080"/>
</svg>
