<svg width="32" height="32" viewBox="0 0 32 32" fill="none" xmlns="http://www.w3.org/2000/svg">
<path fill-rule="evenodd" clip-rule="evenodd" d="M2 22C2 24.7608 4.23617 27 6.99819 27H25.0018C27.7638 27 30 24.7608 30 22V14C30 13.6865 29.8557 13.4067 29.63 13.2234C29.5622 13.0997 29.4854 12.9805 29.4 12.8667L24.4 6.2C23.8334 5.44458 22.9443 5 22 5H10C9.05573 5 8.16656 5.44458 7.6 6.2L2.6 12.8667C2.51462 12.9805 2.43785 13.0997 2.37 13.2234C2.14425 13.4067 2 13.6865 2 14V22ZM22.8 7.4L27 13H20.9C20.9003 13.0016 20.9006 13.0032 20.901 13.0048C20.3952 13.0546 20 13.4811 20 14C20 16.2091 18.2091 18 16 18C13.7909 18 12 16.2091 12 14C12 13.4811 11.6048 13.0546 11.099 13.0048C11.0994 13.0032 11.0997 13.0016 11.1 13H5L9.2 7.4C9.38885 7.14819 9.68524 7 10 7H22C22.3148 7 22.6111 7.14819 22.8 7.4ZM10.083 15H4V22C4 23.6574 5.34192 25 6.99819 25H25.0018C26.6581 25 28 23.6574 28 22V15H21.917C21.441 17.8377 18.973 20 16 20C13.027 20 10.559 17.8377 10.083 15Z" fill="#717171"/>
</svg>
