<svg width="32" height="32" viewBox="0 0 32 32" fill="none" xmlns="http://www.w3.org/2000/svg">
<path d="M9 21C9.55229 21 10 20.5523 10 20V18C10 17.4477 9.55229 17 9 17C8.44772 17 8 17.4477 8 18V20C8 20.5523 8.44772 21 9 21Z" fill="#717171"/>
<path d="M10 14C10 14.5523 9.55229 15 9 15C8.44772 15 8 14.5523 8 14V12C8 11.4477 8.44772 11 9 11C9.55229 11 10 11.4477 10 12V14Z" fill="#717171"/>
<path d="M17.7071 20.7071C17.3166 21.0976 16.6834 21.0976 16.2929 20.7071L12.2929 16.7071C11.9024 16.3166 11.9024 15.6834 12.2929 15.2929L16.2929 11.2929C16.6834 10.9024 17.3166 10.9024 17.7071 11.2929C18.0976 11.6834 18.0976 12.3166 17.7071 12.7071L15.4142 15H25C25.5523 15 26 15.4477 26 16C26 16.5523 25.5523 17 25 17H15.4142L17.7071 19.2929C18.0976 19.6834 18.0976 20.3166 17.7071 20.7071Z" fill="#717171"/>
<path fill-rule="evenodd" clip-rule="evenodd" d="M7 28C4.23858 28 2 25.7614 2 23V9C2 6.23858 4.23858 4 7 4H25C27.7614 4 30 6.23858 30 9V23C30 25.7614 27.7614 28 25 28H7ZM4 23C4 24.6569 5.34315 26 7 26H8V24C8 23.4477 8.44772 23 9 23C9.55229 23 10 23.4477 10 24V26H25C26.6569 26 28 24.6569 28 23V9C28 7.34315 26.6569 6 25 6H10V8C10 8.55228 9.55229 9 9 9C8.44772 9 8 8.55228 8 8V6H7C5.34315 6 4 7.34315 4 9V23Z" fill="#717171"/>
</svg>
