<svg width="32" height="32" viewBox="0 0 32 32" fill="none" xmlns="http://www.w3.org/2000/svg">
<path d="M24 12C24 11.4477 23.5523 11 23 11C22.4477 11 22 11.4477 22 12V14C22 14.5523 22.4477 15 23 15C23.5523 15 24 14.5523 24 14V12Z" fill="#717171"/>
<path d="M23 17C23.5523 17 24 17.4477 24 18V20C24 20.5523 23.5523 21 23 21C22.4477 21 22 20.5523 22 20V18C22 17.4477 22.4477 17 23 17Z" fill="#717171"/>
<path d="M15.7071 11.2929C15.3166 10.9024 14.6834 10.9024 14.2929 11.2929C13.9024 11.6834 13.9024 12.3166 14.2929 12.7071L16.5858 15H7C6.44772 15 6 15.4477 6 16C6 16.5523 6.44772 17 7 17H16.5858L14.2929 19.2929C13.9024 19.6834 13.9024 20.3166 14.2929 20.7071C14.6834 21.0976 15.3166 21.0976 15.7071 20.7071L19.7071 16.7071C19.9024 16.5118 20 16.2559 20 16C20 15.8644 19.973 15.7351 19.9241 15.6172C19.8753 15.4993 19.803 15.3888 19.7071 15.2929L15.7071 11.2929Z" fill="#717171"/>
<path fill-rule="evenodd" clip-rule="evenodd" d="M7 4C4.23858 4 2 6.23858 2 9V23C2 25.7614 4.23858 28 7 28H25C27.7614 28 30 25.7614 30 23V9C30 6.23858 27.7614 4 25 4H7ZM4 9C4 7.34315 5.34315 6 7 6H22V8C22 8.55229 22.4477 9 23 9C23.5523 9 24 8.55228 24 8V6H25C26.6569 6 28 7.34315 28 9V23C28 24.6569 26.6569 26 25 26H24V24C24 23.4477 23.5523 23 23 23C22.4477 23 22 23.4477 22 24V26H7C5.34315 26 4 24.6569 4 23V9Z" fill="#717171"/>
</svg>
