<svg width="32" height="32" viewBox="0 0 32 32" fill="none" xmlns="http://www.w3.org/2000/svg">
<path fill-rule="evenodd" clip-rule="evenodd" d="M30 16C30 23.732 23.732 30 16 30C8.26801 30 2 23.732 2 16C2 8.26801 8.26801 2 16 2C23.732 2 30 8.26801 30 16ZM14.7071 20.7071C14.3166 21.0976 13.6834 21.0976 13.2929 20.7071L9.29389 16.7081L9.28639 16.7006C9.19374 16.6062 9.12357 16.4981 9.07588 16.3828C9.02773 16.2667 9.00082 16.1395 9.00002 16.0062L9 16L9.00002 15.9936C9.00163 15.7398 9.09926 15.4865 9.29289 15.2929L13.2929 11.2929C13.6834 10.9024 14.3166 10.9024 14.7071 11.2929C15.0976 11.6834 15.0976 12.3166 14.7071 12.7071L12.4142 15L22 15C22.5523 15 23 15.4477 23 16C23 16.5523 22.5523 17 22 17L12.4142 17L14.7071 19.2929C15.0976 19.6834 15.0976 20.3166 14.7071 20.7071Z" fill="#717171"/>
</svg>
