<svg width="32" height="32" viewBox="0 0 32 32" fill="none" xmlns="http://www.w3.org/2000/svg">
<path fill-rule="evenodd" clip-rule="evenodd" d="M15.1998 2C12.9116 2 11.0508 3.8298 11.0008 6.10597C7.03183 6.74383 4 10.1845 4 14.3333V25.3333C4 27.9107 6.08934 30 8.66667 30H23.3328C25.9102 30 27.9995 27.9107 27.9995 25.3334L27.9998 14.3333C27.9996 10.1845 24.9677 6.74381 20.9987 6.10596C20.9487 3.8298 19.0879 2 16.7998 2H15.1998ZM15.1998 4C14.0521 4 13.1098 4.8787 13.0087 6H18.9908C18.8897 4.8787 17.9474 4 16.7998 4H15.1998ZM25.9998 14.3334L25.9995 25.3333C25.9995 26.5758 25.1498 27.6198 23.9998 27.9159V21C23.9998 18.2386 21.7612 16 18.9998 16H12.9998C10.2383 16 7.99975 18.2386 7.99975 21V27.9159C6.84973 27.6198 6 26.5758 6 25.3333V14.3333C6 10.8355 8.83553 8 12.3333 8H19.6662C23.164 8 25.9996 10.8355 25.9998 14.3334ZM12.9998 18C11.6935 18 10.5823 18.8348 10.1705 20H21.829C21.4172 18.8348 20.306 18 18.9998 18H12.9998ZM17.9998 22V24C17.9998 24.5523 18.4475 25 18.9998 25C19.552 25 19.9998 24.5523 19.9998 24V22H21.9998V28H9.99975V22H17.9998Z" fill="#808080"/>
</svg>
