<svg width="32" height="32" viewBox="0 0 32 32" fill="none" xmlns="http://www.w3.org/2000/svg">
<path fill-rule="evenodd" clip-rule="evenodd" d="M16 3C10.4772 3 6 7.47715 6 13V23H5C4.44772 23 4 23.4477 4 24C4 24.5523 4.44772 25 5 25H11.1009C11.5668 27.2765 13.59 29 16 29C18.41 29 20.4332 27.2765 20.8991 25H27C27.5523 25 28 24.5523 28 24C28 23.4477 27.5523 23 27 23H26V13C26 7.47715 21.5228 3 16 3ZM16 27C14.7023 27 13.5879 26.1612 13.173 25H18.827C18.4121 26.1612 17.2977 27 16 27ZM24 23V13C24 8.58172 20.4183 5 16 5C11.5817 5 8 8.58172 8 13V23H24Z" fill="#717171"/>
<path d="M7.34069 4.6924C7.72309 4.29392 7.71005 3.66089 7.31157 3.27849C6.91309 2.89609 6.28006 2.90912 5.89766 3.3076C4.70882 4.54642 3.74519 6.00415 3.07339 7.61511C2.86082 8.12485 3.10172 8.71039 3.61146 8.92296C4.1212 9.13553 4.70674 8.89463 4.91932 8.38489C5.49458 7.00543 6.32047 5.75552 7.34069 4.6924Z" fill="#717171"/>
<path d="M26.1024 3.3076C25.72 2.90912 25.087 2.89609 24.6885 3.27849C24.29 3.66089 24.277 4.29392 24.6594 4.6924C25.6796 5.75552 26.5055 7.00543 27.0807 8.38489C27.2933 8.89463 27.8789 9.13553 28.3886 8.92296C28.8983 8.71039 29.1392 8.12485 28.9267 7.61511C28.2549 6.00415 27.2912 4.54642 26.1024 3.3076Z" fill="#717171"/>
</svg>
