<svg width="32" height="32" viewBox="0 0 32 32" fill="none" xmlns="http://www.w3.org/2000/svg">
<path fill-rule="evenodd" clip-rule="evenodd" d="M6.75854 9.17275C6.26977 10.3517 6 11.6443 6 13V23H5C4.44772 23 4 23.4477 4 24C4 24.5523 4.44772 25 5 25H11.1009C11.5668 27.2765 13.59 29 16 29C18.41 29 20.4332 27.2765 20.8991 25H22.5858L25.2852 27.6994C25.6757 28.0899 26.3089 28.0899 26.6994 27.6994C27.0899 27.3088 27.0899 26.6757 26.6994 26.2851L4.70711 4.29289C4.31658 3.90237 3.68342 3.90237 3.29289 4.29289C2.90237 4.68342 2.90237 5.31658 3.29289 5.70711L6.75854 9.17275ZM8.32416 10.7384C8.1132 11.4555 8 12.2145 8 13V23H20.5858L8.32416 10.7384ZM24 19.8787V13C24 8.58172 20.4183 5 16 5C14.0764 5 12.3114 5.6789 10.9315 6.81017L9.51172 5.39039C11.2582 3.89987 13.524 3 16 3C21.5228 3 26 7.47715 26 13V21.8787L24 19.8787ZM13.173 25C13.5879 26.1612 14.7023 27 16 27C17.2977 27 18.4121 26.1612 18.827 25H13.173Z" fill="#717171"/>
</svg>
