<svg width="32" height="32" viewBox="0 0 32 32" fill="none" xmlns="http://www.w3.org/2000/svg">
<path fill-rule="evenodd" clip-rule="evenodd" d="M6 13C6 7.47715 10.4772 3 16 3C21.5228 3 26 7.47715 26 13V23H27C27.5523 23 28 23.4477 28 24C28 24.5523 27.5523 25 27 25H20.8991C20.4332 27.2765 18.41 29 16 29C13.59 29 11.5668 27.2765 11.1009 25H5C4.44772 25 4 24.5523 4 24C4 23.4477 4.44772 23 5 23H6V13ZM13.173 25C13.5879 26.1612 14.7023 27 16 27C17.2977 27 18.4121 26.1612 18.827 25H13.173ZM24 13V23H8V13C8 8.58172 11.5817 5 16 5C20.4183 5 24 8.58172 24 13Z" fill="#808080"/>
</svg>
