<svg width="32" height="32" viewBox="0 0 32 32" fill="none" xmlns="http://www.w3.org/2000/svg">
<path fill-rule="evenodd" clip-rule="evenodd" d="M7 20.8769V16.5C7 15.3954 7.89543 14.5 9 14.5H12.4737V5.52632C12.4737 3.57879 14.0525 2 16 2C17.9475 2 19.5263 3.57879 19.5263 5.52632V14.5H23C24.1046 14.5 25 15.3954 25 16.5V20.8769L26.9702 28.7575C27.0448 29.0562 26.9777 29.3727 26.7882 29.6154C26.5987 29.8581 26.3079 30 26 30H6.00001C5.69207 30 5.40131 29.8581 5.2118 29.6154C5.0223 29.3727 4.95518 29.0562 5.02987 28.7575L7 20.8769ZM14.4737 5.52632C14.4737 4.68335 15.157 4 16 4C16.843 4 17.5263 4.68335 17.5263 5.52632V15.5C17.5263 16.0523 17.974 16.5 18.5263 16.5H23V20H9V16.5H13.4737C14.026 16.5 14.4737 16.0523 14.4737 15.5V5.52632ZM20 28V25C20 24.4477 19.5523 24 19 24C18.4477 24 18 24.4477 18 25V28H14V25C14 24.4477 13.5523 24 13 24C12.4477 24 12 24.4477 12 25V28H7.28079L8.78079 22H23.2192L24.7192 28H20Z" fill="#808080"/>
</svg>
