<svg width="32" height="32" viewBox="0 0 32 32" fill="none" xmlns="http://www.w3.org/2000/svg">
<path fill-rule="evenodd" clip-rule="evenodd" d="M11 3C11 2.44772 10.5523 2 10 2C9.44772 2 9 2.44772 9 3V4H8C5.23858 4 3 6.23858 3 9V25C3 27.7614 5.23858 30 8 30H24C26.7614 30 29 27.7614 29 25V9C29 6.23858 26.7614 4 24 4H23V3C23 2.44772 22.5523 2 22 2C21.4477 2 21 2.44772 21 3V4H11V3ZM21 7V6H11V7C11 7.55229 10.5523 8 10 8C9.44772 8 9 7.55229 9 7V6H8C6.34315 6 5 7.34315 5 9V10H27V9C27 7.34315 25.6569 6 24 6H23V7C23 7.55229 22.5523 8 22 8C21.4477 8 21 7.55229 21 7ZM27 12H5V25C5 26.6569 6.34315 28 8 28H24C25.6569 28 27 26.6569 27 25V12Z" fill="#808080"/>
</svg>
