<svg width="32" height="32" viewBox="0 0 32 32" fill="none" xmlns="http://www.w3.org/2000/svg">
<path fill-rule="evenodd" clip-rule="evenodd" d="M3 8C3 5.23858 5.23858 3 8 3H24C26.7614 3 29 5.23858 29 8V20C29 22.7614 26.7614 25 24 25H20.4075C20.1192 25 19.8448 25.1245 19.655 25.3415L16.7526 28.6585C16.5627 28.8755 16.2884 29 16 29C15.7116 29 15.4373 28.8755 15.2474 28.6585L12.345 25.3415C12.1552 25.1245 11.8808 25 11.5925 25H8C5.23858 25 3 22.7614 3 20V8ZM8 5C6.34315 5 5 6.34315 5 8V20C5 21.6569 6.34315 23 8 23H11.5925C12.4576 23 13.2805 23.3734 13.8502 24.0245L16 26.4814L18.1498 24.0245C18.7195 23.3734 19.5424 23 20.4075 23H24C25.6569 23 27 21.6569 27 20V8C27 6.34315 25.6569 5 24 5H8Z" fill="#808080"/>
<path fill-rule="evenodd" clip-rule="evenodd" d="M10 12C10 11.4477 10.4477 11 11 11H21C21.5523 11 22 11.4477 22 12C22 12.5523 21.5523 13 21 13H11C10.4477 13 10 12.5523 10 12Z" fill="#808080"/>
<path fill-rule="evenodd" clip-rule="evenodd" d="M10 17C10 16.4477 10.4477 16 11 16H21C21.5523 16 22 16.4477 22 17C22 17.5523 21.5523 18 21 18H11C10.4477 18 10 17.5523 10 17Z" fill="#808080"/>
</svg>
