<svg width="32" height="32" viewBox="0 0 32 32" fill="none" xmlns="http://www.w3.org/2000/svg">
<path fill-rule="evenodd" clip-rule="evenodd" d="M3 8C3 5.23858 5.23858 3 8 3H24C26.7614 3 29 5.23858 29 8V19C29 21.7614 26.7614 24 24 24H9.82843C9.56321 24 9.30886 24.1054 9.12132 24.2929L4.70711 28.7071C4.42111 28.9931 3.99099 29.0787 3.61732 28.9239C3.24364 28.7691 3 28.4045 3 28V8ZM8 5C6.34315 5 5 6.34315 5 8V25.5858L7.70711 22.8787C8.26972 22.3161 9.03278 22 9.82843 22H24C25.6569 22 27 20.6569 27 19V8C27 6.34315 25.6569 5 24 5H8Z" fill="#808080"/>
<path fill-rule="evenodd" clip-rule="evenodd" d="M10 11C10 10.4477 10.4477 10 11 10H21C21.5523 10 22 10.4477 22 11C22 11.5523 21.5523 12 21 12H11C10.4477 12 10 11.5523 10 11Z" fill="#808080"/>
<path fill-rule="evenodd" clip-rule="evenodd" d="M10 16C10 15.4477 10.4477 15 11 15H21C21.5523 15 22 15.4477 22 16C22 16.5523 21.5523 17 21 17H11C10.4477 17 10 16.5523 10 16Z" fill="#808080"/>
</svg>
