<svg width="32" height="32" viewBox="0 0 32 32" fill="none" xmlns="http://www.w3.org/2000/svg">
<path fill-rule="evenodd" clip-rule="evenodd" d="M8 5C6.34315 5 5 6.34315 5 8V20C5 21.6569 6.34315 23 8 23H11.5925C12.4576 23 13.2805 23.3734 13.8502 24.0245L16 26.4814L18.1498 24.0245C18.7195 23.3734 19.5424 23 20.4075 23H24C25.6569 23 27 21.6569 27 20V16C27 15.4477 27.4477 15 28 15C28.5523 15 29 15.4477 29 16V20C29 22.7614 26.7614 25 24 25H20.4075C20.1192 25 19.8448 25.1245 19.655 25.3415L16.7526 28.6585C16.5627 28.8755 16.2884 29 16 29C15.7116 29 15.4373 28.8755 15.2474 28.6585L12.345 25.3415C12.1552 25.1245 11.8808 25 11.5925 25H8C5.23858 25 3 22.7614 3 20V8C3 5.23858 5.23858 3 8 3H14C14.5523 3 15 3.44772 15 4C15 4.55228 14.5523 5 14 5H8ZM19 3C18.4477 3 18 3.44772 18 4V7C18 7.55228 18.4477 8 19 8H21V9C21 9.55228 20.5523 10 20 10H19C18.4477 10 18 10.4477 18 11C18 11.5523 18.4477 12 19 12H20C21.6569 12 23 10.6569 23 9V7V6V4C23 3.44772 22.5523 3 22 3H19ZM26 3C25.4477 3 25 3.44772 25 4V7C25 7.55228 25.4477 8 26 8H28V9C28 9.55228 27.5523 10 27 10H26C25.4477 10 25 10.4477 25 11C25 11.5523 25.4477 12 26 12H27C28.6569 12 30 10.6569 30 9V7V6V4C30 3.44772 29.5523 3 29 3H26Z" fill="#808080"/>
</svg>
