<svg width="32" height="32" viewBox="0 0 32 32" fill="none" xmlns="http://www.w3.org/2000/svg">
<path d="M23 13.5C23 14.3284 22.3284 15 21.5 15C20.6716 15 20 14.3284 20 13.5C20 12.6716 20.6716 12 21.5 12C22.3284 12 23 12.6716 23 13.5Z" fill="#808080"/>
<path d="M10.5 15C11.3284 15 12 14.3284 12 13.5C12 12.6716 11.3284 12 10.5 12C9.67158 12 9 12.6716 9 13.5C9 14.3284 9.67158 15 10.5 15Z" fill="#808080"/>
<path d="M17.5 13.5C17.5 14.3284 16.8284 15 16 15C15.1716 15 14.5 14.3284 14.5 13.5C14.5 12.6716 15.1716 12 16 12C16.8284 12 17.5 12.6716 17.5 13.5Z" fill="#808080"/>
<path fill-rule="evenodd" clip-rule="evenodd" d="M8 3C5.23858 3 3 5.23858 3 8V28C3 28.4045 3.24364 28.7691 3.61732 28.9239C3.99099 29.0787 4.42111 28.9931 4.70711 28.7071L9.12132 24.2929C9.30886 24.1054 9.56321 24 9.82843 24H24C26.7614 24 29 21.7614 29 19V8C29 5.23858 26.7614 3 24 3H8ZM5 8C5 6.34315 6.34315 5 8 5H24C25.6569 5 27 6.34315 27 8V19C27 20.6569 25.6569 22 24 22H9.82843C9.03278 22 8.26972 22.3161 7.70711 22.8787L5 25.5858V8Z" fill="#808080"/>
</svg>
