<svg width="32" height="32" viewBox="0 0 32 32" fill="none" xmlns="http://www.w3.org/2000/svg">
<path fill-rule="evenodd" clip-rule="evenodd" d="M8 3C5.23858 3 3 5.23858 3 8V22C3 22.4045 3.24364 22.7691 3.61732 22.9239C3.99099 23.0787 4.42111 22.9931 4.70711 22.7071L7.87132 19.5429C8.05886 19.3554 8.31321 19.25 8.57843 19.25H9V20.25C9 23.0114 11.2386 25.25 14 25.25H23.4216C23.6868 25.25 23.9411 25.3554 24.1287 25.5429L27.2929 28.7071C27.5789 28.9931 28.009 29.0787 28.3827 28.9239C28.7564 28.7691 29 28.4045 29 28V14C29 11.2386 26.7614 9 24 9H23V8C23 5.23858 20.7614 3 18 3H8ZM23 11V14.25C23 17.0114 20.7614 19.25 18 19.25H11V20.25C11 21.9069 12.3431 23.25 14 23.25H23.4216C24.2172 23.25 24.9803 23.5661 25.5429 24.1287L27 25.5858V14C27 12.3431 25.6569 11 24 11H23ZM5 8C5 6.34315 6.34315 5 8 5H18C19.6569 5 21 6.34315 21 8V14.25C21 15.9069 19.6569 17.25 18 17.25H8.57843C7.78278 17.25 7.01972 17.5661 6.45711 18.1287L5 19.5858V8Z" fill="#717171"/>
</svg>
