<svg width="32" height="32" viewBox="0 0 32 32" fill="none" xmlns="http://www.w3.org/2000/svg">
<path d="M23 13.5C23 14.3284 22.3284 15 21.5 15C20.6716 15 20 14.3284 20 13.5C20 12.6716 20.6716 12 21.5 12C22.3284 12 23 12.6716 23 13.5Z" fill="#808080"/>
<path d="M10.5 15C11.3284 15 12 14.3284 12 13.5C12 12.6716 11.3284 12 10.5 12C9.67158 12 9 12.6716 9 13.5C9 14.3284 9.67158 15 10.5 15Z" fill="#808080"/>
<path d="M17.5 13.5C17.5 14.3284 16.8284 15 16 15C15.1716 15 14.5 14.3284 14.5 13.5C14.5 12.6716 15.1716 12 16 12C16.8284 12 17.5 12.6716 17.5 13.5Z" fill="#808080"/>
<path fill-rule="evenodd" clip-rule="evenodd" d="M8 3C5.23858 3 3 5.23858 3 8V20C3 22.7614 5.23858 25 8 25H11.5925C11.8808 25 12.1552 25.1245 12.345 25.3415L15.2474 28.6585C15.4373 28.8755 15.7116 29 16 29C16.2884 29 16.5627 28.8755 16.7526 28.6585L19.655 25.3415C19.8448 25.1245 20.1192 25 20.4075 25H24C26.7614 25 29 22.7614 29 20V8C29 5.23858 26.7614 3 24 3H8ZM5 8C5 6.34315 6.34315 5 8 5H24C25.6569 5 27 6.34315 27 8V20C27 21.6569 25.6569 23 24 23H20.4075C19.5424 23 18.7195 23.3734 18.1498 24.0245L16 26.4814L13.8502 24.0245C13.2805 23.3734 12.4576 23 11.5925 23H8C6.34315 23 5 21.6569 5 20V8Z" fill="#808080"/>
</svg>
