<svg width="32" height="32" viewBox="0 0 32 32" fill="none" xmlns="http://www.w3.org/2000/svg">
<path d="M8.45002 8C12.7608 3.92738 19.5576 4.00132 23.7782 8.22182C25.9262 10.3699 27 13.1833 27 16C27 18.8167 25.9262 21.6301 23.7782 23.7782C19.4824 28.0739 12.5176 28.0739 8.22181 23.7782C6.07373 21.6301 5 18.8167 5 16C5 15.4477 4.55228 15 4 15C3.44772 15 3 15.4477 3 16C3 19.3254 4.26938 22.6542 6.80759 25.1924C11.8844 30.2692 20.1156 30.2692 25.1924 25.1924C27.7306 22.6542 29 19.3254 29 16C29 12.6746 27.7306 9.34582 25.1924 6.80761C20.1792 1.79443 12.0903 1.73159 6.99998 6.61909L6.99998 5C6.99998 4.44772 6.55227 4 5.99998 4C5.4477 4 4.99998 4.44772 4.99998 5L4.99998 9C4.99998 9.55229 5.4477 10 5.99998 10L9.99998 10C10.5523 10 11 9.55229 11 9C11 8.44772 10.5523 8 9.99998 8H8.45002Z" fill="#808080"/>
<path d="M17 10C17 9.44772 16.5523 9 16 9C15.4477 9 15 9.44772 15 10V16C15 16.2652 15.1053 16.5196 15.2929 16.7071L19.2929 20.7071C19.6834 21.0976 20.3166 21.0976 20.7071 20.7071C21.0976 20.3166 21.0976 19.6834 20.7071 19.2929L17 15.5858V10Z" fill="#808080"/>
</svg>
