<svg width="32" height="32" viewBox="0 0 32 32" fill="none" xmlns="http://www.w3.org/2000/svg">
<path d="M7.70711 2.29289C8.09763 2.68342 8.09763 3.31658 7.70711 3.70711L3.70711 7.70711C3.31658 8.09763 2.68342 8.09763 2.29289 7.70711C1.90237 7.31658 1.90237 6.68342 2.29289 6.29289L6.29289 2.29289C6.68342 1.90237 7.31658 1.90237 7.70711 2.29289Z" fill="#717171"/>
<path d="M16.9999 11C16.9999 10.4477 16.5522 10 15.9999 10C15.4477 10 14.9999 10.4477 14.9999 11V16H11.9999C11.4477 16 10.9999 16.4477 10.9999 17C10.9999 17.5523 11.4477 18 11.9999 18H15.9999C16.5522 18 16.9999 17.5523 16.9999 17V11Z" fill="#717171"/>
<path fill-rule="evenodd" clip-rule="evenodd" d="M16 4C8.8203 4 3 9.8203 3 17C3 24.1797 8.8203 30 16 30C23.1797 30 29 24.1797 29 17C29 9.8203 23.1797 4 16 4ZM5 17C5 10.9249 9.92487 6 16 6C22.0751 6 27 10.9249 27 17C27 23.0751 22.0751 28 16 28C9.92487 28 5 23.0751 5 17Z" fill="#717171"/>
<path d="M24.2929 3.70711C23.9024 3.31658 23.9024 2.68342 24.2929 2.29289C24.6834 1.90237 25.3166 1.90237 25.7071 2.29289L29.7071 6.29289C30.0976 6.68342 30.0976 7.31658 29.7071 7.70711C29.3166 8.09763 28.6834 8.09763 28.2929 7.70711L24.2929 3.70711Z" fill="#717171"/>
</svg>
