<svg width="32" height="32" viewBox="0 0 32 32" fill="none" xmlns="http://www.w3.org/2000/svg">
<g clip-path="url(#clip0_371_12053)">
<path fill-rule="evenodd" clip-rule="evenodd" d="M24.2929 6.29289C24.6834 5.90237 25.3166 5.90237 25.7071 6.29289C26.0976 6.68342 26.0976 7.31658 25.7071 7.70711L17.4142 16L25.7071 24.2929C26.0976 24.6834 26.0976 25.3166 25.7071 25.7071C25.3166 26.0976 24.6834 26.0976 24.2929 25.7071L16 17.4142L7.70711 25.7071C7.31658 26.0976 6.68342 26.0976 6.29289 25.7071C5.90237 25.3166 5.90237 24.6834 6.29289 24.2929L14.5858 16L6.29289 7.70711C5.90237 7.31658 5.90237 6.68342 6.29289 6.29289C6.68342 5.90237 7.31658 5.90237 7.70711 6.29289L16 14.5858L24.2929 6.29289Z" fill="#808080"/>
</g>
<defs>
<clipPath id="clip0_371_12053">
<rect width="32" height="32" fill="white"/>
</clipPath>
</defs>
</svg>
