<svg width="32" height="32" viewBox="0 0 32 32" fill="none" xmlns="http://www.w3.org/2000/svg">
<path fill-rule="evenodd" clip-rule="evenodd" d="M16 6C21.5228 6 26 10.4772 26 16C26 17.4889 25.6753 18.8992 25.0937 20.1662C25.0119 20.3445 24.9843 20.543 25.0145 20.7369L25.8053 25.8244L20.5408 25.0929C20.3579 25.0674 20.1716 25.0931 20.0025 25.1671C18.7782 25.7025 17.4252 26 16 26C10.4772 26 6 21.5228 6 16C6 10.4772 10.4772 6 16 6ZM28 16C28 9.37258 22.6274 4 16 4C9.37258 4 4 9.37258 4 16C4 22.6274 9.37258 28 16 28C17.6043 28 19.1373 27.6847 20.5385 27.1118L25.8631 27.8516C27.0248 28.0131 28.0133 27.0084 27.8332 25.8495L27.0358 20.72C27.6567 19.2701 28 17.6739 28 16Z" fill="#808080"/>
</svg>
