<svg width="32" height="32" viewBox="0 0 32 32" fill="none" xmlns="http://www.w3.org/2000/svg">
<path fill-rule="evenodd" clip-rule="evenodd" d="M16 5C22.0751 5 27 9.92487 27 16C27 17.6376 26.6428 19.189 26.0031 20.5829C25.8433 20.9309 25.8062 21.3022 25.807 21.6136C25.8078 21.9351 25.8502 22.2723 25.9078 22.5973C26.0049 23.1451 26.1649 23.7578 26.3131 24.3256C26.3384 24.4228 26.3634 24.5186 26.3877 24.6125C26.563 25.2904 26.703 25.8777 26.7492 26.3441C26.7692 26.5457 26.7673 26.6872 26.7561 26.7796C26.6815 26.7924 26.5364 26.8063 26.2821 26.7863C25.805 26.7488 25.2057 26.6163 24.5135 26.4477C24.4079 26.422 24.3 26.3954 24.1904 26.3684C23.6186 26.2274 23.0033 26.0757 22.4509 25.9842C22.1168 25.9289 21.7718 25.8892 21.4429 25.8905C21.1223 25.8917 20.7512 25.9314 20.4028 26.0838C19.0559 26.6727 17.5675 27 16 27C9.92487 27 5 22.0751 5 16C5 9.92487 9.92487 5 16 5ZM29 16C29 8.8203 23.1797 3 16 3C8.8203 3 3 8.8203 3 16C3 23.1797 8.8203 29 16 29C17.8485 29 19.6093 28.6136 21.2041 27.9162C21.208 27.9149 21.2756 27.8912 21.4506 27.8905C21.6242 27.8898 21.8475 27.9115 22.124 27.9573C22.5926 28.035 23.1164 28.1638 23.6896 28.3049C23.8045 28.3332 23.9214 28.362 24.0403 28.3909C24.7167 28.5557 25.4651 28.7283 26.1254 28.7801C26.7126 28.8263 27.6011 28.8152 28.2083 28.2059C28.5258 27.8873 28.6632 27.4945 28.7215 27.1575C28.7797 26.8212 28.7716 26.4708 28.7394 26.1468C28.6757 25.5036 28.4947 24.7718 28.324 24.1118C28.2972 24.0082 28.2706 23.9061 28.2444 23.8056C28.095 23.2322 27.959 22.7102 27.8771 22.2482C27.8297 21.981 27.8074 21.7692 27.807 21.6084C27.8066 21.4656 27.8235 21.4113 27.8235 21.4113C27.8235 21.4113 27.8225 21.4133 27.8208 21.4171C28.5782 19.7668 29 17.9313 29 16Z" fill="#717171"/>
<path d="M21 13C21.5523 13 22 13.4477 22 14C22 14.5523 21.5523 15 21 15H11C10.4477 15 10 14.5523 10 14C10 13.4477 10.4477 13 11 13H21Z" fill="#717171"/>
<path d="M21 18C21.5523 18 22 18.4477 22 19C22 19.5523 21.5523 20 21 20H11C10.4477 20 10 19.5523 10 19C10 18.4477 10.4477 18 11 18H21Z" fill="#717171"/>
</svg>
