<svg width="32" height="32" viewBox="0 0 32 32" fill="none" xmlns="http://www.w3.org/2000/svg">
<path d="M11 8C11 9.65685 9.65685 11 8 11L4 11C3.44771 11 3 11.4477 3 12C3 12.5523 3.44771 13 4 13L8 13C10.7614 13 13 10.7614 13 8L13 4C13 3.44771 12.5523 3 12 3C11.4477 3 11 3.44771 11 4L11 8Z" fill="#717171"/>
<path d="M24 11C22.3431 11 21 9.65685 21 8V4C21 3.44771 20.5523 3 20 3C19.4477 3 19 3.44771 19 4V8C19 10.7614 21.2386 13 24 13H28C28.5523 13 29 12.5523 29 12C29 11.4477 28.5523 11 28 11L24 11Z" fill="#717171"/>
<path d="M24 21C22.3431 21 21 22.3431 21 24V28C21 28.5523 20.5523 29 20 29C19.4477 29 19 28.5523 19 28V24C19 21.2386 21.2386 19 24 19H28C28.5523 19 29 19.4477 29 20C29 20.5523 28.5523 21 28 21H24Z" fill="#717171"/>
<path d="M8 21C9.65685 21 11 22.3431 11 24V28C11 28.5523 11.4477 29 12 29C12.5523 29 13 28.5523 13 28V24C13 21.2386 10.7614 19 8 19H4C3.44771 19 3 19.4477 3 20C3 20.5523 3.44771 21 4 21H8Z" fill="#717171"/>
</svg>
