<svg width="32" height="32" viewBox="0 0 32 32" fill="none" xmlns="http://www.w3.org/2000/svg">
<path d="M5 8C5 6.34315 6.34315 5 8 5H12C12.5523 5 13 4.55229 13 4C13 3.44772 12.5523 3 12 3H8C5.23858 3 3 5.23858 3 8V12C3 12.5523 3.44772 13 4 13C4.55229 13 5 12.5523 5 12V8Z" fill="#717171"/>
<path d="M24 5C25.6569 5 27 6.34315 27 8V12C27 12.5523 27.4477 13 28 13C28.5523 13 29 12.5523 29 12V8C29 5.23858 26.7614 3 24 3H20C19.4477 3 19 3.44772 19 4C19 4.55228 19.4477 5 20 5L24 5Z" fill="#717171"/>
<path d="M24 27C25.6569 27 27 25.6569 27 24V20C27 19.4477 27.4477 19 28 19C28.5523 19 29 19.4477 29 20V24C29 26.7614 26.7614 29 24 29H20C19.4477 29 19 28.5523 19 28C19 27.4477 19.4477 27 20 27H24Z" fill="#717171"/>
<path d="M8 27C6.34315 27 5 25.6569 5 24L5 20C5 19.4477 4.55228 19 4 19C3.44772 19 3 19.4477 3 20V24C3 26.7614 5.23858 29 8 29H12C12.5523 29 13 28.5523 13 28C13 27.4477 12.5523 27 12 27H8Z" fill="#717171"/>
</svg>
