<svg width="32" height="32" viewBox="0 0 32 32" fill="none" xmlns="http://www.w3.org/2000/svg">
<path fill-rule="evenodd" clip-rule="evenodd" d="M10 3C10 2.44772 9.55228 2 9 2C8.44772 2 8 2.44772 8 3V8L3 8C2.44772 8 2 8.44772 2 9C2 9.55229 2.44772 10 3 10L8 10V21C8 22.6569 9.34315 24 11 24H22V29C22 29.5523 22.4477 30 23 30C23.5523 30 24 29.5523 24 29V24H29C29.5523 24 30 23.5523 30 23C30 22.4477 29.5523 22 29 22H24L24 11C24 9.34315 22.6569 8 21 8L10 8V3ZM10 10V21C10 21.5523 10.4477 22 11 22H22L22 11C22 10.4477 21.5523 10 21 10L10 10Z" fill="#808080"/>
</svg>
