<svg width="32" height="32" viewBox="0 0 32 32" fill="none" xmlns="http://www.w3.org/2000/svg">
<path fill-rule="evenodd" clip-rule="evenodd" d="M8.50159 10C8.50159 6.13401 11.6356 3 15.5016 3C19.3676 3 22.5016 6.13401 22.5016 10C22.5016 13.866 19.3676 17 15.5016 17C15.4575 17 15.4135 16.9996 15.3695 16.9988C10.6142 17.0548 6.58203 20.1308 5.10409 24.3996C4.87445 25.0629 5.04098 25.6694 5.47371 26.1495C5.92451 26.6497 6.66594 27 7.50163 27H15.5016C16.0539 27 16.5016 27.4477 16.5016 28C16.5016 28.5523 16.0539 29 15.5016 29H7.50163C6.12819 29 4.83698 28.4303 3.98812 27.4886C3.1212 26.5268 2.72104 25.1696 3.21415 23.7453C4.53106 19.9416 7.56465 16.9393 11.3895 15.6655C9.63936 14.393 8.50159 12.3294 8.50159 10ZM15.5016 5C12.7402 5 10.5016 7.23858 10.5016 10C10.5016 12.7614 12.7402 15 15.5016 15C18.263 15 20.5016 12.7614 20.5016 10C20.5016 7.23858 18.263 5 15.5016 5Z" fill="#717171"/>
<path fill-rule="evenodd" clip-rule="evenodd" d="M23.4717 17.2425C23.6057 16.7067 23.2799 16.1638 22.7441 16.0299C22.2083 15.8959 21.6654 16.2217 21.5314 16.7575L20.8875 19.3333H18.5016C17.9493 19.3333 17.5016 19.781 17.5016 20.3333C17.5016 20.8856 17.9493 21.3333 18.5016 21.3333H20.3875L19.8875 23.3333H18.5016C17.9493 23.3333 17.5016 23.781 17.5016 24.3333C17.5016 24.8856 17.9493 25.3333 18.5016 25.3333H19.3875L18.8648 27.4241C18.7308 27.9599 19.0566 28.5029 19.5924 28.6368C20.1282 28.7708 20.6711 28.445 20.8051 27.9092L21.449 25.3333H23.3875L22.8648 27.4241C22.7308 27.9599 23.0566 28.5029 23.5924 28.6368C24.1282 28.7708 24.6711 28.445 24.8051 27.9092L25.449 25.3333H27.8349C28.3872 25.3333 28.8349 24.8856 28.8349 24.3333C28.8349 23.781 28.3872 23.3333 27.8349 23.3333H25.949L26.449 21.3333H27.8349C28.3872 21.3333 28.8349 20.8856 28.8349 20.3333C28.8349 19.781 28.3872 19.3333 27.8349 19.3333H26.949L27.4717 17.2425C27.6057 16.7067 27.2799 16.1638 26.7441 16.0299C26.2083 15.8959 25.6654 16.2217 25.5314 16.7575L24.8875 19.3333H22.949L23.4717 17.2425ZM21.949 23.3333L22.449 21.3333H24.3875L23.8875 23.3333H21.949Z" fill="#717171"/>
</svg>
