<svg width="32" height="32" viewBox="0 0 32 32" fill="none" xmlns="http://www.w3.org/2000/svg">
<path d="M11 10C10.4477 10 10 10.4477 10 11C10 11.5523 10.4477 12 11 12L21 12C21.5523 12 22 11.5523 22 11C22 10.4477 21.5523 10 21 10L11 10Z" fill="#717171"/>
<path d="M14 16C14 15.4477 14.4477 15 15 15H21C21.5523 15 22 15.4477 22 16C22 16.5523 21.5523 17 21 17H15C14.4477 17 14 16.5523 14 16Z" fill="#717171"/>
<path d="M15 20C14.4477 20 14 20.4477 14 21C14 21.5523 14.4477 22 15 22H21C21.5523 22 22 21.5523 22 21C22 20.4477 21.5523 20 21 20H15Z" fill="#717171"/>
<path d="M10 16C10 15.4477 10.4477 15 11 15H12C12.5523 15 13 15.4477 13 16C13 16.5523 12.5523 17 12 17H11C10.4477 17 10 16.5523 10 16Z" fill="#717171"/>
<path d="M11 20C10.4477 20 10 20.4477 10 21C10 21.5523 10.4477 22 11 22H12C12.5523 22 13 21.5523 13 21C13 20.4477 12.5523 20 12 20H11Z" fill="#717171"/>
<path fill-rule="evenodd" clip-rule="evenodd" d="M8 3C5.23858 3 3 5.23858 3 8V24C3 26.7614 5.23858 29 8 29H24C26.7614 29 29 26.7614 29 24V8C29 5.23858 26.7614 3 24 3H8ZM5 8C5 6.34315 6.34315 5 8 5H24C25.6569 5 27 6.34315 27 8V24C27 25.6569 25.6569 27 24 27H8C6.34315 27 5 25.6569 5 24V8Z" fill="#717171"/>
</svg>
