<svg width="32" height="32" viewBox="0 0 32 32" fill="none" xmlns="http://www.w3.org/2000/svg">
<path fill-rule="evenodd" clip-rule="evenodd" d="M28 8V24C28 26.2091 26.2091 28 24 28H8C5.79086 28 4 26.2091 4 24V8C4 5.79086 5.79086 4 8 4H24C26.2091 4 28 5.79086 28 8ZM10 11C10 10.4477 10.4477 10 11 10H21C21.5523 10 22 10.4477 22 11C22 11.5523 21.5523 12 21 12L11 12C10.4477 12 10 11.5523 10 11ZM14 16C14 15.4477 14.4477 15 15 15H21C21.5523 15 22 15.4477 22 16C22 16.5523 21.5523 17 21 17H15C14.4477 17 14 16.5523 14 16ZM14 21C14 20.4477 14.4477 20 15 20H21C21.5523 20 22 20.4477 22 21C22 21.5523 21.5523 22 21 22H15C14.4477 22 14 21.5523 14 21ZM10 16C10 15.4477 10.4477 15 11 15H12C12.5523 15 13 15.4477 13 16C13 16.5523 12.5523 17 12 17H11C10.4477 17 10 16.5523 10 16ZM10 21C10 20.4477 10.4477 20 11 20H12C12.5523 20 13 20.4477 13 21C13 21.5523 12.5523 22 12 22H11C10.4477 22 10 21.5523 10 21Z" fill="#717171"/>
</svg>
