<svg width="32" height="32" viewBox="0 0 32 32" fill="none" xmlns="http://www.w3.org/2000/svg">
<path fill-rule="evenodd" clip-rule="evenodd" d="M12 2C10.3431 2 9 3.34315 9 5V6H5H3.90497H3C2.44772 6 2 6.44772 2 7C2 7.55228 2.44772 8 3 8H4.08679L5.67339 25.4527C5.90752 28.0281 8.06684 30 10.6529 30H21.3471C23.9332 30 26.0925 28.0281 26.3266 25.4527L27.9132 8H29C29.5523 8 30 7.55229 30 7C30 6.44772 29.5523 6 29 6L28.095 6H27H23V5C23 3.34315 21.6569 2 20 2H12ZM21 6V5C21 4.44772 20.5523 4 20 4H12C11.4477 4 11 4.44772 11 5V6H21ZM10 8H6.09503L7.66518 25.2716C7.80566 26.8168 9.10125 28 10.6529 28H21.3471C22.8987 28 24.1943 26.8168 24.3348 25.2716L25.905 8H22H10ZM14 12C14 11.4477 13.5523 11 13 11C12.4477 11 12 11.4477 12 12V22C12 22.5523 12.4477 23 13 23C13.5523 23 14 22.5523 14 22V12ZM19 11C19.5523 11 20 11.4477 20 12V22C20 22.5523 19.5523 23 19 23C18.4477 23 18 22.5523 18 22V12C18 11.4477 18.4477 11 19 11Z" fill="#808080"/>
</svg>
