<svg width="32" height="32" viewBox="0 0 32 32" fill="none" xmlns="http://www.w3.org/2000/svg">
<path fill-rule="evenodd" clip-rule="evenodd" d="M2 8C2 5.23858 4.23858 3 7 3H25C27.7614 3 30 5.23858 30 8V18C30 20.7614 27.7614 23 25 23H17.0002V27H24.0002C24.5524 27 25.0002 27.4477 25.0002 28C25.0002 28.5523 24.5524 29 24.0002 29H8.00016C7.44787 29 7.00016 28.5523 7.00016 28C7.00016 27.4477 7.44787 27 8.00016 27H15.0002V23H7C4.23858 23 2 20.7614 2 18V8ZM25 21C26.6569 21 28 19.6569 28 18V8C28 6.34315 26.6569 5 25 5H7C5.34315 5 4 6.34315 4 8V18C4 19.6569 5.34315 21 7 21H25Z" fill="#717171"/>
</svg>
