<svg width="32" height="32" viewBox="0 0 32 32" fill="none" xmlns="http://www.w3.org/2000/svg">
<path d="M4 6.00001C4 7.10458 4.89542 8.00001 5.99999 8.00001C7.10456 8.00001 8 7.10458 8 6.00001C8 4.89544 7.10456 4 5.99999 4C4.89542 4 4 4.89544 4 6.00001Z" fill="#808080"/>
<path d="M4 26C4 27.1046 4.89542 28 5.99999 28C7.10456 28 8 27.1046 8 26C8 24.8954 7.10456 24 5.99999 24C4.89542 24 4 24.8954 4 26Z" fill="#808080"/>
<path d="M14 26C14 27.1046 14.8954 28 16 28C17.1046 28 18 27.1046 18 26C18 24.8954 17.1046 24 16 24C14.8954 24 14 24.8954 14 26Z" fill="#808080"/>
<path d="M26 28C24.8954 28 24 27.1046 24 26C24 24.8954 24.8954 24 26 24C27.1046 24 28 24.8954 28 26C28 27.1046 27.1046 28 26 28Z" fill="#808080"/>
<path d="M16 8.00001C14.8954 8.00001 14 7.10458 14 6.00001C14 4.89544 14.8954 4 16 4C17.1046 4 18 4.89544 18 6.00001C18 7.10458 17.1046 8.00001 16 8.00001Z" fill="#808080"/>
<path d="M24 6.00001C24 7.10458 24.8954 8.00001 26 8.00001C27.1046 8.00001 28 7.10458 28 6.00001C28 4.89544 27.1046 4 26 4C24.8954 4 24 4.89544 24 6.00001Z" fill="#808080"/>
<path d="M5.99999 18C4.89542 18 4 17.1046 4 16C4 14.8954 4.89542 14 5.99999 14C7.10456 14 8 14.8954 8 16C8 17.1046 7.10456 18 5.99999 18Z" fill="#808080"/>
<path d="M14 16C14 17.1046 14.8954 18 16 18C17.1046 18 18 17.1046 18 16C18 14.8954 17.1046 14 16 14C14.8954 14 14 14.8954 14 16Z" fill="#808080"/>
<path d="M26 18C24.8954 18 24 17.1046 24 16C24 14.8954 24.8954 14 26 14C27.1046 14 28 14.8954 28 16C28 17.1046 27.1046 18 26 18Z" fill="#808080"/>
</svg>
