<svg width="32" height="32" viewBox="0 0 32 32" fill="none" xmlns="http://www.w3.org/2000/svg">
<path d="M11 8.00001C9.89542 8.00001 9 7.10458 9 6.00001C9 4.89544 9.89542 4 11 4C12.1046 4 13 4.89544 13 6.00001C13 7.10458 12.1046 8.00001 11 8.00001Z" fill="#808080"/>
<path d="M11 28C9.89542 28 9 27.1046 9 26C9 24.8954 9.89542 24 11 24C12.1046 24 13 24.8954 13 26C13 27.1046 12.1046 28 11 28Z" fill="#808080"/>
<path d="M9 16C9 17.1046 9.89542 18 11 18C12.1046 18 13 17.1046 13 16C13 14.8954 12.1046 14 11 14C9.89542 14 9 14.8954 9 16Z" fill="#808080"/>
<path d="M21 28C19.8954 28 19 27.1046 19 26C19 24.8954 19.8954 24 21 24C22.1046 24 23 24.8954 23 26C23 27.1046 22.1046 28 21 28Z" fill="#808080"/>
<path d="M19 6.00001C19 7.10458 19.8954 8.00001 21 8.00001C22.1046 8.00001 23 7.10458 23 6.00001C23 4.89544 22.1046 4 21 4C19.8954 4 19 4.89544 19 6.00001Z" fill="#808080"/>
<path d="M21 18C19.8954 18 19 17.1046 19 16C19 14.8954 19.8954 14 21 14C22.1046 14 23 14.8954 23 16C23 17.1046 22.1046 18 21 18Z" fill="#808080"/>
</svg>
