<svg width="32" height="32" viewBox="0 0 32 32" fill="none" xmlns="http://www.w3.org/2000/svg">
<path d="M24.7071 20.7071C25.0976 20.3166 25.0976 19.6834 24.7071 19.2929C24.3166 18.9024 23.6834 18.9024 23.2929 19.2929L17 25.5858L17 4C17 3.44771 16.5523 3 16 3C15.4477 3 15 3.44771 15 4L15 25.5858L8.70711 19.2929C8.31658 18.9024 7.68342 18.9024 7.29289 19.2929C6.90237 19.6834 6.90237 20.3166 7.29289 20.7071L15.2924 28.7066C15.2936 28.7078 15.2949 28.7091 15.2962 28.7104C15.4886 28.9011 15.7393 28.9976 15.9907 29C15.9969 29 16.0031 29 16.0093 29C16.1415 28.9987 16.2676 28.9719 16.3828 28.9241C16.5007 28.8753 16.6112 28.803 16.7071 28.7071L24.7071 20.7071Z" fill="#808080"/>
</svg>
