<svg width="32" height="32" viewBox="0 0 32 32" fill="none" xmlns="http://www.w3.org/2000/svg">
<path d="M16 3C16.5523 3 17 3.44772 17 4V21.5858L23.2929 15.2929C23.6834 14.9024 24.3166 14.9024 24.7071 15.2929C25.0976 15.6834 25.0976 16.3166 24.7071 16.7071L16.7071 24.7071C16.7032 24.711 16.6993 24.7149 16.6953 24.7187C16.6912 24.7227 16.6871 24.7266 16.683 24.7304C16.5079 24.8942 16.2738 24.9958 16.0161 24.9999C16.0107 25 16.0054 25 16 25C15.9947 25 15.9894 25 15.984 24.9999C15.7219 24.9958 15.4842 24.8908 15.3082 24.7221C15.3056 24.7196 15.303 24.7171 15.3004 24.7146C15.2979 24.7121 15.2954 24.7096 15.2929 24.7071L7.29289 16.7071C6.90237 16.3166 6.90237 15.6834 7.29289 15.2929C7.68342 14.9024 8.31658 14.9024 8.70711 15.2929L15 21.5858V4C15 3.44772 15.4477 3 16 3Z" fill="#808080"/>
<path d="M4 28C3.44772 28 3 28.4477 3 29C3 29.5523 3.44772 30 4 30H28C28.5523 30 29 29.5523 29 29C29 28.4477 28.5523 28 28 28H4Z" fill="#808080"/>
</svg>
