<svg width="32" height="32" viewBox="0 0 32 32" fill="none" xmlns="http://www.w3.org/2000/svg">
<path fill-rule="evenodd" clip-rule="evenodd" d="M5 4C3.34315 4 2 5.34314 2 7V23C2 25.7614 4.23858 28 7 28H25C27.7614 28 30 25.7614 30 23V7C30 5.34315 28.6569 4 27 4H5ZM4 7.41421V23C4 24.6569 5.34315 26 7 26H25C26.6569 26 28 24.6569 28 23V7.40773C27.91 7.51285 27.8121 7.61353 27.7071 7.70715L18.1213 17.2929C16.9497 18.4645 15.0503 18.4645 13.8787 17.2929L4 7.41421ZM26.5807 6H5.41421L15.2929 15.8787C15.6834 16.2693 16.3166 16.2693 16.7071 15.8787L26.2929 6.29294C26.3928 6.18589 26.4887 6.08846 26.5807 6Z" fill="#808080"/>
</svg>
