<svg width="32" height="32" viewBox="0 0 32 32" fill="none" xmlns="http://www.w3.org/2000/svg">
<path d="M27.0003 9.95528C27.0003 9.95528 27.0008 9.95902 27.0006 9.96605C27.0185 9.42948 27.4591 9 28 9C28.5523 9 29 9.44772 29 10C29 10.3187 28.8779 10.6834 28.7659 10.9666C28.635 11.2978 28.4453 11.6923 28.1972 12.1236C27.8299 12.7622 27.3232 13.5012 26.6651 14.2532C26.6794 14.266 26.6934 14.2792 26.7071 14.2929L29.5355 17.1213C29.9261 17.5118 29.9261 18.145 29.5355 18.5355C29.145 18.9261 28.5119 18.9261 28.1213 18.5355L25.2929 15.7071C25.2774 15.6916 25.2624 15.6756 25.2481 15.6594C24.3484 16.4339 23.271 17.1625 22.0048 17.7403L23.8661 20.9641C24.1422 21.4424 23.9784 22.054 23.5001 22.3301C23.0218 22.6063 22.4102 22.4424 22.134 21.9641L20.134 18.5C20.1229 18.4807 20.1125 18.4612 20.1028 18.4415C19.1532 18.7135 18.1199 18.8992 16.9996 18.9691C16.9999 18.9794 17.0001 18.9897 17.0001 19V23C17.0001 23.5523 16.5523 24 16.0001 24C15.4478 24 15.0001 23.5523 15.0001 23V19C15.0001 18.9897 15.0002 18.9794 15.0005 18.9691C13.8803 18.8992 12.8469 18.7135 11.8973 18.4415C11.8876 18.4612 11.8772 18.4807 11.8661 18.5L9.86608 21.9641C9.58994 22.4424 8.97835 22.6063 8.50005 22.3301C8.02176 22.054 7.85789 21.4424 8.13403 20.9641L9.99529 17.7403C8.93606 17.257 8.00898 16.6682 7.2075 16.0351L4.70711 18.5355C4.31658 18.9261 3.68342 18.9261 3.29289 18.5355C2.90237 18.145 2.90237 17.5118 3.29289 17.1213L5.72894 14.6853C4.87557 13.7874 4.24039 12.8843 3.80283 12.1236C3.55473 11.6923 3.36502 11.2978 3.23411 10.9666C3.12217 10.6834 3.00002 10.3187 3.00002 10C3.00002 9.44772 3.44774 9 4.00002 9C4.54094 9 4.98155 9.42948 4.99946 9.96605C4.99927 9.95902 4.99973 9.95528 4.99973 9.95528C4.99973 9.95528 5.0018 9.96041 5.00485 9.97138C5.0139 10.0039 5.037 10.087 5.09406 10.2313C5.18413 10.4592 5.32924 10.7661 5.5365 11.1264C5.95066 11.8465 6.59248 12.7443 7.48545 13.6189C9.26112 15.358 12.0199 17 16 17C19.9801 17 22.7389 15.358 24.5146 13.6189C25.4076 12.7443 26.0494 11.8465 26.4635 11.1264C26.6708 10.7661 26.8159 10.4592 26.906 10.2313C26.9631 10.087 26.9861 10.0039 26.9952 9.97138C26.9982 9.96041 27.0003 9.95528 27.0003 9.95528Z" fill="#808080"/>
</svg>
