<svg width="32" height="32" viewBox="0 0 32 32" fill="none" xmlns="http://www.w3.org/2000/svg">
<path fill-rule="evenodd" clip-rule="evenodd" d="M16 6C10.6986 6 7.1924 8.13337 5.0218 10.4396C3.94524 11.5835 3.20326 12.7623 2.72745 13.731C2.48953 14.2153 2.31454 14.6544 2.19684 15.0188C2.09035 15.3485 2 15.7089 2 16C2 16.2911 2.09035 16.6515 2.19684 16.9812C2.31454 17.3456 2.48953 17.7847 2.72745 18.269C3.20326 19.2377 3.94524 20.4165 5.0218 21.5604C7.1924 23.8666 10.6986 26 16 26C21.3014 26 24.8076 23.8666 26.9782 21.5604C28.0548 20.4165 28.7967 19.2377 29.2726 18.269C29.5105 17.7847 29.6855 17.3456 29.8032 16.9812C29.9097 16.6515 30 16.2911 30 16C30 15.7089 29.9097 15.3485 29.8032 15.0188C29.6855 14.6544 29.5105 14.2153 29.2726 13.731C28.7967 12.7623 28.0548 11.5835 26.9782 10.4396C24.8076 8.13337 21.3014 6 16 6ZM4.00371 16.0064L4.00247 16L4.00371 15.9936C4.01118 15.955 4.03353 15.8394 4.10003 15.6335C4.18546 15.369 4.32297 15.0191 4.52255 14.6128C4.92174 13.8002 5.55476 12.7915 6.4782 11.8104C7.2205 11.0217 8.15452 10.2457 9.31636 9.60191C8.48428 10.8638 8 12.3754 8 14C8 18.4183 11.5817 22 16 22C20.4183 22 24 18.4183 24 14C24 12.3754 23.5157 10.8638 22.6836 9.60191C23.8455 10.2457 24.7795 11.0217 25.5218 11.8104C26.4452 12.7915 27.0783 13.8002 27.4774 14.6128C27.677 15.0191 27.8145 15.369 27.9 15.6335C27.9665 15.8394 27.9888 15.955 27.9963 15.9936L27.9975 16L27.9963 16.0064C27.9888 16.045 27.9665 16.1606 27.9 16.3665C27.8145 16.631 27.677 16.9809 27.4774 17.3872C27.0783 18.1998 26.4452 19.2085 25.5218 20.1896C23.6924 22.1334 20.6986 24 16 24C11.3014 24 8.3076 22.1334 6.4782 20.1896C5.55476 19.2085 4.92174 18.1998 4.52255 17.3872C4.32297 16.9809 4.18546 16.631 4.10003 16.3665C4.03353 16.1606 4.01118 16.045 4.00371 16.0064ZM16 8C12.6863 8 10 10.6863 10 14C10 17.3137 12.6863 20 16 20C19.3137 20 22 17.3137 22 14C22 10.6863 19.3137 8 16 8Z" fill="#808080"/>
</svg>
