<svg width="32" height="32" viewBox="0 0 32 32" fill="none" xmlns="http://www.w3.org/2000/svg">
<path fill-rule="evenodd" clip-rule="evenodd" d="M25.8255 10C25.8255 13.866 22.6914 17 18.8255 17C14.0128 17 9.91951 20.0913 8.42791 24.3996C8.19827 25.0629 8.3648 25.6694 8.79753 26.1495C9.24834 26.6497 9.98976 27 10.8255 27H15.8255C16.3777 27 16.8255 27.4477 16.8255 28C16.8255 28.5523 16.3777 29 15.8255 29H10.8255C9.45201 29 8.1608 28.4303 7.31195 27.4886C7.17381 27.3353 7.04752 27.172 6.9348 27H4.82546C3.24786 27 1.65199 25.6539 2.06652 23.7977C2.85021 20.2884 5.51504 17.4856 8.91564 17.0569C8.08611 16.2017 7.57546 15.0355 7.57546 13.75C7.57546 11.2722 9.47263 9.23754 11.8936 9.01937C12.3705 5.61764 15.2923 3 18.8255 3C22.6914 3 25.8255 6.13401 25.8255 10ZM18.8255 5C16.064 5 13.8255 7.23858 13.8255 10C13.8255 12.7614 16.064 15 18.8255 15C21.5869 15 23.8255 12.7614 23.8255 10C23.8255 7.23858 21.5869 5 18.8255 5ZM9.57546 13.75C9.57546 12.3755 10.5838 11.2366 11.9011 11.0325C12.1819 12.9323 13.226 14.5834 14.7117 15.6643C14.0567 15.8826 13.4248 16.1517 12.8209 16.4668C12.7788 16.4671 12.7362 16.47 12.6934 16.4757C12.5735 16.4917 12.4507 16.5 12.3254 16.5C10.8067 16.5 9.57546 15.2688 9.57546 13.75ZM6.32384 25C6.32252 24.5937 6.39006 24.1725 6.53797 23.7453C7.15593 21.9604 8.1519 20.3517 9.43025 19.0152C6.8892 19.2114 4.67681 21.2854 4.01844 24.2336C3.97653 24.4213 4.02679 24.5867 4.16002 24.7292C4.30383 24.883 4.5429 25 4.82546 25H6.32384Z" fill="#717171"/>
<path fill-rule="evenodd" clip-rule="evenodd" d="M23.7956 18.2425C23.9295 17.7067 23.6038 17.1638 23.068 17.0299C22.5322 16.8959 21.9893 17.2217 21.8553 17.7575L21.2113 20.3333H18.8255C18.2732 20.3333 17.8255 20.781 17.8255 21.3333C17.8255 21.8856 18.2732 22.3333 18.8255 22.3333H20.7113L20.2113 24.3333H18.8255C18.2732 24.3333 17.8255 24.781 17.8255 25.3333C17.8255 25.8856 18.2732 26.3333 18.8255 26.3333H19.7113L19.1886 28.4241C19.0547 28.9599 19.3805 29.5029 19.9163 29.6368C20.452 29.7708 20.995 29.445 21.1289 28.9092L21.7729 26.3333H23.7113L23.1886 28.4241C23.0547 28.9599 23.3805 29.5029 23.9163 29.6368C24.452 29.7708 24.995 29.445 25.1289 28.9092L25.7729 26.3333H28.1588C28.7111 26.3333 29.1588 25.8856 29.1588 25.3333C29.1588 24.781 28.7111 24.3333 28.1588 24.3333H26.2729L26.7729 22.3333H28.1588C28.7111 22.3333 29.1588 21.8856 29.1588 21.3333C29.1588 20.781 28.7111 20.3333 28.1588 20.3333H27.2729L27.7956 18.2425C27.9295 17.7067 27.6038 17.1638 27.068 17.0299C26.5322 16.8959 25.9893 17.2217 25.8553 17.7575L25.2113 20.3333H23.2729L23.7956 18.2425ZM22.2729 24.3333L22.7729 22.3333H24.7113L24.2113 24.3333H22.2729Z" fill="#717171"/>
</svg>
