<svg width="32" height="32" viewBox="0 0 32 32" fill="none" xmlns="http://www.w3.org/2000/svg">
<path fill-rule="evenodd" clip-rule="evenodd" d="M4.01563 24.2104C4.84498 20.0971 8.48088 17 12.8379 17C15.4444 17 17.7924 18.1074 19.437 19.8801C17.6128 20.896 16.2904 22.7041 15.9337 24.8394C15.9246 24.8937 15.9179 24.9472 15.9134 25H4.83791C4.55575 25 4.31603 24.8837 4.1691 24.7274C4.03149 24.5811 3.976 24.407 4.01563 24.2104ZM17.9376 25L20.1579 25L27.7379 25C27.2752 22.7179 25.2562 21 22.8378 21C20.4194 21 18.4003 22.7179 17.9376 25ZM20.1579 27L17.8378 27C17.8368 27 17.8359 27 17.8349 27L4.83791 27C3.25019 27 1.68417 25.6548 2.05509 23.8151C2.81659 20.0383 5.51165 16.9619 9.06368 15.6645C7.70588 14.5645 6.83791 12.8836 6.83791 11C6.83791 7.68629 9.5242 5 12.8379 5C16.1516 5 18.8379 7.68629 18.8379 11C18.8379 12.8837 17.9698 14.5647 16.6119 15.6647C17.4022 15.9534 18.1501 16.3301 18.8436 16.7829C18.9563 14.6747 20.7015 12.9999 22.8378 12.9999C25.0469 12.9999 26.8378 14.7908 26.8378 16.9999C26.8378 18.0238 26.4531 18.9578 25.8204 19.6653C27.8592 20.627 29.3584 22.5441 29.7418 24.8394C29.9536 26.1069 28.8878 27 27.8378 27L20.1579 27ZM12.8413 15C15.0489 14.9982 16.8379 13.208 16.8379 11C16.8379 8.79086 15.047 7 12.8379 7C10.6288 7 8.83791 8.79086 8.83791 11C8.83791 13.2091 10.6288 15 12.8379 15L12.8413 15ZM22.8378 14.9999C21.7332 14.9999 20.8378 15.8954 20.8378 16.9999C20.8378 18.1045 21.7332 18.9999 22.8378 18.9999C23.9424 18.9999 24.8378 18.1045 24.8378 16.9999C24.8378 15.8954 23.9424 14.9999 22.8378 14.9999Z" fill="#808080"/>
</svg>
