<svg width="32" height="32" viewBox="0 0 32 32" fill="none" xmlns="http://www.w3.org/2000/svg">
<path d="M23 23L23 24L23 24L23 23ZM17.0822 28.0042L16.0959 27.8394L17.0822 28.0042ZM28.9177 28.0042L29.904 27.8394L29.904 27.8394L28.9177 28.0042ZM28 29L28 28L28 29ZM18 29L18 30L18 29ZM23 22.9999L23 21.9999L23 22.9999ZM26 19.9999L27 19.9999L26 19.9999ZM23 22C19.5288 22 16.6494 24.5256 16.0959 27.8394L18.0686 28.1689C18.4637 25.8032 20.5222 24 23 24L23 22ZM29.904 27.8394C29.3505 24.5256 26.4712 22 23 22L23 24C25.4777 24 27.5362 25.8032 27.9314 28.1689L29.904 27.8394ZM28 30C29.05 30 30.1158 29.1069 29.904 27.8394L27.9314 28.1689C27.9275 28.1456 27.9286 28.1135 27.9393 28.0806C27.9493 28.0497 27.9641 28.0292 27.975 28.0177C27.9942 27.9975 28.0052 28 28 28L28 30ZM18 30L28 30L28 28L18 28L18 30ZM16.0959 27.8394C15.8842 29.1069 16.95 30 18 30L18 28C17.9947 28 18.0057 27.9975 18.0249 28.0177C18.0358 28.0292 18.0506 28.0497 18.0606 28.0806C18.0713 28.1135 18.0725 28.1456 18.0686 28.1689L16.0959 27.8394ZM23 23.9999C25.2091 23.9999 27 22.2091 27 19.9999L25 19.9999C25 21.1045 24.1045 21.9999 23 21.9999L23 23.9999ZM19 19.9999C19 22.2091 20.7908 23.9999 23 23.9999L23 21.9999C21.8954 21.9999 21 21.1045 21 19.9999L19 19.9999ZM23 15.9999C20.7908 15.9999 19 17.7908 19 19.9999L21 19.9999C21 18.8954 21.8954 17.9999 23 17.9999L23 15.9999ZM27 19.9999C27 17.7908 25.2091 15.9999 23 15.9999L23 17.9999C24.1045 17.9999 25 18.8954 25 19.9999L27 19.9999Z" fill="#808080"/>
<path fill-rule="evenodd" clip-rule="evenodd" d="M13 20C8.64293 20 5.00704 23.0971 4.17769 27.2104C4.13805 27.407 4.19354 27.5811 4.33115 27.7274C4.47808 27.8837 4.7178 28 4.99996 28L17.083 28C17.0827 28.0014 17.0825 28.0028 17.0823 28.0042C16.9913 28.5489 17.4477 29 18 29L23.215 29C22.6707 29.6249 21.8383 30 21 30L4.99996 30C3.41224 30 1.84622 28.6548 2.21714 26.8151C2.97865 23.0383 5.6737 19.9619 9.22573 18.6645C7.86793 17.5645 6.99996 15.8836 6.99996 14C6.99996 10.6863 9.68625 8 13 8C16.3137 8 19 10.6863 19 14C19 15.8836 18.132 17.5645 16.7742 18.6645C17.9794 19.1047 19.0859 19.7497 20.0517 20.5573C20.2595 21.6635 21.0745 22.5556 22.1374 22.8741C22.1757 22.9311 22.2135 22.9885 22.2508 23.0463C21.5374 23.1352 20.8629 23.3493 20.2499 23.6659C18.611 21.4424 15.9734 20 13 20ZM13.0023 18L13 18C10.7908 18 8.99996 16.2091 8.99996 14C8.99996 11.7909 10.7908 10 13 10C15.2091 10 17 11.7909 17 14C17 16.2083 15.2104 17.9987 13.0023 18Z" fill="#808080"/>
<path d="M21 7H29" stroke="#808080" stroke-width="2" stroke-linecap="round" stroke-linejoin="round"/>
<path d="M25 3V11" stroke="#808080" stroke-width="2" stroke-linecap="round" stroke-linejoin="round"/>
</svg>
