<svg width="32" height="32" viewBox="0 0 32 32" fill="none" xmlns="http://www.w3.org/2000/svg">
<path d="M7.52 17.38H12.74C13.8 17.38 13.94 16.64 13.94 16.32C13.94 16 13.8 15.26 12.74 15.26H7.52V11.38H13.08C14.16 11.38 14.32 10.62 14.32 10.28C14.32 9.94 14.16 9.18 13.08 9.18H6.5C5.48 9.18 5 9.66 5 10.68V22.1C5 23.3 5.84 23.52 6.26 23.52C6.68 23.52 7.52 23.3 7.52 22.1V17.38Z" fill="#808080"/>
<path d="M25.1306 22.54C25.4706 23.36 25.9906 23.52 26.4106 23.52C27.0906 23.52 27.7106 23.04 27.7106 22.22C27.7106 22.06 27.6906 21.82 27.5506 21.5L22.4906 10.2C22.0106 9.14 21.3906 9 20.9106 9C20.4306 9 19.8306 9.14 19.3506 10.2L14.2506 21.54C14.1106 21.86 14.0706 22.08 14.0706 22.28C14.0706 23.06 14.6506 23.52 15.3306 23.52C15.7506 23.52 16.2706 23.36 16.5906 22.56L17.6106 20.1H24.1106L25.1306 22.54ZM20.8906 12.26L23.2306 17.94H18.5106L20.8906 12.26Z" fill="#808080"/>
</svg>
