<svg width="32" height="32" viewBox="0 0 32 32" fill="none" xmlns="http://www.w3.org/2000/svg">
<path fill-rule="evenodd" clip-rule="evenodd" d="M4.10112 6.56182C4.26868 6.21808 4.6176 6 5.00001 6H27C27.3756 6 27.7196 6.21049 27.8905 6.54496C28.0614 6.87944 28.0305 7.28148 27.8104 7.58588L21 17.0062V27C21 27.3484 20.8187 27.6717 20.5214 27.8533C20.2241 28.035 19.8537 28.0488 19.5437 27.8898L12.1151 24.0803C11.7814 23.9091 11.5714 23.5656 11.5714 23.1905V17.0271L4.21226 7.61599C3.9767 7.31476 3.93356 6.90556 4.10112 6.56182ZM7.05141 8L13.3592 16.0665C13.4967 16.2424 13.5714 16.4593 13.5714 16.6825V22.5795L19 25.3634V16.6825C19 16.4722 19.0664 16.2671 19.1896 16.0967L25.0431 8H7.05141Z" fill="#808080"/>
</svg>
