<svg width="32" height="32" viewBox="0 0 32 32" fill="none" xmlns="http://www.w3.org/2000/svg">
<path d="M4 8C4 7.44772 4.44772 7 5 7H26.3333C26.8856 7 27.3333 7.44772 27.3333 8C27.3333 8.55228 26.8856 9 26.3333 9H5C4.44772 9 4 8.55228 4 8Z" fill="#808080"/>
<path d="M6.66699 16C6.66699 15.4477 7.11471 15 7.66699 15H23.667C24.2193 15 24.667 15.4477 24.667 16C24.667 16.5523 24.2193 17 23.667 17H7.66699C7.11471 17 6.66699 16.5523 6.66699 16Z" fill="#808080"/>
<path d="M11.667 23C11.1147 23 10.667 23.4477 10.667 24C10.667 24.5523 11.1147 25 11.667 25H19.667C20.2193 25 20.667 24.5523 20.667 24C20.667 23.4477 20.2193 23 19.667 23H11.667Z" fill="#808080"/>
</svg>
