<svg width="32" height="32" viewBox="0 0 32 32" fill="none" xmlns="http://www.w3.org/2000/svg">
<path fill-rule="evenodd" clip-rule="evenodd" d="M2 16C2 23.732 8.26801 30 16 30C23.732 30 30 23.732 30 16C30 8.26801 23.732 2 16 2C8.26801 2 2 8.26801 2 16ZM11 10C10.4477 10 10 10.4477 10 11C10 11.5523 10.4477 12 11 12H21C21.5523 12 22 11.5523 22 11C22 10.4477 21.5523 10 21 10H11ZM12 15C11.4477 15 11 15.4477 11 16C11 16.5523 11.4477 17 12 17H20C20.5523 17 21 16.5523 21 16C21 15.4477 20.5523 15 20 15H12ZM13 21C13 20.4477 13.4477 20 14 20H18C18.5523 20 19 20.4477 19 21C19 21.5523 18.5523 22 18 22H14C13.4477 22 13 21.5523 13 21Z" fill="#808080"/>
</svg>
