<svg width="32" height="32" viewBox="0 0 32 32" fill="none" xmlns="http://www.w3.org/2000/svg">
<path fill-rule="evenodd" clip-rule="evenodd" d="M16 9C15.4696 9 14.9609 8.78929 14.5858 8.41421L12.1716 6H6C4.89543 6 4 6.89543 4 8V24C4 25.1046 4.89543 26 6 26H26C27.1046 26 28 25.1046 28 24V11C28 9.89543 27.1046 9 26 9H16ZM16 7L13.5858 4.58579C13.2107 4.21071 12.702 4 12.1716 4H6C3.79086 4 2 5.79086 2 8V24C2 26.2091 3.79086 28 6 28H26C28.2091 28 30 26.2091 30 24V11C30 8.79086 28.2091 7 26 7H16Z" fill="#808080"/>
</svg>
