<svg width="32" height="32" viewBox="0 0 32 32" fill="none" xmlns="http://www.w3.org/2000/svg">
<path d="M2 7C2 6.44772 2.44772 6 3 6H29C29.5523 6 30 6.44771 30 7C30 7.55228 29.5523 8 29 8L3 8C2.44772 8 2 7.55229 2 7Z" fill="#808080"/>
<path d="M3 12C2.44772 12 2 12.4477 2 13C2 13.5523 2.44772 14 3 14L29 14C29.5523 14 30 13.5523 30 13C30 12.4477 29.5523 12 29 12L3 12Z" fill="#808080"/>
<path d="M3 18C2.44772 18 2 18.4477 2 19C2 19.5523 2.44772 20 3 20L29 20C29.5523 20 30 19.5523 30 19C30 18.4477 29.5523 18 29 18L3 18Z" fill="#808080"/>
<path d="M3 24C2.44772 24 2 24.4477 2 25C2 25.5523 2.44772 26 3 26H15C15.5523 26 16 25.5523 16 25C16 24.4477 15.5523 24 15 24H3Z" fill="#808080"/>
</svg>
