<svg width="32" height="32" viewBox="0 0 32 32" fill="none" xmlns="http://www.w3.org/2000/svg">
<path fill-rule="evenodd" clip-rule="evenodd" d="M1.99976 16C1.99976 8.26801 8.26777 2 15.9998 2C23.7317 2 29.9998 8.26801 29.9998 16C29.9998 23.732 23.7317 30 15.9998 30C8.26777 30 1.99976 23.732 1.99976 16ZM4.04083 15C4.45277 10.0067 7.92192 5.88018 12.5722 4.49663C11.8291 5.18127 11.1754 6.0566 10.6339 7.02774C9.45702 9.13858 8.66573 11.9289 8.52316 15H4.04083ZM12.5722 27.5034C7.92192 26.1198 4.45277 21.9933 4.04083 17H8.52316C8.66573 20.0711 9.45702 22.8614 10.6339 24.9723C11.1754 25.9434 11.8291 26.8187 12.5722 27.5034ZM27.9587 17C27.5468 21.9931 24.078 26.1194 19.428 27.5032C20.171 26.8186 20.8246 25.9433 21.3661 24.9723C22.543 22.8614 23.3343 20.0711 23.4768 17H27.9587ZM19.428 4.49685C24.078 5.8806 27.5468 10.0069 27.9587 15H23.4768C23.3343 11.9289 22.543 9.13858 21.3661 7.02774C20.8246 6.0567 20.171 5.18145 19.428 4.49685ZM10.5255 15C10.6667 12.2419 11.3819 9.79323 12.3808 8.0017C13.2032 6.52672 14.1333 5.6278 15 5.23423L14.9998 15H10.5255ZM16.9998 15L17 5.23419C17.8666 5.62774 18.7968 6.52667 19.6192 8.0017C20.6181 9.79323 21.3333 12.2419 21.4745 15H16.9998ZM16.9997 17H21.4745C21.3333 19.7581 20.6181 22.2068 19.6192 23.9983C18.7967 25.4736 17.8663 26.3726 16.9995 26.766L16.9997 17ZM14.9997 17L14.9995 26.7656C14.133 26.3719 13.203 25.473 12.3808 23.9983C11.3819 22.2068 10.6667 19.7581 10.5255 17H14.9997Z" fill="#717171"/>
</svg>
