<svg width="32" height="32" viewBox="0 0 32 32" fill="none" xmlns="http://www.w3.org/2000/svg">
<path fill-rule="evenodd" clip-rule="evenodd" d="M26.5815 6.83274C28.7112 9.28886 30 12.4939 30 16C30 23.732 23.732 30 16 30C8.26801 30 2 23.732 2 16C2 8.26801 8.26801 2 16 2C19.5061 2 22.7111 3.28882 25.1673 5.41853L27.2929 3.29289C27.6834 2.90237 28.3166 2.90237 28.7071 3.29289C29.0976 3.68342 29.0976 4.31658 28.7071 4.70711L26.5815 6.83274ZM4 16C4 9.37258 9.37258 4 16 4C18.9537 4 21.6582 5.06716 23.7488 6.83695L20.9056 9.68014C19.551 8.62708 17.8487 8 16 8C11.5817 8 8 11.5817 8 16C8 20.4183 11.5817 24 16 24C20.4183 24 24 20.4183 24 16C24 14.1513 23.3729 12.449 22.3199 11.0944L25.1631 8.25116C26.9328 10.3418 28 13.0463 28 16C28 22.6274 22.6274 28 16 28C9.37258 28 4 22.6274 4 16ZM19.4765 11.1093C18.4957 10.4108 17.2958 10 16 10C12.6863 10 10 12.6863 10 16C10 19.3137 12.6863 22 16 22C19.3137 22 22 19.3137 22 16C22 14.7042 21.5892 13.5043 20.8907 12.5235L17.9323 15.482C17.9764 15.6472 18 15.8208 18 16C18 17.1046 17.1046 18 16 18C14.8954 18 14 17.1046 14 16C14 14.8954 14.8954 14 16 14C16.1792 14 16.3528 14.0236 16.518 14.0677L19.4765 11.1093Z" fill="#808080"/>
</svg>
