<svg width="32" height="32" viewBox="0 0 32 32" fill="none" xmlns="http://www.w3.org/2000/svg">
<path fill-rule="evenodd" clip-rule="evenodd" d="M15.9751 5.22184C16.0975 4.68329 15.7601 4.14748 15.2216 4.02509C14.683 3.90269 14.1472 4.24005 14.0248 4.7786L12.6108 11.0002H6C5.44772 11.0002 5 11.4479 5 12.0002C5 12.5525 5.44772 13.0002 6 13.0002H12.1563L10.7927 19.0002H6C5.44772 19.0002 5 19.4479 5 20.0002C5 20.5525 5.44772 21.0002 6 21.0002H10.3381L9.02484 26.7786C8.90244 27.3172 9.2398 27.853 9.77835 27.9754C10.3169 28.0978 10.8527 27.7604 10.9751 27.2218L12.3891 21.0002H17.3381L16.0248 26.7786C15.9024 27.3172 16.2398 27.853 16.7784 27.9754C17.3169 28.0978 17.8527 27.7604 17.9751 27.2218L19.3891 21.0002H26C26.5523 21.0002 27 20.5525 27 20.0002C27 19.4479 26.5523 19.0002 26 19.0002H19.8437L21.2073 13.0002H26C26.5523 13.0002 27 12.5525 27 12.0002C27 11.4479 26.5523 11.0002 26 11.0002H21.6618L22.9751 5.22184C23.0975 4.68329 22.7601 4.14748 22.2216 4.02509C21.683 3.90269 21.1472 4.24005 21.0248 4.7786L19.6108 11.0002H14.6618L15.9751 5.22184ZM19.1563 13.0002H14.2073L12.8437 19.0002H17.7927L19.1563 13.0002Z" fill="#717171"/>
</svg>
