<svg width="32" height="32" viewBox="0 0 32 32" fill="none" xmlns="http://www.w3.org/2000/svg">
<path fill-rule="evenodd" clip-rule="evenodd" d="M10.2035 6C6.7796 6 4 8.78275 4 12.2204C4 13.7692 4.56321 15.1833 5.4963 16.2721L5.50824 16.286L5.83305 16.6945C8.65048 20.2371 11.9907 23.328 15.7384 25.8603C16.0259 26.0546 16.404 26.0455 16.6819 25.8375L17.3586 25.3312C20.4232 23.038 23.1904 20.3703 25.5959 17.39L26.4293 16.3574L26.4439 16.3409C27.4127 15.2431 28 13.8019 28 12.2204C28 8.78275 25.2204 6 21.7965 6C19.7515 6 17.9368 6.99135 16.8048 8.52637L16 9.61776L15.1952 8.52637C14.0632 6.99135 12.2485 6 10.2035 6ZM2 12.2204C2 7.68261 5.67061 4 10.2035 4C12.4676 4 14.5169 4.91977 16 6.40359C17.4831 4.91977 19.5324 4 21.7965 4C26.3294 4 30 7.68261 30 12.2204C30 14.299 29.2288 16.1999 27.9584 17.6472L27.1522 18.6461C24.6423 21.7559 21.7548 24.5396 18.5568 26.9325L17.8801 27.4389C16.9203 28.157 15.6119 28.1887 14.6187 27.5175C10.7022 24.8711 7.21174 21.6412 4.26771 17.9393L3.96538 17.5592C2.74041 16.1231 2 14.257 2 12.2204Z" fill="#808080"/>
</svg>
