<svg width="32" height="32" viewBox="0 0 32 32" fill="none" xmlns="http://www.w3.org/2000/svg">
<path fill-rule="evenodd" clip-rule="evenodd" d="M18.1076 5.48577C16.9392 4.33238 15.0608 4.33238 13.8924 5.48577L4.89241 14.3704C4.32141 14.9341 4 15.703 4 16.5053V25C4 26.6569 5.34315 28 7 28H10.6667V24.3333C10.6667 21.5719 12.9052 19.3334 15.6667 19.3334H16.3333C19.0948 19.3334 21.3333 21.5719 21.3333 24.3334V28H25C26.6569 28 28 26.6569 28 25V16.5053C28 15.703 27.6786 14.9341 27.1076 14.3704L18.1076 5.48577ZM12.4873 4.06246C14.4346 2.14015 17.5654 2.14015 19.5127 4.06246L28.5127 12.9471C29.4643 13.8865 30 15.1681 30 16.5053V25C30 27.7614 27.7614 30 25 30H20.3333C19.781 30 19.3333 29.5523 19.3333 29V24.3334C19.3333 22.6765 17.9902 21.3334 16.3333 21.3334H15.6667C14.0098 21.3334 12.6667 22.6765 12.6667 24.3333V29C12.6667 29.5523 12.219 30 11.6667 30H7C4.23858 30 2 27.7614 2 25V16.5053C2 15.1681 2.53568 13.8865 3.48735 12.9471L12.4873 4.06246Z" fill="#808080"/>
</svg>
