<svg width="33" height="32" viewBox="0 0 33 32" fill="none" xmlns="http://www.w3.org/2000/svg">
<path d="M12.5 9C12.0955 9 11.7309 9.24364 11.5761 9.61732C11.4213 9.99099 11.5069 10.4211 11.7929 10.7071L15.7929 14.7071C16.1834 15.0976 16.8166 15.0976 17.2071 14.7071L21.2071 10.7071C21.4931 10.4211 21.5787 9.99099 21.4239 9.61732C21.2691 9.24364 20.9045 9 20.5 9H12.5Z" fill="#808080"/>
<path d="M17.5 18C17.5 18.5523 17.0523 19 16.5 19C15.9477 19 15.5 18.5523 15.5 18C15.5 17.4477 15.9477 17 16.5 17C17.0523 17 17.5 17.4477 17.5 18Z" fill="#808080"/>
<path d="M16.5 23C17.0523 23 17.5 22.5523 17.5 22C17.5 21.4477 17.0523 21 16.5 21C15.9477 21 15.5 21.4477 15.5 22C15.5 22.5523 15.9477 23 16.5 23Z" fill="#808080"/>
<path fill-rule="evenodd" clip-rule="evenodd" d="M5.5 3C5.5 2.44772 5.94772 2 6.5 2H26.5C27.0523 2 27.5 2.44772 27.5 3C27.5 3.55228 27.0523 4 26.5 4H25.5V7.68629C25.5 10.0732 24.5518 12.3624 22.864 14.0503L20.9142 16L22.864 17.9497C24.5518 19.6376 25.5 21.9268 25.5 24.3137V28H26.5C27.0523 28 27.5 28.4477 27.5 29C27.5 29.5523 27.0523 30 26.5 30H6.5C5.94772 30 5.5 29.5523 5.5 29C5.5 28.4477 5.94772 28 6.5 28H7.5V24.3137C7.5 21.9268 8.44821 19.6376 10.136 17.9497L12.0858 16L10.136 14.0503C8.44821 12.3624 7.5 10.0732 7.5 7.68629V4H6.5C5.94772 4 5.5 3.55228 5.5 3ZM23.5 28V24.3137C23.5 22.4572 22.7625 20.6767 21.4497 19.364L18.0858 16L21.4497 12.636C22.7625 11.3233 23.5 9.54281 23.5 7.68629V4H9.5V7.68629C9.5 9.54281 10.2375 11.3233 11.5503 12.636L14.9142 16L11.5503 19.364C10.2375 20.6767 9.5 22.4572 9.5 24.3137V28H11C11 26.6193 12.1193 25.5 13.5 25.5H19.5C20.8807 25.5 22 26.6193 22 28H23.5Z" fill="#808080"/>
</svg>
