<svg width="32" height="32" viewBox="0 0 32 32" fill="none" xmlns="http://www.w3.org/2000/svg">
<path fill-rule="evenodd" clip-rule="evenodd" d="M3 8C3 5.23858 5.23858 3 8 3H24C26.7614 3 29 5.23858 29 8V24C29 26.7614 26.7614 29 24 29H8C5.23858 29 3 26.7614 3 24V8ZM5 20.4142V24C5 25.6569 6.34315 27 8 27H23.5858L13.1213 16.5355C11.9497 15.364 10.0503 15.364 8.87868 16.5355L5 20.4142ZM25.8082 26.394L14.5355 15.1213C12.5829 13.1687 9.41709 13.1687 7.46447 15.1213L5 17.5858V8C5 6.34315 6.34315 5 8 5H24C25.6569 5 27 6.34315 27 8V24C27 24.9778 26.5322 25.8463 25.8082 26.394ZM17 11.5C17 9.567 18.567 8 20.5 8C22.433 8 24 9.567 24 11.5C24 13.433 22.433 15 20.5 15C18.567 15 17 13.433 17 11.5ZM20.5 10C19.6716 10 19 10.6716 19 11.5C19 12.3284 19.6716 13 20.5 13C21.3284 13 22 12.3284 22 11.5C22 10.6716 21.3284 10 20.5 10Z" fill="#717171"/>
</svg>
