<svg width="32" height="32" viewBox="0 0 32 32" fill="none" xmlns="http://www.w3.org/2000/svg">
<path d="M19 22C19 22.5523 18.5523 23 18 23H16C15.4477 23 15 22.5523 15 22V16H14C13.4477 16 13 15.5523 13 15C13 14.4477 13.4477 14 14 14H16C16.5523 14 17 14.4477 17 15V21H18C18.5523 21 19 21.4477 19 22Z" fill="#808080"/>
<path d="M16 9C16.8284 9 17.5 9.67158 17.5 10.5C17.5 11.3284 16.8284 12 16 12C15.1716 12 14.5 11.3284 14.5 10.5C14.5 9.67157 15.1716 9 16 9Z" fill="#808080"/>
<path fill-rule="evenodd" clip-rule="evenodd" d="M2 16C2 8.26801 8.26802 2 16 2C23.732 2 30 8.26801 30 16C30 23.732 23.732 30 16 30C8.26801 30 2 23.732 2 16ZM16 4C9.37259 4 4 9.37258 4 16C4 22.6274 9.37258 28 16 28C22.6274 28 28 22.6274 28 16C28 9.37258 22.6274 4 16 4Z" fill="#808080"/>
</svg>
