<svg width="32" height="32" viewBox="0 0 32 32" fill="none" xmlns="http://www.w3.org/2000/svg">
<path d="M14.3655 3C14.3655 2.44772 14.8133 2 15.3655 2H23.3655C23.9178 2 24.3655 2.44772 24.3655 3C24.3655 3.55228 23.9178 4 23.3655 4H20.2515L13.8207 28H16.6356C17.1878 28 17.6356 28.4477 17.6356 29C17.6356 29.5523 17.1878 30 16.6356 30H8.63556C8.08327 30 7.63556 29.5523 7.63556 29C7.63556 28.4477 8.08327 28 8.63556 28H11.7502L18.181 4H15.3655C14.8133 4 14.3655 3.55228 14.3655 3Z" fill="#717171"/>
</svg>
