<svg width="32" height="32" viewBox="0 0 32 32" fill="none" xmlns="http://www.w3.org/2000/svg">
<path d="M12 10C11.4477 10 11 10.4477 11 11C11 11.5523 11.4477 12 12 12H20C20.5523 12 21 11.5523 21 11C21 10.4477 20.5523 10 20 10H12Z" fill="#717171"/>
<path fill-rule="evenodd" clip-rule="evenodd" d="M4 7C4 4.23858 6.23858 2 9 2H23C25.7614 2 28 4.23858 28 7V25C28 27.7614 25.7614 30 23 30H9C6.23858 30 4 27.7614 4 25V7ZM26 7V17C26 19.7614 23.7614 22 21 22H6V7C6 5.34315 7.34315 4 9 4H23C24.6569 4 26 5.34315 26 7ZM21 24C22.9587 24 24.7295 23.1955 26 21.899V25C26 26.6569 24.6569 28 23 28H9C7.34315 28 6 26.6569 6 25V24H21Z" fill="#717171"/>
</svg>
