<svg width="32" height="32" viewBox="0 0 32 32" fill="none" xmlns="http://www.w3.org/2000/svg">
<path fill-rule="evenodd" clip-rule="evenodd" d="M9 2C6.23858 2 4 4.23858 4 7V25C4 27.7614 6.23858 30 9 30H23C25.7614 30 28 27.7614 28 25V7C28 4.23858 25.7614 2 23 2H9ZM6 24H21C22.9587 24 24.7295 23.1955 26 21.899V25C26 26.6569 24.6569 28 23 28H9C7.34315 28 6 26.6569 6 25V24ZM11 11C11 10.4477 11.4477 10 12 10H20C20.5523 10 21 10.4477 21 11C21 11.5523 20.5523 12 20 12H12C11.4477 12 11 11.5523 11 11Z" fill="#717171"/>
</svg>
