<svg width="32" height="32" viewBox="0 0 32 32" fill="none" xmlns="http://www.w3.org/2000/svg">
<path fill-rule="evenodd" clip-rule="evenodd" d="M11.5 4C12.0523 4 12.5 4.44772 12.5 5V6.8125H19C19.5523 6.8125 20 7.26022 20 7.8125C20 8.36478 19.5523 8.8125 19 8.8125H15.9725C15.7908 11.4917 14.7147 14.0355 12.9146 16.033C14.7028 17.3145 16.8265 17.9998 19.0003 17.9998C19.0487 17.9998 19.0963 18.0032 19.1429 18.0099L21.1058 14.084C21.2752 13.7453 21.6214 13.5312 22.0002 13.5312C22.379 13.5312 22.7253 13.7453 22.8946 14.084L28.8946 26.084C29.1416 26.578 28.9414 27.1787 28.4474 27.4257C27.9535 27.6727 27.3528 27.4724 27.1058 26.9785L25.8822 24.5312H18.1183L16.8946 26.9785C16.6477 27.4724 16.047 27.6727 15.553 27.4257C15.059 27.1787 14.8588 26.578 15.1058 26.084L18.1622 19.9713C15.8333 19.8128 13.5882 18.9962 11.6776 17.6067C11.5945 17.5463 11.5122 17.4849 11.4308 17.4226C9.32455 19.0836 6.70951 20 4 20C3.44772 20 3 19.5523 3 19C3 18.4477 3.44772 18 4 18C6.14177 18 8.21271 17.3129 9.91811 16.0608C8.64693 14.7188 7.66733 13.1048 7.05473 11.3253C6.87496 10.8031 7.15257 10.234 7.67478 10.0542C8.19699 9.87447 8.76605 10.1521 8.94582 10.6743C9.47165 12.2018 10.3143 13.581 11.4043 14.7213C12.8887 13.0863 13.7881 11.0075 13.967 8.8125H4C3.44772 8.8125 3 8.36478 3 7.8125C3 7.26022 3.44772 6.8125 4 6.8125H10.5V5C10.5 4.44772 10.9477 4 11.5 4ZM24.8822 22.5312L22.0002 16.7673L19.1183 22.5312H24.8822Z" fill="#808080"/>
</svg>
