<svg width="32" height="32" viewBox="0 0 32 32" fill="none" xmlns="http://www.w3.org/2000/svg">
<path d="M12.7071 8.70711C13.0976 8.31658 13.0976 7.68342 12.7071 7.29289C12.3166 6.90237 11.6834 6.90237 11.2929 7.29289L3.29289 15.2929C3.19352 15.3923 3.11944 15.5073 3.07064 15.6301C3.02506 15.7446 3 15.8694 3 16C3 16.141 3.02917 16.2752 3.08181 16.3968C3.12308 16.4924 3.17996 16.5828 3.25246 16.6643C3.26696 16.6806 3.28198 16.6964 3.2975 16.7117L11.2929 24.7071C11.6834 25.0976 12.3166 25.0976 12.7071 24.7071C13.0976 24.3166 13.0976 23.6834 12.7071 23.2929L6.41424 17L28 17C28.5523 17 29 16.5523 29 16C29 15.4477 28.5523 15 28 15L6.41418 15L12.7071 8.70711Z" fill="#808080"/>
</svg>
