<svg width="32" height="32" viewBox="0 0 32 32" fill="none" xmlns="http://www.w3.org/2000/svg">
<path d="M12.4142 15L14.7071 12.7071C15.0976 12.3166 15.0976 11.6834 14.7071 11.2929C14.3166 10.9024 13.6834 10.9024 13.2929 11.2929L9.29289 15.2929C9.2911 15.2947 9.28931 15.2965 9.28754 15.2983C9.10972 15.4788 9 15.7266 9 16C9 16.2734 9.10972 16.5212 9.28754 16.7017C9.28931 16.7035 9.2911 16.7053 9.29289 16.7071L13.2929 20.7071C13.6834 21.0976 14.3166 21.0976 14.7071 20.7071C15.0976 20.3166 15.0976 19.6834 14.7071 19.2929L12.4142 17H22C22.5523 17 23 16.5523 23 16C23 15.4477 22.5523 15 22 15H12.4142Z" fill="#808080"/>
<path fill-rule="evenodd" clip-rule="evenodd" d="M2 16C2 8.26801 8.26801 2 16 2C23.732 2 30 8.26801 30 16C30 23.732 23.732 30 16 30C8.26801 30 2 23.732 2 16ZM16 4C9.37258 4 4 9.37258 4 16C4 22.6274 9.37258 28 16 28C22.6274 28 28 22.6274 28 16C28 9.37258 22.6274 4 16 4Z" fill="#808080"/>
</svg>
