<svg width="32" height="32" viewBox="0 0 32 32" fill="none" xmlns="http://www.w3.org/2000/svg">
<path d="M6 21.84C6 22.86 6.48 23.34 7.5 23.34H13.5C14.56 23.34 14.72 22.58 14.72 22.22C14.72 21.86 14.56 21.1 13.5 21.1H8.52V10.42C8.52 9.22 7.68 9 7.26 9C6.84 9 6 9.22 6 10.42V21.84Z" fill="#808080"/>
<path d="M24.2148 17.1C25.2748 17.1 25.4148 16.36 25.4148 16.04C25.4148 15.72 25.2748 14.98 24.2148 14.98H18.7348V11.38H24.5348C25.6148 11.38 25.7748 10.62 25.7748 10.28C25.7748 9.94 25.6148 9.18 24.5348 9.18H17.7148C16.6948 9.18 16.2148 9.66 16.2148 10.68V21.84C16.2148 22.86 16.6948 23.34 17.7148 23.34H24.9148C25.9748 23.34 26.1348 22.58 26.1348 22.22C26.1348 21.86 25.9748 21.1 24.9148 21.1H18.7348V17.1H24.2148Z" fill="#808080"/>
</svg>
