<svg width="32" height="32" viewBox="0 0 32 32" fill="none" xmlns="http://www.w3.org/2000/svg">
<path d="M18.7071 6.70722C20.5257 4.88861 23.4743 4.88861 25.2929 6.70722C27.1115 8.52584 27.1115 11.4744 25.2929 13.293L21.5355 17.0504C19.5829 19.003 16.4171 19.003 14.4645 17.0504L13.7071 16.293C13.3166 15.9025 12.6834 15.9025 12.2929 16.293C11.9024 16.6835 11.9024 17.3167 12.2929 17.7072L13.0502 18.4646C15.7839 21.1983 20.2161 21.1982 22.9497 18.4646L26.7071 14.7072C29.3068 12.1076 29.3068 7.89267 26.7071 5.29301C24.1074 2.69334 19.8925 2.69335 17.2929 5.29301L14.2929 8.29301C13.9024 8.68353 13.9024 9.3167 14.2929 9.70722C14.6834 10.0977 15.3166 10.0977 15.7071 9.70722L18.7071 6.70722Z" fill="#717171"/>
<path d="M10.4645 14.9498C12.4171 12.9972 15.5829 12.9972 17.5355 14.9498L18.2929 15.7072C18.6834 16.0977 19.3166 16.0977 19.7071 15.7072C20.0976 15.3167 20.0976 14.6835 19.7071 14.293L18.9497 13.5356C16.2161 10.802 11.7839 10.802 9.05025 13.5356L5.29288 17.293C2.69322 19.8927 2.69323 24.1075 5.29289 26.7072C7.89255 29.3069 12.1074 29.3069 14.7071 26.7072L17.7071 23.7072C18.0976 23.3167 18.0976 22.6835 17.7071 22.293C17.3166 21.9025 16.6834 21.9025 16.2929 22.293L13.2929 25.293C11.4743 27.1116 8.52572 27.1116 6.7071 25.293C4.88849 23.4744 4.88848 20.5258 6.7071 18.7072L10.4645 14.9498Z" fill="#717171"/>
</svg>
