<svg width="32" height="32" viewBox="0 0 32 32" fill="none" xmlns="http://www.w3.org/2000/svg">
<path d="M5 4C3.89543 4 3 4.89544 3 6C3 7.10458 3.89544 8 5 8C6.10456 8 7 7.10458 7 6C7 4.89544 6.10457 4 5 4Z" fill="#808080"/>
<path d="M12 5C11.4477 5 11 5.44772 11 6C11 6.55228 11.4477 7 12 7H28C28.5523 7 29 6.55228 29 6C29 5.44772 28.5523 5 28 5H12Z" fill="#808080"/>
<path d="M12 15C11.4477 15 11 15.4477 11 16C11 16.5523 11.4477 17 12 17H28C28.5523 17 29 16.5523 29 16C29 15.4477 28.5523 15 28 15H12Z" fill="#808080"/>
<path d="M11 26C11 25.4477 11.4477 25 12 25H28C28.5523 25 29 25.4477 29 26C29 26.5523 28.5523 27 28 27H12C11.4477 27 11 26.5523 11 26Z" fill="#808080"/>
<path d="M3 16C3 14.8954 3.89543 14 5 14C6.10457 14 7 14.8954 7 16C7 17.1046 6.10456 18 5 18C3.89544 18 3 17.1046 3 16Z" fill="#808080"/>
<path d="M5 24C3.89543 24 3 24.8954 3 26C3 27.1046 3.89544 28 5 28C6.10456 28 7 27.1046 7 26C7 24.8954 6.10457 24 5 24Z" fill="#808080"/>
</svg>
