<svg width="32" height="32" viewBox="0 0 32 32" fill="none" xmlns="http://www.w3.org/2000/svg">
<path d="M14.5 21.5C14.5 22.3284 15.1716 23 16 23C16.8284 23 17.5 22.3284 17.5 21.5C17.5 20.6716 16.8284 20 16 20C15.1716 20 14.5 20.6716 14.5 21.5Z" fill="#808080"/>
<path fill-rule="evenodd" clip-rule="evenodd" d="M16 2C12.134 2 9 5.13401 9 9V10.4578C4.94289 11.7321 2 15.5224 2 20C2 25.5228 6.47715 30 12 30H20C25.5228 30 30 25.5228 30 20C30 15.5224 27.0571 11.7321 23 10.4578V9C23 5.13401 19.866 2 16 2ZM11.9937 12H20.0063C24.4217 12.0034 28 15.5838 28 20C28 24.4183 24.4183 28 20 28H12C7.58172 28 4 24.4183 4 20C4 15.5838 7.57831 12.0034 11.9937 12ZM20.0071 10H21V9C21 6.23858 18.7614 4 16 4C13.2386 4 11 6.23858 11 9V10H11.9929C11.9953 10 11.9976 10 12 10H20C20.0024 10 20.0047 10 20.0071 10Z" fill="#808080"/>
</svg>
