<svg width="32" height="32" viewBox="0 0 32 32" fill="none" xmlns="http://www.w3.org/2000/svg">
<path d="M17 2.99988C17 2.4476 16.5523 1.99988 16 1.99988C15.4477 1.99988 15 2.44759 15 2.99988L15 15C15 15.5523 15.4477 16 16 16C16.5522 16 17 15.5523 17 15L17 2.99988Z" fill="#808080"/>
<path d="M7.51472 7.5146C7.90524 7.12408 7.90524 6.49091 7.51472 6.10039C7.12419 5.70986 6.49103 5.70986 6.10051 6.10039C0.633165 11.5677 0.633165 20.432 6.10051 25.8994C11.5678 31.3667 20.4322 31.3667 25.8995 25.8994C31.3668 20.432 31.3668 11.5677 25.8995 6.10039C25.509 5.70986 24.8758 5.70986 24.4853 6.10039C24.0948 6.49091 24.0948 7.12408 24.4853 7.5146C29.1716 12.2009 29.1716 19.7989 24.4853 24.4852C19.799 29.1715 12.201 29.1715 7.51472 24.4852C2.82843 19.7989 2.82843 12.2009 7.51472 7.5146Z" fill="#808080"/>
</svg>
