<svg width="32" height="32" viewBox="0 0 32 32" fill="none" xmlns="http://www.w3.org/2000/svg">
<path d="M17 3C17 2.44772 16.5523 2 16 2C15.4477 2 15 2.44771 15 3L15 15.0001C15 15.5524 15.4477 16.0001 16 16.0001C16.5522 16.0001 17 15.5524 17 15.0001L17 3Z" fill="#808080"/>
<path d="M7.51472 7.51472C7.90524 7.1242 7.90524 6.49103 7.51472 6.10051C7.12419 5.70998 6.49103 5.70998 6.10051 6.10051C0.633165 11.5678 0.633165 20.4322 6.10051 25.8995C11.5678 31.3668 20.4322 31.3668 25.8995 25.8995C31.3668 20.4322 31.3668 11.5678 25.8995 6.10051C25.509 5.70998 24.8758 5.70998 24.4853 6.10051C24.0948 6.49103 24.0948 7.1242 24.4853 7.51472C29.1716 12.201 29.1716 19.799 24.4853 24.4853C19.799 29.1716 12.201 29.1716 7.51472 24.4853C2.82843 19.799 2.82843 12.201 7.51472 7.51472Z" fill="#808080"/>
</svg>
