<svg width="32" height="32" viewBox="0 0 32 32" fill="none" xmlns="http://www.w3.org/2000/svg">
<path fill-rule="evenodd" clip-rule="evenodd" d="M14 23.642L24.2427 26.314C26.1435 26.8099 28 25.3755 28 23.4112L28 8.5885C28 6.62414 26.1435 5.1898 24.2427 5.68564L5.24273 10.6422C3.92174 10.9868 3 12.1798 3 13.545V18.4546C3 19.8198 3.92174 21.0129 5.24273 21.3575L6 21.555V24.9998C6 26.6567 7.34314 27.9998 9 27.9998H11C12.6569 27.9998 14 26.6567 14 24.9998V23.642ZM26 8.5885C26 7.93371 25.3812 7.4556 24.7476 7.62088L14 10.4246V21.5751L24.7476 24.3788C25.3812 24.5441 26 24.0659 26 23.4112L26 8.5885ZM8 22.0768V24.9998C8 25.5521 8.44772 25.9998 9 25.9998H11C11.5523 25.9998 12 25.5521 12 24.9998V23.1202L8 22.0768ZM12 21.0533V10.9463L5.74758 12.5774C5.30725 12.6923 5 13.09 5 13.545V18.4546C5 18.9097 5.30725 19.3074 5.74758 19.4222L12 21.0533Z" fill="#717171"/>
</svg>
