<svg width="32" height="32" viewBox="0 0 32 32" fill="none" xmlns="http://www.w3.org/2000/svg">
<path d="M20.6515 2.35965C20.5891 2.14649 20.3937 2 20.1716 2C19.9495 2 19.754 2.14649 19.6917 2.35965L18.6371 5.96556L15.0312 7.0201C14.8181 7.08244 14.6716 7.27791 14.6716 7.5C14.6716 7.72209 14.8181 7.91756 15.0312 7.9799L18.6371 9.03444L19.6917 12.6403C19.754 12.8535 19.9495 13 20.1716 13C20.3937 13 20.5891 12.8535 20.6515 12.6403L21.706 9.03444L25.3119 7.9799C25.5251 7.91756 25.6716 7.72209 25.6716 7.5C25.6716 7.27791 25.5251 7.08244 25.3119 7.0201L21.706 5.96556L20.6515 2.35965Z" fill="#808080"/>
<path fill-rule="evenodd" clip-rule="evenodd" d="M2.87868 11.6213L20.0503 28.7929C21.2218 29.9645 23.1213 29.9645 24.2929 28.7929L25.4645 27.6213C26.636 26.4497 26.636 24.5502 25.4645 23.3787L8.29289 6.20711C7.12132 5.03554 5.22183 5.03554 4.05025 6.20711L2.87868 7.37868C1.7071 8.55026 1.70711 10.4498 2.87868 11.6213ZM8.17161 14.0858L4.29289 10.2071C3.90237 9.81659 3.90237 9.18342 4.29289 8.7929L5.46447 7.62132C5.85499 7.2308 6.48815 7.2308 6.87868 7.62132L10.7574 11.5L8.17161 14.0858ZM9.58582 15.5L21.4645 27.3787C21.855 27.7692 22.4882 27.7692 22.8787 27.3787L24.0503 26.2071C24.4408 25.8166 24.4408 25.1834 24.0502 24.7929L12.1716 12.9143L9.58582 15.5Z" fill="#808080"/>
<path d="M26.6515 12.3597C26.5891 12.1465 26.3937 12 26.1716 12C25.9495 12 25.754 12.1465 25.6917 12.3597L25.0897 14.4181L23.0312 15.0201C22.8181 15.0824 22.6716 15.2779 22.6716 15.5C22.6716 15.7221 22.8181 15.9176 23.0312 15.9799L25.0897 16.5819L25.6917 18.6403C25.754 18.8535 25.9495 19 26.1716 19C26.3937 19 26.5891 18.8535 26.6515 18.6403L27.2535 16.5819L29.3119 15.9799C29.5251 15.9176 29.6716 15.7221 29.6716 15.5C29.6716 15.2779 29.5251 15.0824 29.3119 15.0201L27.2535 14.4181L26.6515 12.3597Z" fill="#808080"/>
<path d="M6.85142 21.7597C6.78908 21.5465 6.59361 21.4 6.37152 21.4C6.14943 21.4 5.95396 21.5465 5.89162 21.7597L5.28963 23.8181L3.23118 24.4201C3.01802 24.4824 2.87152 24.6779 2.87152 24.9C2.87152 25.1221 3.01802 25.3176 3.23118 25.3799L5.28963 25.9819L5.89162 28.0403C5.95396 28.2535 6.14943 28.4 6.37152 28.4C6.59361 28.4 6.78908 28.2535 6.85142 28.0403L7.45341 25.9819L9.51187 25.3799C9.72503 25.3176 9.87152 25.1221 9.87152 24.9C9.87152 24.6779 9.72503 24.4824 9.51187 24.4201L7.45341 23.8181L6.85142 21.7597Z" fill="#808080"/>
</svg>
