<svg width="32" height="32" viewBox="0 0 32 32" fill="none" xmlns="http://www.w3.org/2000/svg">
<path fill-rule="evenodd" clip-rule="evenodd" d="M7.50159 10C7.50159 6.13401 10.6356 3 14.5016 3C18.3676 3 21.5016 6.13401 21.5016 10C21.5016 13.866 18.3676 17 14.5016 17C14.4575 17 14.4135 16.9996 14.3695 16.9988C9.61417 17.0548 5.58203 20.1308 4.10409 24.3996C3.87445 25.0629 4.04098 25.6694 4.47371 26.1495C4.92451 26.6497 5.66594 27 6.50163 27H14.5016C15.0539 27 15.5016 27.4477 15.5016 28C15.5016 28.5523 15.0539 29 14.5016 29H6.50163C5.12819 29 3.83698 28.4303 2.98812 27.4886C2.1212 26.5268 1.72104 25.1695 2.21415 23.7452C3.5327 19.9368 6.57221 16.9419 10.4038 15.6758C8.64556 14.4042 7.50159 12.3357 7.50159 10ZM14.5016 5C11.7402 5 9.50159 7.23858 9.50159 10C9.50159 12.7614 11.7402 15 14.5016 15C17.263 15 19.5016 12.7614 19.5016 10C19.5016 7.23858 17.263 5 14.5016 5Z" fill="#717171"/>
<path fill-rule="evenodd" clip-rule="evenodd" d="M23.5016 16.9999C23.5016 16.4477 23.0539 15.9999 22.5016 15.9999C21.9493 15.9999 21.5016 16.4477 21.5016 16.9999V18.1C20.8633 18.2296 20.2691 18.4808 19.7443 18.8283L18.9662 18.0502C18.5756 17.6596 17.9425 17.6596 17.552 18.0502C17.1614 18.4407 17.1614 19.0738 17.552 19.4644L18.3301 20.2425C17.9824 20.7673 17.7312 21.3615 17.6016 21.9999H16.5016C15.9493 21.9999 15.5016 22.4477 15.5016 22.9999C15.5016 23.5522 15.9493 23.9999 16.5016 23.9999H17.6016C17.7312 24.6383 17.9824 25.2326 18.33 25.7574L17.5519 26.5354C17.1614 26.926 17.1614 27.5591 17.5519 27.9497C17.9424 28.3402 18.5756 28.3402 18.9661 27.9497L19.7442 27.1716C20.269 27.5192 20.8632 27.7704 21.5016 27.9V28.9999C21.5016 29.5522 21.9493 29.9999 22.5016 29.9999C23.0539 29.9999 23.5016 29.5522 23.5016 28.9999V27.9C24.14 27.7704 24.7343 27.5192 25.2591 27.1715L26.0372 27.9497C26.4277 28.3402 27.0609 28.3402 27.4514 27.9497C27.842 27.5591 27.842 26.926 27.4514 26.5354L26.6733 25.7573C27.0208 25.2325 27.272 24.6383 27.4016 23.9999H28.5016C29.0539 23.9999 29.5016 23.5522 29.5016 22.9999C29.5016 22.4477 29.0539 21.9999 28.5016 21.9999H27.4016C27.272 21.3616 27.0208 20.7674 26.6732 20.2426L27.4514 19.4644C27.8419 19.0738 27.8419 18.4407 27.4514 18.0502C27.0608 17.6596 26.4277 17.6596 26.0372 18.0502L25.2589 18.8284C24.7341 18.4808 24.1399 18.2296 23.5016 18.1V16.9999ZM20.377 20.8819C19.836 21.4246 19.5016 22.1732 19.5016 23C19.5016 23.8239 19.8337 24.5702 20.3713 25.1123L20.3803 25.1212L20.3892 25.1302C20.9293 25.6658 21.6719 25.9974 22.4919 26L22.5016 25.9999L22.5113 26C24.1637 25.9948 25.5016 24.6536 25.5016 23C25.5016 21.3431 24.1584 20 22.5016 20C21.6749 20 20.9263 20.3344 20.3837 20.8753L20.3804 20.8786L20.377 20.8819Z" fill="#717171"/>
</svg>
