<svg width="32" height="32" viewBox="0 0 32 32" fill="none" xmlns="http://www.w3.org/2000/svg">
<path fill-rule="evenodd" clip-rule="evenodd" d="M9 9C9 5.13401 12.134 2 16 2C19.866 2 23 5.13401 23 9V15C23 18.866 19.866 22 16 22C12.134 22 9 18.866 9 15V9ZM16 4C13.2386 4 11 6.23858 11 9V15C11 17.7614 13.2386 20 16 20C18.7614 20 21 17.7614 21 15V9C21 6.23858 18.7614 4 16 4Z" fill="#808080"/>
<path d="M16 24C20.9706 24 25 19.9706 25 15V13C25 12.4477 25.4477 12 26 12C26.5523 12 27 12.4477 27 13V15C27 20.738 22.6065 25.4499 17 25.9552V28H21C21.5523 28 22 28.4477 22 29C22 29.5523 21.5523 30 21 30H11C10.4477 30 10 29.5523 10 29C10 28.4477 10.4477 28 11 28H15V25.9552C9.3935 25.4499 5 20.738 5 15V13C5 12.4477 5.44772 12 6 12C6.55228 12 7 12.4477 7 13V15C7 19.9706 11.0294 24 16 24Z" fill="#808080"/>
</svg>
