<svg width="33" height="32" viewBox="0 0 33 32" fill="none" xmlns="http://www.w3.org/2000/svg">
<path fill-rule="evenodd" clip-rule="evenodd" d="M20.5548 8.56625C20.9533 8.45779 21.3726 8.3999 21.8054 8.3999C24.4288 8.3999 26.5554 10.5265 26.5554 13.1499C26.5554 14.4904 26.0001 15.7012 25.107 16.5649C27.8294 17.7134 29.8281 20.2396 30.2309 23.2705C30.3952 24.5065 29.3688 25.3999 28.3054 25.3999H23.8184L23.8054 25.3999H8.80547L8.79248 25.3999H4.30546C3.24209 25.3999 2.21568 24.5065 2.37994 23.2705C2.78278 20.2396 4.78144 17.7134 7.50386 16.5649C6.61074 15.7012 6.05544 14.4904 6.05544 13.1499C6.05544 10.5265 8.18208 8.3999 10.8054 8.3999C11.2383 8.3999 11.6576 8.45779 12.056 8.56626C13.0103 7.25342 14.5582 6.3999 16.3054 6.3999C18.0526 6.3999 19.6005 7.25342 20.5548 8.56625ZM13.0554 11.6499C13.0554 9.85497 14.5105 8.3999 16.3054 8.3999C18.1004 8.3999 19.5554 9.85497 19.5554 11.6499C19.5554 13.4448 18.1004 14.8999 16.3054 14.8999C14.5105 14.8999 13.0554 13.4448 13.0554 11.6499ZM11.1984 10.4278C11.1049 10.8199 11.0554 11.2291 11.0554 11.6499C11.0554 13.0656 11.6158 14.3504 12.5268 15.2946C12.0556 15.6733 11.457 15.8999 10.8054 15.8999C9.28665 15.8999 8.05544 14.6687 8.05544 13.1499C8.05544 11.6311 9.28665 10.3999 10.8054 10.3999C10.9389 10.3999 11.0701 10.4094 11.1984 10.4278ZM20.0841 15.2946C20.5553 15.6733 21.1539 15.8999 21.8054 15.8999C23.3242 15.8999 24.5554 14.6687 24.5554 13.1499C24.5554 11.6311 23.3242 10.3999 21.8054 10.3999C21.672 10.3999 21.5408 10.4094 21.4124 10.4278C21.5059 10.8199 21.5554 11.2291 21.5554 11.6499C21.5554 13.0656 20.9951 14.3504 20.0841 15.2946ZM23.7395 23.3999C23.2512 19.731 20.1082 16.9 16.3055 16.9C12.5027 16.9 9.35972 19.731 8.87145 23.3999H23.7395ZM28.2291 23.3999H25.7508C25.7485 23.3621 25.7452 23.324 25.7407 23.2855C25.5093 21.3081 24.6712 19.5163 23.4173 18.1014C25.9124 18.7381 27.831 20.8185 28.2291 23.3999ZM4.38177 23.3999H6.86014C6.86239 23.3621 6.86575 23.324 6.87025 23.2855C7.10158 21.3081 7.93976 19.5163 9.19361 18.1014C6.69847 18.7381 4.77991 20.8185 4.38177 23.3999Z" fill="#808080"/>
</svg>
