<svg width="32" height="32" viewBox="0 0 32 32" fill="none" xmlns="http://www.w3.org/2000/svg">
<path d="M19 12C19 11.4477 19.4477 11 20 11H25C25.5523 11 26 11.4477 26 12C26 12.5523 25.5523 13 25 13H20C19.4477 13 19 12.5523 19 12Z" fill="#808080"/>
<path d="M20 16C19.4477 16 19 16.4477 19 17C19 17.5523 19.4477 18 20 18H25C25.5523 18 26 17.5523 26 17C26 16.4477 25.5523 16 25 16H20Z" fill="#808080"/>
<path d="M7 11C6.44772 11 6 11.4477 6 12C6 12.5523 6.44772 13 7 13H12C12.5523 13 13 12.5523 13 12C13 11.4477 12.5523 11 12 11H7Z" fill="#808080"/>
<path d="M6 17C6 16.4477 6.44772 16 7 16H12C12.5523 16 13 16.4477 13 17C13 17.5523 12.5523 18 12 18H7C6.44772 18 6 17.5523 6 17Z" fill="#808080"/>
<path fill-rule="evenodd" clip-rule="evenodd" d="M27.0001 4C28.6569 4 30.0001 5.34315 30.0001 7V21C30.0001 22.6569 28.6569 24 27.0001 24H20.0001C18.3432 24 17 25.3432 17 27C17 27.5523 16.5523 28 16 28C15.4477 28 15 27.5523 15 27C15 25.3432 13.6569 24 12 24H5C3.34315 24 2 22.6569 2 21V7.00003C2 5.34318 3.34315 4.00003 5 4.00003H12C13.6356 4.00003 15.0878 4.78539 16 5.99959C16.9123 4.78538 18.3645 4 20.0001 4H27.0001ZM17.0001 9V22.9996C17.8358 22.3719 18.8745 22 20.0001 22H27.0001C27.5524 22 28.0001 21.5523 28.0001 21V7C28.0001 6.44772 27.5524 6 27.0001 6H20.0001C18.3432 6 17.0001 7.34315 17.0001 9ZM15 9.00003V22.9997C14.1643 22.372 13.1256 22 12 22H5C4.44772 22 4 21.5523 4 21V7.00003C4 6.44775 4.44772 6.00003 5 6.00003H12C13.6569 6.00003 15 7.34318 15 9.00003Z" fill="#808080"/>
</svg>
