<svg width="32" height="32" viewBox="0 0 32 32" fill="none" xmlns="http://www.w3.org/2000/svg">
<path fill-rule="evenodd" clip-rule="evenodd" d="M4 7.00049C4 4.23906 6.23858 2.00049 9 2.00049H19C19.2597 2.00049 19.509 2.10152 19.6953 2.28181C19.6993 2.28541 19.7032 2.28916 19.7071 2.29307L27.7071 10.2931C27.7113 10.2972 27.7153 10.3014 27.7191 10.3056C27.8991 10.4919 28 10.741 28 11.0005V14.0005H27.9966C27.9541 14.5137 27.5241 14.9169 27 14.9169C26.4759 14.9169 26.0459 14.5137 26.0034 14.0005H26V12.0002H23C20.2386 12.0002 18 9.7616 18 7.00018V4.00049H9C7.34315 4.00049 6 5.34363 6 7.00049V14.0005H5.99656C5.9541 14.5137 5.52414 14.9169 5 14.9169C4.47586 14.9169 4.0459 14.5137 4.00344 14.0005H4V7.00049ZM20 5.4147V7.00018C20 8.65703 21.3431 10.0002 23 10.0002H24.5855L20 5.4147Z" fill="#808080"/>
<path d="M28 17.5836V19.4169C28 19.9692 27.5523 20.4169 27 20.4169C26.4477 20.4169 26 19.9692 26 19.4169V17.5836C26 17.0313 26.4477 16.5836 27 16.5836C27.5523 16.5836 28 17.0313 28 17.5836Z" fill="#808080"/>
<path d="M5 16.5836C5.55228 16.5836 6 17.0313 6 17.5836V19.4169C6 19.9692 5.55228 20.4169 5 20.4169C4.44772 20.4169 4 19.9692 4 19.4169V17.5836C4 17.0313 4.44772 16.5836 5 16.5836Z" fill="#808080"/>
<path d="M5 22.0836C5.55228 22.0836 6 22.5313 6 23.0836V24.0002C6 24.2704 6.03547 24.5308 6.10145 24.7777C6.24407 25.3112 5.92716 25.8594 5.39361 26.002C4.86006 26.1446 4.31191 25.8277 4.16929 25.2941C4.05868 24.8803 4 24.4464 4 24.0002V23.0836C4 22.5313 4.44772 22.0836 5 22.0836Z" fill="#808080"/>
<path d="M28 23.0836V24.0002C28 24.4464 27.9413 24.8803 27.8307 25.2941C27.6881 25.8277 27.1399 26.1446 26.6064 26.002C26.0728 25.8594 25.7559 25.3112 25.8985 24.7777C25.9645 24.5308 26 24.2704 26 24.0002V23.0836C26 22.5313 26.4477 22.0836 27 22.0836C27.5523 22.0836 28 22.5313 28 23.0836Z" fill="#808080"/>
<path d="M6.99827 27.6066C7.14089 27.0731 7.68903 26.7562 8.22259 26.8988C8.46943 26.9648 8.72981 27.0002 9 27.0002H10.1667C10.719 27.0002 11.1667 27.448 11.1667 28.0002C11.1667 28.5525 10.719 29.0002 10.1667 29.0002H9C8.55387 29.0002 8.11991 28.9416 7.70611 28.831C7.17256 28.6883 6.85565 28.1402 6.99827 27.6066Z" fill="#808080"/>
<path d="M25.0017 27.6066C25.1444 28.1402 24.8274 28.6883 24.2939 28.831C23.8801 28.9416 23.4461 29.0002 23 29.0002H21.8333C21.281 29.0002 20.8333 28.5525 20.8333 28.0002C20.8333 27.448 21.281 27.0002 21.8333 27.0002H23C23.2702 27.0002 23.5306 26.9648 23.7774 26.8988C24.311 26.7562 24.8591 27.0731 25.0017 27.6066Z" fill="#808080"/>
<path d="M13.8333 28.0002C13.8333 27.448 14.281 27.0002 14.8333 27.0002H17.1667C17.719 27.0002 18.1667 27.448 18.1667 28.0002C18.1667 28.5525 17.719 29.0002 17.1667 29.0002H14.8333C14.281 29.0002 13.8333 28.5525 13.8333 28.0002Z" fill="#808080"/>
</svg>
