<svg width="32" height="32" viewBox="0 0 32 32" fill="none" xmlns="http://www.w3.org/2000/svg">
<path d="M10 10C9.44772 10 9 10.4477 9 11C9 11.5523 9.44772 12 10 12H22C22.5523 12 23 11.5523 23 11C23 10.4477 22.5523 10 22 10H10Z" fill="#717171"/>
<path d="M9 16C9 15.4477 9.44772 15 10 15H22C22.5523 15 23 15.4477 23 16C23 16.5523 22.5523 17 22 17H10C9.44772 17 9 16.5523 9 16Z" fill="#717171"/>
<path d="M10 20C9.44772 20 9 20.4477 9 21C9 21.5523 9.44772 22 10 22H18C18.5523 22 19 21.5523 19 21C19 20.4477 18.5523 20 18 20H10Z" fill="#717171"/>
<path fill-rule="evenodd" clip-rule="evenodd" d="M8 3C5.23858 3 3 5.23858 3 8V24C3 26.7614 5.23858 29 8 29H24C26.7614 29 29 26.7614 29 24V8C29 5.23858 26.7614 3 24 3H8ZM5 8C5 6.34315 6.34315 5 8 5H24C25.6569 5 27 6.34315 27 8V24C27 25.6569 25.6569 27 24 27H8C6.34315 27 5 25.6569 5 24V8Z" fill="#717171"/>
</svg>
