<svg width="32" height="32" viewBox="0 0 32 32" fill="none" xmlns="http://www.w3.org/2000/svg">
<path fill-rule="evenodd" clip-rule="evenodd" d="M9.42857 8C9.42857 7.44772 9.87629 7 10.4286 7H21C25.9706 7 30 11.0294 30 16C30 20.9706 25.9706 25 21 25H9C5.13401 25 2 21.866 2 18C2 14.134 5.13401 11 9 11H20.3571C23.1186 11 25.3571 13.2386 25.3571 16C25.3571 18.7614 23.1186 21 20.3571 21H10.4286C9.87629 21 9.42857 20.5523 9.42857 20C9.42857 19.4477 9.87629 19 10.4286 19H20.3571C22.014 19 23.3571 17.6569 23.3571 16C23.3571 14.3431 22.014 13 20.3571 13H9C6.23858 13 4 15.2386 4 18C4 20.7614 6.23858 23 9 23H21C24.866 23 28 19.866 28 16C28 12.134 24.866 9 21 9H10.4286C9.87629 9 9.42857 8.55228 9.42857 8Z" fill="#717171"/>
</svg>
