<svg width="32" height="32" viewBox="0 0 32 32" fill="none" xmlns="http://www.w3.org/2000/svg">
<path fill-rule="evenodd" clip-rule="evenodd" d="M6.29289 16.2071C5.90237 15.8166 5.90237 15.1834 6.29289 14.7929L15.7929 5.29289C18.6687 2.41709 23.3313 2.41708 26.2071 5.29289C29.0829 8.16869 29.0829 12.8313 26.2071 15.7071L14.2071 27.7071C12.1597 29.7545 8.84025 29.7545 6.79288 27.7071C4.74551 25.6597 4.74551 22.3403 6.79288 20.2929L18.2929 8.79289C19.5118 7.57394 21.4882 7.57394 22.7071 8.79289C23.9261 10.0118 23.9261 11.9882 22.7071 13.2071L14.2071 21.7071C13.8166 22.0976 13.1834 22.0976 12.7929 21.7071C12.4024 21.3166 12.4024 20.6834 12.7929 20.2929L21.2929 11.7929C21.7308 11.355 21.7308 10.645 21.2929 10.2071C20.855 9.7692 20.145 9.7692 19.7071 10.2071L8.20709 21.7071C6.94077 22.9734 6.94077 25.0266 8.20709 26.2929C9.47342 27.5592 11.5265 27.5592 12.7929 26.2929L24.7929 14.2929C26.8876 12.1981 26.8876 8.80186 24.7929 6.7071C22.6981 4.61234 19.3019 4.61235 17.2071 6.7071L7.70711 16.2071C7.31658 16.5976 6.68342 16.5976 6.29289 16.2071Z" fill="#717171"/>
</svg>
