<svg width="32" height="32" viewBox="0 0 32 32" fill="none" xmlns="http://www.w3.org/2000/svg">
<path fill-rule="evenodd" clip-rule="evenodd" d="M13.8385 4.39336C14.335 4.65163 14.7753 5.00811 15.1143 5.37066C15.1269 5.38417 15.1392 5.39804 15.1511 5.41223C15.985 6.40969 15.9987 7.69305 15.8473 8.71604C15.7133 9.62219 15.4133 10.5426 15.189 11.2308C15.1558 11.3326 15.1243 11.4293 15.0952 11.5201L15.0897 11.5367C14.9818 11.8545 14.8787 12.1662 14.7802 12.4719C15.4504 13.0799 16.1807 13.679 16.942 14.2456C17.7178 14.823 18.515 15.3587 19.3009 15.8308C19.5238 15.6336 19.7393 15.4394 19.9497 15.2498C20.1449 15.0739 20.3357 14.9019 20.5239 14.7354C21.7666 13.6352 23.1705 12.4844 25.0217 12.9093C25.0401 12.9116 25.0549 12.9139 25.0656 12.9156C25.128 12.9255 25.1858 12.939 25.2342 12.9519C25.3321 12.978 25.4362 13.0135 25.5402 13.0545C25.7495 13.137 26.0006 13.2584 26.2595 13.4207C26.7602 13.7346 27.3972 14.2694 27.7265 15.0782C28.0676 15.9159 27.9601 16.7937 27.7009 17.4922C27.4429 18.1876 26.9893 18.8332 26.4462 19.245L26.4408 19.249C25.7631 19.7558 24.9147 19.8693 24.1094 19.8107C23.2931 19.7513 22.3967 19.5076 21.4872 19.1556C20.8573 18.9118 20.2008 18.6081 19.5341 18.2575C18.6383 18.9821 17.5862 19.7353 16.3244 20.4152L16.3196 20.4177C14.9737 21.1336 13.6663 21.5922 12.4603 21.9114C12.4445 21.9859 12.4287 22.0596 12.4129 22.1324C12.1527 23.3328 11.8751 24.3954 11.4182 25.2398C10.9313 26.1395 10.2415 26.7931 9.22133 27.1693C9.20645 27.1748 9.19144 27.1799 9.17632 27.1847C8.69455 27.3368 8.03041 27.4572 7.33937 27.434C6.65686 27.4111 5.83747 27.2433 5.16639 26.7038C5.12951 26.6742 5.09478 26.642 5.06246 26.6074C4.61589 26.1298 4.3978 25.508 4.27678 25.0216C4.15338 24.5257 4.09991 24.0337 4.06599 23.7216L4.06421 23.7052C4.0493 23.5681 4.06292 23.4293 4.10423 23.2977C4.41906 22.2945 5.11406 21.6957 5.94113 21.3254C6.7116 20.9803 7.66323 20.804 8.60726 20.6425C8.73227 20.6211 8.8588 20.5997 8.98679 20.5781C9.55029 20.4829 10.1422 20.3829 10.7579 20.2558C11.1314 18.4036 11.6123 16.0208 12.5015 13.0629C11.9098 12.4702 11.3729 11.8703 10.9136 11.2788C10.309 10.5002 9.81216 9.70196 9.51346 8.92551C9.22839 8.18448 9.08772 7.36634 9.31979 6.58626C9.42803 6.01072 9.78972 5.44001 10.1931 5.01784C10.6296 4.56086 11.2832 4.10112 12.0759 4.01491C12.7329 3.94346 13.3484 4.13843 13.8385 4.39336ZM13.1967 10.8908C13.2281 10.7929 13.2602 10.694 13.2926 10.5942C13.5202 9.89276 13.7616 9.14888 13.8689 8.42339C13.9925 7.58743 13.8937 7.04318 13.6325 6.71452C13.43 6.50257 13.1755 6.30288 12.9155 6.16765C12.6402 6.0244 12.4281 5.9884 12.2922 6.00319C12.1332 6.02048 11.887 6.14004 11.6392 6.39941C11.5241 6.51985 11.4314 6.6479 11.3676 6.7625C11.3361 6.81909 11.3147 6.86701 11.3011 6.90388C11.2883 6.93873 11.2853 6.95598 11.2853 6.95597C11.2853 6.95626 11.2853 6.95597 11.2853 6.95597C11.2769 7.01704 11.2629 7.07676 11.2435 7.13524C11.1788 7.32948 11.1728 7.66847 11.3801 8.20743C11.5839 8.73726 11.9578 9.36259 12.4933 10.0522C12.7072 10.3277 12.9427 10.608 13.1967 10.8908ZM14.1434 14.5739C13.5819 16.5547 13.211 18.246 12.9131 19.6951C13.7107 19.4358 14.5351 19.1014 15.378 18.6533C16.2455 18.1857 16.9983 17.6837 17.6722 17.1754C17.0211 16.7623 16.3747 16.3165 15.7479 15.85C15.1993 15.4417 14.6609 15.0139 14.1434 14.5739ZM10.3055 22.3804C9.97107 22.4408 9.65086 22.4946 9.34691 22.5458C9.20942 22.5689 9.07525 22.5915 8.9446 22.6138C7.95869 22.7825 7.26009 22.9261 6.75853 23.1507C6.39505 23.3135 6.19582 23.4905 6.07929 23.7276C6.11018 23.9885 6.1504 24.2686 6.21761 24.5387C6.29753 24.8599 6.39367 25.0711 6.48156 25.1907C6.69147 25.3318 7.00344 25.4216 7.40648 25.4352C7.83184 25.4495 8.25817 25.3742 8.55171 25.2845C9.06152 25.0914 9.38593 24.7929 9.65922 24.2879C9.9054 23.833 10.1027 23.2237 10.3055 22.3804ZM21.172 16.8416C21.5275 17.0105 21.8744 17.1609 22.2091 17.2904C23.0142 17.6021 23.7066 17.7761 24.2545 17.8159C24.8101 17.8564 25.1012 17.7521 25.2407 17.6491C25.4383 17.498 25.6812 17.1861 25.8258 16.7965C25.97 16.408 25.9711 16.0704 25.8741 15.8324C25.7655 15.5655 25.5146 15.3142 25.1972 15.1153C25.0472 15.0212 24.9067 14.9545 24.8069 14.9152C24.7822 14.9055 24.7624 14.8984 24.7478 14.8934C24.7042 14.8882 24.6609 14.8802 24.6181 14.8692C23.8738 14.6788 23.2213 15.0185 21.8496 16.2329C21.6768 16.3858 21.4964 16.5487 21.3074 16.7194C21.2628 16.7597 21.2177 16.8004 21.172 16.8416Z" fill="#717171"/>
</svg>
