<svg width="32" height="32" viewBox="0 0 32 32" fill="none" xmlns="http://www.w3.org/2000/svg">
<path fill-rule="evenodd" clip-rule="evenodd" d="M3.29288 21.2928C3.10534 21.4803 2.99998 21.7347 2.99998 21.9999V27.9999C2.99998 28.2651 3.10534 28.5195 3.29288 28.707C3.48041 28.8945 3.73477 28.9999 3.99998 28.9999H9.99998C10.2652 28.9999 10.5196 28.8945 10.7071 28.707L27.8787 11.5354C29.8313 9.5828 29.8313 6.41697 27.8787 4.46435L27.5355 4.12121C25.5829 2.16859 22.4171 2.16858 20.4645 4.1212L3.29288 21.2928ZM4.99998 26.9999L4.99998 22.4141L19 8.41406L23.5858 12.9998L9.58577 26.9999H4.99998ZM25 11.5856L26.4644 10.1212C27.636 8.94963 27.636 7.05014 26.4644 5.87856L26.1213 5.53542C24.9497 4.36385 23.0502 4.36384 21.8787 5.53542L20.4142 6.99984L25 11.5856Z" fill="#808080"/>
</svg>
