<svg width="32" height="32" viewBox="0 0 32 32" fill="none" xmlns="http://www.w3.org/2000/svg">
<path fill-rule="evenodd" clip-rule="evenodd" d="M2.99998 21.9999C2.99998 21.7347 3.10534 21.4803 3.29288 21.2928L20.4645 4.1212C22.4171 2.16858 25.5829 2.16859 27.5355 4.12121L27.8787 4.46435C29.8313 6.41697 29.8313 9.5828 27.8787 11.5354L10.7071 28.707C10.5196 28.8945 10.2652 28.9999 9.99998 28.9999H3.99998C3.73477 28.9999 3.48041 28.8945 3.29288 28.707C3.10534 28.5195 2.99998 28.2651 2.99998 27.9999V21.9999ZM4.99998 22.4141L4.99998 26.9999H9.58577L23.5858 12.9998L19 8.41406L4.99998 22.4141ZM20.4142 6.99984L25 11.5856L26.4644 10.1212C27.636 8.94963 27.636 7.05014 26.4644 5.87856L26.1213 5.53542C24.9497 4.36385 23.0502 4.36384 21.8787 5.53542L20.4142 6.99984Z" fill="#808080"/>
<path d="M16 27.9999C16 27.4476 16.4477 26.9999 17 26.9999H27C27.5523 26.9999 28 27.4476 28 27.9999C28 28.5522 27.5523 28.9999 27 28.9999H17C16.4477 28.9999 16 28.5522 16 27.9999Z" fill="#808080"/>
</svg>
