<svg width="32" height="32" viewBox="0 0 32 32" fill="none" xmlns="http://www.w3.org/2000/svg">
<path fill-rule="evenodd" clip-rule="evenodd" d="M10 5.00003C8.34315 5.00003 7 6.34318 7 8.00003V24C7 25.6569 8.34315 27 10 27H22C23.6569 27 25 25.6569 25 24V12.4142L17.5858 5.00003H10ZM5 8.00003C5 5.23861 7.23858 3.00003 10 3.00003H18C18.2652 3.00003 18.5196 3.10539 18.7071 3.29292L26.7071 11.2929C26.8946 11.4805 27 11.7348 27 12V24C27 26.7615 24.7614 29 22 29H10C7.23858 29 5 26.7615 5 24V8.00003Z" fill="#717171"/>
<path fill-rule="evenodd" clip-rule="evenodd" d="M17.6173 3.07615C17.991 2.92137 18.4211 3.00692 18.7071 3.29292L26.7071 11.2929C26.9931 11.5789 27.0787 12.009 26.9239 12.3827C26.7691 12.7564 26.4045 13 26 13H22C19.2386 13 17 10.7615 17 8.00003V4.00003C17 3.59557 17.2436 3.23093 17.6173 3.07615ZM19 6.41424V8.00003C19 9.65688 20.3431 11 22 11H23.5858L19 6.41424Z" fill="#717171"/>
</svg>
