<svg width="32" height="32" viewBox="0 0 32 32" fill="none" xmlns="http://www.w3.org/2000/svg">
<path fill-rule="evenodd" clip-rule="evenodd" d="M6.30328 7L12.5995 13.7367L24.2679 7L6.30328 7ZM25.2678 8.73205L13.5995 15.4688L16.2856 24.2898L25.2678 8.73205ZM11.5224 15.5133L3.26931 6.68282C2.99733 6.39181 2.92399 5.96714 3.08262 5.60177C3.24124 5.23639 3.60158 5 3.9999 5L27.9999 5C28.3572 5 28.6873 5.1906 28.8659 5.5C29.0446 5.8094 29.0446 6.1906 28.8659 6.5L16.8659 27.2846C16.6668 27.6296 16.2819 27.8234 15.8861 27.7781C15.4904 27.7328 15.1593 27.4569 15.0433 27.0759L11.5224 15.5133Z" fill="#808080"/>
</svg>
