<svg width="32" height="32" viewBox="0 0 32 32" fill="none" xmlns="http://www.w3.org/2000/svg">
<path fill-rule="evenodd" clip-rule="evenodd" d="M5.79706 3.19648C6.11712 2.95937 6.54738 2.93482 6.89233 3.13398L27.6769 15.134C27.9863 15.3126 28.1769 15.6427 28.1769 16C28.1769 16.3573 27.9863 16.6874 27.6769 16.866L6.89234 28.866C6.54738 29.0652 6.11713 29.0406 5.79707 28.8035C5.477 28.5664 5.32818 28.162 5.41822 27.7739L7.91832 17H18C18.5523 17 19 16.5523 19 16C19 15.4477 18.5523 15 18 15H7.91832L5.41822 4.22605C5.32818 3.83804 5.477 3.43359 5.79706 3.19648Z" fill="#808080"/>
</svg>
