<svg width="32" height="32" viewBox="0 0 32 32" fill="none" xmlns="http://www.w3.org/2000/svg">
<path fill-rule="evenodd" clip-rule="evenodd" d="M5.79686 3.19648C6.11692 2.95937 6.54718 2.93482 6.89213 3.13398L27.6767 15.134C27.9861 15.3126 28.1767 15.6427 28.1767 16C28.1767 16.3573 27.9861 16.6874 27.6767 16.866L6.89214 28.866C6.54718 29.0652 6.11693 29.0406 5.79687 28.8035C5.47681 28.5664 5.32799 28.162 5.41802 27.7739L7.91812 17H17.9998C18.5521 17 18.9998 16.5523 18.9998 16C18.9998 15.4477 18.5521 15 17.9998 15H7.91812L5.41802 4.22605C5.32798 3.83804 5.4768 3.43359 5.79686 3.19648Z" fill="#808080"/>
</svg>
