<svg width="32" height="32" viewBox="0 0 32 32" fill="none" xmlns="http://www.w3.org/2000/svg">
<path fill-rule="evenodd" clip-rule="evenodd" d="M10.8439 14.7872L3.26937 6.68282C2.99739 6.39181 2.92405 5.96714 3.08268 5.60177C3.2413 5.23639 3.60164 5 3.99996 5H28C28.3572 5 28.6874 5.1906 28.866 5.5C29.0446 5.8094 29.0446 6.1906 28.866 6.5L16.866 27.2846C16.6668 27.6296 16.2819 27.8234 15.8862 27.7781C15.4905 27.7328 15.1594 27.4569 15.0433 27.0759L11.812 16.4641C11.8919 16.442 11.9704 16.4095 12.0455 16.3661L21.5718 10.8661C22.0501 10.5899 22.214 9.97834 21.9378 9.50004C21.6617 9.02175 21.0501 8.85788 20.5718 9.13402L11.0455 14.634C10.9704 14.6774 10.903 14.7291 10.8439 14.7872Z" fill="#808080"/>
</svg>
