<svg width="32" height="32" viewBox="0 0 32 32" fill="none" xmlns="http://www.w3.org/2000/svg">
<path fill-rule="evenodd" clip-rule="evenodd" d="M6.51259 3.12683C6.83965 2.94426 7.24131 2.95978 7.55331 3.16702L25.5533 15.1235C25.8922 15.3487 26.061 15.7567 25.98 16.1555C25.899 16.5543 25.5845 16.8642 25.1846 16.9393L18.8916 18.1216L23.6503 25.9441C23.7903 26.1743 23.8315 26.4512 23.7646 26.7122C23.6976 26.9732 23.5282 27.1962 23.2946 27.3305L18.8865 29.8668C18.416 30.1375 17.8155 29.9834 17.5334 29.5197L12.727 21.6186L8.48275 26.4028C8.2112 26.7089 7.78056 26.8186 7.39561 26.6799C7.01067 26.5411 6.74909 26.1819 6.73527 25.7729L6.00057 4.03378C5.98792 3.65943 6.18553 3.3094 6.51259 3.12683ZM8.06506 5.90798L8.64949 23.2011L12.1295 19.2784C12.3401 19.041 12.6509 18.9176 12.967 18.946C13.2831 18.9744 13.567 19.1512 13.7319 19.4223L18.7349 27.6466L21.409 26.108L16.4314 17.9255C16.2607 17.645 16.2387 17.2986 16.3723 16.9987C16.506 16.6988 16.7784 16.4836 17.1011 16.423L22.3971 15.428L8.06506 5.90798Z" fill="#808080"/>
</svg>
