<svg width="32" height="32" viewBox="0 0 32 32" fill="none" xmlns="http://www.w3.org/2000/svg">
<path d="M24 8C24 8.55228 23.5523 9 23 9H9C8.44771 9 8 8.55228 8 8C8 7.44772 8.44771 7 9 7H23C23.5523 7 24 7.44772 24 8Z" fill="#808080"/>
<path fill-rule="evenodd" clip-rule="evenodd" d="M10 11C8.34315 11 7 12.3431 7 14V22C7 23.6569 8.34315 25 10 25H22C23.6569 25 25 23.6569 25 22V14C25 12.3431 23.6569 11 22 11H10ZM9 14C9 13.4477 9.44772 13 10 13H22C22.5523 13 23 13.4477 23 14V22C23 22.5523 22.5523 23 22 23H10C9.44772 23 9 22.5523 9 22V14Z" fill="#808080"/>
<path fill-rule="evenodd" clip-rule="evenodd" d="M3 8C3 5.23858 5.23858 3 8 3H24C26.7614 3 29 5.23858 29 8V24C29 26.7614 26.7614 29 24 29H8C5.23858 29 3 26.7614 3 24V8ZM8 5C6.34315 5 5 6.34315 5 8V24C5 25.6569 6.34315 27 8 27H24C25.6569 27 27 25.6569 27 24V8C27 6.34315 25.6569 5 24 5H8Z" fill="#808080"/>
</svg>
