<svg width="32" height="32" viewBox="0 0 32 32" fill="none" xmlns="http://www.w3.org/2000/svg">
<path d="M8 5C6.34315 5 5 6.34315 5 8V24C5 25.6569 6.34315 27 8 27H16C16.5523 27 17 27.4477 17 28C17 28.5523 16.5523 29 16 29H8C5.23858 29 3 26.7614 3 24V8C3 5.23858 5.23858 3 8 3H24C26.7614 3 29 5.23858 29 8V16C29 16.5523 28.5523 17 28 17C27.4477 17 27 16.5523 27 16V8C27 6.34315 25.6569 5 24 5H8Z" fill="#717171"/>
<path d="M24 8C24 8.55228 23.5523 9 23 9H9C8.44771 9 8 8.55228 8 8C8 7.44772 8.44771 7 9 7H23C23.5523 7 24 7.44772 24 8Z" fill="#717171"/>
<path d="M25 19C25 18.4477 24.5523 18 24 18C23.4477 18 23 18.4477 23 19V23H19C18.4477 23 18 23.4477 18 24C18 24.5523 18.4477 25 19 25H23V29C23 29.5523 23.4477 30 24 30C24.5523 30 25 29.5523 25 29V25H29C29.5523 25 30 24.5523 30 24C30 23.4477 29.5523 23 29 23H25V19Z" fill="#717171"/>
<path d="M9 14C9 13.4477 9.44772 13 10 13H22C22.5523 13 23 13.4477 23 14V15C23 15.5523 23.4477 16 24 16C24.5523 16 25 15.5523 25 15V14C25 12.3431 23.6569 11 22 11H10C8.34315 11 7 12.3431 7 14V22C7 23.6569 8.34315 25 10 25H15C15.5523 25 16 24.5523 16 24C16 23.4477 15.5523 23 15 23H10C9.44772 23 9 22.5523 9 22V14Z" fill="#717171"/>
</svg>
