<svg width="32" height="32" viewBox="0 0 32 32" fill="none" xmlns="http://www.w3.org/2000/svg">
<path d="M23 3H9C7.89543 3 7 3.89543 7 5V11H25V5C25 3.89543 24.1046 3 23 3Z" stroke="#808080" stroke-width="2" stroke-miterlimit="10" stroke-linecap="round" stroke-linejoin="round"/>
<path d="M23 29H9C7.89543 29 7 28.1046 7 27V19C7 17.8954 7.89543 17 9 17H23C24.1046 17 25 17.8954 25 19V27C25 28.1046 24.1046 29 23 29Z" stroke="#808080" stroke-width="2" stroke-miterlimit="10" stroke-linecap="round" stroke-linejoin="round"/>
<path fill-rule="evenodd" clip-rule="evenodd" d="M7 22H5C3.34315 22 2 20.6569 2 19V13C2 11.3431 3.34315 10 5 10H27C28.6569 10 30 11.3431 30 13V19C30 20.6569 28.6569 22 27 22H25V20H27C27.5523 20 28 19.5523 28 19V13C28 12.4477 27.5523 12 27 12H5C4.44772 12 4 12.4477 4 13V19C4 19.5523 4.44772 20 5 20H7V22Z" fill="#808080"/>
<path d="M12 21H20" stroke="#808080" stroke-width="2" stroke-miterlimit="10" stroke-linecap="round" stroke-linejoin="round"/>
<path d="M12 25H20" stroke="#808080" stroke-width="2" stroke-miterlimit="10" stroke-linecap="round" stroke-linejoin="round"/>
</svg>
