<svg width="32" height="32" viewBox="0 0 32 32" fill="none" xmlns="http://www.w3.org/2000/svg">
<path fill-rule="evenodd" clip-rule="evenodd" d="M16 3C12.134 3 9 6.13401 9 10C9 12.3286 10.1371 14.3917 11.8862 15.6643C7.38329 17.1651 3.97673 21.0626 3.17812 25.8436C2.87541 27.6559 4.39765 29 5.99994 29H25.9999C27.6022 29 29.1245 27.6559 28.8218 25.8436C28.0232 21.0627 24.6166 17.1652 20.1137 15.6643C21.8629 14.3917 23 12.3286 23 10C23 6.13401 19.866 3 16 3ZM11 10C11 7.23858 13.2386 5 16 5C18.7614 5 21 7.23858 21 10C21 12.7614 18.7614 15 16 15C13.2386 15 11 12.7614 11 10ZM5.15079 26.1731C6.02031 20.9676 10.5478 17 15.9999 17C21.4521 17 25.9796 20.9676 26.8491 26.1731C26.9103 26.5398 26.6068 27 25.9999 27H5.99994C5.3931 27 5.08954 26.5398 5.15079 26.1731Z" fill="#808080"/>
</svg>
