<svg width="32" height="32" viewBox="0 0 32 32" fill="none" xmlns="http://www.w3.org/2000/svg">
<path fill-rule="evenodd" clip-rule="evenodd" d="M11.8863 15.6643C10.1371 14.3917 8.99999 12.3287 8.99999 10C8.99999 6.13401 12.134 3 16 3C19.866 3 23 6.13401 23 10C23 13.866 19.866 17 16 17C15.9985 17 15.9969 17 15.9954 17C11.1847 17.002 7.09357 20.0927 5.60244 24.3996C5.3728 25.0629 5.53933 25.6694 5.97206 26.1495C6.42287 26.6497 7.16429 27 7.99999 27H16C16.5523 27 17 27.4477 17 28C17 28.5523 16.5523 29 16 29H7.99999C6.62654 29 5.33533 28.4303 4.48648 27.4886C3.61955 26.5268 3.21939 25.1695 3.71251 23.7453C5.02923 19.9421 8.06217 16.939 11.8863 15.6643ZM11 10C11 7.23858 13.2386 5 16 5C18.7614 5 21 7.23858 21 10C21 12.7609 18.7623 14.9991 16.0016 15H16C15.9986 15 15.9972 15 15.9957 15C13.2363 14.9977 11 12.76 11 10Z" fill="#717171"/>
<path d="M25 19C25 18.4477 24.5523 18 24 18C23.4477 18 23 18.4477 23 19V23H19C18.4477 23 18 23.4477 18 24C18 24.5523 18.4477 25 19 25H23V29C23 29.5523 23.4477 30 24 30C24.5523 30 25 29.5523 25 29V25H29C29.5523 25 30 24.5523 30 24C30 23.4477 29.5523 23 29 23H25V19Z" fill="#717171"/>
</svg>
