<svg width="32" height="32" viewBox="0 0 32 32" fill="none" xmlns="http://www.w3.org/2000/svg">
<path fill-rule="evenodd" clip-rule="evenodd" d="M16 2C8.26801 2 2 8.26801 2 16C2 23.732 8.26801 30 16 30C23.732 30 30 23.732 30 16C30 8.26801 23.732 2 16 2ZM4 16C4 9.37258 9.37258 4 16 4C22.6274 4 28 9.37258 28 16C28 18.639 27.1481 21.079 25.7044 23.0601C24.3653 20.9673 22.3196 19.3994 19.8551 18.5979C21.1664 17.4973 22.0001 15.846 22.0001 14C22.0001 10.6863 19.3137 8 16 8C12.6863 8 10 10.6863 10 14C10 15.846 10.8336 17.4972 12.1449 18.5979C9.6807 19.3993 7.63495 20.967 6.29562 23.0601C4.85187 21.079 4 18.639 4 16ZM7.67918 24.6466C9.83653 26.7232 12.7692 28 16 28C19.2308 28 22.1635 26.7232 24.3208 24.6467C22.7949 21.8571 19.7629 20.0068 16.0207 20L16 20.0001L15.9794 20C12.2365 20.0068 9.20446 21.8579 7.67918 24.6466ZM16 10C13.7909 10 12 11.7909 12 14C12 16.2031 13.781 17.9902 15.9817 18L16 18L16.0183 18C18.219 17.9902 20.0001 16.2031 20.0001 14C20.0001 11.7909 18.2092 10 16 10Z" fill="#717171"/>
</svg>
