<svg width="32" height="32" viewBox="0 0 32 32" fill="none" xmlns="http://www.w3.org/2000/svg">
<path d="M11 21C10.4477 21 10 21.4477 10 22C10 22.5523 10.4477 23 11 23H21C21.5523 23 22 22.5523 22 22C22 21.4477 21.5523 21 21 21H11Z" fill="#808080"/>
<path d="M10 16C10 15.4477 10.4477 15 11 15H21C21.5523 15 22 15.4477 22 16C22 16.5523 21.5523 17 21 17H11C10.4477 17 10 16.5523 10 16Z" fill="#808080"/>
<path fill-rule="evenodd" clip-rule="evenodd" d="M12 6C12 3.79086 13.7909 2 16 2C18.2091 2 20 3.79086 20 6H23C25.7614 6 28 8.23858 28 11V25C28 27.7614 25.7614 30 23 30H9C6.23858 30 4 27.7614 4 25V11C4 8.23858 6.23858 6 9 6H12ZM14 6C14 4.89543 14.8954 4 16 4C17.1046 4 18 4.89543 18 6C18 7.10457 17.1046 8 16 8C14.8954 8 14 7.10457 14 6ZM15 9.87398V11C15 11.5523 15.4477 12 16 12C16.5523 12 17 11.5523 17 11V9.87398C18.0508 9.60352 18.9346 8.91676 19.4649 8H23C24.6569 8 26 9.34315 26 11V25C26 26.6569 24.6569 28 23 28H9C7.34315 28 6 26.6569 6 25V11C6 9.34315 7.34315 8 9 8H12.5351C13.0654 8.91676 13.9492 9.60352 15 9.87398Z" fill="#808080"/>
</svg>
