<svg width="32" height="32" viewBox="0 0 32 32" fill="none" xmlns="http://www.w3.org/2000/svg">
<path d="M27 3C27 2.44772 26.5523 2 26 2C25.4477 2 25 2.44772 25 3V6.61915C19.9097 1.73165 11.8208 1.79449 6.80761 6.80767C4.2694 9.34588 3 12.6746 3 16.0001C3 19.3255 4.2694 22.6542 6.80761 25.1924C11.8844 30.2693 20.1156 30.2693 25.1924 25.1924C27.7306 22.6542 29 19.3255 29 16.0001C29 15.4478 28.5523 15.0001 28 15.0001C27.4477 15.0001 27 15.4478 27 16.0001C27 18.8168 25.9262 21.6302 23.7782 23.7782C19.4824 28.074 12.5176 28.074 8.22182 23.7782C6.07375 21.6302 5 18.8168 5 16.0001C5 13.1834 6.07375 10.37 8.22183 8.22188C12.4423 4.0014 19.2391 3.92744 23.5499 8L20 8C19.4477 8 19 8.44771 19 9C19 9.55228 19.4477 10 20 10L25.9597 10C25.9669 10.0001 25.9742 10.0001 25.9814 10H26C26.5523 10 27 9.55228 27 9V3Z" fill="#808080"/>
</svg>
