<svg width="32" height="32" viewBox="0 0 32 32" fill="none" xmlns="http://www.w3.org/2000/svg">
<path d="M12 15C12 14.4477 12.4477 14 13 14H19C19.5523 14 20 14.4477 20 15C20 15.5523 19.5523 16 19 16H13C12.4477 16 12 15.5523 12 15Z" fill="#808080"/>
<path fill-rule="evenodd" clip-rule="evenodd" d="M28 10.8293C29.1652 10.4175 30 9.30622 30 8V6C30 4.34315 28.6569 3 27 3H5C3.34315 3 2 4.34315 2 6V8C2 9.30622 2.83481 10.4175 4 10.8293V24C4 26.7614 6.23858 29 9 29H23C25.7614 29 28 26.7614 28 24V10.8293ZM4 8C4 8.55228 4.44772 9 5 9H27C27.5523 9 28 8.55229 28 8V6C28 5.44771 27.5523 5 27 5H5C4.44772 5 4 5.44771 4 6V8ZM26 11H6V24C6 25.6569 7.34315 27 9 27H23C24.6569 27 26 25.6569 26 24V11Z" fill="#808080"/>
</svg>
