<svg width="32" height="32" viewBox="0 0 32 32" fill="none" xmlns="http://www.w3.org/2000/svg">
<path d="M9 16C9 15.4477 9.44771 15 10 15H19.5858L17.2929 12.7071C16.9024 12.3166 16.9024 11.6834 17.2929 11.2929C17.6834 10.9024 18.3166 10.9024 18.7071 11.2929L22.7058 15.2916C22.7099 15.2957 22.714 15.2998 22.718 15.304C22.8077 15.3965 22.876 15.502 22.9229 15.6144C22.9663 15.7181 22.9927 15.8306 22.9987 15.9485C22.9996 15.9656 23 15.9827 23 16C23 16.2693 22.8935 16.5138 22.7203 16.6936C22.7155 16.6987 22.7105 16.7037 22.7055 16.7087L18.7071 20.7071C18.3166 21.0976 17.6834 21.0976 17.2929 20.7071C16.9024 20.3166 16.9024 19.6834 17.2929 19.2929L19.5858 17H10C9.44771 17 9 16.5523 9 16Z" fill="#808080"/>
<path fill-rule="evenodd" clip-rule="evenodd" d="M30 16C30 23.732 23.732 30 16 30C8.26801 30 2 23.732 2 16C2 8.26801 8.26801 2 16 2C23.732 2 30 8.26801 30 16ZM16 28C22.6274 28 28 22.6274 28 16C28 9.37258 22.6274 4 16 4C9.37258 4 4 9.37258 4 16C4 22.6274 9.37258 28 16 28Z" fill="#808080"/>
</svg>
