<svg width="32" height="32" viewBox="0 0 32 32" fill="none" xmlns="http://www.w3.org/2000/svg">
<path d="M20.7071 7.29289C20.3166 6.90237 19.6834 6.90237 19.2929 7.29289C18.9024 7.68342 18.9024 8.31658 19.2929 8.70711L25.5858 15H4C3.44772 15 3 15.4477 3 16C3 16.5523 3.44772 17 4 17H25.5858L19.2929 23.2929C18.9024 23.6834 18.9024 24.3166 19.2929 24.7071C19.6834 25.0976 20.3166 25.0976 20.7071 24.7071L28.7066 16.7076C28.7078 16.7064 28.7091 16.7051 28.7104 16.7038C28.9011 16.5114 28.9976 16.2607 29 16.0093C29 16.0031 29 15.9969 29 15.9907C28.9987 15.8585 28.9719 15.7324 28.9241 15.6172C28.8753 15.4993 28.803 15.3888 28.7071 15.2929L20.7071 7.29289Z" fill="#808080"/>
</svg>
