<svg width="32" height="32" viewBox="0 0 32 32" fill="none" xmlns="http://www.w3.org/2000/svg">
<path d="M6.08 20.78C5.74 20.48 5.44 20.4 5.18 20.4C4.5 20.4 4 20.94 4 21.58C4 21.88 4.12 22.26 4.56 22.62C5.52 23.46 6.98 23.88 8.44 23.88C11.22 23.88 13.6 22.4 13.6 19.36C13.6 16.58 11.28 15.78 9.46 15.22C7.86 14.72 6.76 14.34 6.76 13.04C6.76 11.66 8.1 11.1 9.26 11.1C9.8 11.1 10.44 11.26 11.16 11.76C11.58 12.06 11.78 12.08 12 12.08C12.64 12.08 13.1 11.58 13.1 10.98C13.1 10.64 12.98 10.28 12.48 9.92C11.68 9.32 10.5 9 9.36 9C6.82 9 4.2 10.28 4.2 13.16C4.2 15.8 6.06 16.64 7.78 17.18C9.56 17.74 11.04 18.16 11.04 19.64C11.04 21.16 9.66 21.74 8.48 21.74C7.64 21.74 6.78 21.4 6.08 20.78Z" fill="#808080"/>
<path d="M25.8644 22.72C26.2044 23.54 26.7244 23.7 27.1444 23.7C27.8244 23.7 28.4444 23.22 28.4444 22.4C28.4444 22.24 28.4244 22 28.2844 21.68L23.2244 10.38C22.7444 9.32 22.1244 9.18 21.6444 9.18C21.1644 9.18 20.5644 9.32 20.0844 10.38L14.9844 21.72C14.8444 22.04 14.8044 22.26 14.8044 22.46C14.8044 23.24 15.3844 23.7 16.0644 23.7C16.4844 23.7 17.0044 23.54 17.3244 22.74L18.3444 20.28H24.8444L25.8644 22.72ZM21.6244 12.44L23.9644 18.12H19.2444L21.6244 12.44Z" fill="#808080"/>
</svg>
