<svg width="32" height="32" viewBox="0 0 32 32" fill="none" xmlns="http://www.w3.org/2000/svg">
<path d="M11 15C10.4477 15 10 15.4477 10 16C10 16.5523 10.4477 17 11 17H21C21.5523 17 22 16.5523 22 16C22 15.4477 21.5523 15 21 15H11Z" fill="#808080"/>
<path d="M10 10C10 9.44772 10.4477 9 11 9H21C21.5523 9 22 9.44772 22 10C22 10.5523 21.5523 11 21 11H11C10.4477 11 10 10.5523 10 10Z" fill="#808080"/>
<path d="M11 21C10.4477 21 10 21.4477 10 22C10 22.5523 10.4477 23 11 23H21C21.5523 23 22 22.5523 22 22C22 21.4477 21.5523 21 21 21H11Z" fill="#808080"/>
<path fill-rule="evenodd" clip-rule="evenodd" d="M23 2C25.7614 2 28 4.23858 28 7V25C28 27.7614 25.7614 30 23 30H9C6.23858 30 4 27.7614 4 25V7C4 4.23858 6.23858 2 9 2H23ZM26 7C26 5.34315 24.6569 4 23 4H9C7.34314 4 6 5.34315 6 7V25C6 26.6569 7.34314 28 9 28H23C24.6569 28 26 26.6569 26 25V7Z" fill="#808080"/>
</svg>
