<svg width="32" height="32" viewBox="0 0 32 32" fill="none" xmlns="http://www.w3.org/2000/svg">
<path d="M16.2618 9.00286C13.889 8.95108 11.5541 9.60409 9.55241 10.8793C7.55073 12.1545 5.97214 13.9947 5.01627 16.167C4.0604 18.3394 3.77018 20.7465 4.18232 23.0838C4.27822 23.6277 3.91505 24.1463 3.37116 24.2422C2.82726 24.3381 2.3086 23.975 2.2127 23.4311C1.73188 20.7042 2.07047 17.896 3.18565 15.3615C4.30083 12.8271 6.14251 10.6803 8.47781 9.19252C10.8131 7.70477 13.5371 6.94293 16.3054 7.00333C19.0737 7.06374 21.7619 7.94367 24.0301 9.53187C24.4825 9.84865 24.5924 10.4722 24.2757 10.9246C23.9589 11.377 23.3353 11.487 22.8829 11.1702C20.9388 9.80886 18.6346 9.05463 16.2618 9.00286Z" fill="#808080"/>
<path d="M26.0749 12.7243C26.5273 12.4075 27.1508 12.5175 27.4676 12.9699C28.5221 14.4759 29.2697 16.1749 29.6676 17.9698C30.0655 19.7647 30.106 21.6205 29.7868 23.431C29.6909 23.9749 29.1722 24.3381 28.6283 24.2422C28.0844 24.1463 27.7212 23.6276 27.8171 23.0837C28.0908 21.5318 28.0561 19.9412 27.715 18.4027C27.3739 16.8642 26.7332 15.4079 25.8293 14.117C25.5125 13.6646 25.6225 13.0411 26.0749 12.7243Z" fill="#808080"/>
<path d="M22.7071 15.7071C23.0976 15.3166 23.0976 14.6834 22.7071 14.2929C22.3166 13.9024 21.6834 13.9024 21.2929 14.2929L15.2929 20.2929C14.9024 20.6834 14.9024 21.3166 15.2929 21.7071C15.6834 22.0976 16.3166 22.0976 16.7071 21.7071L22.7071 15.7071Z" fill="#808080"/>
</svg>
