<svg width="32" height="32" viewBox="0 0 32 32" fill="none" xmlns="http://www.w3.org/2000/svg">
<path fill-rule="evenodd" clip-rule="evenodd" d="M15 2C7.8203 2 2 7.8203 2 15C2 22.1797 7.8203 28 15 28C18.2299 28 21.1847 26.8221 23.4582 24.8724L28.2929 29.7071C28.6834 30.0976 29.3166 30.0976 29.7071 29.7071C30.0976 29.3166 30.0976 28.6834 29.7071 28.2929L24.8724 23.4582C26.8221 21.1847 28 18.2299 28 15C28 7.8203 22.1797 2 15 2ZM4 15C4 8.92487 8.92487 4 15 4C21.0751 4 26 8.92487 26 15C26 21.0751 21.0751 26 15 26C8.92487 26 4 21.0751 4 15Z" fill="#808080"/>
</svg>
