<svg width="32" height="32" viewBox="0 0 32 32" fill="none" xmlns="http://www.w3.org/2000/svg">
<path fill-rule="evenodd" clip-rule="evenodd" d="M16 10C12.6863 10 10 12.6863 10 16C10 19.3137 12.6863 22 16 22C19.3137 22 22 19.3137 22 16C22 12.6863 19.3137 10 16 10ZM12 16C12 13.7909 13.7909 12 16 12C18.2091 12 20 13.7909 20 16C20 18.2091 18.2091 20 16 20C13.7909 20 12 18.2091 12 16Z" fill="#808080"/>
<path fill-rule="evenodd" clip-rule="evenodd" d="M18.5667 3.36649C17.3406 1.54451 14.6594 1.5445 13.4333 3.36649L12.188 5.21697C11.9425 5.58181 11.5023 5.76413 11.0707 5.67976L8.88169 5.25183C6.72635 4.83049 4.83049 6.72634 5.25183 8.88169L5.67976 11.0707C5.76413 11.5023 5.58181 11.9425 5.21697 12.188L3.36649 13.4333C1.54451 14.6594 1.5445 17.3406 3.36649 18.5667L5.21697 19.812C5.58181 20.0575 5.76413 20.4977 5.67976 20.9293L5.25183 23.1183C4.83049 25.2736 6.72634 27.1695 8.88169 26.7482L11.0707 26.3202C11.5023 26.2359 11.9425 26.4182 12.188 26.783L13.4333 28.6335C14.6594 30.4555 17.3406 30.4555 18.5667 28.6335L19.812 26.783C20.0575 26.4182 20.4977 26.2359 20.9293 26.3202L23.1183 26.7482C25.2736 27.1695 27.1695 25.2737 26.7482 23.1183L26.3202 20.9293C26.2359 20.4977 26.4182 20.0575 26.783 19.812L28.6335 18.5667C30.4555 17.3406 30.4555 14.6594 28.6335 13.4333L26.783 12.188C26.4182 11.9425 26.2359 11.5023 26.3202 11.0707L26.7482 8.88169C27.1695 6.72635 25.2737 4.83049 23.1183 5.25183L20.9293 5.67976C20.4977 5.76413 20.0575 5.58181 19.812 5.21697L18.5667 3.36649ZM15.0926 4.48311C15.5261 3.83896 16.4739 3.83896 16.9074 4.48311L18.1527 6.33359C18.8472 7.36556 20.0922 7.88125 21.313 7.64261L23.502 7.21468C24.264 7.06572 24.9343 7.73598 24.7853 8.49798L24.3574 10.687C24.1187 11.9078 24.6344 13.1528 25.6664 13.8473L27.5169 15.0926C28.161 15.5261 28.161 16.4739 27.5169 16.9074L25.6664 18.1527C24.6344 18.8472 24.1187 20.0922 24.3574 21.313L24.7853 23.502C24.9343 24.264 24.264 24.9343 23.502 24.7853L21.313 24.3574C20.0922 24.1187 18.8472 24.6344 18.1527 25.6664L16.9074 27.5169C16.4739 28.161 15.5261 28.161 15.0926 27.5169L13.8473 25.6664C13.1528 24.6344 11.9078 24.1187 10.687 24.3574L8.49798 24.7853C7.73598 24.9343 7.06572 24.264 7.21468 23.502L7.64261 21.313C7.88125 20.0922 7.36556 18.8472 6.33359 18.1527L4.48311 16.9074C3.83896 16.4739 3.83896 15.5261 4.48311 15.0926L6.33359 13.8473C7.36556 13.1528 7.88125 11.9078 7.64261 10.687L7.21468 8.49798C7.06572 7.73598 7.73598 7.06572 8.49798 7.21468L10.687 7.64261C11.9078 7.88125 13.1528 7.36556 13.8473 6.33359L15.0926 4.48311Z" fill="#808080"/>
</svg>
