<svg width="32" height="32" viewBox="0 0 32 32" fill="none" xmlns="http://www.w3.org/2000/svg">
<path fill-rule="evenodd" clip-rule="evenodd" d="M10.0003 12C10.0003 6.47715 14.4775 2 20.0003 2C21.3516 2 22.6427 2.26857 23.8212 2.75619C24.169 2.9001 24.4065 3.22713 24.4358 3.60241C24.4651 3.97768 24.2812 4.33761 23.9599 4.53374C23.8277 4.61446 23.7021 4.71245 23.5861 4.82843L19.0003 9.41421V13H22.5861L27.1719 8.41421C27.2879 8.29824 27.3859 8.17261 27.4666 8.04039C27.6627 7.71911 28.0226 7.53519 28.3979 7.56448C28.7732 7.59377 29.1002 7.83131 29.2441 8.17913C29.7317 9.35763 30.0003 10.6487 30.0003 12C30.0003 17.5228 25.5232 22 20.0003 22C18.6462 22 17.3531 21.7303 16.1733 21.2413L8.70741 28.7071C7.21231 30.2022 4.78829 30.2022 3.2932 28.7071C1.7981 27.212 1.7981 24.788 3.2932 23.2929L10.759 15.827C10.27 14.6472 10.0003 13.3541 10.0003 12ZM20.0003 4C15.582 4 12.0003 7.58172 12.0003 12C12.0003 13.2942 12.3069 14.5139 12.8504 15.5932C13.0445 15.9785 12.9696 16.445 12.6644 16.7501L4.70741 24.7071C3.99336 25.4212 3.99336 26.5788 4.70741 27.2929C5.42145 28.0069 6.57915 28.0069 7.29319 27.2929L15.2502 19.3359C15.5553 19.0307 16.0218 18.9558 16.4072 19.1499C17.4864 19.6934 18.7061 20 20.0003 20C24.4186 20 28.0003 16.4183 28.0003 12C28.0003 11.503 27.9551 11.017 27.8687 10.5459L23.7074 14.7071C23.5199 14.8946 23.2655 15 23.0003 15H18.0003C17.448 15 17.0003 14.5523 17.0003 14V9C17.0003 8.73478 17.1057 8.48043 17.2932 8.29289L21.4544 4.13166C20.9833 4.04521 20.4973 4 20.0003 4Z" fill="#808080"/>
</svg>
