<svg width="32" height="32" viewBox="0 0 32 32" fill="none" xmlns="http://www.w3.org/2000/svg">
<path fill-rule="evenodd" clip-rule="evenodd" d="M11.3359 25.3525H6C4.34315 25.3525 3 24.0094 3 22.3525V12.3525C3 10.6957 4.34315 9.35254 6 9.35254H12.4124C13.8119 6.19928 16.9704 4 20.6426 4C25.6131 4 29.6426 8.02944 29.6426 13C29.6426 15.9469 28.2263 18.563 26.0372 20.2047L28.8389 24.6039C29.4315 25.5343 29.3498 26.6026 28.8324 27.4071C28.3215 28.2013 27.4024 28.7275 26.3319 28.7275H14.1731C13.1026 28.7275 12.1835 28.2013 11.6726 27.4071C11.29 26.8123 11.1457 26.0734 11.3359 25.3525ZM13.6426 13C13.6426 9.13401 16.7766 6 20.6426 6C24.5086 6 27.6426 9.13401 27.6426 13C27.6426 15.2376 26.5927 17.2299 24.9587 18.5113L22.7595 15.0582C22.1778 14.1447 21.1826 13.7275 20.2525 13.7275C19.3224 13.7275 18.3272 14.1447 17.7455 15.0582L15.8231 18.0767C14.48 16.8012 13.6426 14.9984 13.6426 13ZM14.7331 19.7882C12.8394 18.1383 11.6426 15.7089 11.6426 13C11.6426 12.4373 11.6942 11.8866 11.793 11.3525H6C5.44772 11.3525 5 11.8003 5 12.3525V22.3525C5 22.9048 5.44772 23.3525 6 23.3525H12.4631L14.7331 19.7882ZM19.4324 16.1326C19.5876 15.8889 19.8875 15.7275 20.2525 15.7275C20.6175 15.7275 20.9174 15.8889 21.0726 16.1325L27.152 25.6783C27.2927 25.8993 27.2795 26.1243 27.1503 26.3251C27.0145 26.5362 26.7352 26.7275 26.3319 26.7275H14.1731C13.7698 26.7275 13.4905 26.5362 13.3547 26.3251C13.2255 26.1243 13.2123 25.8993 13.353 25.6783L19.4324 16.1326Z" fill="#717171"/>
</svg>
