<svg width="32" height="32" viewBox="0 0 32 32" fill="none" xmlns="http://www.w3.org/2000/svg">
<path fill-rule="evenodd" clip-rule="evenodd" d="M18.7071 4.29292C18.4211 4.00692 17.991 3.92137 17.6173 4.07615C17.2436 4.23093 17 4.59557 17 5.00003V11H15C7.8203 11 2 16.8203 2 24C2 24.5523 2.44772 25 3 25C3.55228 25 4 24.5523 4 24C4 22.3431 5.34315 21 7 21H17V27C17 27.4045 17.2436 27.7691 17.6173 27.9239C17.991 28.0787 18.4211 27.9931 18.7071 27.7071L29.7071 16.7071C30.0976 16.3166 30.0976 15.6834 29.7071 15.2929L18.7071 4.29292ZM18.9797 19.7985C18.9922 19.8595 18.9991 19.9226 18.9999 19.9871C19 19.9914 19 19.9957 19 20V24.5858L27.5858 16L19 7.41424V12C19 12 19 12 19 12C19 12.069 18.993 12.1365 18.9797 12.2016C18.8864 12.6572 18.4832 13 18 13C17.9974 13 17.9948 13 17.9923 13H15C10.5603 13 6.735 15.6302 4.99712 19.4173C5.61034 19.1489 6.28778 19 7 19H18C18.4833 19 18.8864 19.3428 18.9797 19.7985Z" fill="#717171"/>
</svg>
