<svg width="33" height="32" viewBox="0 0 33 32" fill="none" xmlns="http://www.w3.org/2000/svg">
<path fill-rule="evenodd" clip-rule="evenodd" d="M13.7929 4.29292C14.0789 4.00692 14.509 3.92137 14.8827 4.07615C15.2564 4.23093 15.5 4.59557 15.5 5.00003V11H17.5C24.6797 11 30.5 16.8203 30.5 24C30.5 24.5523 30.0523 25 29.5 25C28.9477 25 28.5 24.5523 28.5 24C28.5 22.3431 27.1569 21 25.5 21H15.5V27C15.5 27.4045 15.2564 27.7691 14.8827 27.9239C14.509 28.0787 14.0789 27.9931 13.7929 27.7071L2.7929 16.7071C2.40237 16.3166 2.40237 15.6834 2.7929 15.2929L13.7929 4.29292ZM13.5203 19.7985C13.5078 19.8595 13.5009 19.9226 13.5001 19.9871C13.5 19.9914 13.5 19.9957 13.5 20V24.5858L4.91422 16L13.5 7.41424V12C13.5 12 13.5 12 13.5 12C13.5 12.069 13.507 12.1365 13.5203 12.2016C13.6136 12.6572 14.0168 13 14.5 13C14.5026 13 14.5052 13 14.5077 13H17.5C21.9397 13 25.765 15.6302 27.5029 19.4173C26.8897 19.1489 26.2122 19 25.5 19H14.5C14.0167 19 13.6136 19.3428 13.5203 19.7985Z" fill="#717171"/>
</svg>
