<svg width="32" height="32" viewBox="0 0 32 32" fill="none" xmlns="http://www.w3.org/2000/svg">
<path fill-rule="evenodd" clip-rule="evenodd" d="M23 2C20.2386 2 18 4.23858 18 7C18 7.60436 18.1072 8.18369 18.3037 8.71998L12.4926 12.422C11.5914 11.5422 10.359 11 9 11C6.23858 11 4 13.2386 4 16C4 18.7614 6.23858 21 9 21C10.3255 21 11.5306 20.4842 12.4254 19.6424L18.2726 23.3675C18.0959 23.8791 18 24.4283 18 25C18 27.7614 20.2386 30 23 30C25.7614 30 28 27.7614 28 25C28 22.2386 25.7614 20 23 20C21.5294 20 20.207 20.6349 19.2921 21.6456L13.5808 18.0071C13.8504 17.3928 14 16.7139 14 16C14 15.3186 13.8637 14.6691 13.6169 14.0772L19.3544 10.422C20.2665 11.3933 21.5624 12 23 12C25.7614 12 28 9.76142 28 7C28 4.23858 25.7614 2 23 2ZM20 7C20 5.34315 21.3431 4 23 4C24.6569 4 26 5.34315 26 7C26 8.65685 24.6569 10 23 10C21.3431 10 20 8.65685 20 7ZM9 13C7.34315 13 6 14.3431 6 16C6 17.6569 7.34315 19 9 19C10.6569 19 12 17.6569 12 16C12 14.3431 10.6569 13 9 13ZM23 22C21.3431 22 20 23.3431 20 25C20 26.6569 21.3431 28 23 28C24.6569 28 26 26.6569 26 25C26 23.3431 24.6569 22 23 22Z" fill="#808080"/>
</svg>
