<svg width="32" height="32" viewBox="0 0 32 32" fill="none" xmlns="http://www.w3.org/2000/svg">
<path fill-rule="evenodd" clip-rule="evenodd" d="M23 15.9968C22.9996 15.0786 22.8185 14.1695 22.4672 13.3212C22.1154 12.4719 21.5998 11.7003 20.9497 11.0503C20.2997 10.4002 19.5281 9.88463 18.6788 9.53284C17.8295 9.18106 16.9193 9 16 9C14.6155 9 13.2622 9.41054 12.111 10.1797C10.9599 10.9489 10.0627 12.0421 9.53285 13.3212C9.00303 14.6003 8.86441 16.0078 9.13451 17.3656C9.4046 18.7235 10.0713 19.9708 11.0503 20.9497C12.0292 21.9287 13.2765 22.5954 14.6344 22.8655C15.9922 23.1356 17.3997 22.997 18.6788 22.4672C19.9579 21.9373 21.0511 21.0401 21.8203 19.889C22.5895 18.7378 23 17.3845 23 16L23 15.9968ZM15 11.101C14.368 11.23 13.7637 11.4808 13.2222 11.8427C12.3999 12.3921 11.759 13.173 11.3806 14.0866C11.0022 15.0002 10.9032 16.0055 11.0961 16.9755C11.289 17.9454 11.7652 18.8363 12.4645 19.5355C13.1637 20.2348 14.0546 20.711 15.0246 20.9039C15.9945 21.0969 16.9998 20.9978 17.9134 20.6194C18.8271 20.241 19.6079 19.6001 20.1574 18.7779C20.5192 18.2363 20.77 17.632 20.899 17H16C15.9969 17 15.9937 17 15.9906 17C15.4426 16.9949 15 16.5491 15 16V11.101ZM17 11.101L17 15H20.899C20.8353 14.6881 20.7418 14.3821 20.6194 14.0866C20.3681 13.48 19.9998 12.9288 19.5355 12.4645C19.0712 12.0002 18.52 11.6319 17.9134 11.3806C17.6179 11.2582 17.3119 11.1647 17 11.101Z" fill="#717171"/>
<path fill-rule="evenodd" clip-rule="evenodd" d="M3 8C3 5.23858 5.23858 3 8 3H24C26.7614 3 29 5.23858 29 8V24C29 26.7614 26.7614 29 24 29H8C5.23858 29 3 26.7614 3 24V8ZM8 5C6.34315 5 5 6.34315 5 8V24C5 25.6569 6.34315 27 8 27H24C25.6569 27 27 25.6569 27 24V8C27 6.34315 25.6569 5 24 5H8Z" fill="#717171"/>
</svg>
