<svg width="32" height="32" viewBox="0 0 32 32" fill="none" xmlns="http://www.w3.org/2000/svg">
<path fill-rule="evenodd" clip-rule="evenodd" d="M20.1153 15.6643C21.8645 14.3917 23.0016 12.3286 23.0016 10C23.0016 6.13401 19.8676 3 16.0016 3C12.1356 3 9.00159 6.13401 9.00159 10C9.00159 12.3287 10.1387 14.3917 11.8879 15.6643C8.0638 16.939 5.03087 19.9421 3.71415 23.7453C3.22104 25.1695 3.6212 26.5268 4.48812 27.4886C5.33698 28.4303 6.62819 29 8.00163 29H24.0016C25.3751 29 26.6663 28.4303 27.5151 27.4886C28.3821 26.5268 28.7822 25.1695 28.2891 23.7453C26.9724 19.9421 23.9394 16.939 20.1153 15.6643ZM11.0016 10C11.0016 7.23858 13.2402 5 16.0016 5C18.763 5 21.0016 7.23858 21.0016 10C21.0016 12.7614 18.763 15 16.0016 15C13.2402 15 11.0016 12.7614 11.0016 10ZM16.0016 17C15.8222 17 15.6438 17.0043 15.4665 17.0128L14.1248 21.709L16.0016 23.5858L17.8784 21.709L16.5367 17.0128C16.3594 17.0043 16.181 17 16.0016 17ZM26.3992 24.3996C25.1971 20.9275 22.3053 18.2459 18.709 17.3357L19.9631 21.7253C20.0629 22.0745 19.9655 22.4503 19.7087 22.7071L16.7087 25.7071C16.3182 26.0976 15.685 26.0976 15.2945 25.7071L12.2945 22.7071C12.0377 22.4503 11.9403 22.0745 12.0401 21.7253L13.2943 17.3357C9.69795 18.2459 6.80617 20.9275 5.60409 24.3996C5.37445 25.0629 5.54098 25.6694 5.97371 26.1495C6.42451 26.6497 7.16594 27 8.00163 27H24.0016C24.8373 27 25.5788 26.6497 26.0296 26.1495C26.4623 25.6694 26.6288 25.0629 26.3992 24.3996Z" fill="#808080"/>
</svg>
