<svg width="32" height="32" viewBox="0 0 32 32" fill="none" xmlns="http://www.w3.org/2000/svg">
<path fill-rule="evenodd" clip-rule="evenodd" d="M4.99994 3C4.44765 3 3.99994 3.44772 3.99994 4C3.99994 4.55228 4.44765 5 4.99994 5V8C4.99994 8.55228 5.44765 9 5.99994 9C6.55222 9 6.99994 8.55228 6.99994 8V5H11.101C9.80441 6.27052 8.99994 8.04131 8.99994 10C8.99994 12.3287 10.137 14.3917 11.8862 15.6643C8.06211 16.939 5.02917 19.9421 3.71244 23.7453C3.21933 25.1695 3.61949 26.5268 4.48642 27.4886C5.33527 28.4303 6.62648 29 7.99992 29H23.9999C25.3734 29 26.6646 28.4303 27.5134 27.4886C28.3804 26.5268 28.7805 25.1695 28.2874 23.7453C26.9707 19.9421 23.9377 16.939 20.1137 15.6643C21.8629 14.3917 22.9999 12.3287 22.9999 10C22.9999 8.04131 22.1955 6.27052 20.8989 5H24.9999C25.5522 5 25.9999 4.55228 25.9999 4C25.9999 3.44772 25.5522 3 24.9999 3H4.99994ZM15.9999 5C13.2385 5 10.9999 7.23858 10.9999 10C10.9999 12.7614 13.2385 15 15.9999 15C18.7614 15 20.9999 12.7614 20.9999 10C20.9999 7.23858 18.7614 5 15.9999 5ZM5.60238 24.3996C7.09398 20.0913 11.1872 17 15.9999 17C20.8126 17 24.9059 20.0913 26.3975 24.3996C26.6271 25.0629 26.4606 25.6694 26.0278 26.1495C25.577 26.6497 24.8356 27 23.9999 27H7.99992C7.16423 27 6.42281 26.6497 5.972 26.1495C5.53927 25.6694 5.37274 25.0629 5.60238 24.3996Z" fill="#808080"/>
</svg>
