<svg width="32" height="32" viewBox="0 0 32 32" fill="none" xmlns="http://www.w3.org/2000/svg">
<path fill-rule="evenodd" clip-rule="evenodd" d="M8.99993 10C8.99993 8.04131 9.8044 6.27052 11.1009 5H6.99993V8C6.99993 8.55228 6.55222 9 5.99993 9C5.44765 9 4.99993 8.55228 4.99993 8V5C4.44765 5 3.99993 4.55228 3.99993 4C3.99993 3.44772 4.44765 3 4.99993 3H24.9999C25.5522 3 25.9999 3.44772 25.9999 4C25.9999 4.55228 25.5522 5 24.9999 5H20.8989C22.1955 6.27052 22.9999 8.04131 22.9999 10C22.9999 13.866 19.8659 17 15.9999 17L15.9953 17C11.1846 17.002 7.09351 20.0927 5.60238 24.3996C5.37274 25.0629 5.53927 25.6694 5.972 26.1495C6.42281 26.6497 7.16423 27 7.99992 27H15.9999C16.5522 27 16.9999 27.4477 16.9999 28C16.9999 28.5523 16.5522 29 15.9999 29H7.99992C6.62648 29 5.33527 28.4303 4.48642 27.4886C3.61949 26.5268 3.21933 25.1695 3.71244 23.7453C5.02917 19.9421 8.06211 16.939 11.8862 15.6643C10.137 14.3917 8.99993 12.3287 8.99993 10ZM10.9999 10C10.9999 7.23899 13.2378 5.00067 15.9987 5H16.0012C18.762 5.00067 20.9999 7.23899 20.9999 10C20.9999 12.7609 18.7622 14.9991 16.0015 15L15.9957 15C13.2362 14.9977 10.9999 12.76 10.9999 10Z" fill="#808080"/>
<path d="M24.9999 19C24.9999 18.4477 24.5522 18 23.9999 18C23.4476 18 22.9999 18.4477 22.9999 19V23H18.9999C18.4476 23 17.9999 23.4477 17.9999 24C17.9999 24.5523 18.4476 25 18.9999 25H22.9999V29C22.9999 29.5523 23.4476 30 23.9999 30C24.5522 30 24.9999 29.5523 24.9999 29V25H28.9999C29.5522 25 29.9999 24.5523 29.9999 24C29.9999 23.4477 29.5522 23 28.9999 23H24.9999V19Z" fill="#808080"/>
</svg>
