<svg width="32" height="32" viewBox="0 0 32 32" fill="none" xmlns="http://www.w3.org/2000/svg">
<path d="M24.2929 3.70711C23.9024 3.31658 23.9024 2.68342 24.2929 2.29289C24.6834 1.90237 25.3166 1.90237 25.7071 2.29289L29.7071 6.29289C30.0976 6.68342 30.0976 7.31658 29.7071 7.70711L25.7071 11.7071C25.3166 12.0976 24.6834 12.0976 24.2929 11.7071C23.9024 11.3166 23.9024 10.6834 24.2929 10.2929L26.5858 8H9C6.23858 8 4 10.2386 4 13V15C4 15.5523 3.55229 16 3 16C2.44771 16 2 15.5523 2 15V13C2 9.13401 5.13401 6 9 6H26.5858L24.2929 3.70711Z" fill="#808080"/>
<path d="M5.41421 24L7.70711 21.7071C8.09763 21.3166 8.09763 20.6834 7.70711 20.2929C7.31658 19.9024 6.68342 19.9024 6.29289 20.2929L2.29289 24.2929C1.90237 24.6834 1.90237 25.3166 2.29289 25.7071L6.29289 29.7071C6.68342 30.0976 7.31658 30.0976 7.70711 29.7071C8.09763 29.3166 8.09763 28.6834 7.70711 28.2929L5.41421 26H23C26.866 26 30 22.866 30 19V17C30 16.4477 29.5523 16 29 16C28.4477 16 28 16.4477 28 17V19C28 21.7614 25.7614 24 23 24H5.41421Z" fill="#808080"/>
</svg>
