<svg width="32" height="32" viewBox="0 0 32 32" fill="none" xmlns="http://www.w3.org/2000/svg">
<path fill-rule="evenodd" clip-rule="evenodd" d="M11 9C9.34315 9 8 10.3431 8 12C8 13.6569 9.34315 15 11 15C12.6569 15 14 13.6569 14 12C14 10.3431 12.6569 9 11 9ZM10 12C10 11.4477 10.4477 11 11 11C11.5523 11 12 11.4477 12 12C12 12.5523 11.5523 13 11 13C10.4477 13 10 12.5523 10 12Z" fill="#808080"/>
<path fill-rule="evenodd" clip-rule="evenodd" d="M6 4C4.34315 4 3 5.34315 3 7V15.1716C3 15.9672 3.31607 16.7303 3.87868 17.2929L14.8787 28.2929C16.0503 29.4645 17.9497 29.4645 19.1213 28.2929L27.2929 20.1213C28.4645 18.9497 28.4645 17.0503 27.2929 15.8787L16.2929 4.87868C15.7303 4.31607 14.9672 4 14.1716 4H6ZM5 7C5 6.44772 5.44772 6 6 6H14.1716C14.4368 6 14.6911 6.10536 14.8787 6.29289L25.8787 17.2929C26.2692 17.6834 26.2692 18.3166 25.8787 18.7071L17.7071 26.8787C17.3166 27.2692 16.6834 27.2692 16.2929 26.8787L5.29289 15.8787C5.10536 15.6911 5 15.4368 5 15.1716V7Z" fill="#808080"/>
</svg>
