<svg width="32" height="32" viewBox="0 0 32 32" fill="none" xmlns="http://www.w3.org/2000/svg">
<path fill-rule="evenodd" clip-rule="evenodd" d="M10.4572 7.0867C10.7016 7.19549 10.8808 7.39024 10.9751 7.61947L18.0137 23.4283C18.2383 23.9328 18.0114 24.5239 17.5069 24.7486C17.0023 24.9732 16.4112 24.7463 16.1866 24.2418L13.8529 19.0002H6.24759L3.91392 24.2418C3.68928 24.7463 3.09817 24.9732 2.59363 24.7486C2.0891 24.5239 1.86219 23.9328 2.08683 23.4283L9.12538 7.61945C9.21974 7.39023 9.39896 7.19549 9.6433 7.0867C9.77572 7.02775 9.9141 6.99989 10.0503 7C10.1864 6.99989 10.3248 7.02775 10.4572 7.0867ZM12.9625 17.0002L10.0503 10.4593L7.13805 17.0002H12.9625Z" fill="#717171"/>
<path fill-rule="evenodd" clip-rule="evenodd" d="M17.3332 19.0002C17.3332 15.6865 20.0195 13.0002 23.3332 13.0002C25.0631 13.0002 26.622 13.7323 27.717 14.9036V14.0003C27.717 13.448 28.1647 13.0003 28.717 13.0003C29.2693 13.0003 29.717 13.448 29.717 14.0003V24.0002C29.717 24.5525 29.2693 25.0002 28.717 25.0002C28.1647 25.0002 27.717 24.5525 27.717 24.0002V23.0969C26.622 24.2682 25.0631 25.0002 23.3332 25.0002C20.0195 25.0002 17.3332 22.314 17.3332 19.0002ZM23.3332 15.0002C21.1241 15.0002 19.3332 16.7911 19.3332 19.0002C19.3332 21.2094 21.1241 23.0002 23.3332 23.0002C25.5424 23.0002 27.3332 21.2094 27.3332 19.0002C27.3332 16.7911 25.5424 15.0002 23.3332 15.0002Z" fill="#717171"/>
</svg>
