<svg width="32" height="32" viewBox="0 0 32 32" fill="none" xmlns="http://www.w3.org/2000/svg">
<path d="M4 6C3.44772 6 3 6.44772 3 7C3 7.55228 3.44772 8 4 8H28C28.5523 8 29 7.55228 29 7C29 6.44772 28.5523 6 28 6H4Z" fill="#717171"/>
<path d="M4 18C3.44772 18 3 18.4477 3 19C3 19.5523 3.44772 20 4 20H28C28.5523 20 29 19.5523 29 19C29 18.4477 28.5523 18 28 18H4Z" fill="#717171"/>
<path d="M7 13C7 12.4477 7.44772 12 8 12H24C24.5523 12 25 12.4477 25 13C25 13.5523 24.5523 14 24 14H8C7.44772 14 7 13.5523 7 13Z" fill="#717171"/>
<path d="M8 24C7.44772 24 7 24.4477 7 25C7 25.5523 7.44772 26 8 26H24C24.5523 26 25 25.5523 25 25C25 24.4477 24.5523 24 24 24H8Z" fill="#717171"/>
</svg>
