<svg width="32" height="32" viewBox="0 0 32 32" fill="none" xmlns="http://www.w3.org/2000/svg">
<path d="M4 6C3.44772 6 3 6.44772 3 7C3 7.55228 3.44772 8 4 8H28C28.5523 8 29 7.55228 29 7C29 6.44772 28.5523 6 28 6H4Z" fill="#717171"/>
<path d="M4 18C3.44772 18 3 18.4477 3 19C3 19.5523 3.44772 20 4 20H28C28.5523 20 29 19.5523 29 19C29 18.4477 28.5523 18 28 18H4Z" fill="#717171"/>
<path d="M3 13C3 12.4477 3.44772 12 4 12H20C20.5523 12 21 12.4477 21 13C21 13.5523 20.5523 14 20 14H4C3.44772 14 3 13.5523 3 13Z" fill="#717171"/>
<path d="M4 24C3.44772 24 3 24.4477 3 25C3 25.5523 3.44772 26 4 26H20C20.5523 26 21 25.5523 21 25C21 24.4477 20.5523 24 20 24H4Z" fill="#717171"/>
</svg>
