<svg width="32" height="32" viewBox="0 0 32 32" fill="none" xmlns="http://www.w3.org/2000/svg">
<path d="M8 4C8 3.44772 7.55228 3 7 3C6.44772 3 6 3.44772 6 4V15C6 20.5228 10.4772 25 16 25C21.5228 25 26 20.5228 26 15V4C26 3.44772 25.5523 3 25 3C24.4477 3 24 3.44772 24 4V15C24 19.4183 20.4183 23 16 23C11.5817 23 8 19.4183 8 15V4Z" fill="#717171"/>
<path d="M5 28C4.44772 28 4 28.4477 4 29C4 29.5523 4.44772 30 5 30H27C27.5523 30 28 29.5523 28 29C28 28.4477 27.5523 28 27 28H5Z" fill="#717171"/>
</svg>
