<svg width="32" height="32" viewBox="0 0 32 32" fill="none" xmlns="http://www.w3.org/2000/svg">
<path fill-rule="evenodd" clip-rule="evenodd" d="M6 3.5C5.17157 3.5 4.5 4.17157 4.5 5V27C4.5 27.8284 5.17157 28.5 6 28.5H20.5C24.366 28.5 27.5 25.366 27.5 21.5C27.5 18.7655 25.9321 16.3973 23.6462 15.2452C24.797 13.9978 25.5 12.331 25.5 10.5C25.5 6.63401 22.366 3.5 18.5 3.5H6ZM18.5 14.5C20.7091 14.5 22.5 12.7091 22.5 10.5C22.5 8.29086 20.7091 6.5 18.5 6.5H7.5V14.5H18.5ZM7.5 17.5V25.5H20.5C22.7091 25.5 24.5 23.7091 24.5 21.5C24.5 19.2909 22.7091 17.5 20.5 17.5H7.5Z" fill="#808080"/>
</svg>
