<svg width="32" height="32" viewBox="0 0 32 32" fill="none" xmlns="http://www.w3.org/2000/svg">
<path d="M4 6C3.44772 6 3 6.44772 3 7C3 7.55228 3.44772 8 4 8H28C28.5523 8 29 7.55228 29 7C29 6.44772 28.5523 6 28 6H4Z" fill="#717171"/>
<path d="M4 18C3.44772 18 3 18.4477 3 19C3 19.5523 3.44772 20 4 20H28C28.5523 20 29 19.5523 29 19C29 18.4477 28.5523 18 28 18H4Z" fill="#717171"/>
<path d="M11 13C11 12.4477 11.4477 12 12 12H28C28.5523 12 29 12.4477 29 13C29 13.5523 28.5523 14 28 14H12C11.4477 14 11 13.5523 11 13Z" fill="#717171"/>
<path d="M12 24C11.4477 24 11 24.4477 11 25C11 25.5523 11.4477 26 12 26H28C28.5523 26 29 25.5523 29 25C29 24.4477 28.5523 24 28 24H12Z" fill="#717171"/>
</svg>
