<svg width="32" height="32" viewBox="0 0 32 32" fill="none" xmlns="http://www.w3.org/2000/svg">
<path d="M6.00001 18C7.10458 18 8.00001 17.1046 8.00001 16C8.00001 14.8954 7.10458 14 6.00001 14C4.89544 14 4 14.8954 4 16C4 17.1046 4.89544 18 6.00001 18Z" fill="#808080"/>
<path d="M26 18C27.1046 18 28 17.1046 28 16C28 14.8954 27.1046 14 26 14C24.8954 14 24 14.8954 24 16C24 17.1046 24.8954 18 26 18Z" fill="#808080"/>
<path d="M18 16C18 17.1046 17.1046 18 16 18C14.8954 18 14 17.1046 14 16C14 14.8954 14.8954 14 16 14C17.1046 14 18 14.8954 18 16Z" fill="#808080"/>
</svg>
