<svg width="32" height="32" viewBox="0 0 32 32" fill="none" xmlns="http://www.w3.org/2000/svg">
<path d="M14 6.00001C14 7.10458 14.8954 8.00001 16 8.00001C17.1046 8.00001 18 7.10458 18 6.00001C18 4.89544 17.1046 4 16 4C14.8954 4 14 4.89544 14 6.00001Z" fill="#808080"/>
<path d="M14 26C14 27.1046 14.8954 28 16 28C17.1046 28 18 27.1046 18 26C18 24.8954 17.1046 24 16 24C14.8954 24 14 24.8954 14 26Z" fill="#808080"/>
<path d="M16 18C14.8954 18 14 17.1046 14 16C14 14.8954 14.8954 14 16 14C17.1046 14 18 14.8954 18 16C18 17.1046 17.1046 18 16 18Z" fill="#808080"/>
</svg>
