<svg width="32" height="32" viewBox="0 0 32 32" fill="none" xmlns="http://www.w3.org/2000/svg">
<path d="M18.154 8.592C18.07 8.76 18.028 8.98867 18.028 9.278V14.066C18.028 14.3367 17.9953 14.5933 17.93 14.836C17.8647 15.0787 17.7573 15.298 17.608 15.494C17.4587 15.6807 17.2627 15.83 17.02 15.942C16.7867 16.054 16.502 16.11 16.166 16.11C15.83 16.11 15.5407 16.054 15.298 15.942C15.0647 15.83 14.8733 15.6807 14.724 15.494C14.584 15.298 14.4767 15.0787 14.402 14.836C14.3367 14.5933 14.304 14.3367 14.304 14.066V9.278C14.304 8.98867 14.2573 8.76 14.164 8.592C14.08 8.41466 13.9773 8.27933 13.856 8.186C13.7347 8.09267 13.604 8.032 13.464 8.004C13.324 7.96666 13.2073 7.948 13.114 7.948C13.0113 7.948 12.89 7.96666 12.75 8.004C12.6193 8.032 12.4933 8.09267 12.372 8.186C12.2507 8.27933 12.1433 8.41466 12.05 8.592C11.966 8.76 11.924 8.98867 11.924 9.278V14.262C11.924 14.8593 12.022 15.4053 12.218 15.9C12.414 16.3853 12.694 16.8053 13.058 17.16C13.422 17.5053 13.8653 17.776 14.388 17.972C14.9107 18.168 15.4987 18.266 16.152 18.266C16.796 18.266 17.3793 18.168 17.902 17.972C18.434 17.776 18.8867 17.5053 19.26 17.16C19.6333 16.8053 19.918 16.3853 20.114 15.9C20.3193 15.4053 20.422 14.8593 20.422 14.262V9.278C20.422 8.98867 20.3753 8.76 20.282 8.592C20.198 8.41466 20.0953 8.27933 19.974 8.186C19.8527 8.09267 19.722 8.032 19.582 8.004C19.442 7.96666 19.3253 7.948 19.232 7.948C19.1293 7.948 19.008 7.96666 18.868 8.004C18.7373 8.032 18.6067 8.09267 18.476 8.186C18.3547 8.27933 18.2473 8.41466 18.154 8.592Z" fill="#717171"/>
<path fill-rule="evenodd" clip-rule="evenodd" d="M4.5 7C4.5 4.23858 6.73858 2 9.5 2H23.5C26.2614 2 28.5 4.23858 28.5 7V25C28.5 27.7614 26.2614 30 23.5 30H9.5C6.73858 30 4.5 27.7614 4.5 25V7ZM26.5 7V17C26.5 19.7614 24.2614 22 21.5 22H6.5V7C6.5 5.34315 7.84315 4 9.5 4H23.5C25.1569 4 26.5 5.34315 26.5 7ZM21.5 24H6.5V25C6.5 26.6569 7.84315 28 9.5 28H23.5C25.1569 28 26.5 26.6569 26.5 25V21.899C25.2295 23.1955 23.4587 24 21.5 24Z" fill="#717171"/>
</svg>
