<svg width="32" height="32" viewBox="0 0 32 32" fill="none" xmlns="http://www.w3.org/2000/svg">
<path fill-rule="evenodd" clip-rule="evenodd" d="M8 2C5.23858 2 3 4.23858 3 7V17C3 19.7614 5.23858 22 8 22H24C26.7614 22 29 19.7614 29 17V7C29 4.23858 26.7614 2 24 2H8ZM5 7C5 5.34315 6.34315 4 8 4H24C25.6569 4 27 5.34315 27 7V17C27 18.6569 25.6569 20 24 20H8C6.34315 20 5 18.6569 5 17V7Z" fill="#808080"/>
<path d="M5 26C4.44772 26 4 26.4477 4 27C4 27.5523 4.44772 28 5 28H21C21.5523 28 22 27.5523 22 27C22 26.4477 21.5523 26 21 26H5Z" fill="#808080"/>
</svg>
