<svg width="32" height="32" viewBox="0 0 32 32" fill="none" xmlns="http://www.w3.org/2000/svg">
<path d="M23.2929 12.7071C23.6834 13.0976 24.3166 13.0976 24.7071 12.7071C25.0976 12.3166 25.0976 11.6834 24.7071 11.2929L16.7071 3.29289C16.6077 3.19352 16.4927 3.11944 16.3699 3.07064C16.2554 3.02506 16.1306 3 16 3C15.859 3 15.7248 3.02917 15.6032 3.08181C15.5076 3.12308 15.4172 3.17996 15.3357 3.25246C15.3194 3.26696 15.3036 3.28198 15.2883 3.2975L7.29289 11.2929C6.90237 11.6834 6.90237 12.3166 7.29289 12.7071C7.68342 13.0976 8.31658 13.0976 8.70711 12.7071L15 6.41424L15 28C15 28.5523 15.4477 29 16 29C16.5523 29 17 28.5523 17 28L17 6.41418L23.2929 12.7071Z" fill="#808080"/>
</svg>
