<svg width="32" height="32" viewBox="0 0 32 32" fill="none" xmlns="http://www.w3.org/2000/svg">
<path d="M3.29289 9.29289C2.90237 9.68342 2.90237 10.3166 3.29289 10.7071C3.68342 11.0976 4.31658 11.0976 4.70711 10.7071L9 6.41421L9 20C9 20.5523 9.44772 21 10 21C10.5523 21 11 20.5523 11 20L11 6.41421L15.2929 10.7071C15.6834 11.0976 16.3166 11.0976 16.7071 10.7071C17.0976 10.3166 17.0976 9.68342 16.7071 9.29289L10.7071 3.29289C10.5196 3.10536 10.2652 3 10 3C9.73478 3 9.48043 3.10536 9.29289 3.29289L3.29289 9.29289Z" fill="#808080"/>
<path d="M23 25.5858L23 12C23 11.4477 22.5523 11 22 11C21.4477 11 21 11.4477 21 12L21 25.5858L16.7071 21.2929C16.3166 20.9024 15.6834 20.9024 15.2929 21.2929C14.9024 21.6834 14.9024 22.3166 15.2929 22.7071L21.2929 28.7071C21.4804 28.8946 21.7348 29 22 29C22.2652 29 22.5196 28.8946 22.7071 28.7071L28.7071 22.7071C29.0976 22.3166 29.0976 21.6834 28.7071 21.2929C28.3166 20.9024 27.6834 20.9024 27.2929 21.2929L23 25.5858Z" fill="#808080"/>
</svg>
