<svg width="32" height="32" viewBox="0 0 32 32" fill="none" xmlns="http://www.w3.org/2000/svg">
<path d="M7.29289 10.2929C6.90237 10.6834 6.90237 11.3166 7.29289 11.7071C7.68342 12.0976 8.31658 12.0976 8.70711 11.7071L15 5.41422L15 23C15 23.5523 15.4477 24 16 24C16.5523 24 17 23.5523 17 23L17 5.41421L23.2929 11.7071C23.6834 12.0976 24.3166 12.0976 24.7071 11.7071C25.0976 11.3166 25.0976 10.6834 24.7071 10.2929L16.7071 2.29289C16.701 2.28678 16.6948 2.28075 16.6885 2.27481C16.5056 2.10113 16.2636 2.00285 16.0111 2.00006C16.0074 2.00002 16.0037 2 16 2C15.9963 2 15.9926 2.00002 15.9889 2.00006C15.7303 2.00292 15.4827 2.10594 15.2983 2.28754C15.2965 2.28931 15.2947 2.2911 15.2929 2.29289L7.29289 10.2929Z" fill="#808080"/>
<path d="M3 29C3 28.4477 3.44772 28 4 28H28C28.5523 28 29 28.4477 29 29C29 29.5523 28.5523 30 28 30H4C3.44772 30 3 29.5523 3 29Z" fill="#808080"/>
</svg>
