<svg width="32" height="32" viewBox="0 0 32 32" fill="none" xmlns="http://www.w3.org/2000/svg">
<path fill-rule="evenodd" clip-rule="evenodd" d="M11 10C11 7.23858 13.2386 5 16 5C18.7614 5 21 7.23858 21 10C21 12.7614 18.7614 15 16 15C13.2386 15 11 12.7614 11 10ZM16 3C12.134 3 9 6.13401 9 10C9 12.3287 10.1371 14.3917 11.8863 15.6643C8.06217 16.939 5.02923 19.9421 3.71251 23.7453C3.21939 25.1695 3.61955 26.5268 4.48648 27.4886C5.33533 28.4303 6.62654 29 7.99999 29H15C15.5523 29 16 28.5523 16 28C16 27.4477 15.5523 27 15 27H7.99999C7.16429 27 6.42287 26.6497 5.97206 26.1495C5.53933 25.6694 5.3728 25.0629 5.60244 24.3996C7.09404 20.0913 11.1873 17 16 17C16 17 16 17 16 17C19.866 17 23 13.866 23 10C23 6.13401 19.866 3 16 3Z" fill="#808080"/>
<path fill-rule="evenodd" clip-rule="evenodd" d="M20.7071 19.2929C20.3166 18.9024 19.6834 18.9024 19.2929 19.2929C18.9024 19.6834 18.9024 20.3166 19.2929 20.7071L22.0858 23.5L19.2929 26.2929C18.9024 26.6834 18.9024 27.3166 19.2929 27.7071C19.6834 28.0976 20.3166 28.0976 20.7071 27.7071L23.5 24.9142L26.2929 27.7071C26.6834 28.0976 27.3166 28.0976 27.7071 27.7071C28.0976 27.3166 28.0976 26.6834 27.7071 26.2929L24.9142 23.5L27.7071 20.7071C28.0976 20.3166 28.0976 19.6834 27.7071 19.2929C27.3166 18.9024 26.6834 18.9024 26.2929 19.2929L23.5 22.0858L20.7071 19.2929Z" fill="#808080"/>
</svg>
