<svg width="32" height="32" viewBox="0 0 32 32" fill="none" xmlns="http://www.w3.org/2000/svg">
<path fill-rule="evenodd" clip-rule="evenodd" d="M7 6C4.23858 6 2 8.23858 2 11V21C2 23.7614 4.23858 26 7 26H19C21.7614 26 24 23.7614 24 21V19.4142L26.5858 22C27.8457 23.2599 30 22.3676 30 20.5858V11.135C30 9.43937 28.0223 8.51305 26.7196 9.5986L24 11.865V11C24 8.23858 21.7614 6 19 6H7ZM24 14.4684V16.5858L28 20.5858V11.135L24 14.4684ZM22 11C22 9.34315 20.6569 8 19 8H7C5.34315 8 4 9.34315 4 11V21C4 22.6569 5.34315 24 7 24H19C20.6569 24 22 22.6569 22 21V11Z" fill="#808080"/>
</svg>
