<svg width="32" height="32" viewBox="0 0 32 32" fill="none" xmlns="http://www.w3.org/2000/svg">
<path fill-rule="evenodd" clip-rule="evenodd" d="M10.2218 22H4.63599C2.97913 22 1.63599 20.6568 1.63599 19V13C1.63599 11.3431 2.97913 9.99995 4.63599 9.99995H10.2218L16.2218 3.99995C17.4817 2.74002 19.636 3.63236 19.636 5.41417V26.5857C19.636 28.3675 17.4817 29.2599 16.2218 28L10.2218 22ZM17.636 26.5857V5.41417L11.636 11.4142V20.5857L17.636 26.5857ZM9.63599 20H4.63599C4.0837 20 3.63599 19.5522 3.63599 19V13C3.63599 12.4477 4.0837 12 4.63599 12H9.63599V20Z" fill="#717171"/>
<path d="M23.8787 11.7573C23.4882 11.3668 22.855 11.3668 22.4645 11.7573C22.074 12.1478 22.074 12.781 22.4645 13.1715C24.0266 14.7336 24.0266 17.2663 22.4645 18.8284C22.074 19.2189 22.074 19.8521 22.4645 20.2426C22.855 20.6331 23.4882 20.6331 23.8787 20.2426C26.2219 17.8994 26.2219 14.1005 23.8787 11.7573Z" fill="#717171"/>
<path d="M25.2926 8.92887C25.6832 8.53835 26.3163 8.53835 26.7068 8.92887C30.6121 12.8341 30.6121 19.1658 26.7068 23.071C26.3163 23.4615 25.6832 23.4615 25.2926 23.071C24.9021 22.6805 24.9021 22.0473 25.2926 21.6568C28.4168 18.5326 28.4168 13.4673 25.2926 10.3431C24.9021 9.95256 24.9021 9.3194 25.2926 8.92887Z" fill="#717171"/>
</svg>
