<svg width="32" height="32" viewBox="0 0 32 32" fill="none" xmlns="http://www.w3.org/2000/svg">
<path d="M16 2C8.26802 2 2 8.26801 2 16C2 23.732 8.26801 30 16 30C23.732 30 30 23.732 30 16C30 8.26801 23.732 2 16 2Z" fill="#808080"/>
<path d="M16 9C15.4477 9 15 9.44772 15 10V17C15 17.5523 15.4477 18 16 18C16.5523 18 17 17.5523 17 17V10C17 9.44772 16.5523 9 16 9Z" fill="white"/>
<path d="M17.5 21.5C17.5 20.6716 16.8284 20 16 20C15.1716 20 14.5 20.6716 14.5 21.5C14.5 22.3284 15.1716 23 16 23C16.8284 23 17.5 22.3284 17.5 21.5Z" fill="white"/>
</svg>
