<svg width="32" height="32" viewBox="0 0 32 32" fill="none" xmlns="http://www.w3.org/2000/svg">
<path fill-rule="evenodd" clip-rule="evenodd" d="M14.2367 3.74297L9.07634 11.7701C8.17949 13.1652 9.18118 15 10.8397 15H21.1603C22.8188 15 23.8205 13.1652 22.9237 11.7701L17.7633 3.74297C16.9382 2.45937 15.0618 2.45937 14.2367 3.74297ZM15.919 4.82449L10.7587 12.8517C10.747 12.8698 10.7432 12.8809 10.742 12.8851C10.7406 12.8897 10.7401 12.8934 10.74 12.8976C10.7398 12.9071 10.7424 12.9265 10.7552 12.9499C10.7679 12.9732 10.7828 12.9859 10.7909 12.9909C10.7945 12.9931 10.7979 12.9947 10.8025 12.996C10.8067 12.9972 10.8181 13 10.8397 13H21.1603C21.1819 13 21.1933 12.9972 21.1975 12.996C21.2021 12.9947 21.2055 12.9931 21.2091 12.9909C21.2172 12.9859 21.2321 12.9732 21.2448 12.9499C21.2576 12.9265 21.2602 12.9071 21.26 12.8976C21.2599 12.8934 21.2594 12.8897 21.258 12.8851C21.2568 12.8809 21.253 12.8698 21.2413 12.8517L16.081 4.82449C16.0649 4.7994 16.0538 4.79346 16.0487 4.79077C16.0393 4.78582 16.0225 4.78027 16 4.78027C15.9775 4.78027 15.9607 4.78582 15.9513 4.79077C15.9462 4.79346 15.9351 4.7994 15.919 4.82449Z" fill="#808080"/>
<path fill-rule="evenodd" clip-rule="evenodd" d="M5.09628 17C3.93854 17 3 17.9385 3 19.0963V26.9037C3 28.0615 3.93854 29 5.09628 29H12.9037C14.0615 29 15 28.0615 15 26.9037V19.0963C15 17.9385 14.0615 17 12.9037 17H5.09628ZM12.9037 19H5.09628C5.0431 19 5 19.0431 5 19.0963V26.9037C5 26.9569 5.04311 27 5.09628 27H12.9037C12.9569 27 13 26.9569 13 26.9037V19.0963C13 19.0431 12.9569 19 12.9037 19Z" fill="#808080"/>
<path fill-rule="evenodd" clip-rule="evenodd" d="M29 23C29 26.3137 26.3137 29 23 29C19.6863 29 17 26.3137 17 23C17 19.6863 19.6863 17 23 17C26.3137 17 29 19.6863 29 23ZM27 23C27 25.2091 25.2091 27 23 27C20.7909 27 19 25.2091 19 23C19 20.7909 20.7909 19 23 19C25.2091 19 27 20.7909 27 23Z" fill="#808080"/>
</svg>
