<svg width="32" height="32" viewBox="0 0 32 32" fill="none" xmlns="http://www.w3.org/2000/svg">
<path d="M12 9.00024C12 8.44796 11.5523 8.00024 11 8.00024H9C8.44772 8.00024 8 8.44796 8 9.00024C8 9.55253 8.44772 10.0002 9 10.0002H10V12.0002H9C8.44772 12.0002 8 12.448 8 13.0002C8 13.5525 8.44772 14.0002 9 14.0002H10V16.0002H9C8.44772 16.0002 8 16.448 8 17.0002C8 17.5525 8.44772 18.0002 9 18.0002H10L10 20.0002H9C8.44772 20.0002 8 20.448 8 21.0002C8 21.5525 8.44772 22.0002 9 22.0002H10V23.0002C10 23.5525 10.4477 24.0002 11 24.0002H13C13.5523 24.0002 14 23.5525 14 23.0002C14 22.448 13.5523 22.0002 13 22.0002H12V20.0002H13C13.5523 20.0002 14 19.5525 14 19.0002C14 18.448 13.5523 18.0002 13 18.0002H12V16.0002H13C13.5523 16.0002 14 15.5525 14 15.0002C14 14.448 13.5523 14.0002 13 14.0002H12L12 12.0002H13C13.5523 12.0002 14 11.5525 14 11.0002C14 10.448 13.5523 10.0002 13 10.0002H12V9.00024Z" fill="#717171"/>
<path fill-rule="evenodd" clip-rule="evenodd" d="M7.69229 3.07715C5.14328 3.07715 3.07691 5.14353 3.07691 7.69254L3.0769 24.3079C3.07691 26.8569 5.14329 28.9233 7.69229 28.9233H24.3077C26.8567 28.9233 28.9231 26.8569 28.9231 24.3079V7.69253C28.9231 5.14353 26.8567 3.07715 24.3077 3.07715L7.69229 3.07715ZM4.92306 7.69254C4.92306 6.16313 6.16289 4.9233 7.69229 4.9233H24.3077C25.8371 4.9233 27.0769 6.16313 27.0769 7.69253V24.3079C27.0769 25.8373 25.8371 27.0771 24.3077 27.0771H7.69229C6.16289 27.0771 4.92306 25.8373 4.92306 24.3079L4.92306 7.69254Z" fill="#717171"/>
</svg>
