<svg width="32" height="32" viewBox="0 0 32 32" fill="none" xmlns="http://www.w3.org/2000/svg">
<path fill-rule="evenodd" clip-rule="evenodd" d="M2 16C2 8.26801 8.26801 2 16 2C23.732 2 30 8.26801 30 16C30 23.732 23.732 30 16 30C8.26801 30 2 23.732 2 16ZM16 8.5C16.8284 8.5 17.5 9.17157 17.5 10V14.5H22C22.8284 14.5 23.5 15.1716 23.5 16C23.5 16.8284 22.8284 17.5 22 17.5H17.5V22C17.5 22.8284 16.8284 23.5 16 23.5C15.1716 23.5 14.5 22.8284 14.5 22V17.5H10C9.17157 17.5 8.5 16.8284 8.5 16C8.5 15.1716 9.17157 14.5 10 14.5H14.5V10C14.5 9.17157 15.1716 8.5 16 8.5Z" fill="#808080"/>
</svg>
