<svg width="32" height="32" viewBox="0 0 32 32" fill="none" xmlns="http://www.w3.org/2000/svg">
<path fill-rule="evenodd" clip-rule="evenodd" d="M9.20016 20.2201H15.3002L15.9802 21.9001C16.1935 22.4468 16.4602 22.8001 16.7802 22.9601C17.1135 23.1201 17.4202 23.2001 17.7002 23.2001C18.1402 23.2001 18.5335 23.0535 18.8802 22.7601C19.2268 22.4668 19.4002 22.0401 19.4002 21.4801C19.4002 21.3735 19.3868 21.2401 19.3602 21.0801C19.3335 20.9201 19.2802 20.7468 19.2002 20.5601L14.5602 10.3201C14.4002 9.9468 14.2202 9.65347 14.0202 9.44014C13.8335 9.21347 13.6402 9.04014 13.4402 8.92014C13.2535 8.80014 13.0602 8.7268 12.8602 8.70014C12.6735 8.66014 12.4935 8.64014 12.3202 8.64014C12.1468 8.64014 11.9602 8.66014 11.7602 8.70014C11.5735 8.74014 11.3802 8.82014 11.1802 8.94014C10.9802 9.06014 10.7802 9.23347 10.5802 9.46014C10.3935 9.67347 10.2202 9.96014 10.0602 10.3201L5.38016 20.6001C5.28682 20.8135 5.22682 20.9935 5.20016 21.1401C5.17349 21.2868 5.16016 21.4268 5.16016 21.5601C5.16016 22.0801 5.32682 22.4868 5.66016 22.7801C5.99349 23.0601 6.38016 23.2001 6.82016 23.2001C7.08682 23.2001 7.37349 23.1201 7.68016 22.9601C8.00016 22.8001 8.27349 22.4535 8.50016 21.9201L9.20016 20.2201ZM14.1802 17.4801H10.3202L12.2602 12.7801L14.1802 17.4801Z" fill="#808080"/>
<path d="M21.64 9.58014C21.52 9.82014 21.46 10.1468 21.46 10.5601V21.2801C21.46 21.6935 21.52 22.0268 21.64 22.2801C21.7733 22.5201 21.9266 22.7135 22.1 22.8601C22.2866 22.9935 22.4733 23.0801 22.66 23.1201C22.86 23.1735 23.0333 23.2001 23.18 23.2001C23.3133 23.2001 23.48 23.1735 23.68 23.1201C23.88 23.0801 24.0666 22.9935 24.24 22.8601C24.4266 22.7135 24.58 22.5201 24.7 22.2801C24.8333 22.0268 24.9 21.6935 24.9 21.2801V10.5601C24.9 10.1468 24.8333 9.82014 24.7 9.58014C24.58 9.3268 24.4266 9.13347 24.24 9.00014C24.0666 8.85347 23.88 8.76014 23.68 8.72014C23.48 8.6668 23.3133 8.64014 23.18 8.64014C23.0333 8.64014 22.86 8.6668 22.66 8.72014C22.4733 8.76014 22.2866 8.85347 22.1 9.00014C21.9266 9.13347 21.7733 9.3268 21.64 9.58014Z" fill="#808080"/>
</svg>
