<svg width="32" height="32" viewBox="0 0 32 32" fill="none" xmlns="http://www.w3.org/2000/svg">
<path fill-rule="evenodd" clip-rule="evenodd" d="M20.7171 2C18.9932 2 17.3908 2.8881 16.4771 4.35001L15.6813 5.62331C15.313 5.02014 14.872 4.45771 14.3641 3.94975L13.7072 3.29289C13.3167 2.90237 12.6835 2.90237 12.293 3.29289C11.9025 3.68342 11.9025 4.31658 12.293 4.70711L12.9499 5.36396C14.2626 6.67671 15.0001 8.45719 15.0001 10.3137V10.6746L12.2962 9.82781C10.398 9.23331 8.3289 9.85057 7.06666 11.3879C3.41517 15.8352 3.67141 22.3119 7.66284 26.4568L9.39854 28.2593C10.5058 29.4091 12.1598 29.849 13.692 29.4011L15.6584 28.8263C16.208 28.6657 16.7922 28.6657 17.3418 28.8263L19.0903 29.3375C20.7634 29.8265 22.5679 29.2927 23.7056 27.9722L25.3261 26.0914C28.816 22.0409 29.0903 16.1312 25.9904 11.7749C24.7401 10.0179 22.5012 9.26493 20.4434 9.90942L17.3967 10.8636C17.2663 10.9044 17.1338 10.9362 17.0001 10.9588V10.3137C17.0001 9.52578 16.8968 8.74851 16.6977 8H18.5001C20.0739 8 21.5559 7.25903 22.5001 6L24.3001 3.6C24.5274 3.29698 24.5639 2.89157 24.3946 2.55279C24.2252 2.214 23.8789 2 23.5001 2H20.7171ZM18.1731 5.41C18.7213 4.53286 19.6827 4 20.7171 4H21.5001L20.9001 4.8C20.3336 5.55542 19.4444 6 18.5001 6H17.8044L18.1731 5.41ZM24.3608 12.9344C23.6126 11.8829 22.2727 11.4323 21.0411 11.818L17.9944 12.7722C17.0215 13.0769 15.9787 13.0769 15.0057 12.7722L11.6985 11.7364C10.5783 11.3856 9.35727 11.7498 8.6124 12.657C5.60461 16.3204 5.81568 21.6553 9.10348 25.0695L10.8392 26.872C11.4302 27.4857 12.313 27.7205 13.1308 27.4815L15.0973 26.9067C16.0133 26.6389 16.9869 26.6389 17.9029 26.9067L19.6514 27.4178C20.5718 27.6868 21.5646 27.3932 22.1905 26.6667L23.8109 24.786C26.7 21.4328 26.927 16.5407 24.3608 12.9344Z" fill="#808080"/>
</svg>
