<svg width="32" height="32" viewBox="0 0 32 32" fill="none" xmlns="http://www.w3.org/2000/svg">
<path fill-rule="evenodd" clip-rule="evenodd" d="M15.2457 4.52429C15.4948 4.50819 15.7464 4.5 16 4.5C22.3513 4.5 27.5 9.64873 27.5 16C27.5 22.3513 22.3513 27.5 16 27.5C15.7464 27.5 15.4948 27.4918 15.2457 27.4757C14.419 27.4223 13.7055 28.0492 13.6521 28.8759C13.5986 29.7026 14.2255 30.416 15.0522 30.4695C15.3657 30.4897 15.6818 30.5 16 30.5C24.0081 30.5 30.5 24.0081 30.5 16C30.5 7.99187 24.0081 1.5 16 1.5C15.6818 1.5 15.3657 1.51027 15.0522 1.53053C14.2255 1.58396 13.5986 2.29744 13.6521 3.12414C13.7055 3.95085 14.419 4.57771 15.2457 4.52429ZM11.5938 3.67359C11.2268 2.93087 10.3273 2.62627 9.58455 2.99323C9.01489 3.27469 8.46655 3.59237 7.94252 3.9432C7.25412 4.40407 7.06967 5.33573 7.53054 6.02413C7.99141 6.71253 8.92308 6.89697 9.61147 6.4361C10.0273 6.15773 10.4621 5.90586 10.9134 5.68285C11.6562 5.31588 11.9608 4.41631 11.5938 3.67359ZM6.02413 7.53054C5.33573 7.06967 4.40407 7.25412 3.9432 7.94252C3.59237 8.46655 3.27469 9.01489 2.99323 9.58455C2.62627 10.3273 2.93087 11.2268 3.67359 11.5938C4.41631 11.9608 5.31588 11.6562 5.68285 10.9134C5.90586 10.4621 6.15773 10.0273 6.4361 9.61147C6.89697 8.92308 6.71253 7.99141 6.02413 7.53054ZM3.12414 13.6521C2.29744 13.5986 1.58396 14.2255 1.53053 15.0522C1.51027 15.3657 1.5 15.6818 1.5 16C1.5 16.3182 1.51027 16.6343 1.53053 16.9478C1.58396 17.7745 2.29744 18.4014 3.12414 18.3479C3.95085 18.2945 4.57771 17.581 4.52429 16.7543C4.50819 16.5052 4.5 16.2536 4.5 16C4.5 15.7464 4.50819 15.4948 4.52429 15.2457C4.57771 14.419 3.95085 13.7055 3.12414 13.6521ZM3.67359 20.4062C2.93087 20.7732 2.62627 21.6727 2.99323 22.4154C3.27469 22.9851 3.59237 23.5334 3.9432 24.0575C4.40407 24.7459 5.33573 24.9303 6.02413 24.4695C6.71253 24.0086 6.89697 23.0769 6.4361 22.3885C6.15773 21.9727 5.90586 21.5379 5.68285 21.0866C5.31588 20.3438 4.41631 20.0392 3.67359 20.4062ZM7.53054 25.9759C7.06967 26.6643 7.25412 27.5959 7.94252 28.0568C8.46655 28.4076 9.01489 28.7253 9.58455 29.0068C10.3273 29.3737 11.2268 29.0691 11.5938 28.3264C11.9608 27.5837 11.6562 26.6841 10.9134 26.3172C10.4621 26.0941 10.0273 25.8423 9.61147 25.5639C8.92308 25.103 7.99141 25.2875 7.53054 25.9759ZM22.0607 14.0607C22.6464 13.4749 22.6464 12.5251 22.0607 11.9393C21.4749 11.3536 20.5251 11.3536 19.9393 11.9393L14 17.8787L12.0607 15.9393C11.4749 15.3536 10.5251 15.3536 9.93934 15.9393C9.35355 16.5251 9.35355 17.4749 9.93934 18.0607L12.9393 21.0607C13.5251 21.6464 14.4749 21.6464 15.0607 21.0607L22.0607 14.0607Z" fill="#808080"/>
</svg>
