<svg width="32" height="32" viewBox="0 0 32 32" fill="none" xmlns="http://www.w3.org/2000/svg">
<path fill-rule="evenodd" clip-rule="evenodd" d="M1.5 22C1.5 25.0367 3.95973 27.5 6.99819 27.5H25.0018C28.0403 27.5 30.5 25.0367 30.5 22V14.6667C30.5 13.9094 30.2544 13.1725 29.8 12.5667L24.8 5.9C24.139 5.01868 23.1017 4.5 22 4.5H10C8.89835 4.5 7.86099 5.01868 7.2 5.9L2.2 12.5667C1.74562 13.1725 1.5 13.9094 1.5 14.6667V22ZM6.99819 24.5C5.61836 24.5 4.5 23.3816 4.5 22V14.6667C4.5 14.5585 4.53509 14.4532 4.6 14.3667L9.6 7.7C9.69443 7.5741 9.84262 7.5 10 7.5H22C22.1574 7.5 22.3056 7.5741 22.4 7.7L27.4 14.3667C27.4649 14.4532 27.5 14.5585 27.5 14.6667V22C27.5 23.3816 26.3816 24.5 25.0018 24.5H6.99819Z" fill="#808080"/>
<path fill-rule="evenodd" clip-rule="evenodd" d="M6.99819 24.5C5.61836 24.5 4.5 23.3816 4.5 22V15.5H11C11.8284 15.5 12.5 14.8284 12.5 14C12.5 13.1716 11.8284 12.5 11 12.5H3C2.17157 12.5 1.5 13.1716 1.5 14V22C1.5 25.0367 3.95973 27.5 6.99819 27.5H25.0018C28.0403 27.5 30.5 25.0367 30.5 22V14C30.5 13.1716 29.8284 12.5 29 12.5H21C20.1716 12.5 19.5 13.1716 19.5 14C19.5 14.8284 20.1716 15.5 21 15.5H27.5V22C27.5 23.3816 26.3816 24.5 25.0018 24.5H6.99819Z" fill="#808080"/>
<path fill-rule="evenodd" clip-rule="evenodd" d="M11 12.5C11.8284 12.5 12.5 13.1716 12.5 14C12.5 15.933 14.067 17.5 16 17.5C17.933 17.5 19.5 15.933 19.5 14C19.5 13.1716 20.1716 12.5 21 12.5C21.8284 12.5 22.5 13.1716 22.5 14C22.5 17.5899 19.5899 20.5 16 20.5C12.4101 20.5 9.5 17.5899 9.5 14C9.5 13.1716 10.1716 12.5 11 12.5Z" fill="#808080"/>
</svg>
