<svg width="32" height="32" viewBox="0 0 32 32" fill="none" xmlns="http://www.w3.org/2000/svg">
<path d="M16 2C8.26801 2 2 8.26801 2 16C2 23.732 8.26802 30 16 30C23.732 30 30 23.732 30 16C30 8.26801 23.732 2 16 2Z" fill="#808080"/>
<path d="M15.0607 13.0607C15.6464 12.4749 15.6464 11.5251 15.0607 10.9393C14.4749 10.3536 13.5251 10.3536 12.9393 10.9393L8.93934 14.9393C8.65804 15.2206 8.5 15.6022 8.5 16C8.5 16.3978 8.65804 16.7794 8.93934 17.0607L12.9393 21.0607C13.5251 21.6464 14.4749 21.6464 15.0607 21.0607C15.6464 20.4749 15.6464 19.5251 15.0607 18.9393L13.6213 17.5H22C22.8284 17.5 23.5 16.8284 23.5 16C23.5 15.1716 22.8284 14.5 22 14.5L13.6213 14.5L15.0607 13.0607Z" fill="white"/>
</svg>
