<svg width="32" height="32" viewBox="0 0 32 32" fill="none" xmlns="http://www.w3.org/2000/svg">
<path d="M16 30C23.732 30 30 23.732 30 16C30 8.26801 23.732 2 16 2C8.26801 2 2 8.26801 2 16C2 23.732 8.26801 30 16 30Z" fill="#808080"/>
<path d="M19.0607 10.9393C18.4749 10.3536 17.5251 10.3536 16.9393 10.9393C16.3536 11.5251 16.3536 12.4749 16.9393 13.0607L18.3787 14.5L10 14.5C9.17157 14.5 8.5 15.1716 8.5 16C8.5 16.8284 9.17157 17.5 10 17.5H18.3787L16.9393 18.9393C16.3536 19.5251 16.3536 20.4749 16.9393 21.0607C17.5251 21.6464 18.4749 21.6464 19.0607 21.0607L23.0607 17.0607C23.6464 16.4749 23.6464 15.5251 23.0607 14.9393L19.0607 10.9393Z" fill="white"/>
</svg>
