<svg width="32" height="32" viewBox="0 0 32 32" fill="none" xmlns="http://www.w3.org/2000/svg">
<path fill-rule="evenodd" clip-rule="evenodd" d="M2 16C2 8.26801 8.26801 2 16 2C23.732 2 30 8.26801 30 16C30 23.732 23.732 30 16 30C8.26802 30 2 23.732 2 16ZM15.0607 10.9393C15.6464 11.5251 15.6464 12.4749 15.0607 13.0607L13.6213 14.5L22 14.5C22.8284 14.5 23.5 15.1716 23.5 16C23.5 16.8284 22.8284 17.5 22 17.5H13.6213L15.0607 18.9393C15.6464 19.5251 15.6464 20.4749 15.0607 21.0607C14.4749 21.6464 13.5251 21.6464 12.9393 21.0607L8.93934 17.0607C8.65804 16.7794 8.5 16.3978 8.5 16C8.5 15.6022 8.65804 15.2206 8.93934 14.9393L12.9393 10.9393C13.5251 10.3536 14.4749 10.3536 15.0607 10.9393Z" fill="#808080"/>
</svg>
