<svg width="32" height="32" viewBox="0 0 32 32" fill="none" xmlns="http://www.w3.org/2000/svg">
<path d="M10.3337 19.9998C10.3337 20.7362 9.73671 21.3332 9.00033 21.3332C8.26395 21.3332 7.66699 20.7362 7.66699 19.9998V17.9998C7.66699 17.2635 8.26395 16.6665 9.00033 16.6665C9.73671 16.6665 10.3337 17.2635 10.3337 17.9998V19.9998Z" fill="#717171"/>
<path d="M9.00033 15.3332C9.73671 15.3332 10.3337 14.7362 10.3337 13.9998V11.9998C10.3337 11.2635 9.73671 10.6665 9.00033 10.6665C8.26395 10.6665 7.66699 11.2635 7.66699 11.9998V13.9998C7.66699 14.7362 8.26395 15.3332 9.00033 15.3332Z" fill="#717171"/>
<path d="M16.2193 17.3332L17.9431 19.057C18.4638 19.5777 18.4638 20.4219 17.9431 20.9426C17.4224 21.4633 16.5782 21.4633 16.0575 20.9426L12.0575 16.9426C11.5368 16.4219 11.5368 15.5777 12.0575 15.057L16.0575 11.057C16.5782 10.5363 17.4224 10.5363 17.9431 11.057C18.4638 11.5777 18.4638 12.4219 17.9431 12.9426L16.2193 14.6665H25.0003C25.7367 14.6665 26.3337 15.2635 26.3337 15.9998C26.3337 16.7362 25.7367 17.3332 25.0003 17.3332H16.2193Z" fill="#717171"/>
<path fill-rule="evenodd" clip-rule="evenodd" d="M1.66699 22.9998C1.66699 25.9454 4.05481 28.3332 7.00033 28.3332H25.0003C27.9458 28.3332 30.3337 25.9454 30.3337 22.9998V8.99984C30.3337 6.05432 27.9458 3.6665 25.0003 3.6665H7.00033C4.05481 3.6665 1.66699 6.05432 1.66699 8.99984L1.66699 22.9998ZM7.00033 25.6665C5.52757 25.6665 4.33366 24.4726 4.33366 22.9998V8.99984C4.33366 7.52708 5.52757 6.33317 7.00033 6.33317H7.66699V7.99984C7.66699 8.73622 8.26395 9.33317 9.00033 9.33317C9.73671 9.33317 10.3337 8.73622 10.3337 7.99984V6.33317H25.0003C26.4731 6.33317 27.667 7.52708 27.667 8.99984V22.9998C27.667 24.4726 26.4731 25.6665 25.0003 25.6665H10.3337V23.9998C10.3337 23.2635 9.73671 22.6665 9.00033 22.6665C8.26395 22.6665 7.66699 23.2635 7.66699 23.9998V25.6665H7.00033Z" fill="#717171"/>
</svg>
