<svg width="32" height="32" viewBox="0 0 32 32" fill="none" xmlns="http://www.w3.org/2000/svg">
<path d="M24.3337 11.9998C24.3337 11.2635 23.7367 10.6665 23.0003 10.6665C22.2639 10.6665 21.667 11.2635 21.667 11.9998V13.9998C21.667 14.7362 22.2639 15.3332 23.0003 15.3332C23.7367 15.3332 24.3337 14.7362 24.3337 13.9998V11.9998Z" fill="#717171"/>
<path d="M23.0003 16.6665C23.7367 16.6665 24.3337 17.2635 24.3337 17.9998V19.9998C24.3337 20.7362 23.7367 21.3332 23.0003 21.3332C22.2639 21.3332 21.667 20.7362 21.667 19.9998V17.9998C21.667 17.2635 22.2639 16.6665 23.0003 16.6665Z" fill="#717171"/>
<path d="M5.66699 15.9998C5.66699 15.2635 6.20968 14.6665 6.87911 14.6665H15.7814L14.0575 12.9426C13.5368 12.4219 13.5368 11.5777 14.0575 11.057C14.5782 10.5363 15.4224 10.5363 15.9431 11.057L19.9431 15.057C20.4638 15.5777 20.4638 16.4219 19.9431 16.9426L15.9431 20.9426C15.4224 21.4633 14.5782 21.4633 14.0575 20.9426C13.5368 20.4219 13.5368 19.5777 14.0575 19.057L15.7814 17.3332H6.87911C6.20968 17.3332 5.66699 16.7362 5.66699 15.9998Z" fill="#717171"/>
<path fill-rule="evenodd" clip-rule="evenodd" d="M1.66699 8.99984C1.66699 6.05432 4.05481 3.6665 7.00033 3.6665H25.0003C27.9458 3.6665 30.3337 6.05432 30.3337 8.99984V22.9998C30.3337 25.9454 27.9458 28.3332 25.0003 28.3332H7.00033C4.05481 28.3332 1.66699 25.9454 1.66699 22.9998V8.99984ZM7.00033 6.33317C5.52757 6.33317 4.33366 7.52708 4.33366 8.99984V22.9998C4.33366 24.4726 5.52757 25.6665 7.00033 25.6665H21.667V23.9998C21.667 23.2635 22.2639 22.6665 23.0003 22.6665C23.7367 22.6665 24.3337 23.2635 24.3337 23.9998V25.6665H25.0003C26.4731 25.6665 27.667 24.4726 27.667 22.9998V8.99984C27.667 7.52708 26.4731 6.33317 25.0003 6.33317H24.3337V7.99984C24.3337 8.73622 23.7367 9.33317 23.0003 9.33317C22.2639 9.33317 21.667 8.73622 21.667 7.99984V6.33317H7.00033Z" fill="#717171"/>
</svg>
