<svg width="32" height="32" viewBox="0 0 32 32" fill="none" xmlns="http://www.w3.org/2000/svg">
<path fill-rule="evenodd" clip-rule="evenodd" d="M30 16C30 23.732 23.732 30 16 30C8.26801 30 2 23.732 2 16C2 8.26801 8.26801 2 16 2C23.732 2 30 8.26801 30 16ZM16.9393 10.9393C17.5251 10.3536 18.4749 10.3536 19.0607 10.9393L23.0607 14.9393C23.6464 15.5251 23.6464 16.4749 23.0607 17.0607L19.0607 21.0607C18.4749 21.6464 17.5251 21.6464 16.9393 21.0607C16.3536 20.4749 16.3536 19.5251 16.9393 18.9393L18.3787 17.5H10C9.17157 17.5 8.5 16.8284 8.5 16C8.5 15.1716 9.17157 14.5 10 14.5L18.3787 14.5L16.9393 13.0607C16.3536 12.4749 16.3536 11.5251 16.9393 10.9393Z" fill="#808080"/>
</svg>
