<svg width="32" height="32" viewBox="0 0 32 32" fill="none" xmlns="http://www.w3.org/2000/svg">
<path d="M22.0607 12.9393C22.6464 13.5251 22.6464 14.4749 22.0607 15.0607L15.0607 22.0607C14.4749 22.6464 13.5251 22.6464 12.9393 22.0607L9.93934 19.0607C9.35355 18.4749 9.35355 17.5251 9.93934 16.9393C10.5251 16.3536 11.4749 16.3536 12.0607 16.9393L14 18.8787L19.9393 12.9393C20.5251 12.3536 21.4749 12.3536 22.0607 12.9393Z" fill="#808080"/>
<path fill-rule="evenodd" clip-rule="evenodd" d="M23.2108 4.00397C26.1507 4.11478 28.5 6.53303 28.5 9.5V25C28.5 28.0376 26.0376 30.5 23 30.5H9C5.96243 30.5 3.5 28.0376 3.5 25V9.5C3.5 6.53303 5.8493 4.11478 8.78916 4.00397C9.38155 2.53595 10.8198 1.5 12.5 1.5H19.5C21.1802 1.5 22.6184 2.53595 23.2108 4.00397ZM8.79415 7.00835C7.50973 7.11303 6.5 8.1886 6.5 9.5V25C6.5 26.3807 7.61929 27.5 9 27.5H23C24.3807 27.5 25.5 26.3807 25.5 25V9.5C25.5 8.1886 24.4903 7.11304 23.2058 7.00836C22.6104 8.46984 21.1755 9.5 19.5 9.5H12.5C10.8245 9.5 9.38961 8.46984 8.79415 7.00835ZM11.5 5.5C11.5 4.94772 11.9477 4.5 12.5 4.5H19.5C20.0523 4.5 20.5 4.94772 20.5 5.5C20.5 6.05228 20.0523 6.5 19.5 6.5H12.5C11.9477 6.5 11.5 6.05229 11.5 5.5Z" fill="#808080"/>
</svg>
