<svg width="32" height="32" viewBox="0 0 32 32" fill="none" xmlns="http://www.w3.org/2000/svg">
<path fill-rule="evenodd" clip-rule="evenodd" d="M10.4995 6.7C10.4995 6.82989 10.516 6.95592 10.5471 7.07611C6.56646 7.62186 3.5 11.0362 3.5 15.1667V25.1667C3.5 27.836 5.66396 30 8.33334 30H23.6664C26.3358 30 28.4997 27.8361 28.4998 25.1667L28.5 15.1666C28.4998 11.0358 25.433 7.62144 21.452 7.07601C21.483 6.95585 21.4995 6.82985 21.4995 6.7C21.4995 4.10426 19.3953 2 16.7995 2H15.1995C12.6038 2 10.4995 4.10426 10.4995 6.7ZM15.1995 5C14.2606 5 13.4995 5.76112 13.4995 6.7C13.4995 6.80274 13.4892 6.90307 13.4695 7H18.5295C18.5098 6.90307 18.4995 6.80274 18.4995 6.7C18.4995 5.76112 17.7384 5 16.7995 5H15.1995ZM25.5 15.1667L25.4998 25.1666C25.4998 25.8792 25.0933 26.4968 24.4995 26.8002V20.5C24.4995 17.4624 22.0371 15 18.9995 15H12.9995C9.96194 15 7.49951 17.4624 7.49951 20.5V26.7998C6.90616 26.4963 6.5 25.8789 6.5 25.1667V15.1667C6.5 12.3132 8.8132 10 11.6667 10H20.3331C23.1866 10 25.4998 12.3132 25.5 15.1667ZM10.5495 20C10.7812 18.8589 11.79 18 12.9995 18H18.9995C20.209 18 21.2179 18.8589 21.4495 20H10.5495ZM10.4995 27V23H16.5V24.5C16.5 25.3284 17.1716 26 18 26C18.8284 26 19.5 25.3284 19.5 24.5V23H21.4995V27H10.4995Z" fill="#808080"/>
</svg>
