<svg width="32" height="32" viewBox="0 0 32 32" fill="none" xmlns="http://www.w3.org/2000/svg">
<path d="M7.70133 5.0386C8.27493 4.44088 8.25538 3.49133 7.65766 2.91773C7.05994 2.34413 6.11039 2.36368 5.53679 2.9614C4.3058 4.24415 3.30774 5.75383 2.6118 7.42266C2.29294 8.18727 2.6543 9.06559 3.4189 9.38444C4.18351 9.7033 5.06183 9.34195 5.38068 8.57734C5.93181 7.25575 6.72326 6.05779 7.70133 5.0386Z" fill="#808080"/>
<path d="M26.463 2.9614C25.8894 2.36368 24.9399 2.34413 24.3422 2.91773C23.7444 3.49133 23.7249 4.44088 24.2985 5.0386C25.2766 6.05779 26.068 7.25575 26.6191 8.57734C26.938 9.34195 27.8163 9.7033 28.5809 9.38444C29.3455 9.06559 29.7069 8.18727 29.388 7.42266C28.6921 5.75383 27.694 4.24415 26.463 2.9614Z" fill="#808080"/>
<path fill-rule="evenodd" clip-rule="evenodd" d="M16 2.5C10.201 2.5 5.5 7.20101 5.5 13V22.5H5C4.17157 22.5 3.5 23.1716 3.5 24C3.5 24.8284 4.17157 25.5 5 25.5H10.7086C11.3645 27.8038 13.4912 29.5 16 29.5C18.5088 29.5 20.6355 27.8038 21.2914 25.5H27C27.8284 25.5 28.5 24.8284 28.5 24C28.5 23.1716 27.8284 22.5 27 22.5H26.5V13C26.5 7.20101 21.799 2.5 16 2.5ZM16 26.5C15.1893 26.5 14.4635 26.1057 14.0055 25.5H17.9945C17.5365 26.1057 16.8107 26.5 16 26.5ZM23.5 22.5V13C23.5 8.85786 20.1421 5.5 16 5.5C11.8579 5.5 8.5 8.85786 8.5 13V22.5H23.5Z" fill="#808080"/>
</svg>
