<svg width="32" height="32" viewBox="0 0 32 32" fill="none" xmlns="http://www.w3.org/2000/svg">
<path fill-rule="evenodd" clip-rule="evenodd" d="M6.17273 9.29404C5.73793 10.4464 5.50002 11.6954 5.50002 13V22.5H5.00002C4.17159 22.5 3.50002 23.1716 3.50002 24C3.50002 24.8284 4.17159 25.5 5.00002 25.5H10.7086C11.3646 27.8038 13.4912 29.5 16 29.5C18.5088 29.5 20.6355 27.8038 21.2914 25.5H22.3787L24.9316 28.0529C25.5174 28.6387 26.4671 28.6387 27.0529 28.0529C27.6387 27.4671 27.6387 26.5174 27.0529 25.9316L5.06066 3.93934C4.47487 3.35355 3.52513 3.35355 2.93934 3.93934C2.35355 4.52513 2.35355 5.47487 2.93934 6.06066L6.17273 9.29404ZM8.60733 11.7286C8.53677 12.1419 8.50002 12.5666 8.50002 13V22.5H19.3787L8.60733 11.7286ZM14.0055 25.5C14.4635 26.1057 15.1893 26.5 16 26.5C16.8108 26.5 17.5366 26.1057 17.9945 25.5H14.0055Z" fill="#808080"/>
<path d="M23.5 19.3787V13C23.5 8.85786 20.1422 5.5 16 5.5C14.2146 5.5 12.5748 6.1239 11.2869 7.16558L9.15713 5.03578C10.9949 3.45528 13.3859 2.5 16 2.5C21.799 2.5 26.5 7.20101 26.5 13V22.3787L23.5 19.3787Z" fill="#808080"/>
</svg>
