<svg width="32" height="32" viewBox="0 0 32 32" fill="none" xmlns="http://www.w3.org/2000/svg">
<path fill-rule="evenodd" clip-rule="evenodd" d="M6.91304 20.6493V16.4828C6.91304 15.1497 7.98366 14.069 9.30434 14.069H12.1487V5.88748C12.1487 3.74048 13.873 2 16 2C18.127 2 19.8512 3.74048 19.8512 5.88748V14.069H22.6956C24.0163 14.069 25.0869 15.1497 25.0869 16.4828V20.6492L26.9571 28.2005C27.0643 28.6331 26.968 29.0915 26.6961 29.443C26.4242 29.7945 26.007 30 25.5652 30H6.43479C5.99297 30 5.57579 29.7945 5.30389 29.443C5.03199 29.0915 4.93569 28.6331 5.04285 28.2005L6.91304 20.6493ZM15.0183 5.88748C15.0183 5.3402 15.4578 4.89655 16 4.89655C16.5422 4.89655 16.9817 5.3402 16.9817 5.88748V15.5172C16.9817 16.3171 17.6241 16.9655 18.4165 16.9655H22.2174V19.3793H9.7826V16.9655H13.5835C14.3759 16.9655 15.0183 16.3171 15.0183 15.5172V5.88748ZM20.3043 27.1034V24.6897C20.3043 23.8898 19.662 23.2414 18.8695 23.2414C18.0771 23.2414 17.4348 23.8898 17.4348 24.6897V27.1034H14.5652V24.6897C14.5652 23.8898 13.9228 23.2414 13.1304 23.2414C12.338 23.2414 11.6956 23.8898 11.6956 24.6897V27.1034H8.27243L9.46808 22.2759H22.5319L23.7276 27.1034H20.3043Z" fill="#808080"/>
</svg>
