<svg width="32" height="32" viewBox="0 0 32 32" fill="none" xmlns="http://www.w3.org/2000/svg">
<path fill-rule="evenodd" clip-rule="evenodd" d="M6.5 20.8154V16.5C6.5 15.1193 7.61929 14 9 14H11.9737V5.52632C11.9737 3.30264 13.7763 1.5 16 1.5C18.2237 1.5 20.0263 3.30264 20.0263 5.52632V14H23C24.3807 14 25.5 15.1193 25.5 16.5V20.8153L27.4552 28.6362C27.5673 29.0843 27.4666 29.559 27.1823 29.9231C26.8981 30.2872 26.4619 30.5 26 30.5H6.00001C5.53811 30.5 5.10197 30.2872 4.81771 29.9231C4.53344 29.559 4.43277 29.0843 4.5448 28.6362L6.5 20.8154ZM14.9737 5.52632C14.9737 4.9595 15.4332 4.5 16 4.5C16.5668 4.5 17.0263 4.9595 17.0263 5.52632V15.5C17.0263 16.3284 17.6979 17 18.5263 17H22.5V19.5H9.5V17H13.4737C14.3021 17 14.9737 16.3284 14.9737 15.5V5.52632ZM20.5 27.5V25C20.5 24.1716 19.8284 23.5 19 23.5C18.1716 23.5 17.5 24.1716 17.5 25V27.5H14.5V25C14.5 24.1716 13.8284 23.5 13 23.5C12.1716 23.5 11.5 24.1716 11.5 25V27.5H7.92118L9.17118 22.5H22.8288L24.0788 27.5H20.5Z" fill="#808080"/>
</svg>
