<svg width="32" height="32" viewBox="0 0 32 32" fill="none" xmlns="http://www.w3.org/2000/svg">
<path fill-rule="evenodd" clip-rule="evenodd" d="M11.5 3C11.5 2.17157 10.8284 1.5 10 1.5C9.17157 1.5 8.5 2.17157 8.5 3V3.5H8C4.96243 3.5 2.5 5.96243 2.5 9V25C2.5 28.0376 4.96243 30.5 8 30.5H24C27.0376 30.5 29.5 28.0376 29.5 25V9C29.5 5.96243 27.0376 3.5 24 3.5H23.5V3C23.5 2.17157 22.8284 1.5 22 1.5C21.1716 1.5 20.5 2.17157 20.5 3V3.5H11.5V3ZM20.5 7V6.5H11.5V7C11.5 7.82843 10.8284 8.5 10 8.5C9.17157 8.5 8.5 7.82843 8.5 7V6.5H8C6.61929 6.5 5.5 7.61929 5.5 9V9.5H26.5V9C26.5 7.61929 25.3807 6.5 24 6.5H23.5V7C23.5 7.82843 22.8284 8.5 22 8.5C21.1716 8.5 20.5 7.82843 20.5 7ZM26.5 12.5H5.5V25C5.5 26.3807 6.61929 27.5 8 27.5H24C25.3807 27.5 26.5 26.3807 26.5 25V12.5Z" fill="#808080"/>
</svg>
