<svg width="32" height="32" viewBox="0 0 32 32" fill="none" xmlns="http://www.w3.org/2000/svg">
<path d="M25 13.5195C25 14.6241 24.1046 15.5195 23 15.5195C21.8954 15.5195 21 14.6241 21 13.5195C21 12.415 21.8954 11.5195 23 11.5195C24.1046 11.5195 25 12.415 25 13.5195Z" fill="#808080"/>
<path d="M9 15.5195C10.1046 15.5195 11 14.6241 11 13.5195C11 12.415 10.1046 11.5195 9 11.5195C7.89543 11.5195 7 12.415 7 13.5195C7 14.6241 7.89543 15.5195 9 15.5195Z" fill="#808080"/>
<path d="M18 13.5195C18 14.6241 17.1046 15.5195 16 15.5195C14.8954 15.5195 14 14.6241 14 13.5195C14 12.415 14.8954 11.5195 16 11.5195C17.1046 11.5195 18 12.415 18 13.5195Z" fill="#808080"/>
<path fill-rule="evenodd" clip-rule="evenodd" d="M7 1.5C3.96243 1.5 1.5 3.96243 1.5 7V29C1.5 29.6067 1.86546 30.1536 2.42597 30.3858C2.98649 30.618 3.63166 30.4897 4.06066 30.0607L9.47487 24.6464C9.56864 24.5527 9.69582 24.5 9.82843 24.5H25C28.0376 24.5 30.5 22.0376 30.5 19V7C30.5 3.96243 28.0376 1.5 25 1.5H7ZM4.5 7C4.5 5.61929 5.61929 4.5 7 4.5H25C26.3807 4.5 27.5 5.61929 27.5 7V19C27.5 20.3807 26.3807 21.5 25 21.5H9.82843C8.90017 21.5 8.00993 21.8687 7.35355 22.5251L4.5 25.3787V7Z" fill="#808080"/>
</svg>
