<svg width="32" height="32" viewBox="0 0 32 32" fill="none" xmlns="http://www.w3.org/2000/svg">
<path d="M25 14.6919C25 15.7965 24.1046 16.6919 23 16.6919C21.8954 16.6919 21 15.7965 21 14.6919C21 13.5873 21.8954 12.6919 23 12.6919C24.1046 12.6919 25 13.5873 25 14.6919Z" fill="#808080"/>
<path d="M9 16.6919C10.1046 16.6919 11 15.7965 11 14.6919C11 13.5873 10.1046 12.6919 9 12.6919C7.89543 12.6919 7 13.5873 7 14.6919C7 15.7965 7.89543 16.6919 9 16.6919Z" fill="#808080"/>
<path d="M18 14.6919C18 15.7965 17.1046 16.6919 16 16.6919C14.8954 16.6919 14 15.7965 14 14.6919C14 13.5873 14.8954 12.6919 16 12.6919C17.1046 12.6919 18 13.5873 18 14.6919Z" fill="#808080"/>
<path fill-rule="evenodd" clip-rule="evenodd" d="M7 1.5C3.96243 1.5 1.5 3.96243 1.5 7V21C1.5 24.0376 3.96243 26.5 7 26.5H11.1716C11.3042 26.5 11.4314 26.5527 11.5251 26.6464L14.9393 30.0607C15.2206 30.342 15.6022 30.5 16 30.5C16.3978 30.5 16.7794 30.342 17.0607 30.0607L20.4749 26.6464C20.5686 26.5527 20.6958 26.5 20.8284 26.5H25C28.0376 26.5 30.5 24.0376 30.5 21V7C30.5 3.96243 28.0376 1.5 25 1.5H7ZM4.5 7C4.5 5.61929 5.61929 4.5 7 4.5H25C26.3807 4.5 27.5 5.61929 27.5 7V21C27.5 22.3807 26.3807 23.5 25 23.5H20.8284C19.9002 23.5 19.0099 23.8687 18.3536 24.5251L16 26.8787L13.6464 24.5251C12.9901 23.8687 12.0998 23.5 11.1716 23.5H7C5.61929 23.5 4.5 22.3807 4.5 21V7Z" fill="#808080"/>
</svg>
