<svg width="32" height="32" viewBox="0 0 32 32" fill="none" xmlns="http://www.w3.org/2000/svg">
<path fill-rule="evenodd" clip-rule="evenodd" d="M7 1.5C3.96243 1.5 1.5 3.96243 1.5 7V22C1.5 22.6067 1.86546 23.1536 2.42597 23.3858C2.98649 23.618 3.63166 23.4897 4.06066 23.0607L8.47487 18.6464C8.48301 18.6383 8.4914 18.6305 8.50003 18.623V20C8.50003 23.0376 10.9625 25.5 14 25.5H23.1716C23.3042 25.5 23.4314 25.5527 23.5251 25.6464L27.9393 30.0607C28.3683 30.4897 29.0135 30.618 29.574 30.3858C30.1345 30.1536 30.5 29.6067 30.5 29V14C30.5 10.9624 28.0376 8.5 25 8.5H23.5V7C23.5 3.96243 21.0376 1.5 18 1.5H7ZM23.5 11.5V13C23.5 16.0376 21.0376 18.5 18 18.5H11.5V20C11.5 21.3807 12.6193 22.5 14 22.5H23.1716C24.0998 22.5 24.9901 22.8687 25.6464 23.5251L27.5 25.3787V14C27.5 12.6193 26.3807 11.5 25 11.5H23.5ZM4.5 7C4.5 5.61929 5.61929 4.5 7 4.5H18C19.3807 4.5 20.5 5.61929 20.5 7V13C20.5 14.3807 19.3807 15.5 18 15.5H8.82843C7.90017 15.5 7.00993 15.8687 6.35355 16.5251L4.5 18.3787V7Z" fill="#808080"/>
</svg>
