<svg width="32" height="32" viewBox="0 0 32 32" fill="none" xmlns="http://www.w3.org/2000/svg">
<path fill-rule="evenodd" clip-rule="evenodd" d="M22.0006 5.5C22.9421 6.75349 23.5 8.31159 23.5 10C23.5 14.1421 20.1422 17.5 16 17.5C11.407 17.5 7.49901 20.45 6.07497 24.5632C5.9112 25.0362 6.01932 25.4551 6.34351 25.8148C6.6948 26.2045 7.29877 26.5 8.00003 26.5H16C16.8285 26.5 17.5 27.1716 17.5 28C17.5 28.8284 16.8285 29.5 16 29.5H8.00003C6.49215 29.5 5.0635 28.8755 4.11513 27.8233C3.13965 26.7411 2.68109 25.1962 3.24007 23.5817C4.51062 19.9119 7.32007 16.959 10.8981 15.4973C9.42301 14.1277 8.50003 12.1716 8.50003 10C8.50003 8.31159 9.05795 6.75349 9.99948 5.5H7.50003V8C7.50003 8.82843 6.82846 9.5 6.00003 9.5C5.1716 9.5 4.50003 8.82843 4.50003 8V5.41465C3.91743 5.20873 3.50003 4.65311 3.50003 4C3.50003 3.17157 4.1716 2.5 5.00003 2.5H25C25.8285 2.5 26.5 3.17157 26.5 4C26.5 4.82843 25.8285 5.5 25 5.5H22.0006ZM16 5.5C13.5147 5.5 11.5 7.51472 11.5 10C11.5 12.4853 13.5147 14.5 16 14.5C18.4853 14.5 20.5 12.4853 20.5 10C20.5 7.51472 18.4853 5.5 16 5.5Z" fill="#717171"/>
<path fill-rule="evenodd" clip-rule="evenodd" d="M24.4552 17.3637C24.6562 16.56 24.1675 15.7456 23.3638 15.5447C22.5601 15.3437 21.7457 15.8324 21.5448 16.6361L20.9955 18.8332H19C18.1716 18.8332 17.5 19.5048 17.5 20.3332C17.5 21.1616 18.1716 21.8332 19 21.8332H20.2455L19.9955 22.8332H19C18.1716 22.8332 17.5 23.5048 17.5 24.3332C17.5 25.1616 18.1716 25.8332 19 25.8332H19.2455L18.8781 27.3027C18.6772 28.1064 19.1659 28.9208 19.9696 29.1217C20.7733 29.3227 21.5877 28.834 21.7886 28.0303L22.3379 25.8332H23.2455L22.8782 27.3027C22.6772 28.1064 23.1659 28.9208 23.9696 29.1217C24.7733 29.3227 25.5877 28.834 25.7886 28.0303L26.3379 25.8332H28.3334C29.1618 25.8332 29.8334 25.1616 29.8334 24.3332C29.8334 23.5048 29.1618 22.8332 28.3334 22.8332H27.0879L27.3379 21.8332H28.3334C29.1618 21.8332 29.8334 21.1616 29.8334 20.3332C29.8334 19.5048 29.1618 18.8332 28.3334 18.8332H28.0879L28.4552 17.3637C28.6562 16.56 28.1675 15.7456 27.3638 15.5447C26.5601 15.3437 25.7457 15.8324 25.5448 16.6361L24.9955 18.8332H24.0879L24.4552 17.3637ZM23.0879 22.8332L23.3379 21.8332H24.2455L23.9955 22.8332H23.0879Z" fill="#717171"/>
</svg>
