<svg width="32" height="32" viewBox="0 0 32 32" fill="none" xmlns="http://www.w3.org/2000/svg">
<path fill-rule="evenodd" clip-rule="evenodd" d="M7.83924 6.50509C6.53344 6.58796 5.5 7.67329 5.5 9V25C5.5 26.3807 6.61929 27.5 8 27.5H13C13.8284 27.5 14.5 28.1716 14.5 29C14.5 29.8284 13.8284 30.5 13 30.5H8C4.96243 30.5 2.5 28.0376 2.5 25V9C2.5 6.0174 4.87412 3.58931 7.83567 3.50241C8.39691 2.31864 9.60285 1.5 11 1.5H19C20.3971 1.5 21.6031 2.31864 22.1643 3.50241C25.1259 3.58931 27.5 6.0174 27.5 9V13C27.5 13.8284 26.8284 14.5 26 14.5C25.1716 14.5 24.5 13.8284 24.5 13V9C24.5 7.67329 23.4666 6.58796 22.1608 6.50509C21.598 7.68482 20.3942 8.5 19 8.5H11C9.6058 8.5 8.40201 7.68482 7.83924 6.50509ZM10.5 5C10.5 5.27614 10.7239 5.5 11 5.5H19C19.2761 5.5 19.5 5.27614 19.5 5C19.5 4.72386 19.2761 4.5 19 4.5H11C10.7239 4.5 10.5 4.72386 10.5 5Z" fill="#717171"/>
<path d="M9.5 12C9.5 11.1716 10.1716 10.5 11 10.5H19C19.8284 10.5 20.5 11.1716 20.5 12C20.5 12.8284 19.8284 13.5 19 13.5H11C10.1716 13.5 9.5 12.8284 9.5 12Z" fill="#717171"/>
<path d="M11 14.5C10.1716 14.5 9.5 15.1716 9.5 16C9.5 16.8284 10.1716 17.5 11 17.5H19C19.8284 17.5 20.5 16.8284 20.5 16C20.5 15.1716 19.8284 14.5 19 14.5H11Z" fill="#717171"/>
<path fill-rule="evenodd" clip-rule="evenodd" d="M14.9737 25.5793C14.9737 25.1815 15.1317 24.7999 15.413 24.5186L23.5183 16.4134C24.918 15.0137 27.1873 15.0137 28.587 16.4134C29.9866 17.813 29.9866 20.0824 28.587 21.4821L20.4817 29.5873C20.2004 29.8686 19.8189 30.0267 19.421 30.0267H16.4737C15.6452 30.0267 14.9737 29.3551 14.9737 28.5267L14.9737 25.5793ZM26.4656 18.5347C26.2375 18.3066 25.8677 18.3066 25.6396 18.5347L24.6477 19.5266L25.4737 20.3526L26.4656 19.3607C26.6937 19.1326 26.6937 18.7628 26.4656 18.5347ZM23.3524 22.474L22.5264 21.6479L17.9737 26.2006V27.0267H18.7997L23.3524 22.474Z" fill="#717171"/>
</svg>
