<svg width="32" height="32" viewBox="0 0 32 32" fill="none" xmlns="http://www.w3.org/2000/svg">
<path d="M16 2C8.26801 2 2 8.26801 2 16C2 23.732 8.26801 30 16 30C23.732 30 30 23.732 30 16C30 8.26801 23.732 2 16 2Z" fill="#808080"/>
<path fill-rule="evenodd" clip-rule="evenodd" d="M16 8.5C16.8284 8.5 17.5 9.17157 17.5 10V15.3787L21.0607 18.9393C21.6464 19.5251 21.6464 20.4749 21.0607 21.0607C20.4749 21.6464 19.5251 21.6464 18.9393 21.0607L14.9393 17.0607C14.658 16.7794 14.5 16.3978 14.5 16V10C14.5 9.17157 15.1716 8.5 16 8.5Z" fill="white"/>
</svg>
