<svg width="32" height="32" viewBox="0 0 32 32" fill="none" xmlns="http://www.w3.org/2000/svg">
<path fill-rule="evenodd" clip-rule="evenodd" d="M2 16C2 8.26801 8.26801 2 16 2C23.732 2 30 8.26801 30 16C30 23.732 23.732 30 16 30C8.26801 30 2 23.732 2 16ZM17.5 10C17.5 9.17157 16.8284 8.5 16 8.5C15.1716 8.5 14.5 9.17157 14.5 10V16C14.5 16.3978 14.658 16.7794 14.9393 17.0607L18.9393 21.0607C19.5251 21.6464 20.4749 21.6464 21.0607 21.0607C21.6464 20.4749 21.6464 19.5251 21.0607 18.9393L17.5 15.3787V10Z" fill="#808080"/>
</svg>
