<svg width="32" height="32" viewBox="0 0 32 32" fill="none" xmlns="http://www.w3.org/2000/svg">
<path d="M17.5 10C17.5 9.17157 16.8284 8.5 16 8.5C15.1716 8.5 14.5 9.17157 14.5 10V16C14.5 16.3978 14.658 16.7794 14.9393 17.0607L18.9393 21.0607C19.5251 21.6464 20.4749 21.6464 21.0607 21.0607C21.6464 20.4749 21.6464 19.5251 21.0607 18.9393L17.5 15.3787V10Z" fill="#808080"/>
<path fill-rule="evenodd" clip-rule="evenodd" d="M16 1.5C7.99187 1.5 1.5 7.99187 1.5 16C1.5 24.0081 7.99187 30.5 16 30.5C24.0081 30.5 30.5 24.0081 30.5 16C30.5 7.99187 24.0081 1.5 16 1.5ZM4.5 16C4.5 9.64873 9.64873 4.5 16 4.5C22.3513 4.5 27.5 9.64873 27.5 16C27.5 22.3513 22.3513 27.5 16 27.5C9.64873 27.5 4.5 22.3513 4.5 16Z" fill="#808080"/>
</svg>
