<svg width="32" height="32" viewBox="0 0 32 32" fill="none" xmlns="http://www.w3.org/2000/svg">
<g clip-path="url(#clip0_1225_2692)">
<path d="M5.00033 2.5C4.17191 2.5 3.50033 3.17157 3.50033 4L3.50033 10C3.50033 10.8284 4.17191 11.5 5.00033 11.5L11.0003 11.5C11.8288 11.5 12.5003 10.8284 12.5003 10C12.5003 9.17157 11.8288 8.5 11.0003 8.5L8.65185 8.5C12.7581 4.47503 19.3497 4.50016 23.425 8.57538C25.4755 10.6259 26.5003 13.3105 26.5003 16C26.5003 18.6895 25.4755 21.3741 23.425 23.4246C19.3245 27.5251 12.6762 27.5251 8.57571 23.4246C7.19707 22.046 6.28396 20.3833 5.83218 18.6264C5.72091 18.1937 5.63759 17.7551 5.58228 17.3136C5.4793 16.4915 4.72946 15.9087 3.90746 16.0116C3.08546 16.1146 2.50257 16.8644 2.60554 17.6864C2.67658 18.2535 2.78362 18.8171 2.9267 19.3736C3.50852 21.6362 4.68581 23.7774 6.4544 25.5459C11.7265 30.818 20.2742 30.818 25.5463 25.5459C28.182 22.9102 29.5003 19.4526 29.5003 16C29.5003 12.5474 28.182 9.0898 25.5463 6.45406C20.2895 1.19727 11.776 1.18203 6.50033 6.40833L6.50033 4C6.50033 3.17157 5.82876 2.5 5.00033 2.5Z" fill="#808080"/>
<path d="M16.0003 8.5C15.1719 8.5 14.5003 9.17157 14.5003 10V16C14.5003 16.3978 14.6584 16.7794 14.9397 17.0607L18.9397 21.0607C19.5255 21.6464 20.4752 21.6464 21.061 21.0607C21.6468 20.4749 21.6468 19.5251 21.061 18.9393L17.5003 15.3787V10C17.5003 9.17157 16.8288 8.5 16.0003 8.5Z" fill="#808080"/>
</g>
<defs>
<clipPath id="clip0_1225_2692">
<rect width="32" height="32" fill="white"/>
</clipPath>
</defs>
</svg>
