<svg width="32" height="32" viewBox="0 0 32 32" fill="none" xmlns="http://www.w3.org/2000/svg">
<path d="M8.06066 1.93934C8.64645 2.52513 8.64645 3.47487 8.06066 4.06066L4.06066 8.06066C3.47487 8.64645 2.52513 8.64645 1.93934 8.06066C1.35355 7.47487 1.35355 6.52513 1.93934 5.93934L5.93934 1.93934C6.52513 1.35355 7.47487 1.35355 8.06066 1.93934Z" fill="#808080"/>
<path d="M18.5 13C18.5 12.1716 17.8284 11.5 17 11.5C16.1716 11.5 15.5 12.1716 15.5 13V17.5H13C12.1716 17.5 11.5 18.1716 11.5 19C11.5 19.8284 12.1716 20.5 13 20.5H17C17.8284 20.5 18.5 19.8284 18.5 19V13Z" fill="#808080"/>
<path fill-rule="evenodd" clip-rule="evenodd" d="M16 3.5C8.54416 3.5 2.5 9.54416 2.5 17C2.5 24.4558 8.54416 30.5 16 30.5C23.4558 30.5 29.5 24.4558 29.5 17C29.5 9.54416 23.4558 3.5 16 3.5ZM5.5 17C5.5 11.201 10.201 6.5 16 6.5C21.799 6.5 26.5 11.201 26.5 17C26.5 22.799 21.799 27.5 16 27.5C10.201 27.5 5.5 22.799 5.5 17Z" fill="#808080"/>
<path d="M23.9393 4.06066C23.3536 3.47487 23.3536 2.52513 23.9393 1.93934C24.5251 1.35355 25.4749 1.35355 26.0607 1.93934L30.0607 5.93934C30.6464 6.52513 30.6464 7.47487 30.0607 8.06066C29.4749 8.64645 28.5251 8.64645 27.9393 8.06066L23.9393 4.06066Z" fill="#808080"/>
</svg>
