<svg width="32" height="32" viewBox="0 0 32 32" fill="none" xmlns="http://www.w3.org/2000/svg">
<path d="M8.06066 5.93934C7.47487 5.35355 6.52513 5.35355 5.93934 5.93934C5.35355 6.52513 5.35355 7.47487 5.93934 8.06066L13.8787 16L5.93934 23.9393C5.35355 24.5251 5.35355 25.4749 5.93934 26.0607C6.52513 26.6464 7.47487 26.6464 8.06066 26.0607L16 18.1213L23.9393 26.0607C24.5251 26.6464 25.4749 26.6464 26.0607 26.0607C26.6464 25.4749 26.6464 24.5251 26.0607 23.9393L18.1213 16L26.0607 8.06066C26.6464 7.47487 26.6464 6.52513 26.0607 5.93934C25.4749 5.35355 24.5251 5.35355 23.9393 5.93934L16 13.8787L8.06066 5.93934Z" fill="#808080"/>
</svg>
