<svg width="32" height="32" viewBox="0 0 32 32" fill="none" xmlns="http://www.w3.org/2000/svg">
<path fill-rule="evenodd" clip-rule="evenodd" d="M13 3C7.47715 3 3 7.47715 3 13C3 14.4719 3.31866 15.8721 3.89169 17.1331C3.8931 17.1461 3.89487 17.1696 3.89478 17.2056C3.89452 17.3061 3.88025 17.4494 3.84601 17.6425C3.78647 17.9783 3.68742 18.3586 3.57523 18.7893L3.51494 19.0213C3.38753 19.514 3.24666 20.081 3.19663 20.5854C3.17138 20.8401 3.16358 21.1277 3.21253 21.4108C3.26159 21.6944 3.38031 22.0435 3.66667 22.3309C4.20797 22.8741 4.98053 22.8693 5.4255 22.8343C5.94366 22.7936 6.52357 22.6592 7.02895 22.5361C7.11982 22.514 7.20864 22.4921 7.29549 22.4707C7.72533 22.365 8.1068 22.2711 8.44787 22.2146C8.64801 22.1815 8.80032 22.1674 8.9111 22.1679C8.97201 22.1681 9.00469 22.1728 9.01612 22.1747C9.20592 22.2572 9.39876 22.334 9.59442 22.4048C10.9872 26.2514 14.6725 29 18.9998 29C20.4138 29 21.7617 28.7059 22.9837 28.1746C22.9951 28.1727 23.0278 28.1681 23.0887 28.1678C23.1995 28.1674 23.3518 28.1814 23.5519 28.2146C23.8929 28.2711 24.2743 28.3649 24.7041 28.4706L24.7051 28.4709C24.7917 28.4922 24.8803 28.514 24.9708 28.536C25.4762 28.6591 26.0561 28.7936 26.5743 28.8343C27.0193 28.8693 27.7918 28.874 28.3331 28.3308C28.6195 28.0435 28.7382 27.6944 28.7873 27.4107C28.8362 27.1276 28.8284 26.84 28.8032 26.5854C28.7531 26.0809 28.6123 25.514 28.4849 25.0212L28.4246 24.7892C28.3124 24.3585 28.2133 23.9783 28.1538 23.6425C28.1195 23.4493 28.1053 23.3061 28.105 23.2056C28.1049 23.1695 28.1067 23.1461 28.1081 23.1331C28.6811 21.8721 28.9998 20.4719 28.9998 19C28.9998 14.6729 26.2515 10.9877 22.4053 9.59479C21.0124 5.7484 17.3272 3 13 3ZM5 13C5 8.58172 8.58172 5 13 5C17.4183 5 21 8.58172 21 13C21 17.4183 17.4183 21 13 21C11.8595 21 10.7772 20.7619 9.79809 20.3338C9.49304 20.2004 9.17658 20.1689 8.9188 20.1679C8.65266 20.1669 8.37871 20.1988 8.12099 20.2415C7.69609 20.3119 7.22313 20.4285 6.79468 20.5342C6.7133 20.5543 6.63322 20.574 6.55569 20.5929C6.03464 20.7198 5.60378 20.8142 5.26882 20.8405C5.23677 20.843 5.2077 20.8447 5.18143 20.8458C5.18286 20.8261 5.18465 20.8052 5.18687 20.7828C5.21937 20.4551 5.31921 20.0326 5.45125 19.522C5.46916 19.4527 5.4877 19.3817 5.5066 19.3093C5.61758 18.8843 5.74056 18.4132 5.8153 17.9916C5.8598 17.7407 5.89409 17.472 5.89477 17.2109C5.89543 16.9597 5.86604 16.6404 5.72491 16.3329C5.25981 15.3195 5 14.1915 5 13ZM22.9549 12.0445C22.9848 12.359 23 12.6777 23 13C23 18.5228 18.5228 23 13 23C12.6777 23 12.3589 22.9847 12.0442 22.9548C13.4209 25.3709 16.0201 27 18.9998 27C20.1403 27 21.2226 26.7619 22.2017 26.3337C22.5068 26.2003 22.8232 26.1688 23.081 26.1678C23.3471 26.1668 23.6211 26.1988 23.8788 26.2415C24.3037 26.3119 24.7767 26.4285 25.2051 26.5341C25.2866 26.5542 25.3665 26.5739 25.4441 26.5928C25.9652 26.7197 26.396 26.8141 26.731 26.8404C26.763 26.843 26.7921 26.8447 26.8184 26.8457C26.8169 26.8261 26.8151 26.8051 26.8129 26.7827C26.7804 26.455 26.6806 26.0326 26.5485 25.5219C26.5308 25.4534 26.5125 25.3831 26.4938 25.3115L26.4932 25.3093C26.3822 24.8842 26.2592 24.4132 26.1845 23.9916C26.14 23.7406 26.1057 23.472 26.105 23.2108C26.1044 22.9597 26.1338 22.6403 26.2749 22.3328C26.74 21.3195 26.9998 20.1914 26.9998 19C26.9998 16.0203 25.3709 13.4212 22.9549 12.0445Z" fill="#808080"/>
</svg>
