<svg width="32" height="32" viewBox="0 0 32 32" fill="none" xmlns="http://www.w3.org/2000/svg">
<path d="M9.5 13C9.5 12.1716 10.1716 11.5 11 11.5H21C21.8284 11.5 22.5 12.1716 22.5 13C22.5 13.8284 21.8284 14.5 21 14.5H11C10.1716 14.5 9.5 13.8284 9.5 13Z" fill="#808080"/>
<path d="M11 17.5C10.1716 17.5 9.5 18.1716 9.5 19C9.5 19.8284 10.1716 20.5 11 20.5H21C21.8284 20.5 22.5 19.8284 22.5 19C22.5 18.1716 21.8284 17.5 21 17.5H11Z" fill="#808080"/>
<path fill-rule="evenodd" clip-rule="evenodd" d="M30.5 16C30.5 7.99187 24.0081 1.5 16 1.5C7.99187 1.5 1.5 7.99187 1.5 16C1.5 24.0081 7.99187 30.5 16 30.5C17.9076 30.5 19.7324 30.1309 21.4043 29.459L27.4612 30.3006C29.1207 30.5312 30.5329 29.096 30.2756 27.4404L29.3707 21.6189C30.0984 19.8892 30.5 17.9897 30.5 16ZM16 4.5C22.3513 4.5 27.5 9.64873 27.5 16C27.5 17.7128 27.1265 19.3343 26.458 20.791C26.3352 21.0585 26.2938 21.3562 26.339 21.6471L27.2079 27.2366L21.4102 26.4309C21.1359 26.3928 20.8564 26.4314 20.6027 26.5423C19.1953 27.1578 17.6396 27.5 16 27.5C9.64873 27.5 4.5 22.3513 4.5 16C4.5 9.64873 9.64873 4.5 16 4.5Z" fill="#808080"/>
</svg>
