<svg width="32" height="32" viewBox="0 0 32 32" fill="none" xmlns="http://www.w3.org/2000/svg">
<path fill-rule="evenodd" clip-rule="evenodd" d="M16 6.5C21.2467 6.5 25.5 10.7533 25.5 16C25.5 17.4154 25.1914 18.7547 24.6393 19.9576C24.5165 20.2252 24.4752 20.5229 24.5204 20.8137L25.2079 25.2366L20.6096 24.5976C20.3353 24.5595 20.0559 24.5981 19.8021 24.709C18.6398 25.2173 17.3549 25.5 16 25.5C10.7533 25.5 6.5 21.2467 6.5 16C6.5 10.7533 10.7533 6.5 16 6.5ZM28.5 16C28.5 9.09644 22.9036 3.5 16 3.5C9.09644 3.5 3.5 9.09644 3.5 16C3.5 22.9036 9.09644 28.5 16 28.5C17.6224 28.5 19.1757 28.1902 20.6016 27.6253L25.7943 28.3469C27.2879 28.5544 28.5589 27.2628 28.3272 25.7727L27.5517 20.7833C28.1631 19.3082 28.5 17.6917 28.5 16Z" fill="#808080"/>
</svg>
