<svg width="32" height="32" viewBox="0 0 32 32" fill="none" xmlns="http://www.w3.org/2000/svg">
<path fill-rule="evenodd" clip-rule="evenodd" d="M10.5 3C10.5 2.17157 9.82843 1.5 9 1.5C8.17157 1.5 7.5 2.17157 7.5 3V7.5L3 7.5C2.17157 7.5 1.5 8.17157 1.5 9C1.5 9.82843 2.17157 10.5 3 10.5L7.5 10.5V21C7.5 22.933 9.067 24.5 11 24.5H21.5V29C21.5 29.8284 22.1716 30.5 23 30.5C23.8284 30.5 24.5 29.8284 24.5 29V24.5H29C29.8284 24.5 30.5 23.8284 30.5 23C30.5 22.1716 29.8284 21.5 29 21.5H24.5L24.5 11C24.5 9.067 22.933 7.5 21 7.5L10.5 7.5V3ZM10.5 10.5V21C10.5 21.2761 10.7239 21.5 11 21.5H21.5L21.5 11C21.5 10.7239 21.2761 10.5 21 10.5L10.5 10.5Z" fill="#808080"/>
</svg>
