<svg width="32" height="32" viewBox="0 0 32 32" fill="none" xmlns="http://www.w3.org/2000/svg">
<path d="M10 8.5C9.17157 8.5 8.5 9.17157 8.5 10C8.5 10.8284 9.17157 11.5 10 11.5L22 11.5C22.8284 11.5 23.5 10.8284 23.5 10C23.5 9.17157 22.8284 8.5 22 8.5L10 8.5Z" fill="#808080"/>
<path d="M14.5 16C14.5 15.1716 15.1716 14.5 16 14.5H22C22.8284 14.5 23.5 15.1716 23.5 16C23.5 16.8284 22.8284 17.5 22 17.5H16C15.1716 17.5 14.5 16.8284 14.5 16Z" fill="#808080"/>
<path d="M16 20.5C15.1716 20.5 14.5 21.1716 14.5 22C14.5 22.8284 15.1716 23.5 16 23.5H22C22.8284 23.5 23.5 22.8284 23.5 22C23.5 21.1716 22.8284 20.5 22 20.5H16Z" fill="#808080"/>
<path d="M8.5 16C8.5 15.1716 9.17157 14.5 10 14.5H11C11.8284 14.5 12.5 15.1716 12.5 16C12.5 16.8284 11.8284 17.5 11 17.5H10C9.17157 17.5 8.5 16.8284 8.5 16Z" fill="#808080"/>
<path d="M10 20.5C9.17157 20.5 8.5 21.1716 8.5 22C8.5 22.8284 9.17157 23.5 10 23.5H11C11.8284 23.5 12.5 22.8284 12.5 22C12.5 21.1716 11.8284 20.5 11 20.5H10Z" fill="#808080"/>
<path fill-rule="evenodd" clip-rule="evenodd" d="M7.48535 2.00537C4.44779 2.00537 1.98535 4.4678 1.98535 7.50537V24.5117C1.98535 27.5493 4.44778 30.0117 7.48535 30.0117H24.4917C27.5293 30.0117 29.9917 27.5493 29.9917 24.5117V7.50537C29.9917 4.46781 27.5293 2.00537 24.4917 2.00537H7.48535ZM4.98535 7.50537C4.98535 6.12466 6.10464 5.00537 7.48535 5.00537H24.4917C25.8724 5.00537 26.9917 6.12466 26.9917 7.50537V24.5117C26.9917 25.8924 25.8724 27.0117 24.4917 27.0117H7.48535C6.10464 27.0117 4.98535 25.8924 4.98535 24.5117V7.50537Z" fill="#808080"/>
</svg>
