<svg width="32" height="32" viewBox="0 0 32 32" fill="none" xmlns="http://www.w3.org/2000/svg">
<path fill-rule="evenodd" clip-rule="evenodd" d="M26 2C28.2091 2 30 3.79086 30 6V26C30 28.2091 28.2091 30 26 30H6C3.79086 30 2 28.2091 2 26V6C2 3.79086 3.79086 2 6 2H26ZM10 8.5C9.17157 8.5 8.5 9.17157 8.5 10C8.5 10.8284 9.17157 11.5 10 11.5L22 11.5C22.8284 11.5 23.5 10.8284 23.5 10C23.5 9.17157 22.8284 8.5 22 8.5H10ZM16 14.5C15.1716 14.5 14.5 15.1716 14.5 16C14.5 16.8284 15.1716 17.5 16 17.5H22C22.8284 17.5 23.5 16.8284 23.5 16C23.5 15.1716 22.8284 14.5 22 14.5H16ZM14.5 22C14.5 21.1716 15.1716 20.5 16 20.5H22C22.8284 20.5 23.5 21.1716 23.5 22C23.5 22.8284 22.8284 23.5 22 23.5H16C15.1716 23.5 14.5 22.8284 14.5 22ZM10 14.5C9.17157 14.5 8.5 15.1716 8.5 16C8.5 16.8284 9.17157 17.5 10 17.5H11C11.8284 17.5 12.5 16.8284 12.5 16C12.5 15.1716 11.8284 14.5 11 14.5H10ZM8.5 22C8.5 21.1716 9.17157 20.5 10 20.5H11C11.8284 20.5 12.5 21.1716 12.5 22C12.5 22.8284 11.8284 23.5 11 23.5H10C9.17157 23.5 8.5 22.8284 8.5 22Z" fill="#808080"/>
</svg>
