<svg width="32" height="32" viewBox="0 0 32 32" fill="none" xmlns="http://www.w3.org/2000/svg">
<path d="M14.5 13C14.5 12.1716 13.8284 11.5 13 11.5C12.1716 11.5 11.5 12.1716 11.5 13V23C11.5 23.8284 12.1716 24.5 13 24.5C13.8284 24.5 14.5 23.8284 14.5 23V13Z" fill="#808080"/>
<path d="M19 11.5C19.8284 11.5 20.5 12.1716 20.5 13V23C20.5 23.8284 19.8284 24.5 19 24.5C18.1716 24.5 17.5 23.8284 17.5 23V13C17.5 12.1716 18.1716 11.5 19 11.5Z" fill="#808080"/>
<path fill-rule="evenodd" clip-rule="evenodd" d="M12 1.5C10.067 1.5 8.5 3.067 8.5 5V6.5H3C2.17157 6.5 1.5 7.17157 1.5 8C1.5 8.82843 2.17157 9.5 3 9.5H3.63606L5.16191 25.5215C5.43075 28.3442 7.80156 30.5 10.6371 30.5H21.3628C24.1984 30.5 26.5692 28.3442 26.8381 25.5215L28.3639 9.5H29C29.8284 9.5 30.5 8.82843 30.5 8C30.5 7.17158 29.8284 6.5 29 6.5L23.5 6.5V5C23.5 3.067 21.933 1.5 20 1.5H12ZM20.5 6.5V5C20.5 4.72386 20.2761 4.5 20 4.5H12C11.7239 4.5 11.5 4.72386 11.5 5V6.5H20.5ZM6.64963 9.5L8.1484 25.237C8.27059 26.5201 9.34824 27.5 10.6371 27.5H21.3628C22.6517 27.5 23.7294 26.5201 23.8516 25.237L25.3503 9.5H6.64963Z" fill="#808080"/>
</svg>
