<svg width="32" height="32" viewBox="0 0 32 32" fill="none" xmlns="http://www.w3.org/2000/svg">
<path d="M11 9.00002C9.34313 9.00002 8 7.65687 8 6.00001C8 4.34316 9.34313 3 11 3C12.6568 3 14 4.34316 14 6.00001C14 7.65687 12.6568 9.00002 11 9.00002Z" fill="#808080"/>
<path d="M11 29C9.34313 29 8 27.6569 8 26C8 24.3432 9.34313 23 11 23C12.6568 23 14 24.3432 14 26C14 27.6569 12.6568 29 11 29Z" fill="#808080"/>
<path d="M8 16C8 17.6569 9.34313 19 11 19C12.6568 19 14 17.6569 14 16C14 14.3432 12.6568 13 11 13C9.34313 13 8 14.3432 8 16Z" fill="#808080"/>
<path d="M21 29C19.3431 29 18 27.6569 18 26C18 24.3432 19.3431 23 21 23C22.6568 23 24 24.3432 24 26C24 27.6569 22.6568 29 21 29Z" fill="#808080"/>
<path d="M18 6.00001C18 7.65687 19.3431 9.00002 21 9.00002C22.6568 9.00002 24 7.65687 24 6.00001C24 4.34316 22.6568 3 21 3C19.3431 3 18 4.34316 18 6.00001Z" fill="#808080"/>
<path d="M21 19C19.3431 19 18 17.6569 18 16C18 14.3432 19.3431 13 21 13C22.6568 13 24 14.3432 24 16C24 17.6569 22.6568 19 21 19Z" fill="#808080"/>
</svg>
