<svg width="32" height="32" viewBox="0 0 32 32" fill="none" xmlns="http://www.w3.org/2000/svg">
<path d="M16 2.5C16.8284 2.5 17.5 3.17157 17.5 4V20.3787L22.9393 14.9393C23.5251 14.3536 24.4749 14.3536 25.0607 14.9393C25.6464 15.5251 25.6464 16.4749 25.0607 17.0607L17.0607 25.0607C16.7794 25.342 16.3978 25.5 16 25.5C15.6022 25.5 15.2206 25.342 14.9393 25.0607L6.93934 17.0607C6.35355 16.4749 6.35355 15.5251 6.93934 14.9393C7.52513 14.3536 8.47487 14.3536 9.06066 14.9393L14.5 20.3787V4C14.5 3.17157 15.1716 2.5 16 2.5Z" fill="#808080"/>
<path d="M2.5 29C2.5 28.1716 3.17157 27.5 4 27.5H28C28.8284 27.5 29.5 28.1716 29.5 29C29.5 29.8284 28.8284 30.5 28 30.5H4C3.17157 30.5 2.5 29.8284 2.5 29Z" fill="#808080"/>
</svg>
