<svg width="32" height="32" viewBox="0 0 32 32" fill="none" xmlns="http://www.w3.org/2000/svg">
<path d="M25.0607 21.0607C25.6464 20.4749 25.6464 19.5251 25.0607 18.9393C24.4749 18.3536 23.5251 18.3536 22.9393 18.9393L17.5 24.3787L17.5 4C17.5 3.17157 16.8284 2.5 16 2.5C15.1716 2.5 14.5 3.17157 14.5 4L14.5 24.3787L9.06066 18.9393C8.47487 18.3536 7.52512 18.3536 6.93934 18.9393C6.35355 19.5251 6.35355 20.4749 6.93934 21.0607L14.9393 29.0607C15.2322 29.3536 15.6161 29.5 16 29.5C16.2034 29.5 16.3973 29.4595 16.5742 29.3862C16.7511 29.313 16.9168 29.2045 17.0607 29.0607L25.0607 21.0607Z" fill="#808080"/>
</svg>
