<svg width="32" height="32" viewBox="0 0 32 32" fill="none" xmlns="http://www.w3.org/2000/svg">
<path fill-rule="evenodd" clip-rule="evenodd" d="M1.5 7C1.5 5.067 3.067 3.5 5 3.5H27C28.933 3.5 30.5 5.067 30.5 7V16C30.5 16.8284 29.8284 17.5 29 17.5C28.1716 17.5 27.5 16.8284 27.5 16V8.62132L18.4749 17.6464C17.108 19.0133 14.892 19.0133 13.5251 17.6464L4.5 8.62132V23C4.5 24.3807 5.61929 25.5 7 25.5H18C18.8284 25.5 19.5 26.1716 19.5 27C19.5 27.8284 18.8284 28.5 18 28.5H7C3.96243 28.5 1.5 26.0376 1.5 23V7ZM6.62132 6.5H25.3787L16.3536 15.5251C16.1583 15.7204 15.8417 15.7204 15.6464 15.5251L6.62132 6.5Z" fill="#808080"/>
<path fill-rule="evenodd" clip-rule="evenodd" d="M30 23C30 25.7614 27.7614 28 25 28C22.2386 28 20 25.7614 20 23C20 20.2386 22.2386 18 25 18C27.7614 18 30 20.2386 30 23ZM27 23C27 24.1046 26.1046 25 25 25C23.8954 25 23 24.1046 23 23C23 21.8954 23.8954 21 25 21C26.1046 21 27 21.8954 27 23Z" fill="#808080"/>
</svg>
