<svg width="32" height="32" viewBox="0 0 32 32" fill="none" xmlns="http://www.w3.org/2000/svg">
<path fill-rule="evenodd" clip-rule="evenodd" d="M5 3.5C3.067 3.5 1.5 5.067 1.5 7V23C1.5 26.0376 3.96243 28.5 7 28.5H25C28.0376 28.5 30.5 26.0376 30.5 23V7C30.5 5.067 28.933 3.5 27 3.5H5ZM4.5 8.62132V23C4.5 24.3807 5.61929 25.5 7 25.5H25C26.3807 25.5 27.5 24.3807 27.5 23V8.62132L18.4749 17.6464C17.108 19.0133 14.892 19.0133 13.5251 17.6464L4.5 8.62132ZM25.3787 6.5H6.62132L15.6464 15.5251C15.8417 15.7204 16.1583 15.7204 16.3536 15.5251L25.3787 6.5Z" fill="#808080"/>
</svg>
