<svg width="32" height="32" viewBox="0 0 32 32" fill="none" xmlns="http://www.w3.org/2000/svg">
<path fill-rule="evenodd" clip-rule="evenodd" d="M4.57583 16.2128C4.54434 16.1153 4.52543 16.0453 4.51421 16C4.52543 15.9547 4.54434 15.8847 4.57583 15.7872C4.6532 15.5477 4.78133 15.22 4.97133 14.8332C5.35135 14.0596 5.95714 13.0935 6.8423 12.153C7.1888 11.7849 7.57958 11.4188 8.01903 11.0686C7.68329 11.9823 7.5 12.9698 7.5 14C7.5 18.6944 11.3056 22.5 16 22.5C20.6944 22.5 24.5 18.6944 24.5 14C24.5 12.9698 24.3167 11.9823 23.981 11.0686C24.4204 11.4188 24.8112 11.7849 25.1577 12.153C26.0429 13.0935 26.6486 14.0596 27.0287 14.8332C27.2187 15.22 27.3468 15.5477 27.4242 15.7872C27.4557 15.8847 27.4746 15.9547 27.4858 16C27.4746 16.0453 27.4557 16.1153 27.4242 16.2128C27.3468 16.4523 27.2187 16.78 27.0287 17.1668C26.6486 17.9404 26.0429 18.9065 25.1577 19.847C23.4136 21.7001 20.5478 23.5 16 23.5C11.4522 23.5 8.5864 21.7001 6.8423 19.847C5.95714 18.9065 5.35135 17.9404 4.97133 17.1668C4.78133 16.78 4.6532 16.4523 4.57583 16.2128ZM16 5.5C10.5478 5.5 6.9136 7.70006 4.6577 10.097C3.54286 11.2815 2.77365 12.5029 2.27867 13.5105C2.03117 14.0144 1.8468 14.4758 1.72104 14.8651C1.61208 15.2025 1.5 15.6258 1.5 16C1.5 16.3742 1.61208 16.7975 1.72104 17.1349C1.8468 17.5242 2.03117 17.9856 2.27867 18.4895C2.77365 19.4971 3.54286 20.7185 4.6577 21.903C6.9136 24.2999 10.5478 26.5 16 26.5C21.4522 26.5 25.0864 24.2999 27.3423 21.903C28.4571 20.7185 29.2264 19.4971 29.7213 18.4895C29.9688 17.9856 30.1532 17.5242 30.279 17.1349C30.3879 16.7975 30.5 16.3742 30.5 16C30.5 15.6258 30.3879 15.2025 30.279 14.8651C30.1532 14.4758 29.9688 14.0144 29.7213 13.5105C29.2264 12.5029 28.4571 11.2815 27.3423 10.097C25.0864 7.70006 21.4522 5.5 16 5.5ZM16 8.5C12.9624 8.5 10.5 10.9624 10.5 14C10.5 17.0376 12.9624 19.5 16 19.5C19.0376 19.5 21.5 17.0376 21.5 14C21.5 10.9624 19.0376 8.5 16 8.5Z" fill="#808080"/>
</svg>
