<svg width="32" height="32" viewBox="0 0 32 32" fill="none" xmlns="http://www.w3.org/2000/svg">
<path d="M23 23L23 24.5L23 24.5L23 23ZM17.0822 28.0042L15.6027 27.7571L15.6027 27.7571L17.0822 28.0042ZM28.9177 28.0042L30.3972 27.7571L30.3972 27.7571L28.9177 28.0042ZM28 29L28 30.5L28 29ZM18 29L18 27.5L18 29ZM23 22.9999L23 21.4999L23 21.4999L23 22.9999ZM26 19.9999L27.5 19.9999L26 19.9999ZM23 21.5C19.2804 21.5 16.1958 24.2062 15.6027 27.7571L18.5617 28.2513C18.9173 26.1226 20.7706 24.5 23 24.5L23 21.5ZM30.3972 27.7571C29.8041 24.2062 26.7195 21.5 23 21.5L23 24.5C25.2293 24.5 27.0826 26.1226 27.4382 28.2513L30.3972 27.7571ZM28 30.5C29.2988 30.5 30.6693 29.3859 30.3972 27.7571L27.4382 28.2513C27.3999 28.0222 27.4866 27.8059 27.6124 27.6734C27.7272 27.5526 27.8697 27.5 28 27.5L28 30.5ZM18 30.5L28 30.5L28 27.5L18 27.5L18 30.5ZM15.6027 27.7571C15.3306 29.3859 16.7011 30.5 18 30.5L18 27.5C18.1302 27.5 18.2728 27.5526 18.3875 27.6734C18.5134 27.8059 18.6 28.0222 18.5617 28.2513L15.6027 27.7571ZM23 24.4999C25.4852 24.4999 27.5 22.4852 27.5 19.9999L24.5 19.9999C24.5 20.8284 23.8284 21.4999 23 21.4999L23 24.4999ZM18.5 19.9999C18.5 22.4852 20.5147 24.4999 23 24.4999L23 21.4999C22.1715 21.4999 21.5 20.8284 21.5 19.9999L18.5 19.9999ZM23 15.4999C20.5147 15.4999 18.5 17.5147 18.5 19.9999L21.5 19.9999C21.5 19.1715 22.1715 18.4999 23 18.4999L23 15.4999ZM27.5 19.9999C27.5 17.5147 25.4852 15.4999 23 15.4999L23 18.4999C23.8284 18.4999 24.5 19.1715 24.5 19.9999L27.5 19.9999Z" fill="#808080"/>
<path fill-rule="evenodd" clip-rule="evenodd" d="M12.9999 20.5C8.8856 20.5 5.45102 23.4247 4.66779 27.3092C4.66474 27.3244 4.6649 27.3326 4.66503 27.3353L4.66525 27.3379C4.66544 27.3393 4.66572 27.3404 4.66608 27.3416C4.66699 27.3446 4.67256 27.3607 4.69539 27.3849C4.74586 27.4386 4.85283 27.5 4.99992 27.5L17.189 27.5C17.1464 27.6654 17.1107 27.8336 17.0822 28.0042C16.9912 28.5489 17.4477 29 18 29L23.8451 29C23.2224 29.9338 22.1 30.5 20.9999 30.5L4.99993 30.5C3.17063 30.5 1.27975 28.9344 1.72697 26.7163C2.46885 23.0368 4.96566 19.9932 8.30733 18.4977C7.18784 17.3301 6.49992 15.7454 6.49992 14C6.49992 10.4101 9.41007 7.5 12.9999 7.5C16.5898 7.5 19.4999 10.4101 19.4999 14C19.4999 15.7454 18.812 17.3301 17.6925 18.4977C18.5187 18.8675 19.2933 19.3318 20.0024 19.8771C20.0008 19.9178 20 19.9588 20 19.9999C20 21.5924 21.2408 22.8951 22.8084 22.9939C22.8102 22.9969 22.812 22.9999 22.8139 23.0028C21.7132 23.0364 20.687 23.3664 19.8126 23.9157C18.2623 21.8422 15.7871 20.5 12.9999 20.5ZM13.0022 17.5L12.9999 17.5C11.0669 17.5 9.49992 15.933 9.49992 14C9.49992 12.067 11.0669 10.5 12.9999 10.5C14.9329 10.5 16.4999 12.067 16.4999 14C16.4999 15.9322 14.9342 17.4988 13.0022 17.5Z" fill="#808080"/>
<path d="M21 7H29" stroke="#808080" stroke-width="3" stroke-linecap="round" stroke-linejoin="round"/>
<path d="M25 3V11" stroke="#808080" stroke-width="3" stroke-linecap="round" stroke-linejoin="round"/>
</svg>
