<svg width="32" height="32" viewBox="0 0 32 32" fill="none" xmlns="http://www.w3.org/2000/svg">
<path fill-rule="evenodd" clip-rule="evenodd" d="M4.9999 27.5C3.17061 27.5 1.27973 25.9344 1.72695 23.7163C2.46883 20.0368 4.96564 16.9932 8.30729 15.4977C7.1878 14.3301 6.49988 12.7454 6.49988 11C6.49988 7.41015 9.41003 4.5 12.9999 4.5C16.5897 4.5 19.4999 7.41015 19.4999 11C19.4999 12.7454 18.812 14.3301 17.6925 15.4977C18.0094 15.6396 18.3187 15.7953 18.6197 15.9642C19.0875 13.9782 20.871 12.4999 22.9999 12.4999C25.4852 12.4999 27.4999 14.5147 27.4999 16.9999C27.4999 17.9247 27.221 18.7842 26.7427 19.4991C28.646 20.5974 30.0214 22.5077 30.3971 24.7571C30.6692 26.3859 29.2987 27.5 27.9999 27.5H4.9999ZM4.66777 24.3092C5.451 20.4247 8.88558 17.5 12.9999 17.5C17.1142 17.5 20.5488 20.4247 21.332 24.3092C21.3351 24.3244 21.3349 24.3326 21.3348 24.3353C21.3347 24.3381 21.3343 24.3398 21.3338 24.3416C21.3328 24.3446 21.3273 24.3607 21.3044 24.3849C21.254 24.4385 21.1473 24.4998 21.0005 24.5H4.99991C4.85281 24.5 4.74584 24.4386 4.69537 24.3849C4.67254 24.3607 4.66698 24.3446 4.66606 24.3416C4.66551 24.3398 4.66515 24.3381 4.66501 24.3353C4.66488 24.3326 4.66472 24.3244 4.66777 24.3092ZM24.3364 24.5H27.2443C26.6912 22.9347 25.2951 21.7667 23.6026 21.54C23.8946 22.2335 24.1207 22.9615 24.2729 23.7163C24.3276 23.9879 24.3473 24.2497 24.3364 24.5ZM12.9999 7.5C11.0669 7.5 9.49988 9.067 9.49988 11C9.49988 12.933 11.0669 14.5 12.9999 14.5C14.9329 14.5 16.4999 12.933 16.4999 11C16.4999 9.067 14.9329 7.5 12.9999 7.5ZM21.4999 16.9999C21.4999 16.1715 22.1715 15.4999 22.9999 15.4999C23.8283 15.4999 24.4999 16.1715 24.4999 16.9999C24.4999 17.8284 23.8283 18.4999 22.9999 18.4999C22.1715 18.4999 21.4999 17.8284 21.4999 16.9999Z" fill="#808080"/>
</svg>
