<svg width="32" height="32" viewBox="0 0 32 32" fill="none" xmlns="http://www.w3.org/2000/svg">
<path fill-rule="evenodd" clip-rule="evenodd" d="M19 17C14.3989 17 10.439 20.114 9.03701 24.5168C8.88094 25.0069 8.99983 25.4435 9.3341 25.8113C9.69282 26.206 10.2988 26.5 11 26.5H16C16.8284 26.5 17.5 27.1716 17.5 28C17.5 28.8284 16.8284 29.5 16 29.5H11C9.49199 29.5 8.06672 28.8773 7.11401 27.829C7.01822 27.7236 6.92727 27.6138 6.84163 27.5H5.49997C3.66855 27.5 1.78409 25.9347 2.22089 23.7214C2.91373 20.2107 5.26341 17.1965 8.46433 16.2831C7.85699 15.4266 7.5 14.38 7.5 13.25C7.5 10.7361 9.26691 8.63486 11.6266 8.12047C12.2742 4.63727 15.3291 2 19 2C23.1421 2 26.5 5.35786 26.5 9.5C26.5 13.6421 23.1421 17 19 17ZM19 5C16.5147 5 14.5 7.01472 14.5 9.5C14.5 11.9853 16.5147 14 19 14C21.4853 14 23.5 11.9853 23.5 9.5C23.5 7.01472 21.4853 5 19 5ZM10.5 13.25C10.5 12.3839 10.9894 11.6321 11.7067 11.256C12.0598 12.7277 12.8468 14.0307 13.9248 15.0221C13.5843 15.1654 13.2508 15.3227 12.925 15.4933C12.8675 15.4977 12.8091 15.5 12.75 15.5C11.5074 15.5 10.5 14.4926 10.5 13.25ZM5.99048 24.5C6.02082 24.2067 6.08243 23.908 6.17845 23.6065C6.62939 22.1904 7.29414 20.8711 8.13422 19.6914C6.7259 20.5505 5.58539 22.1677 5.16412 24.3023C5.15915 24.3274 5.16217 24.336 5.16271 24.3375C5.16403 24.3418 5.17035 24.359 5.1938 24.3839C5.24544 24.4387 5.35311 24.5 5.49997 24.5H5.99048Z" fill="#717171"/>
<path fill-rule="evenodd" clip-rule="evenodd" d="M24.4552 18.3637C24.6561 17.56 24.1675 16.7456 23.3638 16.5447C22.5601 16.3437 21.7457 16.8324 21.5448 17.6361L20.9955 19.8332H19C18.1716 19.8332 17.5 20.5048 17.5 21.3332C17.5 22.1616 18.1716 22.8332 19 22.8332H20.2455L19.9955 23.8332H19C18.1716 23.8332 17.5 24.5048 17.5 25.3332C17.5 26.1616 18.1716 26.8332 19 26.8332H19.2455L18.8781 28.3027C18.6772 29.1064 19.1658 29.9208 19.9695 30.1217C20.7732 30.3227 21.5876 29.834 21.7885 29.0303L22.3378 26.8332H23.2455L22.8781 28.3027C22.6772 29.1064 23.1658 29.9208 23.9695 30.1217C24.7732 30.3227 25.5876 29.834 25.7885 29.0303L26.3378 26.8332H28.3333C29.1618 26.8332 29.8333 26.1616 29.8333 25.3332C29.8333 24.5048 29.1618 23.8332 28.3333 23.8332H27.0878L27.3378 22.8332H28.3333C29.1618 22.8332 29.8333 22.1616 29.8333 21.3332C29.8333 20.5048 29.1618 19.8332 28.3333 19.8332H28.0878L28.4552 18.3637C28.6561 17.56 28.1675 16.7456 27.3638 16.5447C26.5601 16.3437 25.7457 16.8324 25.5448 17.6361L24.9955 19.8332H24.0878L24.4552 18.3637ZM23.0878 23.8332L23.3378 22.8332H24.2455L23.9955 23.8332H23.0878Z" fill="#717171"/>
</svg>
