<svg width="33" height="32" viewBox="0 0 33 32" fill="none" xmlns="http://www.w3.org/2000/svg">
<path d="M5.77423 23.5917C5.24223 23.5917 4.82923 23.4447 4.53523 23.1507C4.25523 22.8567 4.11523 22.4297 4.11523 21.8697V10.2987C4.11523 9.75269 4.26223 9.33269 4.55623 9.03869C4.85023 8.74469 5.27023 8.59769 5.81623 8.59769H12.9982C13.4182 8.59769 13.7332 8.70969 13.9432 8.93369C14.1672 9.14369 14.2792 9.45169 14.2792 9.85769C14.2792 10.2777 14.1672 10.5997 13.9432 10.8237C13.7332 11.0337 13.4182 11.1387 12.9982 11.1387H7.37023V14.7507H12.5362C12.9562 14.7507 13.2782 14.8627 13.5022 15.0867C13.7262 15.2967 13.8382 15.6047 13.8382 16.0107C13.8382 16.4167 13.7262 16.7317 13.5022 16.9557C13.2782 17.1797 12.9562 17.2917 12.5362 17.2917H7.37023V21.8697C7.37023 23.0177 6.83823 23.5917 5.77423 23.5917Z" fill="#808080"/>
<path d="M15.4044 23.5917C15.0124 23.5917 14.6904 23.5007 14.4384 23.3187C14.2004 23.1367 14.0464 22.8917 13.9764 22.5837C13.9204 22.2757 13.9834 21.9327 14.1654 21.5547L19.5414 9.77369C19.7654 9.29769 20.0314 8.95469 20.3394 8.74469C20.6474 8.52069 21.0044 8.40869 21.4104 8.40869C21.8164 8.40869 22.1734 8.52069 22.4814 8.74469C22.7894 8.95469 23.0484 9.29769 23.2584 9.77369L28.6764 21.5547C28.8584 21.9327 28.9214 22.2827 28.8654 22.6047C28.8234 22.9127 28.6834 23.1577 28.4454 23.3397C28.2074 23.5077 27.8994 23.5917 27.5214 23.5917C27.0454 23.5917 26.6744 23.4797 26.4084 23.2557C26.1564 23.0317 25.9324 22.6817 25.7364 22.2057L24.4764 19.2867L25.7784 20.1897H17.0214L18.3234 19.2867L17.0844 22.2057C16.8744 22.6957 16.6504 23.0527 16.4124 23.2767C16.1884 23.4867 15.8524 23.5917 15.4044 23.5917ZM21.3684 12.0627L18.6804 18.4677L18.1134 17.6487H24.6864L24.1194 18.4677L21.4104 12.0627H21.3684Z" fill="#808080"/>
</svg>
