<svg width="32" height="32" viewBox="0 0 32 32" fill="none" xmlns="http://www.w3.org/2000/svg">
<path d="M3.5 8C3.5 7.17157 4.17157 6.5 5 6.5H26.3333C27.1618 6.5 27.8333 7.17157 27.8333 8C27.8333 8.82843 27.1618 9.5 26.3333 9.5H5C4.17157 9.5 3.5 8.82843 3.5 8Z" fill="#808080"/>
<path d="M6.16699 16C6.16699 15.1716 6.83857 14.5 7.66699 14.5H23.667C24.4954 14.5 25.167 15.1716 25.167 16C25.167 16.8284 24.4954 17.5 23.667 17.5H7.66699C6.83857 17.5 6.16699 16.8284 6.16699 16Z" fill="#808080"/>
<path d="M11.667 22.5C10.8386 22.5 10.167 23.1716 10.167 24C10.167 24.8284 10.8386 25.5 11.667 25.5H19.667C20.4954 25.5 21.167 24.8284 21.167 24C21.167 23.1716 20.4954 22.5 19.667 22.5H11.667Z" fill="#808080"/>
</svg>
