<svg width="32" height="32" viewBox="0 0 32 32" fill="none" xmlns="http://www.w3.org/2000/svg">
<path fill-rule="evenodd" clip-rule="evenodd" d="M3.15168 4.84273C3.40302 4.32712 3.92641 4 4.50001 4H26.5C27.0634 4 27.5793 4.31573 27.8357 4.81744C28.0921 5.31915 28.0457 5.92222 27.7156 6.37882L21 15.668V25.5C21 26.0226 20.728 26.5075 20.2821 26.78C19.8362 27.0525 19.2805 27.0732 18.8155 26.8347L11.387 23.0252C10.8863 22.7685 10.5714 22.2531 10.5714 21.6905V15.6994L3.31839 6.42399C2.96505 5.97213 2.90034 5.35833 3.15168 4.84273ZM7.57712 7L13.2531 14.2585C13.4594 14.5224 13.5714 14.8476 13.5714 15.1825V20.774L18 23.045V15.1825C18 14.867 18.0995 14.5595 18.2844 14.3037L23.5646 7H7.57712Z" fill="#808080"/>
</svg>
