<svg width="32" height="32" viewBox="0 0 32 32" fill="none" xmlns="http://www.w3.org/2000/svg">
<path d="M1.5 7C1.5 6.17157 2.17157 5.5 3 5.5H29C29.8284 5.5 30.5 6.17157 30.5 7C30.5 7.82843 29.8284 8.5 29 8.5L3 8.5C2.17157 8.5 1.5 7.82843 1.5 7Z" fill="#808080"/>
<path d="M3 11.5C2.17157 11.5 1.5 12.1716 1.5 13C1.5 13.8284 2.17157 14.5 3 14.5L29 14.5C29.8284 14.5 30.5 13.8284 30.5 13C30.5 12.1716 29.8284 11.5 29 11.5L3 11.5Z" fill="#808080"/>
<path d="M3 17.5C2.17157 17.5 1.5 18.1716 1.5 19C1.5 19.8284 2.17157 20.5 3 20.5L29 20.5C29.8284 20.5 30.5 19.8284 30.5 19C30.5 18.1716 29.8284 17.5 29 17.5L3 17.5Z" fill="#808080"/>
<path d="M3 23.5C2.17157 23.5 1.5 24.1716 1.5 25C1.5 25.8284 2.17157 26.5 3 26.5H15C15.8284 26.5 16.5 25.8284 16.5 25C16.5 24.1716 15.8284 23.5 15 23.5H3Z" fill="#808080"/>
</svg>
