<svg width="32" height="32" viewBox="0 0 32 32" fill="none" xmlns="http://www.w3.org/2000/svg">
<path fill-rule="evenodd" clip-rule="evenodd" d="M1.49976 16C1.49976 7.99187 7.99163 1.5 15.9998 1.5C24.0079 1.5 30.4998 7.99187 30.4998 16C30.4998 24.0081 24.0079 30.5 15.9998 30.5C7.99163 30.5 1.49976 24.0081 1.49976 16ZM4.5967 14.5C5.10001 10.6361 7.52126 7.37487 10.8739 5.70274C10.6307 6.04935 10.4048 6.412 10.1972 6.78425C9.04058 8.85875 8.25283 11.5471 8.05105 14.5H4.5967ZM10.8739 26.2973C7.52126 24.6251 5.10001 21.3639 4.5967 17.5H8.05105C8.25283 20.4529 9.04058 23.1413 10.1972 25.2158C10.4048 25.588 10.6307 25.9506 10.8739 26.2973ZM27.4028 17.5C26.8995 21.3636 24.4786 24.6246 21.1264 26.2969C21.3695 25.9504 21.5953 25.5879 21.8028 25.2158C22.9594 23.1413 23.7472 20.4529 23.9489 17.5H27.4028ZM21.1264 5.70311C24.4786 7.37536 26.8995 10.6364 27.4028 14.5H23.9489C23.7472 11.5471 22.9594 8.85875 21.8028 6.78425C21.5953 6.41214 21.3695 6.04962 21.1264 5.70311ZM11.0591 14.5C11.2552 12.0269 11.9227 9.84998 12.8175 8.24519C13.3721 7.25038 13.9537 6.56839 14.4999 6.13298L14.4998 14.5H11.0591ZM17.4998 14.5L17.4999 6.13286C18.0462 6.56826 18.6278 7.25029 19.1825 8.24519C20.0773 9.84998 20.7448 12.0269 20.9409 14.5H17.4998ZM17.4997 17.5H20.9409C20.7448 19.9731 20.0773 22.15 19.1825 23.7548C18.6277 24.7499 18.046 25.4321 17.4995 25.8675L17.4997 17.5ZM14.4997 17.5L14.4995 25.8667C13.9534 25.4313 13.372 24.7494 12.8175 23.7548C11.9227 22.15 11.2552 19.9731 11.0591 17.5H14.4997Z" fill="#808080"/>
</svg>
