<svg width="32" height="32" viewBox="0 0 32 32" fill="none" xmlns="http://www.w3.org/2000/svg">
<path fill-rule="evenodd" clip-rule="evenodd" d="M27.259 6.86229C29.2855 9.3561 30.5 12.5362 30.5 16C30.5 24.0081 24.0081 30.5 16 30.5C7.99187 30.5 1.5 24.0081 1.5 16C1.5 7.99187 7.99187 1.5 16 1.5C19.4638 1.5 22.6439 2.71453 25.1377 4.74097L26.9393 2.93934C27.5251 2.35355 28.4749 2.35355 29.0607 2.93934C29.6464 3.52513 29.6464 4.47487 29.0607 5.06066L27.259 6.86229ZM4.5 16C4.5 9.64873 9.64873 4.5 16 4.5C18.6349 4.5 21.0628 5.38614 23.002 6.87667L20.856 9.02272C19.4794 8.06288 17.8054 7.5 16 7.5C11.3056 7.5 7.5 11.3056 7.5 16C7.5 20.6944 11.3056 24.5 16 24.5C20.6944 24.5 24.5 20.6944 24.5 16C24.5 14.1946 23.9371 12.5206 22.9773 11.144L25.1233 8.99799C26.6139 10.9372 27.5 13.3651 27.5 16C27.5 22.3513 22.3513 27.5 16 27.5C9.64873 27.5 4.5 22.3513 4.5 16ZM18.6817 11.197C17.8884 10.753 16.9737 10.5 16 10.5C12.9624 10.5 10.5 12.9624 10.5 16C10.5 19.0376 12.9624 21.5 16 21.5C19.0376 21.5 21.5 19.0376 21.5 16C21.5 15.0263 21.247 14.1116 20.803 13.3183L18.4752 15.6462C18.4915 15.7618 18.5 15.8799 18.5 16C18.5 17.3807 17.3807 18.5 16 18.5C14.6193 18.5 13.5 17.3807 13.5 16C13.5 14.6193 14.6193 13.5 16 13.5C16.1201 13.5 16.2382 13.5085 16.3538 13.5248L18.6817 11.197Z" fill="#808080"/>
</svg>
