<svg width="32" height="32" viewBox="0 0 32 32" fill="none" xmlns="http://www.w3.org/2000/svg">
<path fill-rule="evenodd" clip-rule="evenodd" d="M5 2.5C3.61929 2.5 2.5 3.61929 2.5 5V12C2.5 13.3807 3.61929 14.5 5 14.5H12C13.3807 14.5 14.5 13.3807 14.5 12V5C14.5 3.61929 13.3807 2.5 12 2.5H5ZM5.5 11.5V5.5H11.5V11.5H5.5Z" fill="#717171"/>
<path fill-rule="evenodd" clip-rule="evenodd" d="M5 17.5C3.61929 17.5 2.5 18.6193 2.5 20V27C2.5 28.3807 3.61929 29.5 5 29.5H12C13.3807 29.5 14.5 28.3807 14.5 27V20C14.5 18.6193 13.3807 17.5 12 17.5H5ZM5.5 26.5V20.5H11.5V26.5H5.5Z" fill="#717171"/>
<path fill-rule="evenodd" clip-rule="evenodd" d="M17.5 5C17.5 3.61929 18.6193 2.5 20 2.5H27C28.3807 2.5 29.5 3.61929 29.5 5V12C29.5 13.3807 28.3807 14.5 27 14.5H20C18.6193 14.5 17.5 13.3807 17.5 12V5ZM20.5 5.5V11.5H26.5V5.5H20.5Z" fill="#717171"/>
<path fill-rule="evenodd" clip-rule="evenodd" d="M20 17.5C18.6193 17.5 17.5 18.6193 17.5 20V27C17.5 28.3807 18.6193 29.5 20 29.5H27C28.3807 29.5 29.5 28.3807 29.5 27V20C29.5 18.6193 28.3807 17.5 27 17.5H20ZM20.5 26.5V20.5H26.5V26.5H20.5Z" fill="#717171"/>
</svg>
