<svg width="32" height="32" viewBox="0 0 32 32" fill="none" xmlns="http://www.w3.org/2000/svg">
<path d="M1.5 6C1.5 5.17157 2.17157 4.5 3 4.5H29C29.8284 4.5 30.5 5.17157 30.5 6C30.5 6.82843 29.8284 7.5 29 7.5H3C2.17157 7.5 1.5 6.82843 1.5 6Z" fill="#808080"/>
<path d="M1.5 16C1.5 15.1716 2.17157 14.5 3 14.5H29C29.8284 14.5 30.5 15.1716 30.5 16C30.5 16.8284 29.8284 17.5 29 17.5H3C2.17157 17.5 1.5 16.8284 1.5 16Z" fill="#808080"/>
<path d="M3 24.5C2.17157 24.5 1.5 25.1716 1.5 26C1.5 26.8284 2.17157 27.5 3 27.5H29C29.8284 27.5 30.5 26.8284 30.5 26C30.5 25.1716 29.8284 24.5 29 24.5H3Z" fill="#808080"/>
</svg>
