<svg width="32" height="32" viewBox="0 0 32 32" fill="none" xmlns="http://www.w3.org/2000/svg">
<path fill-rule="evenodd" clip-rule="evenodd" d="M16.4625 5.33276C16.6461 4.52493 16.1401 3.72123 15.3323 3.53763C14.5244 3.35403 13.7207 3.86007 13.5371 4.6679L12.2116 10.5005H6C5.17157 10.5005 4.5 11.1721 4.5 12.0005C4.5 12.8289 5.17157 13.5005 6 13.5005H11.5297L10.3934 18.5005H6C5.17157 18.5005 4.5 19.1721 4.5 20.0005C4.5 20.8289 5.17157 21.5005 6 21.5005H9.71155L8.53714 26.6679C8.35354 27.4757 8.85958 28.2794 9.66741 28.463C10.4752 28.6466 11.2789 28.1406 11.4625 27.3328L12.7881 21.5005H16.7116L15.5371 26.6679C15.3535 27.4757 15.8596 28.2794 16.6674 28.463C17.4752 28.6466 18.2789 28.1406 18.4625 27.3328L19.7881 21.5005H26C26.8284 21.5005 27.5 20.8289 27.5 20.0005C27.5 19.1721 26.8284 18.5005 26 18.5005H20.4699L21.6062 13.5005H26C26.8284 13.5005 27.5 12.8289 27.5 12.0005C27.5 11.1721 26.8284 10.5005 26 10.5005H22.2881L23.4625 5.33276C23.6461 4.52493 23.1401 3.72123 22.3323 3.53763C21.5244 3.35403 20.7207 3.86007 20.5371 4.6679L19.2116 10.5005H15.2881L16.4625 5.33276ZM18.5297 13.5005H14.6062L13.4699 18.5005H17.3934L18.5297 13.5005Z" fill="#717171"/>
</svg>
