<svg width="32" height="32" viewBox="0 0 32 32" fill="none" xmlns="http://www.w3.org/2000/svg">
<path fill-rule="evenodd" clip-rule="evenodd" d="M10.2035 6.5C7.05685 6.5 4.5 9.05779 4.5 12.2204C4.5 13.6455 5.01766 14.9452 5.87596 15.9467L5.89387 15.9676L6.22438 16.3832C9.01016 19.8861 12.3129 22.9422 16.0184 25.4461C16.1293 25.521 16.2749 25.5176 16.3823 25.4372L17.059 24.9309C20.0903 22.6626 22.8274 20.0239 25.2068 17.0759L26.0472 16.0348L26.069 16.01C26.9602 15.0002 27.5 13.6756 27.5 12.2204C27.5 9.05779 24.9432 6.5 21.7965 6.5C19.9173 6.5 18.2492 7.41017 17.2072 8.82312L16 10.4602L14.7928 8.82312C13.7508 7.41017 12.0827 6.5 10.2035 6.5ZM1.5 12.2204C1.5 7.40757 5.39336 3.5 10.2035 3.5C12.4309 3.5 14.4622 4.33922 16 5.71551C17.5378 4.33922 19.5691 3.5 21.7965 3.5C26.6066 3.5 30.5 7.40757 30.5 12.2204C30.5 14.4211 29.6844 16.435 28.3411 17.9692L27.5413 18.9601C25.0052 22.1023 22.0877 24.915 18.8563 27.3329L18.1797 27.8392C17.0494 28.6849 15.5085 28.7222 14.3387 27.9318C10.3801 25.2569 6.85205 21.9922 3.87638 18.2506L3.57931 17.877C2.28337 16.3547 1.5 14.3771 1.5 12.2204Z" fill="#808080"/>
</svg>
