<svg width="32" height="32" viewBox="0 0 32 32" fill="none" xmlns="http://www.w3.org/2000/svg">
<path d="M14 23C14 24.1046 14.8954 25 16 25C17.1046 25 18 24.1046 18 23C18 21.8954 17.1046 21 16 21C14.8954 21 14 21.8954 14 23Z" fill="#808080"/>
<path d="M14.5 12C14.5 11.1716 15.1716 10.5 16 10.5C16.8284 10.5 17.5 11.1716 17.5 12C17.5 12.4775 17.2786 12.9024 16.9268 13.1796C16.4896 13.524 15.9082 13.9969 15.4383 14.5748C14.9619 15.1608 14.5 15.9763 14.5 17V18C14.5 18.8284 15.1716 19.5 16 19.5C16.8284 19.5 17.5 18.8284 17.5 18V17C17.5 16.9191 17.5319 16.7554 17.766 16.4673C18.0068 16.1712 18.3529 15.8752 18.7834 15.5361C19.8261 14.7145 20.5 13.4355 20.5 12C20.5 9.51472 18.4853 7.5 16 7.5C13.5147 7.5 11.5 9.51472 11.5 12C11.5 12.8284 12.1716 13.5 13 13.5C13.8284 13.5 14.5 12.8284 14.5 12Z" fill="#808080"/>
<path fill-rule="evenodd" clip-rule="evenodd" d="M1.5 16C1.5 7.99187 7.99187 1.5 16 1.5C24.0081 1.5 30.5 7.99187 30.5 16C30.5 24.0081 24.0081 30.5 16 30.5C7.99187 30.5 1.5 24.0081 1.5 16ZM16 4.5C9.64873 4.5 4.5 9.64873 4.5 16C4.5 22.3513 9.64873 27.5 16 27.5C22.3513 27.5 27.5 22.3513 27.5 16C27.5 9.64873 22.3513 4.5 16 4.5Z" fill="#808080"/>
</svg>
