<svg width="32" height="32" viewBox="0 0 32 32" fill="none" xmlns="http://www.w3.org/2000/svg">
<path fill-rule="evenodd" clip-rule="evenodd" d="M17.7563 5.84147C16.7827 4.88032 15.2173 4.88032 14.2437 5.84147L5.24367 14.7261C4.76784 15.1958 4.5 15.8366 4.5 16.5052V24.9999C4.5 26.3806 5.61929 27.4999 7 27.4999H10.1667V24.3332C10.1667 21.2957 12.6291 18.8332 15.6667 18.8332H16.3333C19.3709 18.8332 21.8333 21.2957 21.8333 24.3332V27.4999H25C26.3807 27.4999 27.5 26.3806 27.5 24.9999V16.5052C27.5 15.8366 27.2322 15.1958 26.7563 14.7261L17.7563 5.84147ZM12.1361 3.70651C14.2781 1.59197 17.7219 1.59197 19.8639 3.70651L28.8639 12.5911C29.9108 13.6245 30.5 15.0342 30.5 16.5052V24.9999C30.5 28.0375 28.0376 30.4999 25 30.4999H20.3333C19.5049 30.4999 18.8333 29.8283 18.8333 28.9999V24.3332C18.8333 22.9525 17.714 21.8332 16.3333 21.8332H15.6667C14.286 21.8332 13.1667 22.9525 13.1667 24.3332V28.9999C13.1667 29.8283 12.4951 30.4999 11.6667 30.4999H7C3.96243 30.4999 1.5 28.0375 1.5 24.9999V16.5052C1.5 15.0342 2.08925 13.6245 3.13608 12.5911L12.1361 3.70651Z" fill="#808080"/>
</svg>
