<svg width="32" height="32" viewBox="0 0 32 32" fill="none" xmlns="http://www.w3.org/2000/svg">
<path fill-rule="evenodd" clip-rule="evenodd" d="M17.7563 5.84159C16.7827 4.88044 15.2173 4.88044 14.2437 5.84159L5.24367 14.7262C4.76784 15.1959 4.5 15.8367 4.5 16.5053V25C4.5 26.3807 5.61929 27.5 7 27.5H10.1667V24.3334C10.1667 21.2958 12.6291 18.8334 15.6667 18.8334H16.3333C19.3709 18.8334 21.8333 21.2958 21.8333 24.3334V27.5H25C26.3807 27.5 27.5 26.3807 27.5 25V16.5053C27.5 15.8367 27.2322 15.1959 26.7563 14.7262L17.7563 5.84159ZM12.1361 3.70663C14.2781 1.59209 17.7219 1.5921 19.8639 3.70663L28.8639 12.5912C29.9108 13.6247 30.5 15.0344 30.5 16.5053V25C30.5 28.0376 28.0376 30.5 25 30.5H20.3333C19.5049 30.5 18.8333 29.8284 18.8333 29V24.3334C18.8333 22.9526 17.714 21.8334 16.3333 21.8334H15.6667C14.286 21.8334 13.1667 22.9526 13.1667 24.3334V29C13.1667 29.8284 12.4951 30.5 11.6667 30.5H7C3.96243 30.5 1.5 28.0376 1.5 25V16.5053C1.5 15.0344 2.08925 13.6247 3.13608 12.5912L12.1361 3.70663Z" fill="#808080"/>
</svg>
