<svg width="32" height="32" viewBox="0 0 32 32" fill="none" xmlns="http://www.w3.org/2000/svg">
<path d="M11.0761 9.61732C11.2309 9.24364 11.5955 9 12 9H20C20.4045 9 20.7691 9.24364 20.9239 9.61732C21.0787 9.99099 20.9931 10.4211 20.7071 10.7071L16.7071 14.7071C16.3166 15.0976 15.6834 15.0976 15.2929 14.7071L11.2929 10.7071C11.0069 10.4211 10.9213 9.99099 11.0761 9.61732Z" fill="#808080"/>
<path d="M16 20.7567C16.8284 20.7567 17.5 20.0851 17.5 19.2567C17.5 18.4283 16.8284 17.7567 16 17.7567C15.1716 17.7567 14.5 18.4283 14.5 19.2567C14.5 20.0851 15.1716 20.7567 16 20.7567Z" fill="#808080"/>
<path d="M16 24.7567C16.8284 24.7567 17.5 24.0851 17.5 23.2567C17.5 22.4283 16.8284 21.7567 16 21.7567C15.1716 21.7567 14.5 22.4283 14.5 23.2567C14.5 24.0851 15.1716 24.7567 16 24.7567Z" fill="#808080"/>
<path fill-rule="evenodd" clip-rule="evenodd" d="M4.5 3C4.5 2.17157 5.17157 1.5 6 1.5H26C26.8284 1.5 27.5 2.17157 27.5 3C27.5 3.82843 26.8284 4.5 26 4.5H25.5V7.68629C25.5 10.2058 24.4991 12.6222 22.7175 14.4038L21.1213 16L22.7175 17.5962C24.4991 19.3778 25.5 21.7942 25.5 24.3137V27.5H26C26.8284 27.5 27.5 28.1716 27.5 29C27.5 29.8284 26.8284 30.5 26 30.5H6C5.17157 30.5 4.5 29.8284 4.5 29C4.5 28.1716 5.17157 27.5 6 27.5H6.5V24.3137C6.5 21.7942 7.50089 19.3778 9.28249 17.5962L10.8787 16L9.28248 14.4038C7.50089 12.6222 6.5 10.2058 6.5 7.68629V4.5H6C5.17157 4.5 4.5 3.82843 4.5 3ZM9.5 24.3137V27.5H11.063C11.1087 27.3226 11.178 27.1548 11.2676 27C11.6134 26.4022 12.2597 26 13 26H19C19.7403 26 20.3866 26.4022 20.7324 27C20.822 27.1548 20.8913 27.3226 20.937 27.5H22.5V24.3137C22.5 22.5898 21.8152 20.9365 20.5962 19.7175L18.2929 17.4142C17.5118 16.6332 17.5118 15.3668 18.2929 14.5858L20.5962 12.2825C21.8152 11.0635 22.5 9.4102 22.5 7.68629V4.5H9.5V7.68629C9.5 9.4102 10.1848 11.0635 11.4038 12.2825L13.7071 14.5858C14.4882 15.3668 14.4882 16.6332 13.7071 17.4142L11.4038 19.7175C10.1848 20.9365 9.5 22.5898 9.5 24.3137Z" fill="#808080"/>
</svg>
