<svg width="32" height="32" viewBox="0 0 32 32" fill="none" xmlns="http://www.w3.org/2000/svg">
<path d="M19.5 22C19.5 22.8284 18.8284 23.5 18 23.5H16C15.1716 23.5 14.5 22.8284 14.5 22V16.5H14C13.1716 16.5 12.5 15.8284 12.5 15C12.5 14.1716 13.1716 13.5 14 13.5H16C16.8284 13.5 17.5 14.1716 17.5 15V20.5H18C18.8284 20.5 19.5 21.1716 19.5 22Z" fill="#808080"/>
<path d="M15.2543 8.10895C16.3588 8.10895 17.2543 9.00438 17.2543 10.1089C17.2543 11.2135 16.3588 12.1089 15.2543 12.1089C14.1497 12.1089 13.2543 11.2135 13.2543 10.1089C13.2543 9.00438 14.1497 8.10895 15.2543 8.10895Z" fill="#808080"/>
<path fill-rule="evenodd" clip-rule="evenodd" d="M1.5 16C1.5 7.99187 7.99187 1.5 16 1.5C24.0081 1.5 30.5 7.99187 30.5 16C30.5 24.0081 24.0081 30.5 16 30.5C7.99187 30.5 1.5 24.0081 1.5 16ZM16 4.5C9.64873 4.5 4.5 9.64872 4.5 16C4.5 22.3513 9.64873 27.5 16 27.5C22.3513 27.5 27.5 22.3513 27.5 16C27.5 9.64873 22.3513 4.5 16 4.5Z" fill="#808080"/>
</svg>
