<svg width="32" height="32" viewBox="0 0 32 32" fill="none" xmlns="http://www.w3.org/2000/svg">
<path d="M13.8655 3C13.8655 2.17157 14.5371 1.5 15.3655 1.5H23.3655C24.194 1.5 24.8655 2.17157 24.8655 3C24.8655 3.82843 24.194 4.5 23.3655 4.5H20.6352L14.4724 27.5H16.6356C17.464 27.5 18.1356 28.1716 18.1356 29C18.1356 29.8284 17.464 30.5 16.6356 30.5H8.63556C7.80713 30.5 7.13556 29.8284 7.13556 29C7.13556 28.1716 7.80713 27.5 8.63556 27.5H11.3665L17.5294 4.5H15.3655C14.5371 4.5 13.8655 3.82843 13.8655 3Z" fill="#808080"/>
</svg>
