<svg width="32" height="32" viewBox="0 0 32 32" fill="none" xmlns="http://www.w3.org/2000/svg">
<path fill-rule="evenodd" clip-rule="evenodd" d="M3.5 7C3.5 3.96243 5.96243 1.5 9 1.5H23C26.0376 1.5 28.5 3.96243 28.5 7V25C28.5 28.0376 26.0376 30.5 23 30.5H9C5.96243 30.5 3.5 28.0376 3.5 25V7ZM9 4.5C7.61929 4.5 6.5 5.61929 6.5 7V25C6.5 26.3807 7.61929 27.5 9 27.5H23C24.3807 27.5 25.5 26.3807 25.5 25V7C25.5 5.61929 24.3807 4.5 23 4.5H9Z" fill="#717171"/>
<path fill-rule="evenodd" clip-rule="evenodd" d="M3.5 7C3.5 3.96243 5.96243 1.5 9 1.5H23C26.0376 1.5 28.5 3.96243 28.5 7V17C28.5 21.1421 25.1421 24.5 21 24.5H3.5V7ZM9 4.5C7.61929 4.5 6.5 5.61929 6.5 7V21.5H21C23.4853 21.5 25.5 19.4853 25.5 17V7C25.5 5.61929 24.3807 4.5 23 4.5H9Z" fill="#717171"/>
<path fill-rule="evenodd" clip-rule="evenodd" d="M10.5 11C10.5 10.1716 11.1716 9.5 12 9.5H20C20.8284 9.5 21.5 10.1716 21.5 11C21.5 11.8284 20.8284 12.5 20 12.5H12C11.1716 12.5 10.5 11.8284 10.5 11Z" fill="#717171"/>
</svg>
