<svg width="32" height="32" viewBox="0 0 32 32" fill="none" xmlns="http://www.w3.org/2000/svg">
<path fill-rule="evenodd" clip-rule="evenodd" d="M27.5288 4.87816C28.1413 5.76503 28.5 6.84062 28.5 8V25C28.5 28.0376 26.0376 30.5 23 30.5H9C5.96243 30.5 3.5 28.0376 3.5 25V8C3.5 6.84062 3.85873 5.76503 4.47124 4.87816C5.26938 3.17759 6.99717 2 9 2H23C25.0028 2 26.7306 3.17759 27.5288 4.87816ZM6.5 24V25C6.5 26.3807 7.61929 27.5 9 27.5H23C24.3807 27.5 25.5 26.3807 25.5 25V22.3621C24.2832 23.3843 22.7135 24 21 24H6.5ZM12 9.5C11.1716 9.5 10.5 10.1716 10.5 11C10.5 11.8284 11.1716 12.5 12 12.5H20C20.8284 12.5 21.5 11.8284 21.5 11C21.5 10.1716 20.8284 9.5 20 9.5H12Z" fill="#808080"/>
</svg>
