<svg width="32" height="32" viewBox="0 0 32 32" fill="none" xmlns="http://www.w3.org/2000/svg">
<path fill-rule="evenodd" clip-rule="evenodd" d="M11.5 2.5C12.3284 2.5 13 3.17157 13 4V5.5H19C19.8284 5.5 20.5 6.17157 20.5 7C20.5 7.82843 19.8284 8.5 19 8.5H16.49C16.381 11.2261 15.3831 13.8354 13.6596 15.9336C15.2181 16.9278 17.008 17.4687 18.8396 17.4986L20.6587 13.8604C20.9128 13.3523 21.4322 13.0312 22.0003 13.0312C22.5685 13.0312 23.0879 13.3523 23.342 13.8604L29.342 25.8604C29.7125 26.6014 29.4121 27.5024 28.6712 27.8729C27.9302 28.2434 27.0292 27.943 26.6587 27.2021L25.5733 25.0312H18.4274L17.342 27.2021C16.9715 27.943 16.0705 28.2434 15.3295 27.8729C14.5885 27.5024 14.2882 26.6014 14.6587 25.8604L17.3896 20.3985C15.2529 20.1284 13.2068 19.3239 11.4351 18.0484C9.29623 19.631 6.69291 20.5 4 20.5C3.17157 20.5 2.5 19.8284 2.5 19C2.5 18.1716 3.17157 17.5 4 17.5C5.84665 17.5 7.63787 16.9623 9.16436 15.9737C8.03306 14.6702 7.15354 13.1482 6.58209 11.4882C6.31244 10.7048 6.72885 9.85125 7.51217 9.5816C8.29548 9.31196 9.14908 9.72836 9.41872 10.5117C9.85957 11.7923 10.533 12.9627 11.3937 13.9652C12.6463 12.4127 13.3815 10.5006 13.4868 8.5H4C3.17157 8.5 2.5 7.82843 2.5 7C2.5 6.17157 3.17157 5.5 4 5.5H10V4C10 3.17157 10.6716 2.5 11.5 2.5ZM24.0733 22.0312L22.0003 17.8854L19.9274 22.0312H24.0733Z" fill="#808080"/>
</svg>
