<svg width="32" height="32" viewBox="0 0 32 32" fill="none" xmlns="http://www.w3.org/2000/svg">
<path d="M13.0607 9.06066C13.6464 8.47487 13.6464 7.52513 13.0607 6.93934C12.4749 6.35355 11.5251 6.35355 10.9393 6.93934L2.93934 14.9393C2.79183 15.0868 2.68147 15.2574 2.60825 15.4395C2.53843 15.6127 2.5 15.8019 2.5 16C2.5 16.2089 2.54268 16.4077 2.61979 16.5884C2.68364 16.7383 2.77301 16.8799 2.8879 17.0066C2.90643 17.0271 2.92552 17.047 2.94514 17.0665L10.9393 25.0607C11.5251 25.6464 12.4749 25.6464 13.0607 25.0607C13.6464 24.4749 13.6464 23.5251 13.0607 22.9393L7.62135 17.5L28 17.5C28.8284 17.5 29.5 16.8285 29.5 16C29.5 15.1716 28.8284 14.5 28 14.5L7.62129 14.5L13.0607 9.06066Z" fill="#808080"/>
</svg>
