<svg width="33" height="32" viewBox="0 0 33 32" fill="none" xmlns="http://www.w3.org/2000/svg">
<path d="M7.32404 22.9998C6.79204 22.9998 6.37904 22.8528 6.08504 22.5588C5.80504 22.2648 5.66504 21.8588 5.66504 21.3408V9.81183C5.66504 9.26583 5.80504 8.85283 6.08504 8.57283C6.36504 8.29283 6.77104 8.15283 7.30304 8.15283C7.82104 8.15283 8.22004 8.29283 8.50004 8.57283C8.78004 8.85283 8.92004 9.26583 8.92004 9.81183V20.2488H14.548C14.996 20.2488 15.339 20.3678 15.577 20.6058C15.829 20.8438 15.955 21.1798 15.955 21.6138C15.955 22.0618 15.829 22.4048 15.577 22.6428C15.339 22.8808 14.996 22.9998 14.548 22.9998H7.32404Z" fill="#808080"/>
<path d="M19.4041 22.9998C18.8581 22.9998 18.4381 22.8528 18.1441 22.5588C17.8501 22.2648 17.7031 21.8448 17.7031 21.2988V9.89583C17.7031 9.34983 17.8501 8.92983 18.1441 8.63583C18.4381 8.34183 18.8581 8.19483 19.4041 8.19483H26.7331C27.1531 8.19483 27.4681 8.30683 27.6781 8.53083C27.9021 8.74083 28.0141 9.04883 28.0141 9.45483C28.0141 9.87483 27.9021 10.1968 27.6781 10.4208C27.4681 10.6308 27.1531 10.7358 26.7331 10.7358H20.8111V14.2008H26.2501C26.6841 14.2008 27.0061 14.3128 27.2161 14.5368C27.4401 14.7468 27.5521 15.0618 27.5521 15.4818C27.5521 15.9018 27.4401 16.2238 27.2161 16.4478C27.0061 16.6578 26.6841 16.7628 26.2501 16.7628H20.8111V20.4588H26.7331C27.1531 20.4588 27.4681 20.5708 27.6781 20.7948C27.9021 21.0048 28.0141 21.3128 28.0141 21.7188C28.0141 22.1388 27.9021 22.4608 27.6781 22.6848C27.4681 22.8948 27.1531 22.9998 26.7331 22.9998H19.4041Z" fill="#808080"/>
</svg>
