<svg width="32" height="32" viewBox="0 0 32 32" fill="none" xmlns="http://www.w3.org/2000/svg">
<path d="M19.0607 7.06078C20.684 5.43742 23.316 5.43742 24.9393 7.06078C26.5627 8.68413 26.5627 11.3161 24.9393 12.9395L21.182 16.6968C19.4246 18.4542 16.5754 18.4542 14.818 16.6968L14.0607 15.9395C13.4749 15.3537 12.5251 15.3537 11.9393 15.9395C11.3536 16.5252 11.3536 17.475 11.9393 18.0608L12.6967 18.8181C15.6256 21.7471 20.3744 21.7471 23.3033 18.8181L27.0607 15.0608C29.8556 12.2659 29.8556 7.73438 27.0607 4.93946C24.2657 2.14453 19.7343 2.14453 16.9393 4.93946L13.9393 7.93946C13.3536 8.52524 13.3536 9.47499 13.9393 10.0608C14.5251 10.6466 15.4749 10.6466 16.0607 10.0608L19.0607 7.06078Z" fill="#717171"/>
<path d="M10.818 15.3034C12.5754 13.546 15.4246 13.546 17.182 15.3034L17.9393 16.0607C18.5251 16.6465 19.4749 16.6465 20.0607 16.0607C20.6464 15.4749 20.6464 14.5252 20.0607 13.9394L19.3033 13.182C16.3744 10.2531 11.6256 10.2531 8.69669 13.1821L4.93933 16.9394C2.1444 19.7344 2.14441 24.2658 4.93934 27.0607C7.73426 29.8557 12.2657 29.8557 15.0607 27.0607L18.0607 24.0607C18.6464 23.475 18.6464 22.5252 18.0607 21.9394C17.4749 21.3536 16.5251 21.3536 15.9393 21.9394L12.9393 24.9394C11.316 26.5628 8.68401 26.5628 7.06066 24.9394C5.4373 23.3161 5.4373 20.6841 7.06065 19.0607L10.818 15.3034Z" fill="#717171"/>
</svg>
