<svg width="32" height="32" viewBox="0 0 32 32" fill="none" xmlns="http://www.w3.org/2000/svg">
<path d="M7 6.00001C7 7.10458 6.10457 8 5 8C3.89543 8 3 7.10458 3 6.00001C3 4.89544 3.89543 4 5 4C6.10457 4 7 4.89544 7 6.00001Z" fill="#808080"/>
<path d="M12 4.5C11.1716 4.5 10.5 5.17157 10.5 6C10.5 6.82843 11.1716 7.5 12 7.5H28C28.8284 7.5 29.5 6.82843 29.5 6C29.5 5.17157 28.8284 4.5 28 4.5H12Z" fill="#808080"/>
<path d="M12 14.5C11.1716 14.5 10.5 15.1716 10.5 16C10.5 16.8284 11.1716 17.5 12 17.5H28C28.8284 17.5 29.5 16.8284 29.5 16C29.5 15.1716 28.8284 14.5 28 14.5H12Z" fill="#808080"/>
<path d="M10.5 26C10.5 25.1716 11.1716 24.5 12 24.5H28C28.8284 24.5 29.5 25.1716 29.5 26C29.5 26.8284 28.8284 27.5 28 27.5H12C11.1716 27.5 10.5 26.8284 10.5 26Z" fill="#808080"/>
<path d="M5 18C6.10457 18 7 17.1046 7 16C7 14.8954 6.10457 14 5 14C3.89543 14 3 14.8954 3 16C3 17.1046 3.89543 18 5 18Z" fill="#808080"/>
<path d="M7 26C7 27.1046 6.10457 28 5 28C3.89543 28 3 27.1046 3 26C3 24.8954 3.89543 24 5 24C6.10457 24 7 24.8954 7 26Z" fill="#808080"/>
</svg>
