<svg width="32" height="32" viewBox="0 0 32 32" fill="none" xmlns="http://www.w3.org/2000/svg">
<path d="M16 24C14.8954 24 14 23.1046 14 22C14 20.8954 14.8954 20 16 20C17.1046 20 18 20.8954 18 22C18 23.1046 17.1046 24 16 24Z" fill="#808080"/>
<path fill-rule="evenodd" clip-rule="evenodd" d="M1.5 19C1.5 14.6185 4.46616 10.9298 8.5 9.83238V9C8.5 4.85786 11.8579 1.5 16 1.5C20.1421 1.5 23.5 4.85786 23.5 9V9.83238C27.5338 10.9298 30.5 14.6185 30.5 19V21C30.5 26.2467 26.2467 30.5 21 30.5H11C5.75329 30.5 1.5 26.2467 1.5 21V19ZM20.5 9V9.5L11.5 9.5V9C11.5 6.51472 13.5147 4.5 16 4.5C18.4853 4.5 20.5 6.51472 20.5 9ZM4.5 19C4.5 15.4101 7.41015 12.5 11 12.5L21.0021 12.5C24.591 12.5011 27.5 15.4108 27.5 19V21C27.5 24.5899 24.5899 27.5 21 27.5H11C7.41015 27.5 4.5 24.5898 4.5 21L4.5 19Z" fill="#808080"/>
</svg>
