<svg width="32" height="32" viewBox="0 0 32 32" fill="none" xmlns="http://www.w3.org/2000/svg">
<path d="M17.5 3C17.5 2.17158 16.8284 1.5 16 1.5C15.1716 1.5 14.5 2.17157 14.5 3L14.5 15.0001C14.5 15.8285 15.1715 16.5001 16 16.5001C16.8284 16.5001 17.5 15.8286 17.5 15.0001L17.5 3Z" fill="#808080"/>
<path d="M26.253 5.74697C25.6673 5.16118 24.7175 5.16118 24.1317 5.74697C23.5459 6.33276 23.5459 7.28251 24.1317 7.86829C28.6228 12.3593 28.6228 19.6407 24.1317 24.1317C19.6407 28.6228 12.3593 28.6228 7.86827 24.1317C3.37724 19.6407 3.37724 12.3593 7.86827 7.86829C8.45406 7.28251 8.45406 6.33276 7.86827 5.74697C7.28249 5.16118 6.33274 5.16118 5.74695 5.74697C0.0843496 11.4096 0.0843496 20.5905 5.74695 26.2531C11.4096 31.9157 20.5904 31.9157 26.253 26.2531C31.9157 20.5905 31.9157 11.4096 26.253 5.74697Z" fill="#808080"/>
</svg>
