<svg width="32" height="32" viewBox="0 0 32 32" fill="none" xmlns="http://www.w3.org/2000/svg">
<path fill-rule="evenodd" clip-rule="evenodd" d="M14.5 23.6251L25.02 26.6934C27.26 27.3468 29.5 25.6668 29.5 23.3334V6.66675C29.5 4.33342 27.26 2.65342 25.02 3.30675L12.8092 6.86823C12.731 6.87826 12.653 6.89454 12.5761 6.91719L6.05563 8.83802L5.02 9.14008C3.52667 9.57564 2.5 10.9445 2.5 12.5001V17.5001C2.5 19.0556 3.52667 20.4245 5.02 20.8601L5.5 21.0001V24.7168C5.5 26.2637 6.51544 27.6271 7.9975 28.0702L9.9975 28.6681C12.2424 29.3392 14.5 27.6578 14.5 25.3147V23.6251ZM25.86 6.18675C26.18 6.09342 26.5 6.33342 26.5 6.66675V23.3334C26.5 23.6668 26.18 23.9068 25.86 23.8134L14.5 20.5001L14.5 11.0001C14.5 10.9993 14.5 10.9985 14.5 10.9977V9.50008L25.86 6.18675ZM11.5 19.6251L11.5 10.3751L6.89937 11.7169L5.85871 12.0235C5.64603 12.0861 5.5 12.2814 5.5 12.5031L5.5 17.4912C5.50037 17.7108 5.64403 17.9054 5.85417 17.9694L6.52973 18.1754L11.5 19.6251ZM11.5 22.8273V25.3147C11.5 25.6494 11.1775 25.8896 10.8568 25.7938L8.85679 25.1959C8.64506 25.1326 8.5 24.9378 8.5 24.7168V21.9125L11.5 22.8273Z" fill="#808080"/>
</svg>
