<svg width="32" height="32" viewBox="0 0 32 32" fill="none" xmlns="http://www.w3.org/2000/svg">
<path d="M20.4796 2.85965C20.4173 2.64649 20.2218 2.5 19.9997 2.5C19.7776 2.5 19.5821 2.64649 19.5198 2.85965L18.4653 6.46556L14.8594 7.5201C14.6462 7.58244 14.4997 7.77791 14.4997 8C14.4997 8.22209 14.6462 8.41756 14.8594 8.4799L18.4653 9.53444L19.5198 13.1403C19.5821 13.3535 19.7776 13.5 19.9997 13.5C20.2218 13.5 20.4173 13.3535 20.4796 13.1403L21.5341 9.53444L25.14 8.4799C25.3532 8.41756 25.4997 8.22209 25.4997 8C25.4997 7.77791 25.3532 7.58244 25.14 7.5201L21.5341 6.46556L20.4796 2.85965Z" fill="#808080"/>
<path fill-rule="evenodd" clip-rule="evenodd" d="M19.5248 29.6462C20.8917 31.0131 23.1077 31.0131 24.4746 29.6462L25.6461 28.4746C27.013 27.1078 27.013 24.8917 25.6461 23.5249L8.47457 6.35333C7.10774 4.9865 4.89166 4.98649 3.52482 6.35333L2.35325 7.5249C0.986414 8.89174 0.986419 11.1078 2.35325 12.4747L19.5248 29.6462ZM22.3532 27.5249C22.158 27.7202 21.8414 27.7202 21.6461 27.5249L10.1211 15.9999L11.9998 14.1212L23.5248 25.6462C23.7201 25.8415 23.7201 26.1581 23.5248 26.3533L22.3532 27.5249ZM9.87849 11.9999L6.35325 8.47465C6.15799 8.27939 5.84141 8.27939 5.64614 8.47465L4.47457 9.64622C4.27931 9.84149 4.27931 10.1581 4.47457 10.3533L7.99981 13.8786L9.87849 11.9999Z" fill="#808080"/>
<path d="M26.4796 12.8597C26.4173 12.6465 26.2218 12.5 25.9997 12.5C25.7776 12.5 25.5821 12.6465 25.5198 12.8597L24.9178 14.9181L22.8594 15.5201C22.6462 15.5824 22.4997 15.7779 22.4997 16C22.4997 16.2221 22.6462 16.4176 22.8594 16.4799L24.9178 17.0819L25.5198 19.1403C25.5821 19.3535 25.7776 19.5 25.9997 19.5C26.2218 19.5 26.4173 19.3535 26.4796 19.1403L27.0816 17.0819L29.14 16.4799C29.3532 16.4176 29.4997 16.2221 29.4997 16C29.4997 15.7779 29.3532 15.5824 29.14 15.5201L27.0816 14.9181L26.4796 12.8597Z" fill="#808080"/>
<path d="M6.67979 22.2596C6.61745 22.0464 6.42198 21.8999 6.19989 21.8999C5.9778 21.8999 5.78233 22.0464 5.71999 22.2596L5.118 24.318L3.05955 24.92C2.84639 24.9823 2.69989 25.1778 2.69989 25.3999C2.69989 25.622 2.84639 25.8175 3.05955 25.8798L5.118 26.4818L5.71999 28.5402C5.78233 28.7534 5.9778 28.8999 6.19989 28.8999C6.42198 28.8999 6.61745 28.7534 6.67979 28.5402L7.28178 26.4818L9.34024 25.8798C9.5534 25.8175 9.69989 25.622 9.69989 25.3999C9.69989 25.1778 9.5534 24.9823 9.34024 24.92L7.28178 24.318L6.67979 22.2596Z" fill="#808080"/>
</svg>
