<svg width="32" height="32" viewBox="0 0 32 32" fill="none" xmlns="http://www.w3.org/2000/svg">
<path d="M3.65672 24.0724L4.60169 24.3996L3.65672 24.0724ZM14.9992 29C15.5515 29 15.9992 28.5523 15.9992 28C15.9992 27.4477 15.5515 27 14.9992 27V29ZM23.9992 16.9999C23.9992 16.4476 23.5515 15.9999 22.9992 15.9999C22.4469 15.9999 21.9992 16.4477 21.9992 16.9999L23.9992 16.9999ZM28.9993 23.9999C29.5515 23.9999 29.9992 23.5522 29.9992 22.9999C29.9992 22.4476 29.5515 21.9999 28.9992 21.9999L28.9993 23.9999ZM21.9992 28.9999C21.9992 29.5522 22.4469 29.9999 22.9992 29.9999C23.5515 29.9999 23.9992 29.5522 23.9992 28.9999L21.9992 28.9999ZM16.9993 21.9999C16.447 21.9999 15.9992 22.4476 15.9992 22.9999C15.9992 23.5522 16.4469 23.9999 16.9992 23.9999L16.9993 21.9999ZM27.949 19.4644C28.3395 19.0738 28.3395 18.4407 27.949 18.0502C27.5585 17.6596 26.9253 17.6596 26.5348 18.0502L27.949 19.4644ZM25.1206 19.4644C24.7301 19.8549 24.7301 20.4881 25.1206 20.8786C25.5111 21.2691 26.1443 21.2691 26.5348 20.8786L25.1206 19.4644ZM20.8779 26.5354C21.2685 26.1449 21.2685 25.5118 20.8779 25.1212C20.4874 24.7307 19.8542 24.7307 19.4637 25.1212L20.8779 26.5354ZM18.0495 26.5354C17.659 26.926 17.659 27.5591 18.0495 27.9497C18.44 28.3402 19.0732 28.3402 19.4637 27.9497L18.0495 26.5354ZM19.4637 18.0502C19.0732 17.6596 18.44 17.6596 18.0495 18.0502C17.659 18.4407 17.659 19.0738 18.0495 19.4644L19.4637 18.0502ZM19.4637 20.8786C19.8543 21.2691 20.4874 21.2691 20.8779 20.8786C21.2685 20.4881 21.2685 19.8549 20.8779 19.4644L19.4637 20.8786ZM26.5348 25.1212C26.1443 24.7307 25.5111 24.7307 25.1206 25.1212C24.7301 25.5118 24.7301 26.1449 25.1206 26.5354L26.5348 25.1212ZM26.5348 27.9497C26.9253 28.3402 27.5585 28.3402 27.949 27.9497C28.3395 27.5591 28.3395 26.926 27.949 26.5354L26.5348 27.9497ZM25.9992 23C25.9992 24.6569 24.6561 26 22.9992 26V28C25.7607 28 27.9992 25.7614 27.9992 23H25.9992ZM22.9992 26C21.3424 26 19.9992 24.6569 19.9992 23H17.9992C17.9992 25.7614 20.2378 28 22.9992 28V26ZM19.9992 23C19.9992 21.3431 21.3424 20 22.9992 20V18C20.2378 18 17.9992 20.2386 17.9992 23H19.9992ZM22.9992 20C24.6561 20 25.9992 21.3431 25.9992 23H27.9992C27.9992 20.2386 25.7607 18 22.9992 18V20ZM4.60169 24.3996C6.09329 20.0913 10.1866 17 14.9992 17V15C9.30812 15 4.4736 18.6564 2.71176 23.7453L4.60169 24.3996ZM6.99924 29H14.9992V27H6.99924V29ZM2.71176 23.7453C2.21864 25.1695 2.6188 26.5268 3.48573 27.4886C4.33458 28.4303 5.62579 29 6.99924 29V27C6.16354 27 5.42212 26.6497 4.97131 26.1495C4.53858 25.6694 4.37205 25.0629 4.60169 24.3996L2.71176 23.7453ZM19.9992 10C19.9992 12.7614 17.7607 15 14.9992 15V17C18.8652 17 21.9992 13.866 21.9992 10H19.9992ZM14.9992 15C12.2378 15 9.99924 12.7614 9.99924 10H7.99924C7.99924 13.866 11.1332 17 14.9992 17V15ZM9.99924 10C9.99924 7.23858 12.2378 5 14.9992 5V3C11.1332 3 7.99924 6.13401 7.99924 10H9.99924ZM14.9992 5C17.7607 5 19.9992 7.23858 19.9992 10H21.9992C21.9992 6.13401 18.8652 3 14.9992 3V5ZM21.9992 16.9999L21.9992 19L23.9992 19L23.9992 16.9999L21.9992 16.9999ZM28.9992 21.9999L26.9992 22L26.9993 24L28.9993 23.9999L28.9992 21.9999ZM21.9992 27L21.9992 28.9999L23.9992 28.9999L23.9992 27L21.9992 27ZM18.9993 22L16.9993 21.9999L16.9992 23.9999L18.9992 24L18.9993 22ZM26.5348 18.0502L25.1206 19.4644L26.5348 20.8786L27.949 19.4644L26.5348 18.0502ZM19.4637 25.1212L18.0495 26.5354L19.4637 27.9497L20.8779 26.5354L19.4637 25.1212ZM18.0495 19.4644L19.4637 20.8786L20.8779 19.4644L19.4637 18.0502L18.0495 19.4644ZM25.1206 26.5354L26.5348 27.9497L27.949 26.5354L26.5348 25.1212L25.1206 26.5354Z" fill="#717171"/>
</svg>
