<svg width="32" height="32" viewBox="0 0 32 32" fill="none" xmlns="http://www.w3.org/2000/svg">
<path fill-rule="evenodd" clip-rule="evenodd" d="M14.9976 17.5C10.4056 17.5011 6.49876 20.4508 5.07497 24.5632C4.9112 25.0362 5.01932 25.4551 5.34351 25.8148C5.6948 26.2045 6.29877 26.5 7.00003 26.5H15C15.8285 26.5 16.5 27.1716 16.5 28C16.5 28.8284 15.8285 29.5 15 29.5H7.00003C5.49215 29.5 4.0635 28.8755 3.11513 27.8233C2.13965 26.7411 1.68109 25.1962 2.24007 23.5817C3.51062 19.9119 6.32007 16.959 9.89808 15.4973C8.42301 14.1277 7.50003 12.1716 7.50003 10C7.50003 5.85786 10.8579 2.5 15 2.5C19.1422 2.5 22.5 5.85786 22.5 10C22.5 14.1421 19.1422 17.5 15 17.5L14.9976 17.5ZM15 14.5C17.4853 14.5 19.5 12.4853 19.5 10C19.5 7.51472 17.4853 5.5 15 5.5C12.5148 5.5 10.5 7.51472 10.5 10C10.5 12.4853 12.5148 14.5 15 14.5Z" fill="#717171"/>
<path fill-rule="evenodd" clip-rule="evenodd" d="M27.8032 25.6815C28.01 25.3119 28.1753 24.916 28.293 24.5H29C29.8285 24.5 30.5 23.8284 30.5 23C30.5 22.1716 29.8285 21.5 29 21.5H28.293C28.1753 21.084 28.01 20.688 27.8032 20.3184L28.3034 19.8182C28.8891 19.2324 28.8891 18.2827 28.3034 17.6969C27.7176 17.1111 26.7678 17.1111 26.182 17.6969L25.6819 18.197C25.3122 17.9901 24.9161 17.8247 24.5 17.707V17C24.5 16.1716 23.8285 15.5 23 15.5C22.1716 15.5 21.5 16.1716 21.5 17V17.707C21.084 17.8247 20.688 17.9901 20.3184 18.1969L19.8181 17.6967C19.2323 17.1109 18.2826 17.1109 17.6968 17.6967C17.111 18.2824 17.111 19.2322 17.6968 19.818L18.197 20.3182C17.9902 20.6879 17.8247 21.0839 17.7071 21.5H17C16.1716 21.5 15.5 22.1716 15.5 23C15.5 23.8284 16.1716 24.5 17 24.5H17.7071C17.8247 24.916 17.9901 25.312 18.197 25.6817L17.6968 26.1819C17.111 26.7677 17.111 27.7174 17.6968 28.3032C18.2825 28.889 19.2323 28.889 19.8181 28.3032L20.3183 27.803C20.688 28.0099 21.084 28.1753 21.5 28.293V29C21.5 29.8284 22.1716 30.5 23 30.5C23.8285 30.5 24.5 29.8284 24.5 29V28.293C24.9162 28.1753 25.3122 28.0098 25.682 27.8029L26.1821 28.303C26.7678 28.8888 27.7176 28.8888 28.3034 28.303C28.8892 27.7172 28.8892 26.7675 28.3034 26.1817L27.8032 25.6815ZM25.5 23C25.5 22.3154 25.2249 21.6952 24.7792 21.2437L24.7678 21.2324L24.7568 21.2213C24.3053 20.7753 23.6848 20.5 23 20.5L22.9989 20.5C22.31 20.5003 21.6862 20.7793 21.2342 21.2303L21.2323 21.2322L21.2303 21.2342C20.7791 21.6864 20.5 22.3106 20.5 23C20.5 23.6861 20.7764 24.3077 21.224 24.7594L21.2323 24.7677L21.2406 24.776C21.6923 25.2236 22.3139 25.5 23 25.5C23.6837 25.5 24.3033 25.2256 24.7546 24.7809C24.759 24.7764 24.7634 24.7719 24.7678 24.7675C24.7722 24.7631 24.7767 24.7587 24.7811 24.7543C25.2257 24.303 25.5 23.6835 25.5 23Z" fill="#717171"/>
</svg>
