<svg width="32" height="32" viewBox="0 0 32 32" fill="none" xmlns="http://www.w3.org/2000/svg">
<path fill-rule="evenodd" clip-rule="evenodd" d="M17.4999 8.62602V6.5C17.4999 4.29086 15.709 2.5 13.4999 2.5C11.2907 2.5 9.49988 4.29086 9.49988 6.5V16.4372C7.86762 15.21 5.53926 15.3393 4.05364 16.8249L3.82488 17.0537C2.19769 18.6809 2.1977 21.3191 3.82488 22.9462L8.59612 27.7175C10.3777 29.4991 12.7941 30.5 15.3136 30.5H17.9999C23.2466 30.5 27.4999 26.2467 27.4999 21V17.5116L27.4999 17.5V14.5C27.4999 12.2909 25.709 10.5 23.4999 10.5C23.007 10.5 22.5349 10.5892 22.0988 10.7522C21.4501 9.41891 20.0823 8.5 18.4999 8.5C18.1546 8.5 17.8195 8.54375 17.4999 8.62602ZM13.4999 5.5C12.9476 5.5 12.4999 5.94772 12.4999 6.5V20C12.4999 20.8284 11.8283 21.5 10.9999 21.5C10.5809 21.5 10.202 21.3282 9.9298 21.0512L7.82488 18.9462C7.36927 18.4906 6.63058 18.4906 6.17496 18.9462L5.9462 19.175C5.49059 19.6306 5.49059 20.3693 5.9462 20.8249L10.7174 25.5962C11.9364 26.8151 13.5897 27.5 15.3136 27.5H17.9999C21.5898 27.5 24.4999 24.5898 24.4999 21V17.5118L24.4999 17.5V14.5C24.4999 13.9477 24.0522 13.5 23.4999 13.5C22.9476 13.5 22.4999 13.9477 22.4999 14.5V17C22.4999 17.8284 21.8283 18.5 20.9999 18.5C20.1715 18.5 19.4999 17.8284 19.4999 17V12.5C19.4999 11.9477 19.0522 11.5 18.4999 11.5C17.9476 11.5 17.4999 11.9477 17.4999 12.5V17.2759C17.4999 18.1043 16.8283 18.7759 15.9999 18.7759C15.1715 18.7759 14.4999 18.1043 14.4999 17.2759V6.5C14.4999 5.94772 14.0522 5.5 13.4999 5.5Z" fill="#808080"/>
</svg>
