<svg width="32" height="32" viewBox="0 0 32 32" fill="none" xmlns="http://www.w3.org/2000/svg">
<path fill-rule="evenodd" clip-rule="evenodd" d="M11.5511 9.60574C11.2108 9.53639 10.8588 9.5 10.499 9.5C7.59952 9.5 5.24902 11.8505 5.24902 14.75C5.24902 15.9765 5.66964 17.1048 6.37449 17.9985C3.81581 19.3202 1.97284 21.8334 1.57792 24.8047C1.3679 26.3849 2.68016 27.5 3.99908 27.5H8.98838L9.00006 27.5H23.0001L23.0117 27.5H27.9991C29.318 27.5 30.6303 26.3849 30.4203 24.8047C30.0253 21.8333 28.1824 19.3201 25.6236 17.9985C26.3285 17.1048 26.7491 15.9765 26.7491 14.75C26.7491 11.8505 24.3986 9.5 21.4991 9.5C21.1395 9.5 20.7875 9.53636 20.4469 9.60576C19.3924 8.3202 17.7915 7.5 15.999 7.5C14.2065 7.5 12.6056 8.32019 11.5511 9.60574ZM13.249 13.25C13.249 11.7312 14.4802 10.5 15.999 10.5C17.5178 10.5 18.749 11.7312 18.749 13.25C18.749 14.7688 17.5178 16 15.999 16C14.4802 16 13.249 14.7688 13.249 13.25ZM10.2963 12.509C10.2651 12.7516 10.249 12.9989 10.249 13.25C10.249 14.5824 10.7022 15.809 11.4629 16.784C11.171 16.9227 10.8447 17 10.499 17C9.25638 17 8.24902 15.9926 8.24902 14.75C8.24902 13.5757 9.14866 12.6115 10.2963 12.509ZM21.7017 12.509C21.7329 12.7516 21.749 12.9989 21.749 13.25C21.749 14.5824 21.2958 15.809 20.5351 16.784C20.827 16.9227 21.1534 17 21.4991 17C22.7417 17 23.7491 15.9926 23.7491 14.75C23.7491 13.5756 22.8494 12.6114 21.7017 12.509ZM22.3509 24.5C21.7045 21.2971 19.0486 19 16.0001 19C12.9515 19 10.2956 21.2971 9.64918 24.5H22.3509ZM27.3104 24.5H25.3937C25.1868 23.0557 24.6829 21.703 23.9459 20.52C25.596 21.2579 26.8524 22.7191 27.3104 24.5ZM4.68776 24.5H6.60642C6.81344 23.0552 7.31752 21.7021 8.05496 20.5188C6.40351 21.2564 5.14609 22.7181 4.68776 24.5Z" fill="#808080"/>
</svg>
