<svg width="32" height="32" viewBox="0 0 32 32" fill="none" xmlns="http://www.w3.org/2000/svg">
<path d="M7 10.5C6.17157 10.5 5.5 11.1716 5.5 12C5.5 12.8284 6.17157 13.5 7 13.5H12C12.8284 13.5 13.5 12.8284 13.5 12C13.5 11.1716 12.8284 10.5 12 10.5H7Z" fill="#808080"/>
<path d="M5.5 17C5.5 16.1716 6.17157 15.5 7 15.5H12C12.8284 15.5 13.5 16.1716 13.5 17C13.5 17.8284 12.8284 18.5 12 18.5H7C6.17157 18.5 5.5 17.8284 5.5 17Z" fill="#808080"/>
<path d="M20 10.5C19.1716 10.5 18.5 11.1716 18.5 12C18.5 12.8284 19.1716 13.5 20 13.5H25C25.8284 13.5 26.5 12.8284 26.5 12C26.5 11.1716 25.8284 10.5 25 10.5H20Z" fill="#808080"/>
<path d="M18.5 17C18.5 16.1716 19.1716 15.5 20 15.5H25C25.8284 15.5 26.5 16.1716 26.5 17C26.5 17.8284 25.8284 18.5 25 18.5H20C19.1716 18.5 18.5 17.8284 18.5 17Z" fill="#808080"/>
<path fill-rule="evenodd" clip-rule="evenodd" d="M1.5 7C1.5 5.067 3.067 3.5 5 3.5H12C13.576 3.5 14.9972 4.16289 16 5.22506C17.0028 4.16289 18.424 3.5 20 3.5H27C28.933 3.5 30.5 5.067 30.5 7V21C30.5 22.933 28.933 24.5 27 24.5H20C18.6193 24.5 17.5 25.6193 17.5 27C17.5003 27.0127 17.5 27.0254 17.5 27.0381C17.5 27.8665 16.8284 28.5381 16 28.5381C15.1716 28.5381 14.5 27.8665 14.5 27.0381C14.5 27.0254 14.5002 27.0127 14.5005 27C14.5005 25.6193 13.3807 24.5 12 24.5H5C3.067 24.5 1.5 22.933 1.5 21V7ZM12 6.5C13.3807 6.5 14.5 7.61929 14.5 9V22.0997C13.7499 21.7163 12.9002 21.5 12 21.5H5C4.72386 21.5 4.5 21.2761 4.5 21V7C4.5 6.72386 4.72386 6.5 5 6.5H12ZM20 21.5C19.0998 21.5 18.2501 21.7163 17.5 22.0997V9C17.5 7.61929 18.6193 6.5 20 6.5H27C27.2761 6.5 27.5 6.72386 27.5 7V21C27.5 21.2761 27.2761 21.5 27 21.5H20Z" fill="#808080"/>
</svg>
