<svg width="32" height="32" viewBox="0 0 32 32" fill="none" xmlns="http://www.w3.org/2000/svg">
<path fill-rule="evenodd" clip-rule="evenodd" d="M17.5 4.50049H9C7.61929 4.50049 6.5 5.61978 6.5 7.00049V14.0005C6.28272 14.5611 5.63734 14.9586 5 14.9586C4.36266 14.9586 3.71728 14.5611 3.5 14.0005V7.00049C3.5 3.96292 5.96243 1.50049 9 1.50049H18.9726C19.3723 1.49327 19.7671 1.64605 20.0607 1.93963L28.0607 9.93963C28.3504 10.2294 28.503 10.6178 28.5 11.0121V14.0005C28.2827 14.5611 27.6373 14.9586 27 14.9586C26.3627 14.9586 25.7173 14.5611 25.5 14.0005V12.5003H23C19.9624 12.5003 17.5 10.0379 17.5 7.00029V4.50049ZM20.5 6.62181V7.00029C20.5 8.381 21.6193 9.50029 23 9.50029H23.3785L20.5 6.62181Z" fill="#808080"/>
<path d="M28.5 18.0419V18.9586C28.5 19.787 27.8284 20.4586 27 20.4586C26.1716 20.4586 25.5 19.787 25.5 18.9586V18.0419C25.5 17.2135 26.1716 16.5419 27 16.5419C27.8284 16.5419 28.5 17.2135 28.5 18.0419Z" fill="#808080"/>
<path d="M5 16.5419C5.82843 16.5419 6.5 17.2135 6.5 18.0419V18.9586C6.5 19.787 5.82843 20.4586 5 20.4586C4.17157 20.4586 3.5 19.787 3.5 18.9586V18.0419C3.5 17.2135 4.17157 16.5419 5 16.5419Z" fill="#808080"/>
<path d="M5 22.0419C5.82843 22.0419 6.5 22.7135 6.5 23.5419V24.0002C6.5 24.1123 6.50727 24.2218 6.52121 24.3287C6.62836 25.1501 6.0493 25.9029 5.22783 26.0101C4.40636 26.1172 3.65356 25.5382 3.54641 24.7167C3.51574 24.4815 3.5 24.2424 3.5 24.0002V23.5419C3.5 22.7135 4.17157 22.0419 5 22.0419Z" fill="#808080"/>
<path d="M28.5 23.5419V24.0002C28.5 24.2424 28.4843 24.4815 28.4536 24.7167C28.3464 25.5382 27.5936 26.1172 26.7722 26.0101C25.9507 25.9029 25.3716 25.1501 25.4788 24.3287C25.4927 24.2218 25.5 24.1123 25.5 24.0002V23.5419C25.5 22.7135 26.1716 22.0419 27 22.0419C27.8284 22.0419 28.5 22.7135 28.5 23.5419Z" fill="#808080"/>
<path d="M6.99016 27.7724C7.09732 26.9509 7.85011 26.3719 8.67158 26.479C8.7784 26.493 8.88798 26.5002 9 26.5002H9.58333C10.4118 26.5002 11.0833 27.1718 11.0833 28.0002C11.0833 28.8287 10.4118 29.5002 9.58333 29.5002H9C8.75788 29.5002 8.5187 29.4845 8.28354 29.4538C7.46208 29.3467 6.88301 28.5939 6.99016 27.7724Z" fill="#808080"/>
<path d="M25.0098 27.7724C25.117 28.5939 24.5379 29.3467 23.7165 29.4538C23.4813 29.4845 23.2421 29.5002 23 29.5002H22.4167C21.5882 29.5002 20.9167 28.8287 20.9167 28.0002C20.9167 27.1718 21.5882 26.5002 22.4167 26.5002H23C23.112 26.5002 23.2216 26.493 23.3284 26.479C24.1499 26.3719 24.9027 26.9509 25.0098 27.7724Z" fill="#808080"/>
<path d="M13.9167 28.0002C13.9167 27.1718 14.5882 26.5002 15.4167 26.5002H16.5833C17.4118 26.5002 18.0833 27.1718 18.0833 28.0002C18.0833 28.8287 17.4118 29.5002 16.5833 29.5002H15.4167C14.5882 29.5002 13.9167 28.8287 13.9167 28.0002Z" fill="#808080"/>
</svg>
