<svg width="32" height="32" viewBox="0 0 32 32" fill="none" xmlns="http://www.w3.org/2000/svg">
<path d="M10 9.5C9.17157 9.5 8.5 10.1716 8.5 11C8.5 11.8284 9.17157 12.5 10 12.5H22C22.8284 12.5 23.5 11.8284 23.5 11C23.5 10.1716 22.8284 9.5 22 9.5H10Z" fill="#808080"/>
<path d="M8.5 16C8.5 15.1716 9.17157 14.5 10 14.5H22C22.8284 14.5 23.5 15.1716 23.5 16C23.5 16.8284 22.8284 17.5 22 17.5H10C9.17157 17.5 8.5 16.8284 8.5 16Z" fill="#808080"/>
<path d="M10 19.5C9.17157 19.5 8.5 20.1716 8.5 21C8.5 21.8284 9.17157 22.5 10 22.5H18C18.8284 22.5 19.5 21.8284 19.5 21C19.5 20.1716 18.8284 19.5 18 19.5H10Z" fill="#808080"/>
<path fill-rule="evenodd" clip-rule="evenodd" d="M8 2.5C4.96243 2.5 2.5 4.96243 2.5 8V24C2.5 27.0376 4.96243 29.5 8 29.5H24C27.0376 29.5 29.5 27.0376 29.5 24V8C29.5 4.96243 27.0376 2.5 24 2.5H8ZM5.5 8C5.5 6.61929 6.61929 5.5 8 5.5H24C25.3807 5.5 26.5 6.61929 26.5 8V24C26.5 25.3807 25.3807 26.5 24 26.5H8C6.61929 26.5 5.5 25.3807 5.5 24V8Z" fill="#808080"/>
</svg>
