<svg width="32" height="32" viewBox="0 0 32 32" fill="none" xmlns="http://www.w3.org/2000/svg">
<path fill-rule="evenodd" clip-rule="evenodd" d="M5.93934 16.5607C5.35355 15.9749 5.35355 15.0251 5.93934 14.4393L15.4393 4.93933C18.5104 1.86827 23.4896 1.86827 26.5607 4.93934C29.6317 8.01041 29.6317 12.9896 26.5606 16.0607L14.5606 28.0607C12.318 30.3033 8.68196 30.3033 6.43933 28.0606C4.19669 25.818 4.19669 22.182 6.43933 19.9394L17.9393 8.43934C19.3536 7.02512 21.6464 7.02513 23.0607 8.43934C24.4749 9.85355 24.4749 12.1464 23.0607 13.5607L14.5607 22.0607C13.9749 22.6464 13.0251 22.6464 12.4393 22.0607C11.8536 21.4749 11.8536 20.5251 12.4393 19.9393L20.9393 11.4393C21.182 11.1967 21.182 10.8033 20.9393 10.5607C20.6967 10.318 20.3033 10.318 20.0607 10.5607L8.56065 22.0607C7.48959 23.1317 7.48959 24.8683 8.56065 25.9393C9.63171 27.0104 11.3682 27.0104 12.4393 25.9393L24.4393 13.9393C26.3388 12.0398 26.3388 8.96015 24.4393 7.06066C22.5398 5.16116 19.4602 5.16116 17.5607 7.06066L8.06066 16.5607C7.47487 17.1464 6.52512 17.1464 5.93934 16.5607Z" fill="#808080"/>
</svg>
