<svg width="32" height="32" viewBox="0 0 32 32" fill="none" xmlns="http://www.w3.org/2000/svg">
<path fill-rule="evenodd" clip-rule="evenodd" d="M8 8C8 7.17157 8.67157 6.5 9.5 6.5H21C26.2467 6.5 30.5 10.7533 30.5 16C30.5 21.2467 26.2467 25.5 21 25.5H9C4.85786 25.5 1.5 22.1421 1.5 18C1.5 13.8579 4.85786 10.5 9 10.5H20.5C23.5376 10.5 26 12.9624 26 16C26 19.0376 23.5376 21.5 20.5 21.5H10C9.17157 21.5 8.5 20.8284 8.5 20C8.5 19.1716 9.17157 18.5 10 18.5H20.5C21.8807 18.5 23 17.3807 23 16C23 14.6193 21.8807 13.5 20.5 13.5H9C6.51472 13.5 4.5 15.5147 4.5 18C4.5 20.4853 6.51472 22.5 9 22.5H21C24.5899 22.5 27.5 19.5899 27.5 16C27.5 12.4101 24.5899 9.5 21 9.5H9.5C8.67157 9.5 8 8.82843 8 8Z" fill="#808080"/>
</svg>
