<svg width="32" height="32" viewBox="0 0 32 32" fill="none" xmlns="http://www.w3.org/2000/svg">
<path fill-rule="evenodd" clip-rule="evenodd" d="M14.0693 3.94982C14.6226 4.23767 15.1072 4.63105 15.4795 5.0292C15.4985 5.04947 15.5169 5.07027 15.5347 5.09156C16.5088 6.25676 16.4996 7.72367 16.342 8.78923C16.2012 9.74105 15.8863 10.7061 15.6629 11.3906C15.6301 11.491 15.5993 11.5853 15.5714 11.6726L15.5632 11.6975C15.4922 11.9066 15.4233 12.1131 15.3564 12.3168C15.946 12.8386 16.5804 13.3532 17.2405 13.8445C17.9019 14.3368 18.5771 14.7967 19.2449 15.2109C19.3682 15.1005 19.4899 14.9909 19.6103 14.8825C19.807 14.7053 20.0004 14.5311 20.1924 14.361C21.4044 13.2881 22.9894 11.9421 25.1102 12.4167C25.1238 12.4186 25.1351 12.4204 25.1438 12.4218C25.2281 12.4351 25.3035 12.453 25.363 12.4688C25.4835 12.5009 25.6062 12.5431 25.7236 12.5894C25.9602 12.6826 26.239 12.8177 26.5251 12.9971C27.0716 13.3397 27.8052 13.9454 28.1896 14.8897C28.5917 15.8773 28.4577 16.8901 28.1697 17.6662C27.8834 18.4376 27.3777 19.1662 26.7483 19.6434L26.7403 19.6495L26.7402 19.6495C25.9277 20.257 24.9401 20.3725 24.0731 20.3094C23.1897 20.2451 22.2423 19.984 21.3068 19.622C20.7502 19.4066 20.1754 19.1466 19.5926 18.8506C18.7345 19.5265 17.7359 20.2227 16.5615 20.8554L16.5544 20.8592L16.5544 20.8592C15.2794 21.5374 14.0374 21.991 12.8851 22.3139C12.6293 23.4852 12.3419 24.5834 11.8579 25.4778C11.3186 26.4744 10.5389 27.2164 9.39434 27.6385C9.37201 27.6467 9.3495 27.6544 9.32681 27.6616C8.7981 27.8284 8.07729 27.9591 7.32259 27.9338C6.5807 27.9089 5.63994 27.726 4.85313 27.0936C4.79781 27.0491 4.74572 27.0008 4.69724 26.9489C4.16358 26.3782 3.91964 25.6571 3.79158 25.1424C3.65986 24.613 3.60335 24.0927 3.56956 23.7816L3.56714 23.7593C3.54477 23.5536 3.5652 23.3455 3.62717 23.148C3.99514 21.9754 4.81418 21.2822 5.73678 20.8691C6.57447 20.4939 7.58937 20.3094 8.52293 20.1497C8.64584 20.1286 8.76985 20.1077 8.89491 20.0865C9.36027 20.0078 9.84031 19.9266 10.3335 19.8307C10.686 18.0869 11.1458 15.8839 11.938 13.2035C11.415 12.6664 10.9365 12.1235 10.5187 11.5855C9.8968 10.7846 9.36921 9.94317 9.0468 9.10506C8.74319 8.31585 8.56807 7.38612 8.83337 6.46818C8.97106 5.7746 9.3944 5.13002 9.83152 4.67248C10.3153 4.1661 11.0707 3.62132 12.0219 3.51788C12.8091 3.43226 13.5255 3.66696 14.0693 3.94982ZM12.9956 9.88193C13.1571 9.36482 13.3 8.85226 13.3742 8.35026C13.488 7.58092 13.3781 7.21243 13.253 7.04135C13.0865 6.87092 12.8827 6.71422 12.6848 6.61126C12.582 6.55777 12.4973 6.5274 12.4345 6.51229C12.3807 6.49933 12.3531 6.4999 12.3473 6.50022C12.3432 6.50111 12.3099 6.50847 12.2485 6.54384C12.1752 6.58608 12.0878 6.65367 12.0007 6.74483C11.9136 6.83596 11.8467 6.92992 11.8045 7.00573C11.788 7.03533 11.7787 7.05582 11.7741 7.06697C11.7613 7.14371 11.7425 7.21936 11.7179 7.29323C11.704 7.33482 11.6614 7.54607 11.8468 8.02794C12.0269 8.49611 12.37 9.07822 12.8882 9.74559C12.9234 9.79088 12.9592 9.83633 12.9956 9.88193ZM14.4192 15.452C14.0737 16.7325 13.808 17.8846 13.5853 18.9253C14.0957 18.7268 14.6151 18.4926 15.1421 18.2124C15.7443 17.8878 16.289 17.5466 16.7904 17.1977C16.3365 16.8943 15.8878 16.5775 15.4494 16.2511C15.1015 15.9922 14.7572 15.7253 14.4192 15.452ZM9.62316 23.0064C9.55984 23.0171 9.49726 23.0276 9.43544 23.038C9.29603 23.0614 9.16045 23.0842 9.02893 23.1067C8.03255 23.2772 7.39721 23.4126 6.96288 23.6071C6.77417 23.6916 6.66557 23.7672 6.59784 23.8436C6.62398 24.038 6.6565 24.2319 6.70282 24.418C6.74116 24.5721 6.78271 24.6936 6.82367 24.7838C6.82987 24.7974 6.83576 24.8097 6.84127 24.8207C6.95934 24.8758 7.14685 24.9262 7.42326 24.9355C7.77936 24.9474 8.14278 24.8847 8.38994 24.8111C8.76835 24.6647 9.00102 24.4536 9.21948 24.05C9.36376 23.7833 9.49363 23.4464 9.62316 23.0064ZM22.0779 16.6989C22.183 16.7427 22.2869 16.7845 22.3896 16.8242C23.1686 17.1257 23.81 17.2823 24.2908 17.3173C24.7638 17.3517 24.9244 17.2594 24.9421 17.248C25.0548 17.1594 25.2422 16.9322 25.3571 16.6226C25.4724 16.3117 25.4469 16.1091 25.4111 16.0209C25.387 15.9619 25.3398 15.8848 25.2531 15.7945C25.1659 15.7035 25.0546 15.616 24.9317 15.539C24.8097 15.4625 24.6976 15.4097 24.625 15.381C24.5811 15.3738 24.5375 15.3647 24.4942 15.3537C24.0381 15.237 23.5798 15.3689 22.181 16.6073C22.147 16.6374 22.1127 16.6679 22.0779 16.6989Z" fill="#808080"/>
</svg>
