<svg width="32" height="32" viewBox="0 0 32 32" fill="none" xmlns="http://www.w3.org/2000/svg">
<path fill-rule="evenodd" clip-rule="evenodd" d="M2.43934 18.7825C2.15804 19.0638 2 19.4453 2 19.8431V27.8431C2 28.241 2.15804 28.6225 2.43934 28.9038C2.72064 29.1851 3.10218 29.3431 3.5 29.3431H11.5C11.8978 29.3431 12.2794 29.1851 12.5607 28.9038L27.7322 13.7322C29.8801 11.5844 29.8801 8.10195 27.7322 5.95406L25.3891 3.61092C23.2412 1.46303 19.7588 1.46303 17.6109 3.61091L2.43934 18.7825ZM5 26.3431L5 20.4645L16.5 8.96447L22.3787 14.8432L10.8787 26.3431H5ZM24.5 12.7218L25.6109 11.6109C26.5872 10.6346 26.5872 9.05169 25.6109 8.07538L23.2678 5.73223C22.2915 4.75592 20.7085 4.75592 19.7322 5.73223L18.6213 6.84315L24.5 12.7218Z" fill="#808080"/>
</svg>
