<svg width="32" height="32" viewBox="0 0 32 32" fill="none" xmlns="http://www.w3.org/2000/svg">
<path fill-rule="evenodd" clip-rule="evenodd" d="M2 19.8431C2 19.4453 2.15804 19.0638 2.43934 18.7825L17.6109 3.61091C19.7588 1.46303 23.2412 1.46303 25.3891 3.61092L27.7322 5.95406C29.8801 8.10195 29.8801 11.5844 27.7322 13.7322L12.5607 28.9038C12.2794 29.1851 11.8978 29.3431 11.5 29.3431H3.5C3.10218 29.3431 2.72064 29.1851 2.43934 28.9038C2.15804 28.6225 2 28.241 2 27.8431V19.8431ZM5 20.4645L5 26.3431H10.8787L22.3787 14.8432L16.5 8.96447L5 20.4645ZM18.6213 6.84315L24.5 12.7218L25.6109 11.6109C26.5872 10.6346 26.5872 9.05169 25.6109 8.07538L23.2678 5.73223C22.2915 4.75592 20.7085 4.75592 19.7322 5.73223L18.6213 6.84315Z" fill="#808080"/>
<path d="M18 27.8431C18 27.0147 18.6716 26.3431 19.5 26.3431H27.5C28.3284 26.3431 29 27.0147 29 27.8431C29 28.6716 28.3284 29.3431 27.5 29.3431H19.5C18.6716 29.3431 18 28.6716 18 27.8431Z" fill="#808080"/>
</svg>
