<svg width="32" height="32" viewBox="0 0 32 32" fill="none" xmlns="http://www.w3.org/2000/svg">
<path fill-rule="evenodd" clip-rule="evenodd" d="M5.7971 3.19648C6.11716 2.95937 6.54742 2.93482 6.89238 3.13398L27.677 15.134C27.9864 15.3126 28.177 15.6427 28.177 16C28.177 16.3573 27.9864 16.6874 27.677 16.866L6.89238 28.866C6.54743 29.0652 6.11717 29.0406 5.79711 28.8035C5.47705 28.5664 5.32823 28.162 5.41827 27.7739L7.80234 17.5H18C18.8284 17.5 19.5 16.8284 19.5 16C19.5 15.1716 18.8284 14.5 18 14.5H7.80234L5.41826 4.22605C5.32822 3.83804 5.47704 3.43359 5.7971 3.19648Z" fill="#808080"/>
</svg>
