<svg width="32" height="32" viewBox="0 0 32 32" fill="none" xmlns="http://www.w3.org/2000/svg">
<path fill-rule="evenodd" clip-rule="evenodd" d="M10.5024 14.4218L3.26943 6.68282C2.99745 6.39181 2.92411 5.96714 3.08274 5.60177C3.24136 5.23639 3.6017 5 4.00002 5H28C28.3573 5 28.6874 5.1906 28.866 5.5C29.0447 5.8094 29.0447 6.1906 28.866 6.5L16.866 27.2846C16.6669 27.6296 16.282 27.8234 15.8863 27.7781C15.4905 27.7328 15.1594 27.4569 15.0434 27.0759L11.9578 16.9427C12.0734 16.9095 12.1868 16.8619 12.2957 16.799L21.8219 11.299C22.5394 10.8848 22.7852 9.96745 22.371 9.25001C21.9568 8.53257 21.0394 8.28675 20.3219 8.70097L10.7957 14.201C10.6868 14.2638 10.5888 14.3382 10.5024 14.4218Z" fill="#808080"/>
</svg>
