<svg width="32" height="32" viewBox="0 0 32 32" fill="none" xmlns="http://www.w3.org/2000/svg">
<path fill-rule="evenodd" clip-rule="evenodd" d="M7.4551 7.5L12.6937 13.1051L22.402 7.5L7.4551 7.5ZM23.902 10.0981L14.1937 15.7031L16.4285 23.0424L23.902 10.0981ZM11.078 15.7699L2.90415 7.02423C2.49618 6.58772 2.38617 5.95071 2.62411 5.40265C2.86205 4.85459 3.40255 4.5 4.00003 4.5L28 4.5C28.5359 4.5 29.0311 4.7859 29.2991 5.25C29.567 5.7141 29.567 6.2859 29.2991 6.75L17.2991 27.5346C17.0003 28.052 16.423 28.3428 15.8294 28.2749C15.2358 28.2069 14.7391 27.7931 14.5651 27.2215L11.078 15.7699Z" fill="#808080"/>
</svg>
