<svg width="32" height="32" viewBox="0 0 32 32" fill="none" xmlns="http://www.w3.org/2000/svg">
<path fill-rule="evenodd" clip-rule="evenodd" d="M5.79735 3.19648C6.11741 2.95937 6.54767 2.93482 6.89262 3.13398L27.6772 15.134C27.9866 15.3126 28.1772 15.6427 28.1772 16C28.1772 16.3573 27.9866 16.6874 27.6772 16.866L6.89263 28.866C6.54767 29.0652 6.11742 29.0406 5.79736 28.8035C5.47729 28.5664 5.32847 28.162 5.41851 27.7739L7.80259 17.5H18.0002C18.8287 17.5 19.5002 16.8284 19.5002 16C19.5002 15.1716 18.8287 14.5 18.0002 14.5H7.80258L5.41851 4.22605C5.32847 3.83804 5.47729 3.43359 5.79735 3.19648Z" fill="#808080"/>
</svg>
