<svg width="32" height="32" viewBox="0 0 32 32" fill="none" xmlns="http://www.w3.org/2000/svg">
<path fill-rule="evenodd" clip-rule="evenodd" d="M6.26888 2.69024C6.75947 2.41639 7.36196 2.43966 7.82996 2.75053L25.83 14.7071C26.3384 15.0448 26.5915 15.6568 26.47 16.255C26.3486 16.8531 25.8768 17.318 25.277 17.4307L19.6946 18.4795L24.0774 25.6842C24.2875 26.0295 24.3493 26.445 24.2489 26.8365C24.1485 27.228 23.8943 27.5624 23.544 27.7639L19.1358 30.3002C18.4301 30.7062 17.5294 30.4751 17.1063 29.7796L12.6517 22.4569L8.85678 26.7346C8.44946 27.1937 7.8035 27.3584 7.22607 27.1503C6.64865 26.9421 6.25629 26.4032 6.23555 25.7898L5.50086 4.05067C5.48188 3.48914 5.7783 2.9641 6.26888 2.69024ZM8.59758 6.86196L9.10689 21.9321L11.7555 18.9466C12.0714 18.5905 12.5376 18.4055 13.0117 18.448C13.4859 18.4906 13.9117 18.7557 14.1591 19.1625L18.9085 26.9698L20.7156 25.9302L16.0042 18.1854C15.7482 17.7646 15.7151 17.245 15.9156 16.7951C16.1162 16.3453 16.5247 16.0225 17.0088 15.9316L21.0956 15.1638L8.59758 6.86196Z" fill="#808080"/>
</svg>
