<svg width="32" height="32" viewBox="0 0 32 32" fill="none" xmlns="http://www.w3.org/2000/svg">
<path d="M24.5 9C24.5 9.82843 23.8284 10.5 23 10.5H9C8.17157 10.5 7.5 9.82843 7.5 9C7.5 8.17157 8.17157 7.5 9 7.5H23C23.8284 7.5 24.5 8.17157 24.5 9Z" fill="#808080"/>
<path fill-rule="evenodd" clip-rule="evenodd" d="M11 12.5C9.067 12.5 7.5 14.067 7.5 16V21C7.5 22.933 9.067 24.5 11 24.5H21C22.933 24.5 24.5 22.933 24.5 21V16C24.5 14.067 22.933 12.5 21 12.5H11ZM10.5 16C10.5 15.7239 10.7239 15.5 11 15.5H21C21.2761 15.5 21.5 15.7239 21.5 16V21C21.5 21.2761 21.2761 21.5 21 21.5H11C10.7239 21.5 10.5 21.2761 10.5 21V16Z" fill="#808080"/>
<path fill-rule="evenodd" clip-rule="evenodd" d="M2.5 8C2.5 4.96243 4.96243 2.5 8 2.5H24C27.0376 2.5 29.5 4.96243 29.5 8V24C29.5 27.0376 27.0376 29.5 24 29.5H8C4.96243 29.5 2.5 27.0376 2.5 24V8ZM8 5.5C6.61929 5.5 5.5 6.61929 5.5 8V24C5.5 25.3807 6.61929 26.5 8 26.5H24C25.3807 26.5 26.5 25.3807 26.5 24V8C26.5 6.61929 25.3807 5.5 24 5.5H8Z" fill="#808080"/>
</svg>
