<svg width="32" height="32" viewBox="0 0 32 32" fill="none" xmlns="http://www.w3.org/2000/svg">
<path d="M8 5.5C6.61929 5.5 5.5 6.61929 5.5 8V24C5.5 25.3807 6.61929 26.5 8 26.5H16C16.8284 26.5 17.5 27.1716 17.5 28C17.5 28.8284 16.8284 29.5 16 29.5H8C4.96243 29.5 2.5 27.0376 2.5 24V8C2.5 4.96243 4.96243 2.5 8 2.5H24C27.0376 2.5 29.5 4.96243 29.5 8V16C29.5 16.8284 28.8284 17.5 28 17.5C27.1716 17.5 26.5 16.8284 26.5 16V8C26.5 6.61929 25.3807 5.5 24 5.5H8Z" fill="#808080"/>
<path d="M24.5 8C24.5 8.82843 23.8284 9.5 23 9.5H9C8.17157 9.5 7.5 8.82843 7.5 8C7.5 7.17157 8.17157 6.5 9 6.5H23C23.8284 6.5 24.5 7.17157 24.5 8Z" fill="#808080"/>
<path d="M25.5 19C25.5 18.1716 24.8284 17.5 24 17.5C23.1716 17.5 22.5 18.1716 22.5 19V22.5H19C18.1716 22.5 17.5 23.1716 17.5 24C17.5 24.8284 18.1716 25.5 19 25.5H22.5V29C22.5 29.8284 23.1716 30.5 24 30.5C24.8284 30.5 25.5 29.8284 25.5 29V25.5H29C29.8284 25.5 30.5 24.8284 30.5 24C30.5 23.1716 29.8284 22.5 29 22.5H25.5V19Z" fill="#808080"/>
<path d="M9.5 14C9.5 13.7239 9.72386 13.5 10 13.5H22C22.2761 13.5 22.5 13.7239 22.5 14V15C22.5 15.8284 23.1716 16.5 24 16.5C24.8284 16.5 25.5 15.8284 25.5 15V14C25.5 12.067 23.933 10.5 22 10.5H10C8.067 10.5 6.5 12.067 6.5 14V22C6.5 23.933 8.067 25.5 10 25.5H15C15.8284 25.5 16.5 24.8284 16.5 24C16.5 23.1716 15.8284 22.5 15 22.5H10C9.72386 22.5 9.5 22.2761 9.5 22V14Z" fill="#808080"/>
</svg>
