<svg width="32" height="32" viewBox="0 0 32 32" fill="none" xmlns="http://www.w3.org/2000/svg">
<path d="M23 3H9C7.89543 3 7 3.89543 7 5V11H25V5C25 3.89543 24.1046 3 23 3Z" stroke="#808080" stroke-width="3" stroke-miterlimit="10" stroke-linecap="round" stroke-linejoin="round"/>
<path d="M23 29H9C7.89543 29 7 28.1046 7 27V19C7 17.8954 7.89543 17 9 17H23C24.1046 17 25 17.8954 25 19V27C25 28.1046 24.1046 29 23 29Z" stroke="#808080" stroke-width="3" stroke-miterlimit="10" stroke-linecap="round" stroke-linejoin="round"/>
<path fill-rule="evenodd" clip-rule="evenodd" d="M7 22.5H5C3.067 22.5 1.5 20.933 1.5 19V13C1.5 11.067 3.067 9.5 5 9.5H27C28.933 9.5 30.5 11.067 30.5 13V19C30.5 20.933 28.933 22.5 27 22.5H25V19.5H27C27.2761 19.5 27.5 19.2761 27.5 19V13C27.5 12.7239 27.2761 12.5 27 12.5H5C4.72386 12.5 4.5 12.7239 4.5 13V19C4.5 19.2761 4.72386 19.5 5 19.5H7V22.5Z" fill="#808080"/>
<path d="M12 21H20" stroke="#808080" stroke-width="3" stroke-miterlimit="10" stroke-linecap="round" stroke-linejoin="round"/>
<path d="M12 25H20" stroke="#808080" stroke-width="3" stroke-miterlimit="10" stroke-linecap="round" stroke-linejoin="round"/>
</svg>
