<svg width="32" height="32" viewBox="0 0 32 32" fill="none" xmlns="http://www.w3.org/2000/svg">
<path d="M25.5 19C25.5 18.1716 24.8284 17.5 24 17.5C23.1716 17.5 22.5 18.1716 22.5 19V22.5H19C18.1716 22.5 17.5 23.1716 17.5 24C17.5 24.8284 18.1716 25.5 19 25.5H22.5V29C22.5 29.8284 23.1716 30.5 24 30.5C24.8284 30.5 25.5 29.8284 25.5 29V25.5H29C29.8284 25.5 30.5 24.8284 30.5 24C30.5 23.1716 29.8284 22.5 29 22.5H25.5V19Z" fill="#808080"/>
<path fill-rule="evenodd" clip-rule="evenodd" d="M15.9971 17.5C11.4052 17.5012 7.49865 20.4509 6.07491 24.5632C5.91114 25.0362 6.01926 25.4551 6.34345 25.8148C6.69474 26.2045 7.29871 26.5 7.99997 26.5H16C16.8284 26.5 17.5 27.1716 17.5 28C17.5 28.8284 16.8284 29.5 16 29.5H7.99997C6.49209 29.5 5.06344 28.8755 4.11507 27.8233C3.13959 26.7411 2.68103 25.1962 3.24001 23.5817C4.51056 19.9119 7.32002 16.959 10.898 15.4973C9.42297 14.1277 8.5 12.1716 8.5 10C8.5 5.85786 11.8579 2.5 16 2.5C20.1421 2.5 23.5 5.85786 23.5 10C23.5 14.1421 20.1421 17.5 16 17.5L15.9971 17.5ZM11.5 10C11.5 7.51472 13.5147 5.5 16 5.5C18.4853 5.5 20.5 7.51472 20.5 10C20.5 12.4853 18.4853 14.5 16 14.5C13.5147 14.5 11.5 12.4853 11.5 10Z" fill="#808080"/>
</svg>
