<svg width="32" height="32" viewBox="0 0 32 32" fill="none" xmlns="http://www.w3.org/2000/svg">
<path fill-rule="evenodd" clip-rule="evenodd" d="M16 1.5C7.99187 1.5 1.5 7.99187 1.5 16C1.5 24.0081 7.99187 30.5 16 30.5C24.0081 30.5 30.5 24.0081 30.5 16C30.5 7.99187 24.0081 1.5 16 1.5ZM4.5 16C4.5 9.64873 9.64873 4.5 16 4.5C22.3513 4.5 27.5 9.64873 27.5 16C27.5 18.273 26.8405 20.392 25.7025 22.1761C24.4646 20.502 22.771 19.2024 20.7819 18.4028C21.8486 17.2449 22.5001 15.6985 22.5001 14C22.5001 10.4102 19.5899 7.5 16 7.5C12.4102 7.5 9.5 10.4102 9.5 14C9.5 15.6985 10.1515 17.2449 11.2182 18.4028C9.229 19.2024 7.53543 20.502 6.2975 22.1761C5.15946 20.392 4.5 18.273 4.5 16ZM8.31141 24.5521C10.3486 26.3848 13.0441 27.5 16 27.5C18.956 27.5 21.6514 26.3847 23.6886 24.552C22.2019 22.1195 19.4386 20.5066 16.021 20.5L16 20.5001L15.979 20.5C12.5614 20.5066 9.79813 22.1196 8.31141 24.5521ZM16 10.5C14.067 10.5 12.5 12.067 12.5 14C12.5 15.9272 14.0576 17.4906 15.9826 17.5L16 17.5L16.0174 17.5C17.9424 17.4906 19.5001 15.9272 19.5001 14C19.5001 12.067 17.933 10.5 16 10.5Z" fill="#808080"/>
</svg>
