<svg width="32" height="32" viewBox="0 0 32 32" fill="none" xmlns="http://www.w3.org/2000/svg">
<path d="M11 20.5C10.1716 20.5 9.5 21.1716 9.5 22C9.5 22.8284 10.1716 23.5 11 23.5H21C21.8284 23.5 22.5 22.8284 22.5 22C22.5 21.1716 21.8284 20.5 21 20.5H11Z" fill="#808080"/>
<path d="M9.5 16C9.5 15.1716 10.1716 14.5 11 14.5H21C21.8284 14.5 22.5 15.1716 22.5 16C22.5 16.8284 21.8284 17.5 21 17.5H11C10.1716 17.5 9.5 16.8284 9.5 16Z" fill="#808080"/>
<path fill-rule="evenodd" clip-rule="evenodd" d="M16 1.5C13.7909 1.5 12 3.29086 12 5.5H9C5.96243 5.5 3.5 7.96243 3.5 11V25C3.5 28.0376 5.96243 30.5 9 30.5H23C26.0376 30.5 28.5 28.0376 28.5 25V11C28.5 7.96244 26.0376 5.5 23 5.5H20C20 3.29086 18.2091 1.5 16 1.5ZM15 5.5C15 4.94772 15.4477 4.5 16 4.5C16.5523 4.5 17 4.94772 17 5.5C17 6.05228 16.5523 6.5 16 6.5C15.4477 6.5 15 6.05228 15 5.5ZM18.6458 8.5C18.3094 8.79693 17.9226 9.03816 17.5 9.20924V11C17.5 11.8284 16.8284 12.5 16 12.5C15.1716 12.5 14.5 11.8284 14.5 11V9.20924C14.0774 9.03816 13.6906 8.79693 13.3542 8.5H9C7.61929 8.5 6.5 9.61929 6.5 11V25C6.5 26.3807 7.61929 27.5 9 27.5H23C24.3807 27.5 25.5 26.3807 25.5 25V11C25.5 9.61929 24.3807 8.5 23 8.5H18.6458Z" fill="#808080"/>
</svg>
