<svg width="32" height="32" viewBox="0 0 32 32" fill="none" xmlns="http://www.w3.org/2000/svg">
<path d="M11.5 15C11.5 14.1716 12.1716 13.5 13 13.5H19C19.8284 13.5 20.5 14.1716 20.5 15C20.5 15.8284 19.8284 16.5 19 16.5H13C12.1716 16.5 11.5 15.8284 11.5 15Z" fill="#808080"/>
<path fill-rule="evenodd" clip-rule="evenodd" d="M28.5 11.1632C29.6825 10.6015 30.5 9.3962 30.5 8V6C30.5 4.067 28.933 2.5 27 2.5H5C3.067 2.5 1.5 4.067 1.5 6V8C1.5 9.3962 2.31753 10.6015 3.5 11.1632V24C3.5 27.0376 5.96243 29.5 9 29.5H23C26.0376 29.5 28.5 27.0376 28.5 24V11.1632ZM4.5 8C4.5 8.27614 4.72386 8.5 5 8.5H27C27.2761 8.5 27.5 8.27614 27.5 8V6C27.5 5.72386 27.2761 5.5 27 5.5H5C4.72386 5.5 4.5 5.72386 4.5 6V8ZM25.5 11.5H6.5V24C6.5 25.3807 7.61929 26.5 9 26.5H23C24.3807 26.5 25.5 25.3807 25.5 24V11.5Z" fill="#808080"/>
</svg>
