<svg width="32" height="32" viewBox="0 0 32 32" fill="none" xmlns="http://www.w3.org/2000/svg">
<path d="M21.0607 6.93934C20.4749 6.35355 19.5251 6.35355 18.9393 6.93934C18.3536 7.52513 18.3536 8.47487 18.9393 9.06066L24.3787 14.5H4C3.17157 14.5 2.5 15.1716 2.5 16C2.5 16.8284 3.17157 17.5 4 17.5H24.3787L18.9393 22.9393C18.3536 23.5251 18.3536 24.4749 18.9393 25.0607C19.5251 25.6464 20.4749 25.6464 21.0607 25.0607L29.0607 17.0607C29.3536 16.7678 29.5 16.3839 29.5 16C29.5 15.7966 29.4595 15.6027 29.3862 15.4258C29.313 15.2489 29.2045 15.0832 29.0607 14.9393L21.0607 6.93934Z" fill="#808080"/>
</svg>
