<svg width="32" height="32" viewBox="0 0 32 32" fill="none" xmlns="http://www.w3.org/2000/svg">
<path d="M11 14.5C10.1716 14.5 9.5 15.1716 9.5 16C9.5 16.8284 10.1716 17.5 11 17.5H21C21.8284 17.5 22.5 16.8284 22.5 16C22.5 15.1716 21.8284 14.5 21 14.5H11Z" fill="#808080"/>
<path d="M9.5 10C9.5 9.17157 10.1716 8.5 11 8.5H21C21.8284 8.5 22.5 9.17157 22.5 10C22.5 10.8284 21.8284 11.5 21 11.5H11C10.1716 11.5 9.5 10.8284 9.5 10Z" fill="#808080"/>
<path d="M11 20.5C10.1716 20.5 9.5 21.1716 9.5 22C9.5 22.8284 10.1716 23.5 11 23.5H21C21.8284 23.5 22.5 22.8284 22.5 22C22.5 21.1716 21.8284 20.5 21 20.5H11Z" fill="#808080"/>
<path fill-rule="evenodd" clip-rule="evenodd" d="M23 1.5C26.0376 1.5 28.5 3.96243 28.5 7V25C28.5 28.0376 26.0376 30.5 23 30.5H9C5.96243 30.5 3.5 28.0376 3.5 25V7C3.5 3.96243 5.96243 1.5 9 1.5H23ZM25.5 7C25.5 5.61929 24.3807 4.5 23 4.5H9C7.61929 4.5 6.5 5.61929 6.5 7V25C6.5 26.3807 7.61929 27.5 9 27.5H23C24.3807 27.5 25.5 26.3807 25.5 25V7Z" fill="#808080"/>
</svg>
