<svg width="32" height="32" viewBox="0 0 32 32" fill="none" xmlns="http://www.w3.org/2000/svg">
<path fill-rule="evenodd" clip-rule="evenodd" d="M16.2509 9.50274C13.9769 9.45312 11.7393 10.0789 9.82106 11.301C7.90278 12.5231 6.38997 14.2866 5.47393 16.3684C4.55789 18.4503 4.27976 20.757 4.67472 22.997C4.81857 23.8128 4.27382 24.5908 3.45798 24.7346C2.64214 24.8785 1.86415 24.3337 1.7203 23.5179C1.2223 20.6936 1.57298 17.7851 2.72799 15.1602C3.883 12.5352 5.79046 10.3117 8.20916 8.77083C10.6279 7.22994 13.4492 6.44089 16.3163 6.50345C19.1835 6.56601 21.9677 7.47738 24.3169 9.1223C24.9955 9.59746 25.1604 10.5328 24.6852 11.2114C24.2101 11.89 23.2747 12.0549 22.5961 11.5798C20.733 10.2752 18.5248 9.55236 16.2509 9.50274ZM23.0607 13.9393C23.6464 14.5251 23.6464 15.4749 23.0607 16.0607L17.0607 22.0607C16.4749 22.6464 15.5251 22.6464 14.9393 22.0607C14.3536 21.4749 14.3536 20.5251 14.9393 19.9393L20.9393 13.9393C21.5251 13.3536 22.4749 13.3536 23.0607 13.9393ZM27.8773 12.6831C27.4021 12.0045 26.4668 11.8396 25.7882 12.3147C25.1096 12.7899 24.9447 13.7252 25.4198 14.4038C26.2861 15.6409 26.9001 17.0365 27.227 18.5109C27.5539 19.9853 27.5871 21.5097 27.3249 22.9969C27.181 23.8128 27.7258 24.5908 28.5416 24.7346C29.3575 24.8785 30.1354 24.3337 30.2793 23.5179C30.61 21.6426 30.568 19.7206 30.1559 17.8616C29.7437 16.0026 28.9695 14.2429 27.8773 12.6831Z" fill="#808080"/>
</svg>
