<svg width="32" height="32" viewBox="0 0 32 32" fill="none" xmlns="http://www.w3.org/2000/svg">
<path fill-rule="evenodd" clip-rule="evenodd" d="M5.5 15C5.5 9.7533 9.75329 5.5 15 5.5C20.2467 5.5 24.5 9.7533 24.5 15C24.5 20.2467 20.2467 24.5 15 24.5C9.75329 24.5 5.5 20.2467 5.5 15ZM15 2.5C8.09644 2.5 2.5 8.09644 2.5 15C2.5 21.9036 8.09644 27.5 15 27.5C17.9112 27.5 20.59 26.5048 22.7147 24.836L26.9393 29.0607C27.5251 29.6464 28.4749 29.6464 29.0607 29.0607C29.6464 28.4749 29.6464 27.5251 29.0607 26.9393L24.836 22.7147C26.5048 20.59 27.5 17.9112 27.5 15C27.5 8.09644 21.9036 2.5 15 2.5Z" fill="#808080"/>
</svg>
