<svg width="32" height="32" viewBox="0 0 32 32" fill="none" xmlns="http://www.w3.org/2000/svg">
<path fill-rule="evenodd" clip-rule="evenodd" d="M16 9.5C12.4101 9.5 9.5 12.4101 9.5 16C9.5 19.5899 12.4101 22.5 16 22.5C19.5899 22.5 22.5 19.5899 22.5 16C22.5 12.4101 19.5899 9.5 16 9.5ZM12.5 16C12.5 14.067 14.067 12.5 16 12.5C17.933 12.5 19.5 14.067 19.5 16C19.5 17.933 17.933 19.5 16 19.5C14.067 19.5 12.5 17.933 12.5 16Z" fill="#808080"/>
<path fill-rule="evenodd" clip-rule="evenodd" d="M18.9815 3.08734C17.5572 0.970891 14.4428 0.970883 13.0185 3.08734L11.7732 4.93781C11.6399 5.13588 11.401 5.23485 11.1667 5.18905L8.97762 4.76112C6.47395 4.27169 4.27168 6.47394 4.76112 8.97762L5.18905 11.1667C5.23485 11.401 5.13587 11.6399 4.93781 11.7732L3.08734 13.0185C0.970891 14.4428 0.970883 17.5572 3.08734 18.9815L4.93781 20.2268C5.13588 20.3601 5.23485 20.599 5.18905 20.8333L4.76112 23.0224C4.27169 25.5261 6.47394 27.7283 8.97762 27.2389L11.1667 26.811C11.401 26.7652 11.6399 26.8641 11.7732 27.0622L13.0185 28.9127C14.4428 31.0291 17.5572 31.0291 18.9815 28.9127L20.2268 27.0622C20.3601 26.8641 20.599 26.7652 20.8333 26.811L23.0224 27.2389C25.5261 27.7283 27.7283 25.5261 27.2389 23.0224L26.811 20.8333C26.7652 20.599 26.8641 20.3601 27.0622 20.2268L28.9127 18.9815C31.0291 17.5572 31.0291 14.4428 28.9127 13.0185L27.0622 11.7732C26.8641 11.6399 26.7652 11.401 26.811 11.1667L27.2389 8.97762C27.7283 6.47395 25.5261 4.27168 23.0224 4.76112L20.8333 5.18905C20.599 5.23485 20.3601 5.13588 20.2268 4.93781L18.9815 3.08734ZM15.5074 4.76226C15.7427 4.41258 16.2573 4.41258 16.4926 4.76227L17.7379 6.61274C18.5446 7.8115 19.9908 8.41053 21.4089 8.13332L23.5979 7.70539C24.0116 7.62452 24.3755 7.98839 24.2946 8.40206L23.8667 10.5911C23.5895 12.0092 24.1885 13.4554 25.3873 14.2621L27.2377 15.5074C27.5874 15.7427 27.5874 16.2573 27.2377 16.4926L25.3873 17.7379C24.1885 18.5446 23.5895 19.9908 23.8667 21.4089L24.2946 23.5979C24.3755 24.0116 24.0116 24.3755 23.5979 24.2946L21.4089 23.8667C19.9908 23.5895 18.5446 24.1885 17.7379 25.3873L16.4926 27.2377C16.2573 27.5874 15.7427 27.5874 15.5074 27.2377L14.2621 25.3873C13.4554 24.1885 12.0092 23.5895 10.5911 23.8667L8.40205 24.2946C7.98839 24.3755 7.62452 24.0116 7.70539 23.5979L8.13332 21.4089C8.41053 19.9908 7.81149 18.5446 6.61274 17.7379L4.76226 16.4926C4.41258 16.2573 4.41258 15.7427 4.76227 15.5074L6.61274 14.2621C7.8115 13.4554 8.41053 12.0092 8.13332 10.5911L7.70539 8.40205C7.62452 7.98839 7.98839 7.62452 8.40206 7.70539L10.5911 8.13332C12.0092 8.41053 13.4554 7.81149 14.2621 6.61274L15.5074 4.76226Z" fill="#808080"/>
</svg>
