<svg width="32" height="32" viewBox="0 0 32 32" fill="none" xmlns="http://www.w3.org/2000/svg">
<path fill-rule="evenodd" clip-rule="evenodd" d="M9.50031 12C9.50031 6.20101 14.2013 1.5 20.0003 1.5C21.4183 1.5 22.7743 1.78192 24.0123 2.29417C24.5341 2.51004 24.8904 3.00059 24.9343 3.5635C24.9782 4.12641 24.7024 4.6663 24.2204 4.9605C24.1218 5.02074 24.0274 5.09422 23.9396 5.18198L23.1459 4.38824L23.9396 5.18198L19.5003 9.62132V12.5H22.379L26.8183 8.06066C26.9061 7.9729 26.9796 7.87854 27.0398 7.77986C27.334 7.29795 27.8739 7.02206 28.4368 7.066C28.9997 7.10993 29.4903 7.46624 29.7061 7.98796C30.2184 9.22602 30.5003 10.582 30.5003 12C30.5003 17.799 25.7993 22.5 20.0003 22.5C18.6978 22.5 17.4483 22.2622 16.2947 21.827L9.06096 29.0607C7.37061 30.751 4.63 30.751 2.93964 29.0607C1.24929 27.3703 1.24929 24.6297 2.93964 22.9393L10.1733 15.7056C9.73813 14.552 9.50031 13.3025 9.50031 12ZM20.3701 4.50892L16.9396 7.93934C16.6583 8.22064 16.5003 8.60217 16.5003 9V14C16.5003 14.8284 17.1719 15.5 18.0003 15.5H23.0003C23.3981 15.5 23.7797 15.342 24.061 15.0607L27.4914 11.6302C27.4973 11.7527 27.5003 11.876 27.5003 12C27.5003 16.1421 24.1424 19.5 20.0003 19.5C18.786 19.5 17.6431 19.2125 16.6321 18.7033C16.054 18.4121 15.3543 18.5246 14.8967 18.9823L6.93964 26.9393C6.42086 27.4581 5.57975 27.4581 5.06096 26.9393C4.54218 26.4206 4.54218 25.5794 5.06096 25.0607L4.0003 24L5.06096 25.0607L13.018 17.1036C13.4757 16.646 13.5882 15.9463 13.297 15.3682C12.7878 14.3572 12.5003 13.2143 12.5003 12C12.5003 7.85786 15.8582 4.5 20.0003 4.5C20.1243 4.5 20.2476 4.503 20.3701 4.50892Z" fill="#808080"/>
</svg>
