<svg width="32" height="32" viewBox="0 0 32 32" fill="none" xmlns="http://www.w3.org/2000/svg">
<path fill-rule="evenodd" clip-rule="evenodd" d="M17.426 3.61422C17.9865 3.38205 18.6317 3.51039 19.0607 3.93938L30.0607 14.9394C30.6464 15.5252 30.6464 16.4749 30.0607 17.0607L19.0607 28.0607C18.6317 28.4897 17.9865 28.618 17.426 28.3859C16.8655 28.1537 16.5 27.6067 16.5 27V21.5H7C5.61929 21.5 4.5 22.6193 4.5 24C4.5 24.8285 3.82843 25.5 3 25.5C2.17157 25.5 1.5 24.8285 1.5 24C1.5 16.5442 7.54416 10.5 15 10.5H16.5V5.00004C16.5 4.39335 16.8655 3.8464 17.426 3.61422ZM18 13.5L15 13.5C11.1795 13.5 7.83565 15.5405 5.9986 18.591C6.32332 18.5313 6.65801 18.5 7 18.5L18 18.5C18.8284 18.5 19.5 19.1716 19.5 20V23.3787L26.8787 16L19.5 8.62137V12C19.5 12.0518 19.4974 12.103 19.4923 12.1534C19.4154 12.9098 18.7766 13.5 18 13.5Z" fill="#808080"/>
</svg>
