<svg width="32" height="32" viewBox="0 0 32 32" fill="none" xmlns="http://www.w3.org/2000/svg">
<path fill-rule="evenodd" clip-rule="evenodd" d="M23 1.5C19.9624 1.5 17.5 3.96243 17.5 7C17.5 7.7035 17.6321 8.37614 17.8728 8.9945L12.9247 12.1468C11.9267 11.1304 10.537 10.5 9 10.5C5.96243 10.5 3.5 12.9624 3.5 16C3.5 19.0376 5.96243 21.5 9 21.5C10.1245 21.5 11.1702 21.1625 12.0413 20.5833L17.557 24.0972L17.5722 24.1068C17.5247 24.3975 17.5 24.6959 17.5 25C17.5 28.0376 19.9624 30.5 23 30.5C26.0376 30.5 28.5 28.0376 28.5 25C28.5 21.9624 26.0376 19.5 23 19.5C21.3518 19.5 19.873 20.225 18.8649 21.3734L14.0072 18.2787C14.3237 17.5844 14.5 16.8128 14.5 16C14.5 15.5828 14.4536 15.1765 14.3656 14.7859L19.6907 11.3934C20.6115 12.0881 21.7577 12.5 23 12.5C26.0376 12.5 28.5 10.0376 28.5 7C28.5 3.96243 26.0376 1.5 23 1.5ZM20.5 7C20.5 5.61929 21.6193 4.5 23 4.5C24.3807 4.5 25.5 5.61929 25.5 7C25.5 8.38071 24.3807 9.5 23 9.5C21.6193 9.5 20.5 8.38071 20.5 7ZM9 13.5C7.61929 13.5 6.5 14.6193 6.5 16C6.5 17.3807 7.61929 18.5 9 18.5C10.3807 18.5 11.5 17.3807 11.5 16C11.5 14.6193 10.3807 13.5 9 13.5ZM23 22.5C21.6193 22.5 20.5 23.6193 20.5 25C20.5 26.3807 21.6193 27.5 23 27.5C24.3807 27.5 25.5 26.3807 25.5 25C25.5 23.6193 24.3807 22.5 23 22.5Z" fill="#808080"/>
</svg>
