<svg width="32" height="32" viewBox="0 0 32 32" fill="none" xmlns="http://www.w3.org/2000/svg">
<path fill-rule="evenodd" clip-rule="evenodd" d="M14.574 3.61422C14.0135 3.38205 13.3683 3.51039 12.9393 3.93938L1.93934 14.9394C1.35356 15.5252 1.35356 16.4749 1.93934 17.0607L12.9393 28.0607C13.3683 28.4897 14.0135 28.618 14.574 28.3859C15.1345 28.1537 15.5 27.6067 15.5 27V21.5H25C26.3807 21.5 27.5 22.6193 27.5 24C27.5 24.8285 28.1716 25.5 29 25.5C29.8284 25.5 30.5 24.8285 30.5 24C30.5 16.5442 24.4558 10.5 17 10.5H15.5V5.00004C15.5 4.39335 15.1345 3.8464 14.574 3.61422ZM14 13.5H17C20.8205 13.5 24.1643 15.5405 26.0014 18.591C25.6767 18.5313 25.342 18.5 25 18.5L14 18.5C13.2234 18.5 12.5846 19.0903 12.5077 19.8467C12.5026 19.8971 12.5 19.9483 12.5 20V23.3787L5.12132 16L12.5 8.62137V12C12.5 12.8285 13.1716 13.5 14 13.5Z" fill="#808080"/>
</svg>
