<svg width="33" height="32" viewBox="0 0 33 32" fill="none" xmlns="http://www.w3.org/2000/svg">
<path fill-rule="evenodd" clip-rule="evenodd" d="M15.074 3.61422C14.5135 3.38205 13.8683 3.51039 13.4393 3.93938L2.43934 14.9394C1.85356 15.5252 1.85356 16.4749 2.43934 17.0607L13.4393 28.0607C13.8683 28.4897 14.5135 28.618 15.074 28.3859C15.6345 28.1537 16 27.6067 16 27V21.5H25.5C26.8807 21.5 28 22.6193 28 24C28 24.8285 28.6716 25.5 29.5 25.5C30.3284 25.5 31 24.8285 31 24C31 16.5442 24.9558 10.5 17.5 10.5H16V5.00004C16 4.39335 15.6345 3.8464 15.074 3.61422ZM14.5 13.5H17.5C21.3205 13.5 24.6643 15.5405 26.5014 18.591C26.1767 18.5313 25.842 18.5 25.5 18.5L14.5 18.5C13.7234 18.5 13.0846 19.0903 13.0077 19.8467C13.0026 19.8971 13 19.9483 13 20V23.3787L5.62132 16L13 8.62137V12C13 12.8285 13.6716 13.5 14.5 13.5Z" fill="#808080"/>
</svg>
