<svg width="32" height="32" viewBox="0 0 32 32" fill="none" xmlns="http://www.w3.org/2000/svg">
<path fill-rule="evenodd" clip-rule="evenodd" d="M2.5 8C2.5 4.96243 4.96243 2.5 8 2.5H24C27.0376 2.5 29.5 4.96243 29.5 8V24C29.5 27.0376 27.0376 29.5 24 29.5H8C4.96243 29.5 2.5 27.0376 2.5 24V8ZM5.5 15.5V24C5.5 25.3807 6.61929 26.5 8 26.5H10.5L10.5 15.5H5.5ZM10.5 12.5H5.5V8C5.5 6.61929 6.61929 5.5 8 5.5H10.5L10.5 12.5ZM13.5 15.5L13.5 26.5H24C25.3807 26.5 26.5 25.3807 26.5 24V15.5H13.5ZM26.5 12.5H13.5V5.5H24C25.3807 5.5 26.5 6.61929 26.5 8V12.5Z" fill="#808080"/>
</svg>
