<svg width="32" height="32" viewBox="0 0 32 32" fill="none" xmlns="http://www.w3.org/2000/svg">
<path fill-rule="evenodd" clip-rule="evenodd" d="M23.5 15.9951C23.4994 15.0119 23.3054 14.0383 22.9291 13.1299C22.5522 12.2199 21.9997 11.3931 21.3033 10.6967C20.6069 10.0003 19.7801 9.44781 18.8701 9.0709C17.9602 8.69399 16.9849 8.5 16 8.5C14.5166 8.5 13.0666 8.93987 11.8332 9.76398C10.5999 10.5881 9.63856 11.7594 9.07091 13.1299C8.50325 14.5003 8.35472 16.0083 8.64411 17.4632C8.9335 18.918 9.64781 20.2544 10.6967 21.3033C11.7456 22.3522 13.082 23.0665 14.5368 23.3559C15.9917 23.6453 17.4997 23.4968 18.8701 22.9291C20.2406 22.3614 21.4119 21.4001 22.236 20.1668C23.0601 18.9334 23.5 17.4834 23.5 16L23.5 15.9951ZM14.5 11.7574C14.149 11.8815 13.8128 12.0493 13.4999 12.2584C12.7599 12.7529 12.1831 13.4557 11.8425 14.2779C11.502 15.1002 11.4128 16.005 11.5865 16.8779C11.7601 17.7508 12.1887 18.5526 12.818 19.182C13.4474 19.8113 14.2492 20.2399 15.1221 20.4135C15.995 20.5872 16.8998 20.4981 17.7221 20.1575C18.5443 19.8169 19.2472 19.2401 19.7416 18.5001C19.9507 18.1872 20.1185 17.8511 20.2426 17.5H16C15.9953 17.5 15.9906 17.5 15.9858 17.4999C15.1639 17.4923 14.5 16.8237 14.5 16V11.7574ZM17.5 11.7574L17.5 14.5H20.2426C20.2162 14.4253 20.1878 14.3513 20.1575 14.2779C19.9313 13.732 19.5998 13.2359 19.182 12.818C18.7641 12.4002 18.268 12.0687 17.7221 11.8425C17.6487 11.8122 17.5747 11.7838 17.5 11.7574Z" fill="#808080"/>
<path fill-rule="evenodd" clip-rule="evenodd" d="M2.5 8C2.5 4.96243 4.96243 2.5 8 2.5H24C27.0376 2.5 29.5 4.96243 29.5 8V24C29.5 27.0376 27.0376 29.5 24 29.5H8C4.96243 29.5 2.5 27.0376 2.5 24V8ZM8 5.5C6.61929 5.5 5.5 6.61929 5.5 8V24C5.5 25.3807 6.61929 26.5 8 26.5H24C25.3807 26.5 26.5 25.3807 26.5 24V8C26.5 6.61929 25.3807 5.5 24 5.5H8Z" fill="#808080"/>
</svg>
