<svg width="32" height="32" viewBox="0 0 32 32" fill="none" xmlns="http://www.w3.org/2000/svg">
<path fill-rule="evenodd" clip-rule="evenodd" d="M21.1019 15.4973C22.577 14.1277 23.5 12.1716 23.5 10C23.5 5.85786 20.1421 2.5 16 2.5C11.8579 2.5 8.5 5.85786 8.5 10C8.5 12.1716 9.42298 14.1277 10.8981 15.4973C7.32004 16.959 4.51058 19.9119 3.24004 23.5817C2.68106 25.1962 3.13962 26.7411 4.1151 27.8233C5.06347 28.8755 6.49212 29.5 8 29.5H24C25.5079 29.5 26.9365 28.8755 27.8849 27.8233C28.8604 26.7411 29.3189 25.1962 28.76 23.5817C27.4894 19.9119 24.68 16.959 21.1019 15.4973ZM11.5 10C11.5 7.51472 13.5147 5.5 16 5.5C18.4853 5.5 20.5 7.51472 20.5 10C20.5 12.4853 18.4853 14.5 16 14.5C13.5147 14.5 11.5 12.4853 11.5 10ZM16 17.5C15.9356 17.5 15.8713 17.5006 15.8072 17.5017L14.7272 20.8617L16 21.9931L17.2728 20.8617L16.1928 17.5017C16.1287 17.5006 16.0644 17.5 16 17.5ZM25.9251 24.5632C24.8861 21.5622 22.5249 19.1804 19.5401 18.1118L20.428 20.8743C20.6099 21.44 20.4406 22.0597 19.9965 22.4544L16.9965 25.1211C16.4282 25.6263 15.5718 25.6263 15.0035 25.1211L12.0035 22.4544C11.5594 22.0597 11.3901 21.44 11.572 20.8743L12.4599 18.1118C9.47511 19.1804 7.11392 21.5622 6.07494 24.5632C5.91117 25.0362 6.01929 25.4551 6.34348 25.8148C6.69477 26.2045 7.29874 26.5 8 26.5H24C24.7013 26.5 25.3052 26.2045 25.6565 25.8148C25.9807 25.4551 26.0888 25.0362 25.9251 24.5632Z" fill="#808080"/>
</svg>
