<svg width="32" height="32" viewBox="0 0 32 32" fill="none" xmlns="http://www.w3.org/2000/svg">
<path fill-rule="evenodd" clip-rule="evenodd" d="M10.8979 15.4973C7.31994 16.959 4.51049 19.9119 3.23995 23.5817C2.68096 25.1962 3.13953 26.7411 4.115 27.8233C5.06338 28.8755 6.49203 29.5 7.99991 29.5L23.9999 29.5C25.5078 29.5 26.9364 28.8755 27.8848 27.8233C28.8603 26.7411 29.3189 25.1962 28.7599 23.5817C27.4893 19.9119 24.6799 16.959 21.1018 15.4973C22.5769 14.1277 23.4999 12.1716 23.4999 10C23.4999 8.31159 22.942 6.75349 22.0004 5.5L24.9999 5.5C25.8283 5.5 26.4999 4.82843 26.4999 4C26.4999 3.17157 25.8283 2.5 24.9999 2.5L4.99988 2.5C4.17145 2.5 3.49988 3.17157 3.49988 4C3.49988 4.65311 3.91728 5.20873 4.49988 5.41465L4.49988 8C4.49988 8.82843 5.17145 9.5 5.99988 9.5C6.82831 9.5 7.49988 8.82843 7.49988 8L7.49988 5.5H9.99933C9.0578 6.75349 8.49988 8.31159 8.49988 10C8.49988 12.1716 9.42286 14.1277 10.8979 15.4973ZM6.07485 24.5632C7.49889 20.45 11.4068 17.5 15.9999 17.5C20.593 17.5 24.5009 20.45 25.925 24.5632C26.0887 25.0362 25.9806 25.4551 25.6564 25.8148C25.3051 26.2045 24.7012 26.5 23.9999 26.5H7.99991C7.29865 26.5 6.69467 26.2045 6.34339 25.8148C6.0192 25.4551 5.91108 25.0362 6.07485 24.5632ZM11.4999 10C11.4999 7.51472 13.5146 5.5 15.9999 5.5C18.4852 5.5 20.4999 7.51472 20.4999 10C20.4999 12.4853 18.4852 14.5 15.9999 14.5C13.5146 14.5 11.4999 12.4853 11.4999 10Z" fill="#808080"/>
</svg>
