<svg width="32" height="32" viewBox="0 0 32 32" fill="none" xmlns="http://www.w3.org/2000/svg">
<path d="M25.4999 19C25.4999 18.1716 24.8283 17.5 23.9999 17.5C23.1715 17.5 22.4999 18.1716 22.4999 19V22.5H18.9999C18.1715 22.5 17.4999 23.1716 17.4999 24C17.4999 24.8284 18.1715 25.5 18.9999 25.5H22.4999V29C22.4999 29.8284 23.1715 30.5 23.9999 30.5C24.8283 30.5 25.4999 29.8284 25.4999 29V25.5H28.9999C29.8283 25.5 30.4999 24.8284 30.4999 24C30.4999 23.1716 29.8283 22.5 28.9999 22.5H25.4999V19Z" fill="#808080"/>
<path fill-rule="evenodd" clip-rule="evenodd" d="M15.997 17.5C11.4052 17.5013 7.49859 20.4509 6.07485 24.5632C5.91108 25.0362 6.0192 25.4551 6.34339 25.8148C6.69467 26.2045 7.29865 26.5 7.99991 26.5L15.9999 26.5C16.8283 26.5 17.4999 27.1716 17.4999 28C17.4999 28.8284 16.8283 29.5 15.9999 29.5L7.99991 29.5C6.49203 29.5 5.06338 28.8755 4.115 27.8233C3.13953 26.7411 2.68096 25.1962 3.23995 23.5817C4.51049 19.9119 7.31994 16.959 10.8979 15.4973C9.42286 14.1277 8.49988 12.1716 8.49988 10C8.49988 8.31159 9.0578 6.75349 9.99933 5.5H7.49988L7.49988 8C7.49988 8.82843 6.82831 9.5 5.99988 9.5C5.17145 9.5 4.49988 8.82843 4.49988 8L4.49988 5.41465C3.91728 5.20873 3.49988 4.65311 3.49988 4C3.49988 3.17157 4.17145 2.5 4.99988 2.5L24.9999 2.5C25.8283 2.5 26.4999 3.17157 26.4999 4C26.4999 4.82843 25.8283 5.5 24.9999 5.5L22.0004 5.5C22.942 6.75349 23.4999 8.31159 23.4999 10C23.4999 14.1421 20.142 17.5 15.9999 17.5L15.997 17.5ZM11.4999 10C11.4999 7.51472 13.5146 5.5 15.9999 5.5C18.4852 5.5 20.4999 7.51472 20.4999 10C20.4999 12.4853 18.4852 14.5 15.9999 14.5C13.5146 14.5 11.4999 12.4853 11.4999 10Z" fill="#808080"/>
</svg>
