<svg width="32" height="32" viewBox="0 0 32 32" fill="none" xmlns="http://www.w3.org/2000/svg">
<path fill-rule="evenodd" clip-rule="evenodd" d="M10.8981 15.4973C7.32006 16.959 4.51061 19.9119 3.24007 23.5817C2.68109 25.1962 3.13965 26.7411 4.11513 27.8233C5.0635 28.8755 6.49215 29.5 8.00003 29.5L24 29.5C25.5079 29.5 26.9366 28.8755 27.8849 27.8233C28.8604 26.7411 29.319 25.1962 28.76 23.5817C27.4894 19.9119 24.68 16.959 21.102 15.4973C22.577 14.1277 23.5 12.1716 23.5 10C23.5 8.31159 22.9421 6.75349 22.0006 5.5L25 5.5C25.8284 5.5 26.5 4.82843 26.5 4C26.5 3.17157 25.8284 2.5 25 2.5L5 2.5C4.17157 2.5 3.5 3.17157 3.5 4C3.5 4.65311 3.91741 5.20873 4.5 5.41465L4.5 8C4.5 8.82843 5.17157 9.5 6 9.5C6.82843 9.5 7.5 8.82843 7.5 8L7.5 5.5H9.99945C9.05792 6.75349 8.5 8.31159 8.5 10C8.5 12.1716 9.42298 14.1277 10.8981 15.4973ZM6.07497 24.5632C7.49901 20.45 11.407 17.5 16 17.5C20.5931 17.5 24.5011 20.45 25.9251 24.5632C26.0889 25.0362 25.9807 25.4551 25.6566 25.8148C25.3053 26.2045 24.7013 26.5 24 26.5H8.00003C7.29877 26.5 6.6948 26.2045 6.34351 25.8148C6.01932 25.4551 5.9112 25.0362 6.07497 24.5632ZM11.5 10C11.5 7.51472 13.5147 5.5 16 5.5C18.4853 5.5 20.5 7.51472 20.5 10C20.5 12.4853 18.4853 14.5 16 14.5C13.5147 14.5 11.5 12.4853 11.5 10Z" fill="#808080"/>
</svg>
