<svg width="32" height="32" viewBox="0 0 32 32" fill="none" xmlns="http://www.w3.org/2000/svg">
<path d="M8.06066 27.9393C8.64645 28.5251 8.64645 29.4749 8.06066 30.0607C7.47487 30.6464 6.52513 30.6464 5.93934 30.0607L1.93934 26.0607C1.64645 25.7678 1.5 25.3839 1.5 25C1.5 24.7966 1.54048 24.6027 1.61382 24.4258C1.68702 24.2489 1.79553 24.0832 1.93934 23.9393L5.93934 19.9393C6.52513 19.3536 7.47487 19.3536 8.06066 19.9393C8.64645 20.5251 8.64645 21.4749 8.06066 22.0607L6.62132 23.5H23C25.4853 23.5 27.5 21.4853 27.5 19V17C27.5 16.1716 28.1716 15.5 29 15.5C29.8284 15.5 30.5 16.1716 30.5 17V19C30.5 23.1421 27.1421 26.5 23 26.5H6.62132L8.06066 27.9393Z" fill="#808080"/>
<path d="M30.3862 6.42582C30.4595 6.60269 30.5 6.79662 30.5 7C30.5 7.20338 30.4595 7.39731 30.3862 7.57417C30.313 7.75109 30.2045 7.91685 30.0607 8.06066L26.0607 12.0607C25.4749 12.6464 24.5251 12.6464 23.9393 12.0607C23.3536 11.4749 23.3536 10.5251 23.9393 9.93934L25.3787 8.5H9C6.51472 8.5 4.5 10.5147 4.5 13V15C4.5 15.8284 3.82843 16.5 3 16.5C2.17157 16.5 1.5 15.8284 1.5 15V13C1.5 8.85786 4.85786 5.5 9 5.5H25.3787L23.9393 4.06066C23.3536 3.47487 23.3536 2.52513 23.9393 1.93934C24.5251 1.35355 25.4749 1.35355 26.0607 1.93934L30.0607 5.93934C30.2045 6.08315 30.313 6.24891 30.3862 6.42582Z" fill="#808080"/>
</svg>
