<svg width="32" height="32" viewBox="0 0 32 32" fill="none" xmlns="http://www.w3.org/2000/svg">
<path d="M12 9C10.3431 9 9 10.3431 9 12C9 13.6569 10.3431 15 12 15C13.6569 15 15 13.6569 15 12C15 10.3431 13.6569 9 12 9Z" fill="#808080"/>
<path fill-rule="evenodd" clip-rule="evenodd" d="M7 3.5C5.067 3.5 3.5 5.067 3.5 7V15.1716C3.5 16.0998 3.86875 16.9901 4.52513 17.6464L15.5251 28.6464C16.892 30.0133 19.108 30.0133 20.4749 28.6464L28.6464 20.4749C30.0133 19.108 30.0133 16.892 28.6464 15.5251L17.6464 4.52513C16.9901 3.86875 16.0998 3.5 15.1716 3.5H7ZM6.5 7C6.5 6.72386 6.72386 6.5 7 6.5H15.1716C15.3042 6.5 15.4314 6.55268 15.5251 6.64645L26.5251 17.6464C26.7204 17.8417 26.7204 18.1583 26.5251 18.3536L18.3536 26.5251C18.1583 26.7204 17.8417 26.7204 17.6464 26.5251L6.64645 15.5251C6.55268 15.4314 6.5 15.3042 6.5 15.1716V7Z" fill="#808080"/>
</svg>
