<svg width="32" height="33" viewBox="0 0 32 33" fill="none" xmlns="http://www.w3.org/2000/svg">
<path fill-rule="evenodd" clip-rule="evenodd" d="M6 4C5.17157 4 4.5 4.67157 4.5 5.5V27.5C4.5 28.3284 5.17157 29 6 29H20.5C24.366 29 27.5 25.866 27.5 22C27.5 19.2655 25.9321 16.8973 23.6462 15.7452C24.797 14.4978 25.5 12.831 25.5 11C25.5 7.13401 22.366 4 18.5 4H6ZM18.5 15C20.7091 15 22.5 13.2091 22.5 11C22.5 8.79086 20.7091 7 18.5 7H7.5V15H18.5ZM7.5 18V26H20.5C22.7091 26 24.5 24.2091 24.5 22C24.5 19.7909 22.7091 18 20.5 18H7.5Z" fill="#808080"/>
</svg>
