<svg width="32" height="32" viewBox="0 0 32 32" fill="none" xmlns="http://www.w3.org/2000/svg">
<path d="M4 5.5C3.17157 5.5 2.5 6.17157 2.5 7C2.5 7.82843 3.17157 8.5 4 8.5H28C28.8284 8.5 29.5 7.82843 29.5 7C29.5 6.17157 28.8284 5.5 28 5.5H4Z" fill="#808080"/>
<path d="M4 17.5C3.17157 17.5 2.5 18.1716 2.5 19C2.5 19.8284 3.17157 20.5 4 20.5H28C28.8284 20.5 29.5 19.8284 29.5 19C29.5 18.1716 28.8284 17.5 28 17.5H4Z" fill="#808080"/>
<path d="M2.5 13C2.5 12.1716 3.17157 11.5 4 11.5H20C20.8284 11.5 21.5 12.1716 21.5 13C21.5 13.8284 20.8284 14.5 20 14.5H4C3.17157 14.5 2.5 13.8284 2.5 13Z" fill="#808080"/>
<path d="M4 23.5C3.17157 23.5 2.5 24.1716 2.5 25C2.5 25.8284 3.17157 26.5 4 26.5H20C20.8284 26.5 21.5 25.8284 21.5 25C21.5 24.1716 20.8284 23.5 20 23.5H4Z" fill="#808080"/>
</svg>
