<svg width="32" height="32" viewBox="0 0 32 32" fill="none" xmlns="http://www.w3.org/2000/svg">
<path fill-rule="evenodd" clip-rule="evenodd" d="M9.87254 4.74534C9.78478 4.68792 9.69139 4.63994 9.59408 4.60206C9.23193 4.46073 8.845 4.47 8.50573 4.60206C8.40842 4.63994 8.31503 4.68792 8.22727 4.74534C8.182 4.77495 8.13873 4.80675 8.09756 4.84054C7.92273 4.98392 7.77778 5.16915 7.67955 5.38978L0.629445 21.2246C0.292494 21.9814 0.632853 22.868 1.38966 23.205C2.14646 23.5419 3.03313 23.2016 3.37008 22.4448L5.57169 17.4999H12.5281L14.7297 22.4448C15.0667 23.2016 15.9533 23.5419 16.7102 23.205C17.467 22.868 17.8073 21.9814 17.4704 21.2246L10.4203 5.38978C10.322 5.16915 10.1771 4.98392 10.0023 4.84054C9.96108 4.80675 9.91782 4.77495 9.87254 4.74534ZM11.1924 14.4999L9.04991 9.68768L6.90738 14.4999H11.1924ZM27.5644 11.5635C26.5409 10.8911 25.3161 10.4999 24 10.4999C20.4101 10.4999 17.5 13.41 17.5 16.9999C17.5 20.5897 20.4101 23.4999 24 23.4999C25.3161 23.4999 26.5409 23.1087 27.5644 22.4363C27.7513 23.0518 28.3233 23.4999 29 23.4999C29.8284 23.4999 30.5 22.8283 30.5 21.9999V16.9999V11.9999C30.5 11.1715 29.8284 10.4999 29 10.4999C28.3233 10.4999 27.7513 10.9479 27.5644 11.5635ZM27.5 16.9999C27.5 18.9329 25.933 20.4999 24 20.4999C22.067 20.4999 20.5 18.9329 20.5 16.9999C20.5 15.0669 22.067 13.4999 24 13.4999C25.933 13.4999 27.5 15.0669 27.5 16.9999Z" fill="#808080"/>
</svg>
