<svg width="32" height="33" viewBox="0 0 32 33" fill="none" xmlns="http://www.w3.org/2000/svg">
<path d="M8.5 4.5C8.5 3.67157 7.82843 3 7 3C6.17157 3 5.5 3.67157 5.5 4.5V15.5C5.5 21.299 10.201 26 16 26C21.799 26 26.5 21.299 26.5 15.5V4.5C26.5 3.67157 25.8284 3 25 3C24.1716 3 23.5 3.67157 23.5 4.5V15.5C23.5 19.6421 20.1421 23 16 23C11.8579 23 8.5 19.6421 8.5 15.5V4.5Z" fill="#808080"/>
<path d="M5 28C4.17157 28 3.5 28.6716 3.5 29.5C3.5 30.3284 4.17157 31 5 31H27C27.8284 31 28.5 30.3284 28.5 29.5C28.5 28.6716 27.8284 28 27 28H5Z" fill="#808080"/>
</svg>
