<svg width="32" height="32" viewBox="0 0 32 32" fill="none" xmlns="http://www.w3.org/2000/svg">
<path d="M4 5.5C3.17157 5.5 2.5 6.17157 2.5 7C2.5 7.82843 3.17157 8.5 4 8.5H28C28.8284 8.5 29.5 7.82843 29.5 7C29.5 6.17157 28.8284 5.5 28 5.5H4Z" fill="#808080"/>
<path d="M4 17.5C3.17157 17.5 2.5 18.1716 2.5 19C2.5 19.8284 3.17157 20.5 4 20.5H28C28.8284 20.5 29.5 19.8284 29.5 19C29.5 18.1716 28.8284 17.5 28 17.5H4Z" fill="#808080"/>
<path d="M10.5 13C10.5 12.1716 11.1716 11.5 12 11.5H28C28.8284 11.5 29.5 12.1716 29.5 13C29.5 13.8284 28.8284 14.5 28 14.5H12C11.1716 14.5 10.5 13.8284 10.5 13Z" fill="#808080"/>
<path d="M12 23.5C11.1716 23.5 10.5 24.1716 10.5 25C10.5 25.8284 11.1716 26.5 12 26.5H28C28.8284 26.5 29.5 25.8284 29.5 25C29.5 24.1716 28.8284 23.5 28 23.5H12Z" fill="#808080"/>
</svg>
