<svg width="32" height="32" viewBox="0 0 32 32" fill="none" xmlns="http://www.w3.org/2000/svg">
<path d="M4 5.5C3.17157 5.5 2.5 6.17157 2.5 7C2.5 7.82843 3.17157 8.5 4 8.5H28C28.8284 8.5 29.5 7.82843 29.5 7C29.5 6.17157 28.8284 5.5 28 5.5H4Z" fill="#808080"/>
<path d="M4 17.5C3.17157 17.5 2.5 18.1716 2.5 19C2.5 19.8284 3.17157 20.5 4 20.5H28C28.8284 20.5 29.5 19.8284 29.5 19C29.5 18.1716 28.8284 17.5 28 17.5H4Z" fill="#808080"/>
<path d="M6.5 13C6.5 12.1716 7.17157 11.5 8 11.5H24C24.8284 11.5 25.5 12.1716 25.5 13C25.5 13.8284 24.8284 14.5 24 14.5H8C7.17157 14.5 6.5 13.8284 6.5 13Z" fill="#808080"/>
<path d="M8 23.5C7.17157 23.5 6.5 24.1716 6.5 25C6.5 25.8284 7.17157 26.5 8 26.5H24C24.8284 26.5 25.5 25.8284 25.5 25C25.5 24.1716 24.8284 23.5 24 23.5H8Z" fill="#808080"/>
</svg>
