<svg width="32" height="32" viewBox="0 0 32 32" fill="none" xmlns="http://www.w3.org/2000/svg">
<path d="M26 18.5C27.3807 18.5 28.5 17.3807 28.5 16C28.5 14.6193 27.3807 13.5 26 13.5C24.6193 13.5 23.5 14.6193 23.5 16C23.5 17.3807 24.6193 18.5 26 18.5Z" fill="#808080"/>
<path d="M6.00001 18.5C7.38072 18.5 8.50002 17.3808 8.50002 16C8.50002 14.6193 7.38072 13.5 6.00001 13.5C4.6193 13.5 3.5 14.6193 3.5 16C3.5 17.3808 4.6193 18.5 6.00001 18.5Z" fill="#808080"/>
<path d="M18.5 16C18.5 17.3807 17.3807 18.5 16 18.5C14.6193 18.5 13.5 17.3807 13.5 16C13.5 14.6193 14.6193 13.5 16 13.5C17.3807 13.5 18.5 14.6193 18.5 16Z" fill="#808080"/>
</svg>
