<svg width="32" height="32" viewBox="0 0 32 32" fill="none" xmlns="http://www.w3.org/2000/svg">
<path d="M13.5 6.00001C13.5 7.38072 14.6193 8.50002 16 8.50002C17.3807 8.50002 18.5 7.38072 18.5 6.00001C18.5 4.6193 17.3807 3.5 16 3.5C14.6193 3.5 13.5 4.6193 13.5 6.00001Z" fill="#808080"/>
<path d="M13.5 26C13.5 27.3807 14.6193 28.5 16 28.5C17.3807 28.5 18.5 27.3807 18.5 26C18.5 24.6193 17.3807 23.5 16 23.5C14.6193 23.5 13.5 24.6193 13.5 26Z" fill="#808080"/>
<path d="M16 18.5C14.6193 18.5 13.5 17.3807 13.5 16C13.5 14.6193 14.6193 13.5 16 13.5C17.3807 13.5 18.5 14.6193 18.5 16C18.5 17.3807 17.3807 18.5 16 18.5Z" fill="#808080"/>
</svg>
