<svg width="32" height="32" viewBox="0 0 32 32" fill="none" xmlns="http://www.w3.org/2000/svg">
<path fill-rule="evenodd" clip-rule="evenodd" d="M2 16C2 8.26801 8.26801 2 16 2C23.732 2 30 8.26801 30 16C30 23.732 23.732 30 16 30C8.26801 30 2 23.732 2 16ZM23.0607 13.0607C23.6464 12.4749 23.6464 11.5251 23.0607 10.9393C22.4749 10.3536 21.5251 10.3536 20.9393 10.9393L14 17.8787L11.0607 14.9393C10.4749 14.3536 9.52513 14.3536 8.93934 14.9393C8.35355 15.5251 8.35355 16.4749 8.93934 17.0607L12.9393 21.0607C13.5251 21.6464 14.4749 21.6464 15.0607 21.0607L23.0607 13.0607Z" fill="#808080"/>
</svg>
