<svg width="32" height="32" viewBox="0 0 32 32" fill="none" xmlns="http://www.w3.org/2000/svg">
<path d="M16 2C8.26801 2 2 8.26801 2 16C2 23.732 8.26801 30 16 30C23.732 30 30 23.732 30 16C30 8.26801 23.732 2 16 2Z" fill="#808080"/>
<path fill-rule="evenodd" clip-rule="evenodd" d="M23.0607 10.9393C23.6464 11.5251 23.6464 12.4749 23.0607 13.0607L15.0607 21.0607C14.4749 21.6464 13.5251 21.6464 12.9393 21.0607L8.93934 17.0607C8.35355 16.4749 8.35355 15.5251 8.93934 14.9393C9.52513 14.3536 10.4749 14.3536 11.0607 14.9393L14 17.8787L20.9393 10.9393C21.5251 10.3536 22.4749 10.3536 23.0607 10.9393Z" fill="white"/>
</svg>
