<svg width="32" height="32" viewBox="0 0 32 32" fill="none" xmlns="http://www.w3.org/2000/svg">
<path d="M23.0607 13.0607C23.6464 12.4749 23.6464 11.5251 23.0607 10.9393C22.4749 10.3536 21.5251 10.3536 20.9393 10.9393L14 17.8787L11.0607 14.9393C10.4749 14.3536 9.52513 14.3536 8.93934 14.9393C8.35355 15.5251 8.35355 16.4749 8.93934 17.0607L12.9393 21.0607C13.5251 21.6464 14.4749 21.6464 15.0607 21.0607L23.0607 13.0607Z" fill="#808080"/>
<path fill-rule="evenodd" clip-rule="evenodd" d="M16 1.5C7.99187 1.5 1.5 7.99187 1.5 16C1.5 24.0081 7.99187 30.5 16 30.5C24.0081 30.5 30.5 24.0081 30.5 16C30.5 7.99187 24.0081 1.5 16 1.5ZM4.5 16C4.5 9.64873 9.64873 4.5 16 4.5C22.3513 4.5 27.5 9.64873 27.5 16C27.5 22.3513 22.3513 27.5 16 27.5C9.64873 27.5 4.5 22.3513 4.5 16Z" fill="#808080"/>
</svg>
