<svg width="32" height="32" viewBox="0 0 32 32" fill="none" xmlns="http://www.w3.org/2000/svg">
<path fill-rule="evenodd" clip-rule="evenodd" d="M8 1.5C4.96243 1.5 2.5 3.96243 2.5 7V17C2.5 20.0376 4.96243 22.5 8 22.5H24C27.0376 22.5 29.5 20.0376 29.5 17V7C29.5 3.96243 27.0376 1.5 24 1.5H8ZM5.5 7C5.5 5.61929 6.61929 4.5 8 4.5H24C25.3807 4.5 26.5 5.61929 26.5 7V17C26.5 18.3807 25.3807 19.5 24 19.5H8C6.61929 19.5 5.5 18.3807 5.5 17V7Z" fill="#808080"/>
<path d="M5 25.5C4.17157 25.5 3.5 26.1716 3.5 27C3.5 27.8284 4.17157 28.5 5 28.5H21C21.8284 28.5 22.5 27.8284 22.5 27C22.5 26.1716 21.8284 25.5 21 25.5H5Z" fill="#808080"/>
</svg>
