<svg width="32" height="32" viewBox="0 0 32 32" fill="none" xmlns="http://www.w3.org/2000/svg">
<path d="M17.2113 8.35932L17.2066 8.36864C17.0742 8.63352 17.0278 8.94929 17.0278 9.27824V14.0662C17.0278 14.2964 17.0001 14.5091 16.947 14.7063C16.8988 14.8855 16.8211 15.0443 16.7138 15.1864C16.6187 15.3037 16.4886 15.406 16.3103 15.4883L16.3035 15.4915C16.1547 15.5629 15.9484 15.6102 15.6658 15.6102C15.3861 15.6102 15.1727 15.5638 15.0107 15.4898C14.8458 15.4101 14.7195 15.3101 14.6226 15.1921C14.5209 15.0472 14.4404 14.8833 14.3823 14.6976C14.3308 14.5029 14.3038 14.293 14.3038 14.0662V9.27824C14.3038 8.94967 14.2531 8.63187 14.1091 8.3644C14.0011 8.14065 13.8559 7.94011 13.6607 7.78993C13.4875 7.65669 13.2925 7.56286 13.0784 7.51736C12.9214 7.4763 12.7631 7.44824 12.6138 7.44824C12.4575 7.44824 12.2947 7.47553 12.1321 7.51819C11.9239 7.56499 11.7352 7.66051 11.567 7.78993C11.3738 7.93855 11.2243 8.13713 11.1074 8.35937L11.1026 8.36864C10.9702 8.63352 10.9238 8.94929 10.9238 9.27824V14.2622C10.9238 14.9149 11.0311 15.5244 11.253 16.0844L11.2542 16.0875C11.4754 16.6351 11.7937 17.1138 12.2089 17.5184L12.2137 17.523C12.6315 17.9193 13.134 18.2236 13.7123 18.4404C14.2997 18.6607 14.9486 18.7662 15.6518 18.7662C16.3462 18.7662 16.9897 18.6606 17.576 18.4409C18.1621 18.2248 18.6728 17.9219 19.0993 17.5273L19.1042 17.5227C19.5297 17.1186 19.8543 16.6392 20.0766 16.0897C20.3092 15.5282 20.4218 14.9169 20.4218 14.2622V9.27824C20.4218 8.94968 20.3711 8.63187 20.2271 8.36441C20.1191 8.14065 19.9739 7.94011 19.7787 7.78993C19.6055 7.65669 19.4105 7.56286 19.1964 7.51736C19.0394 7.4763 18.8811 7.44824 18.7318 7.44824C18.5755 7.44824 18.4127 7.47552 18.2501 7.51818C18.0455 7.56414 17.8569 7.65671 17.6852 7.77938L17.678 7.78453L17.671 7.78993C17.4778 7.93855 17.3282 8.13708 17.2113 8.35932Z" fill="#808080"/>
<path fill-rule="evenodd" clip-rule="evenodd" d="M9 1.5C5.96243 1.5 3.5 3.96243 3.5 7V25C3.5 28.0376 5.96243 30.5 9 30.5H23C26.0376 30.5 28.5 28.0376 28.5 25V7C28.5 3.96243 26.0376 1.5 23 1.5H9ZM25.5 17V7C25.5 5.61929 24.3807 4.5 23 4.5H9C7.61929 4.5 6.5 5.61929 6.5 7V21.5H21C23.4853 21.5 25.5 19.4853 25.5 17ZM6.5 24.5H21C22.6884 24.5 24.2465 23.9421 25.5 23.0005V25C25.5 26.3807 24.3807 27.5 23 27.5H9C7.61929 27.5 6.5 26.3807 6.5 25V24.5Z" fill="#808080"/>
</svg>
