<svg width="32" height="32" viewBox="0 0 32 32" fill="none" xmlns="http://www.w3.org/2000/svg">
<path d="M22.9393 13.0607C23.5251 13.6464 24.4749 13.6464 25.0607 13.0607C25.6464 12.4749 25.6464 11.5251 25.0607 10.9393L17.0607 2.93934C16.9132 2.79183 16.7426 2.68147 16.5605 2.60825C16.3873 2.53843 16.1981 2.5 16 2.5C15.7911 2.5 15.5923 2.54268 15.4116 2.61979C15.2617 2.68364 15.1201 2.77301 14.9934 2.8879C14.9729 2.90643 14.953 2.92552 14.9335 2.94514L6.93934 10.9393C6.35355 11.5251 6.35355 12.4749 6.93934 13.0607C7.52513 13.6464 8.47487 13.6464 9.06066 13.0607L14.5 7.62135L14.5 28C14.5 28.8284 15.1715 29.5 16 29.5C16.8284 29.5 17.5 28.8284 17.5 28L17.5 7.62129L22.9393 13.0607Z" fill="#808080"/>
</svg>
