<svg width="32" height="32" viewBox="0 0 32 32" fill="none" xmlns="http://www.w3.org/2000/svg">
<path d="M2.93934 8.93934C2.35355 9.52513 2.35355 10.4749 2.93934 11.0607C3.52513 11.6464 4.47487 11.6464 5.06066 11.0607L8.5 7.62132L8.5 20C8.5 20.8284 9.17157 21.5 10 21.5C10.8284 21.5 11.5 20.8284 11.5 20L11.5 7.62132L14.9393 11.0607C15.5251 11.6464 16.4749 11.6464 17.0607 11.0607C17.6464 10.4749 17.6464 9.52513 17.0607 8.93934L11.0607 2.93934C10.7794 2.65804 10.3978 2.5 10 2.5C9.60218 2.5 9.22064 2.65804 8.93934 2.93934L2.93934 8.93934Z" fill="#808080"/>
<path d="M23.5 24.3787L23.5 12C23.5 11.1716 22.8284 10.5 22 10.5C21.1716 10.5 20.5 11.1716 20.5 12L20.5 24.3787L17.0607 20.9393C16.4749 20.3536 15.5251 20.3536 14.9393 20.9393C14.3536 21.5251 14.3536 22.4749 14.9393 23.0607L20.9393 29.0607C21.2206 29.342 21.6022 29.5 22 29.5C22.3978 29.5 22.7794 29.342 23.0607 29.0607L29.0607 23.0607C29.6464 22.4749 29.6464 21.5251 29.0607 20.9393C28.4749 20.3536 27.5251 20.3536 26.9393 20.9393L23.5 24.3787Z" fill="#808080"/>
</svg>
