<svg width="32" height="32" viewBox="0 0 32 32" fill="none" xmlns="http://www.w3.org/2000/svg">
<path fill-rule="evenodd" clip-rule="evenodd" d="M12.2219 11.6213L17.1107 6.6213V25.3787L12.2219 20.3787V11.6213ZM10.1477 9.5L15.8711 3.64643C17.411 2.07151 20.044 3.18694 20.044 5.41419V26.5858C20.044 28.813 17.411 29.9284 15.8711 28.3535L10.1478 22.5H4.88871C2.9987 22.5 1.46655 20.933 1.46655 19V13C1.46655 11.067 2.9987 9.5 4.88871 9.5H10.1477ZM9.28862 12.5H4.88871C4.61871 12.5 4.39983 12.7239 4.39983 13V19C4.39983 19.2761 4.61871 19.5 4.88871 19.5H9.28862V12.5ZM24.0492 11.4039C23.4764 10.8181 22.5478 10.8181 21.975 11.4039C21.4023 11.9897 21.4023 12.9395 21.975 13.5252C23.3115 14.8921 23.3115 17.1082 21.975 18.475C21.4023 19.0608 21.4023 20.0105 21.975 20.5963C22.5478 21.1821 23.4764 21.1821 24.0492 20.5963C26.5311 18.0579 26.5311 13.9423 24.0492 11.4039ZM24.7405 8.57531C25.3132 7.98952 26.2419 7.98952 26.8146 8.57531C30.8239 12.6758 30.8239 19.324 26.8146 23.4246C26.2419 24.0103 25.3132 24.0103 24.7405 23.4246C24.1677 22.8388 24.1677 21.889 24.7405 21.3032C27.6043 18.3743 27.6043 13.6256 24.7405 10.6966C24.1677 10.1108 24.1677 9.1611 24.7405 8.57531Z" fill="#808080"/>
</svg>
