<svg width="32" height="32" viewBox="0 0 32 32" fill="none" xmlns="http://www.w3.org/2000/svg">
<path d="M11.5 15C11.5 15.8284 10.8284 16.5 10 16.5C9.17157 16.5 8.5 15.8284 8.5 15C8.5 14.1716 9.17157 13.5 10 13.5C10.8284 13.5 11.5 14.1716 11.5 15Z" fill="#808080"/>
<path d="M14 13.5C13.1716 13.5 12.5 14.1716 12.5 15C12.5 15.8284 13.1716 16.5 14 16.5H22C22.8284 16.5 23.5 15.8284 23.5 15C23.5 14.1716 22.8284 13.5 22 13.5H14Z" fill="#808080"/>
<path d="M11.5 20C11.5 20.8284 10.8284 21.5 10 21.5C9.17157 21.5 8.5 20.8284 8.5 20C8.5 19.1716 9.17157 18.5 10 18.5C10.8284 18.5 11.5 19.1716 11.5 20Z" fill="#808080"/>
<path d="M14 18.5C13.1716 18.5 12.5 19.1716 12.5 20C12.5 20.8284 13.1716 21.5 14 21.5H22C22.8284 21.5 23.5 20.8284 23.5 20C23.5 19.1716 22.8284 18.5 22 18.5H14Z" fill="#808080"/>
<path fill-rule="evenodd" clip-rule="evenodd" d="M23.1643 3.50241C26.1259 3.58931 28.5 6.0174 28.5 9V25C28.5 28.0376 26.0376 30.5 23 30.5H9C5.96243 30.5 3.5 28.0376 3.5 25V9C3.5 6.0174 5.87412 3.58931 8.83567 3.50241C9.39691 2.31864 10.6029 1.5 12 1.5H20C21.3971 1.5 22.6031 2.31864 23.1643 3.50241ZM8.83924 6.50509C7.53344 6.58796 6.5 7.67329 6.5 9V25C6.5 26.3807 7.61929 27.5 9 27.5H23C24.3807 27.5 25.5 26.3807 25.5 25V9C25.5 7.67329 24.4666 6.58796 23.1608 6.50509C22.598 7.68482 21.3942 8.5 20 8.5H12C10.6058 8.5 9.40201 7.68482 8.83924 6.50509ZM20 4.5C20.2761 4.5 20.5 4.72386 20.5 5C20.5 5.27614 20.2761 5.5 20 5.5H12C11.7239 5.5 11.5 5.27614 11.5 5C11.5 4.72386 11.7239 4.5 12 4.5H20Z" fill="#808080"/>
</svg>
