<svg width="32" height="32" viewBox="0 0 32 32" fill="none" xmlns="http://www.w3.org/2000/svg">
<path d="M4 20.0963C4 18.9385 4.93854 18 6.09628 18H11.9037C13.0615 18 14 18.9385 14 20.0963V25.9037C14 27.0615 13.0615 28 11.9037 28H6.09628C4.93854 28 4 27.0615 4 25.9037V20.0963Z" stroke="#808080" stroke-width="3" stroke-linecap="round" stroke-linejoin="round"/>
<path d="M10.1727 10.7409L14.2558 4.61631C15.0855 3.37168 16.9145 3.37168 17.7442 4.61631L21.8273 10.7409C22.756 12.134 21.7574 14 20.0831 14H11.9169C10.2426 14 9.24399 12.134 10.1727 10.7409Z" stroke="#808080" stroke-width="3" stroke-linecap="round" stroke-linejoin="round"/>
<path d="M28 23C28 25.7614 25.7614 28 23 28C20.2386 28 18 25.7614 18 23C18 20.2386 20.2386 18 23 18C25.7614 18 28 20.2386 28 23Z" stroke="#808080" stroke-width="3"/>
</svg>
