<svg width="32" height="32" viewBox="0 0 32 32" fill="none" xmlns="http://www.w3.org/2000/svg">
<path d="M14.0001 9.00049C14.0001 8.17206 13.3285 7.50049 12.5001 7.50049H9.50012C8.67169 7.50049 8.00012 8.17206 8.00012 9.00049C8.00012 9.82892 8.67169 10.5005 9.50012 10.5005H11.0001L11.0001 11.0005L11.0001 11.5005H9.50012C8.6717 11.5005 8.00012 12.1721 8.00012 13.0005C8.00012 13.8289 8.6717 14.5005 9.50012 14.5005H11.0001V15.5005H9.50012C8.6717 15.5005 8.00012 16.1721 8.00012 17.0005C8.00012 17.8289 8.6717 18.5005 9.50012 18.5005H11.0001V19.5005H9.50012C8.6717 19.5005 8.00012 20.1721 8.00012 21.0005C8.00012 21.8289 8.6717 22.5005 9.50012 22.5005H11.0001V23.0005C11.0001 23.8289 11.6717 24.5005 12.5001 24.5005H15.5001C16.3285 24.5005 17.0001 23.8289 17.0001 23.0005C17.0001 22.1721 16.3285 21.5005 15.5001 21.5005H14.0001L14.0001 21.0005L14.0001 20.5005H15.5001C16.3285 20.5005 17.0001 19.8289 17.0001 19.0005C17.0001 18.1721 16.3285 17.5005 15.5001 17.5005H14.0001V16.5005H15.5001C16.3285 16.5005 17.0001 15.8289 17.0001 15.0005C17.0001 14.1721 16.3285 13.5005 15.5001 13.5005H14.0001L14.0001 12.5005H15.5001C16.3285 12.5005 17.0001 11.8289 17.0001 11.0005C17.0001 10.1721 16.3285 9.50049 15.5001 9.50049H14.0001V9.00049Z" fill="#808080"/>
<path fill-rule="evenodd" clip-rule="evenodd" d="M7.69243 2.50049C4.8248 2.50049 2.50012 4.82517 2.50012 7.6928L2.50012 24.3082C2.50012 27.1758 4.8248 29.5005 7.69243 29.5005H24.3078C27.1754 29.5005 29.5001 27.1758 29.5001 24.3082V7.6928C29.5001 4.82516 27.1754 2.50049 24.3078 2.50049L7.69243 2.50049ZM5.50012 7.6928C5.50012 6.48202 6.48165 5.50049 7.69243 5.50049H24.3078C25.5186 5.50049 26.5001 6.48202 26.5001 7.6928L26.5001 24.3082C26.5001 25.519 25.5186 26.5005 24.3078 26.5005H7.69243C6.48165 26.5005 5.50012 25.519 5.50012 24.3082L5.50012 7.6928Z" fill="#808080"/>
</svg>
